solid OpenSCAD_Model
  facet normal -0.802123192755044 -0.5971585917027858 0
    outer loop
      vertex -3.2556888832556568 -2.731847341167792 1.38
      vertex -3.550823198504979 -2.3354131568009264 0
      vertex -3.2556888832556568 -2.731847341167792 0
    endloop
  endfacet
  facet normal 0 0 -1
    outer loop
      vertex -3.550823198504979 -2.3354131568009264 0
      vertex -1.683339005666417 -3.9024184542411646 0
      vertex -2.537924014736841 -3.4090235692089363 0
    endloop
  endfacet
  facet normal -0.6427876096865399 -0.7660444431189777 -9.0710650895217e-18
    outer loop
      vertex -2.537924014736841 -3.4090235692089363 0
      vertex -2.916526960942118 -3.0913379766854563 1.38
      vertex -2.916526960942118 -3.0913379766854563 0
    endloop
  endfacet
  facet normal -0.5495089780708059 -0.8354878114129366 0
    outer loop
      vertex -2.125 -3.680607966083864 1.38
      vertex -2.537924014736841 -3.4090235692089363 0
      vertex -2.125 -3.680607966083864 0
    endloop
  endfacet
  facet normal 0 0 -1
    outer loop
      vertex -3.550823198504979 -2.3354131568009264 0
      vertex -2.537924014736841 -3.4090235692089363 0
      vertex -3.2556888832556568 -2.731847341167792 0
    endloop
  endfacet
  facet normal 0 0 -1
    outer loop
      vertex -3.2556888832556568 -2.731847341167792 0
      vertex -2.537924014736841 -3.4090235692089363 0
      vertex -2.916526960942118 -3.0913379766854563 0
    endloop
  endfacet
  facet normal -0.7273736415730485 -0.6862416378687339 0
    outer loop
      vertex -2.916526960942118 -3.0913379766854563 1.38
      vertex -3.2556888832556568 -2.731847341167792 0
      vertex -2.916526960942118 -3.0913379766854563 0
    endloop
  endfacet
  facet normal -0.8660254037844387 -0.5000000000000001 5.4659122244513715e-18
    outer loop
      vertex -3.797938721374502 -1.9073965158519635 1.38
      vertex -3.550823198504979 -2.3354131568009264 0
      vertex -3.550823198504979 -2.3354131568009264 1.38
    endloop
  endfacet
  facet normal -0.802123192755044 -0.5971585917027858 0
    outer loop
      vertex -3.550823198504979 -2.3354131568009264 0
      vertex -3.2556888832556568 -2.731847341167792 1.38
      vertex -3.550823198504979 -2.3354131568009264 1.38
    endloop
  endfacet
  facet normal -0.6427876096865399 -0.7660444431189777 -9.0710650895217e-18
    outer loop
      vertex -2.916526960942118 -3.0913379766854563 1.38
      vertex -2.537924014736841 -3.4090235692089363 0
      vertex -2.537924014736841 -3.4090235692089363 1.38
    endloop
  endfacet
  facet normal -0.5495089780708059 -0.8354878114129366 0
    outer loop
      vertex -2.537924014736841 -3.4090235692089363 0
      vertex -2.125 -3.680607966083864 1.38
      vertex -2.537924014736841 -3.4090235692089363 1.38
    endloop
  endfacet
  facet normal -0.7273736415730485 -0.6862416378687339 0
    outer loop
      vertex -3.2556888832556568 -2.731847341167792 1.38
      vertex -3.2556888832556568 -2.731847341167792 0
      vertex -2.916526960942118 -3.0913379766854563 1.38
    endloop
  endfacet
  facet normal 0 0 -1
    outer loop
      vertex -3.993693638340111 -1.453585609134092 0
      vertex -3.550823198504979 -2.3354131568009264 0
      vertex -3.797938721374502 -1.9073965158519635 0
    endloop
  endfacet
  facet normal 0 0 -1
    outer loop
      vertex -3.993693638340111 -1.453585609134092 0
      vertex -4.221263020403258 -0.4933948850322278 0
      vertex -3.550823198504979 -2.3354131568009264 0
    endloop
  endfacet
  facet normal -0.9182161068802737 -0.3960797660391576 0
    outer loop
      vertex -3.797938721374502 -1.9073965158519635 1.38
      vertex -3.993693638340111 -1.453585609134092 0
      vertex -3.797938721374502 -1.9073965158519635 0
    endloop
  endfacet
  facet normal -0.9579895123154891 -0.28680323271108954 7.19416772848982e-18
    outer loop
      vertex -3.993693638340111 -1.453585609134092 0
      vertex -4.135440699964251 -0.9801174506553714 1.38
      vertex -4.135440699964251 -0.9801174506553714 0
    endloop
  endfacet
  facet normal -0.8660254037844387 -0.5000000000000001 5.4659122244513715e-18
    outer loop
      vertex -3.550823198504979 -2.3354131568009264 0
      vertex -3.797938721374502 -1.9073965158519635 1.38
      vertex -3.797938721374502 -1.9073965158519635 0
    endloop
  endfacet
  facet normal 0 0 -1
    outer loop
      vertex -4.221263020403258 -0.4933948850322278 0
      vertex -3.993693638340111 -1.453585609134092 0
      vertex -4.135440699964251 -0.9801174506553714 0
    endloop
  endfacet
  facet normal 0 0 -1
    outer loop
      vertex -4.25 0 0
      vertex -3.550823198504979 -2.3354131568009264 0
      vertex -4.221263020403258 -0.4933948850322278 0
    endloop
  endfacet
  facet normal -0.9848077530122079 -0.17364817766693144 0
    outer loop
      vertex -4.135440699964251 -0.9801174506553714 1.38
      vertex -4.221263020403258 -0.4933948850322278 0
      vertex -4.135440699964251 -0.9801174506553714 0
    endloop
  endfacet
  facet normal -0.9983081582712682 -0.058144828910474934 0
    outer loop
      vertex -4.221263020403258 -0.4933948850322278 1.38
      vertex -4.25 0 0
      vertex -4.221263020403258 -0.4933948850322278 0
    endloop
  endfacet
  facet normal 0 0 -1
    outer loop
      vertex -4.25 0 0
      vertex -1.683339005666417 -3.9024184542411646 0
      vertex -3.550823198504979 -2.3354131568009264 0
    endloop
  endfacet
  facet normal -0.9182161068802737 -0.3960797660391576 6.1808094602384586e-18
    outer loop
      vertex -3.797938721374502 -1.9073965158519635 1.38
      vertex -3.993693638340111 -1.453585609134092 1.38
      vertex -3.993693638340111 -1.453585609134092 0
    endloop
  endfacet
  facet normal -0.9579895123154891 -0.28680323271108954 0
    outer loop
      vertex -3.993693638340111 -1.453585609134092 1.38
      vertex -4.135440699964251 -0.9801174506553714 1.38
      vertex -3.993693638340111 -1.453585609134092 0
    endloop
  endfacet
  facet normal -0.9848077530122079 -0.17364817766693144 0
    outer loop
      vertex -4.221263020403258 -0.4933948850322278 1.38
      vertex -4.221263020403258 -0.4933948850322278 0
      vertex -4.135440699964251 -0.9801174506553714 1.38
    endloop
  endfacet
  facet normal -0.9983081582712682 -0.058144828910474934 0
    outer loop
      vertex -4.25 0 0
      vertex -4.221263020403258 -0.4933948850322278 1.38
      vertex -4.25 0 1.38
    endloop
  endfacet
  facet normal 0 0 -1
    outer loop
      vertex -2.537924014736841 -3.4090235692089363 0
      vertex -1.683339005666417 -3.9024184542411646 0
      vertex -2.125 -3.680607966083864 0
    endloop
  endfacet
  facet normal -0.4487991802004628 -0.8936326403234119 4.818069166199573e-18
    outer loop
      vertex -1.683339005666417 -3.9024184542411646 0
      vertex -2.125 -3.680607966083864 1.38
      vertex -2.125 -3.680607966083864 0
    endloop
  endfacet
  facet normal -0.3420201433256682 -0.9396926207859086 0
    outer loop
      vertex -1.218913739022133 -4.071455427340828 1.38
      vertex -1.683339005666417 -3.9024184542411646 0
      vertex -1.218913739022133 -4.071455427340828 0
    endloop
  endfacet
  facet normal 0 0 -1
    outer loop
      vertex -4.25 0 0
      vertex -0.24711552286952085 -4.24280967265289 0
      vertex -1.683339005666417 -3.9024184542411646 0
    endloop
  endfacet
  facet normal 0 0 -1
    outer loop
      vertex -1.683339005666417 -3.9024184542411646 0
      vertex -0.24711552286952085 -4.24280967265289 0
      vertex -1.218913739022133 -4.071455427340828 0
    endloop
  endfacet
  facet normal 0 0 -1
    outer loop
      vertex -0.738004755084454 -4.185432950301884 0
      vertex -1.218913739022133 -4.071455427340828 0
      vertex -0.24711552286952085 -4.24280967265289 0
    endloop
  endfacet
  facet normal -0.23061587074243947 -0.973044870579824 0
    outer loop
      vertex -1.218913739022133 -4.071455427340828 1.38
      vertex -1.218913739022133 -4.071455427340828 0
      vertex -0.738004755084454 -4.185432950301884 0
    endloop
  endfacet
  facet normal -0.11609291412523107 -0.9932383577419428 0
    outer loop
      vertex -0.24711552286952085 -4.24280967265289 0
      vertex -0.24711552286952085 -4.24280967265289 1.38
      vertex -0.738004755084454 -4.185432950301884 0
    endloop
  endfacet
  facet normal 0 -1 0
    outer loop
      vertex -0.24711552286952085 -4.24280967265289 1.38
      vertex -0.24711552286952085 -4.24280967265289 0
      vertex 0.24711552286952085 -4.24280967265289 0
    endloop
  endfacet
  facet normal -0.4487991802004628 -0.8936326403234119 4.818069166199573e-18
    outer loop
      vertex -2.125 -3.680607966083864 1.38
      vertex -1.683339005666417 -3.9024184542411646 0
      vertex -1.683339005666417 -3.9024184542411646 1.38
    endloop
  endfacet
  facet normal -0.3420201433256682 -0.9396926207859086 0
    outer loop
      vertex -1.683339005666417 -3.9024184542411646 0
      vertex -1.218913739022133 -4.071455427340828 1.38
      vertex -1.683339005666417 -3.9024184542411646 1.38
    endloop
  endfacet
  facet normal -0.23061587074243947 -0.973044870579824 -1.9139572252676657e-18
    outer loop
      vertex -1.218913739022133 -4.071455427340828 1.38
      vertex -0.738004755084454 -4.185432950301884 0
      vertex -0.738004755084454 -4.185432950301884 1.38
    endloop
  endfacet
  facet normal -0.11609291412523107 -0.9932383577419428 0
    outer loop
      vertex -0.738004755084454 -4.185432950301884 0
      vertex -0.24711552286952085 -4.24280967265289 1.38
      vertex -0.738004755084454 -4.185432950301884 1.38
    endloop
  endfacet
  facet normal 0 0 -1
    outer loop
      vertex -4.25 0 0
      vertex 4.25 0 0
      vertex -0.24711552286952085 -4.24280967265289 0
    endloop
  endfacet
  facet normal -0.4871333277212653 -0.4595865914977834 0.7426178599647709
    outer loop
      vertex -2.916526960942118 -3.0913379766854563 1.38
      vertex -2.0149126755865794 -2.1887786342525666 2.53
      vertex -3.2556888832556568 -2.731847341167792 1.38
    endloop
  endfacet
  facet normal -0.5387514392796409 -0.40108558593483734 0.7408624969786388
    outer loop
      vertex -3.2556888832556568 -2.731847341167792 1.38
      vertex -2.347693015454271 -1.8272828202517615 2.53
      vertex -3.550823198504979 -2.3354131568009264 1.38
    endloop
  endfacet
  facet normal -0.43127446847769557 -0.5139728972024514 0.7415080537530252
    outer loop
      vertex -2.0149126755865794 -2.1887786342525666 2.53
      vertex -2.916526960942118 -3.0913379766854563 1.38
      vertex -2.537924014736841 -3.4090235692089363 1.38
    endloop
  endfacet
  facet normal -0.4915563794219478 -0.45250952479301276 0.7440480198355399
    outer loop
      vertex -3.2556888832556568 -2.731847341167792 1.38
      vertex -2.0149126755865794 -2.1887786342525666 2.53
      vertex -2.347693015454271 -1.8272828202517615 2.53
    endloop
  endfacet
  facet normal -0.5815594882712529 -0.33576352710318885 0.7409800371595072
    outer loop
      vertex -2.616434409839304 -1.4159434942852942 2.53
      vertex -3.797938721374502 -1.9073965158519635 1.38
      vertex -3.550823198504979 -2.3354131568009264 1.38
    endloop
  endfacet
  facet normal -0.614587845862738 -0.26510731882811917 0.7429669502888844
    outer loop
      vertex -3.993693638340111 -1.453585609134092 1.38
      vertex -3.797938721374502 -1.9073965158519635 1.38
      vertex -2.8138062940593875 -0.9659809208839332 2.53
    endloop
  endfacet
  facet normal -0.6429744304861303 -0.1924939081726233 0.7413028915750066
    outer loop
      vertex -2.8138062940593875 -0.9659809208839332 2.53
      vertex -4.135440699964251 -0.9801174506553714 1.38
      vertex -3.993693638340111 -1.453585609134092 1.38
    endloop
  endfacet
  facet normal -0.6616124331324633 -0.1166601227334292 0.7407154676988749
    outer loop
      vertex -4.221263020403258 -0.4933948850322278 1.38
      vertex -4.135440699964251 -0.9801174506553714 1.38
      vertex -2.9344248776230986 -0.48966890608518404 2.53
    endloop
  endfacet
  facet normal -0.6692597415196895 -0.03897994105819679 0.7420053655979167
    outer loop
      vertex -4.221263020403258 -0.4933948850322278 1.38
      vertex -2.9749999999999996 0 2.53
      vertex -4.25 0 1.38
    endloop
  endfacet
  facet normal -0.6465674044298946 -0.1637331036752252 0.7450785611528942
    outer loop
      vertex -4.135440699964251 -0.9801174506553714 1.38
      vertex -2.8138062940593875 -0.9659809208839332 2.53
      vertex -2.9344248776230986 -0.48966890608518404 2.53
    endloop
  endfacet
  facet normal -0.6652482428041337 -0.05512404101497195 0.7445845254557686
    outer loop
      vertex -2.9749999999999996 0 2.53
      vertex -4.221263020403258 -0.4933948850322278 1.38
      vertex -2.9344248776230986 -0.48966890608518404 2.53
    endloop
  endfacet
  facet normal -0.5582551885732393 -0.3647263179793375 0.7452018903654849
    outer loop
      vertex -2.347693015454271 -1.8272828202517615 2.53
      vertex -2.616434409839304 -1.4159434942852942 2.53
      vertex -3.550823198504979 -2.3354131568009264 1.38
    endloop
  endfacet
  facet normal -0.612189326865732 -0.2685311358887978 0.7437171889434544
    outer loop
      vertex -2.616434409839304 -1.4159434942852942 2.53
      vertex -2.8138062940593875 -0.9659809208839332 2.53
      vertex -3.797938721374502 -1.9073965158519635 1.38
    endloop
  endfacet
  facet normal 0 0 1
    outer loop
      vertex -2.616434409839304 -1.4159434942852942 2.53
      vertex -2.347693015454271 -1.8272828202517615 2.53
      vertex -2.0149126755865794 -2.1887786342525666 2.53
    endloop
  endfacet
  facet normal 0 0 1
    outer loop
      vertex -2.616434409839304 -1.4159434942852942 2.53
      vertex -2.9749999999999996 0 2.53
      vertex -2.8138062940593875 -0.9659809208839332 2.53
    endloop
  endfacet
  facet normal 0 0 1
    outer loop
      vertex -2.8138062940593875 -0.9659809208839332 2.53
      vertex -2.9749999999999996 0 2.53
      vertex -2.9344248776230986 -0.48966890608518404 2.53
    endloop
  endfacet
  facet normal 0 0 1
    outer loop
      vertex -2.9749999999999996 0 2.53
      vertex -2.616434409839304 -1.4159434942852942 2.53
      vertex -2.8138062940593875 0.9659809208839332 2.53
    endloop
  endfacet
  facet normal -0.3691883249772261 -0.5613235778555116 0.7406860479609411
    outer loop
      vertex -2.125 -3.680607966083864 1.38
      vertex -1.62717077041422 -2.490570272831022 2.53
      vertex -2.537924014736841 -3.4090235692089363 1.38
    endloop
  endfacet
  facet normal -0.30100290080655284 -0.5993460524429196 0.7417422484442487
    outer loop
      vertex -2.125 -3.680607966083864 1.38
      vertex -1.683339005666417 -3.9024184542411646 1.38
      vertex -1.1950438883425836 -2.724425646798796 2.53
    endloop
  endfacet
  facet normal -0.22917767750507226 -0.6296604939882408 0.7422972817166082
    outer loop
      vertex -1.683339005666417 -3.9024184542411646 1.38
      vertex -1.218913739022133 -4.071455427340828 1.38
      vertex -1.1950438883425836 -2.724425646798796 2.53
    endloop
  endfacet
  facet normal -0.15491713533136586 -0.6536467911502051 0.7407742932903135
    outer loop
      vertex -1.218913739022133 -4.071455427340828 1.38
      vertex -0.738004755084454 -4.185432950301884 1.38
      vertex -0.7303193242438777 -2.8839657911695076 2.53
    endloop
  endfacet
  facet normal -0.07794072071890316 -0.6668254822560449 0.7411268584175121
    outer loop
      vertex -0.24711552286952085 -4.24280967265289 1.38
      vertex -0.24567355278018976 -2.9648388666948424 2.53
      vertex -0.738004755084454 -4.185432950301884 1.38
    endloop
  endfacet
  facet normal -0.4097502312717431 -0.5264471079003 0.7449551600976819
    outer loop
      vertex -1.62717077041422 -2.490570272831022 2.53
      vertex -2.0149126755865794 -2.1887786342525666 2.53
      vertex -2.537924014736841 -3.4090235692089363 1.38
    endloop
  endfacet
  facet normal -0.3175989111458898 -0.5868713850541347 0.7447905135295338
    outer loop
      vertex -2.125 -3.680607966083864 1.38
      vertex -1.1950438883425836 -2.724425646798796 2.53
      vertex -1.62717077041422 -2.490570272831022 2.53
    endloop
  endfacet
  facet normal 0 0 1
    outer loop
      vertex -2.0149126755865794 -2.1887786342525666 2.53
      vertex -1.62717077041422 -2.490570272831022 2.53
      vertex -1.1950438883425836 -2.724425646798796 2.53
    endloop
  endfacet
  facet normal 0 0 1
    outer loop
      vertex -0.24567355278018976 -2.9648388666948424 2.53
      vertex -2.616434409839304 -1.4159434942852942 2.53
      vertex -2.0149126755865794 -2.1887786342525666 2.53
    endloop
  endfacet
  facet normal 0 0 1
    outer loop
      vertex -0.24567355278018976 -2.9648388666948424 2.53
      vertex -2.0149126755865794 -2.1887786342525666 2.53
      vertex -1.1950438883425836 -2.724425646798796 2.53
    endloop
  endfacet
  facet normal -0.21683563722730423 -0.6316206330951722 0.744337075710113
    outer loop
      vertex -1.218913739022133 -4.071455427340828 1.38
      vertex -0.7303193242438777 -2.8839657911695076 2.53
      vertex -1.1950438883425836 -2.724425646798796 2.53
    endloop
  endfacet
  facet normal -0.109765638151839 -0.657789406879141 0.7451607886078733
    outer loop
      vertex -0.738004755084454 -4.185432950301884 1.38
      vertex -0.24567355278018976 -2.9648388666948424 2.53
      vertex -0.7303193242438777 -2.8839657911695076 2.53
    endloop
  endfacet
  facet normal 0 -0.6689089015148828 0.7433443895491193
    outer loop
      vertex -0.24567355278018976 -2.9648388666948424 2.53
      vertex -0.24711552286952085 -4.24280967265289 1.38
      vertex 0.24567355278018976 -2.9648388666948424 2.53
    endloop
  endfacet
  facet normal 0 0 1
    outer loop
      vertex -0.24567355278018976 -2.9648388666948424 2.53
      vertex -1.1950438883425836 -2.724425646798796 2.53
      vertex -0.7303193242438777 -2.8839657911695076 2.53
    endloop
  endfacet
  facet normal 0 0 1
    outer loop
      vertex -2.616434409839304 -1.4159434942852942 2.53
      vertex -0.24567355278018976 -2.9648388666948424 2.53
      vertex -2.8138062940593875 0.9659809208839332 2.53
    endloop
  endfacet
  facet normal 0 0 1
    outer loop
      vertex -0.24567355278018976 -2.9648388666948424 2.53
      vertex 2.8138062940593875 0.9659809208839332 2.53
      vertex -2.8138062940593875 0.9659809208839332 2.53
    endloop
  endfacet
  facet normal 0 0 -1
    outer loop
      vertex -3.993693638340111 1.453585609134092 0
      vertex -4.25 0 0
      vertex -4.221263020403258 0.4933948850322278 0
    endloop
  endfacet
  facet normal 0 0 -1
    outer loop
      vertex -3.993693638340111 1.453585609134092 0
      vertex -4.221263020403258 0.4933948850322278 0
      vertex -4.135440699964251 0.9801174506553714 0
    endloop
  endfacet
  facet normal -0.9983081582712682 0.058144828910474934 -5.436056347677335e-19
    outer loop
      vertex -4.25 0 0
      vertex -4.221263020403258 0.4933948850322278 1.38
      vertex -4.221263020403258 0.4933948850322278 0
    endloop
  endfacet
  facet normal -0.9848077530122079 0.17364817766693144 -2.2645016153109723e-18
    outer loop
      vertex -4.221263020403258 0.4933948850322278 0
      vertex -4.135440699964251 0.9801174506553714 1.38
      vertex -4.135440699964251 0.9801174506553714 0
    endloop
  endfacet
  facet normal 0 0 -1
    outer loop
      vertex -3.797938721374502 1.9073965158519635 0
      vertex -4.25 0 0
      vertex -3.993693638340111 1.453585609134092 0
    endloop
  endfacet
  facet normal 0 0 -1
    outer loop
      vertex -2.916526960942118 3.0913379766854563 0
      vertex -4.25 0 0
      vertex -3.797938721374502 1.9073965158519635 0
    endloop
  endfacet
  facet normal -0.9579895123154891 0.28680323271108954 0
    outer loop
      vertex -4.135440699964251 0.9801174506553714 1.38
      vertex -3.993693638340111 1.453585609134092 0
      vertex -4.135440699964251 0.9801174506553714 0
    endloop
  endfacet
  facet normal -0.9182161068802737 0.3960797660391576 0
    outer loop
      vertex -3.993693638340111 1.453585609134092 1.38
      vertex -3.797938721374502 1.9073965158519635 0
      vertex -3.993693638340111 1.453585609134092 0
    endloop
  endfacet
  facet normal -0.9983081582712682 0.058144828910474934 -5.436056347677335e-19
    outer loop
      vertex -4.221263020403258 0.4933948850322278 1.38
      vertex -4.25 0 0
      vertex -4.25 0 1.38
    endloop
  endfacet
  facet normal -0.9848077530122079 0.17364817766693144 0
    outer loop
      vertex -4.221263020403258 0.4933948850322278 1.38
      vertex -4.135440699964251 0.9801174506553714 1.38
      vertex -4.221263020403258 0.4933948850322278 0
    endloop
  endfacet
  facet normal -0.9579895123154891 0.28680323271108954 -7.19416772848982e-18
    outer loop
      vertex -4.135440699964251 0.9801174506553714 1.38
      vertex -3.993693638340111 1.453585609134092 1.38
      vertex -3.993693638340111 1.453585609134092 0
    endloop
  endfacet
  facet normal -0.9182161068802737 0.3960797660391576 0
    outer loop
      vertex -3.797938721374502 1.9073965158519635 0
      vertex -3.993693638340111 1.453585609134092 1.38
      vertex -3.797938721374502 1.9073965158519635 1.38
    endloop
  endfacet
  facet normal -0.8660254037844387 0.5000000000000001 0
    outer loop
      vertex -3.797938721374502 1.9073965158519635 0
      vertex -3.797938721374502 1.9073965158519635 1.38
      vertex -3.550823198504979 2.3354131568009264 1.38
    endloop
  endfacet
  facet normal 0 0 -1
    outer loop
      vertex -3.2556888832556568 2.731847341167792 0
      vertex -3.797938721374502 1.9073965158519635 0
      vertex -3.550823198504979 2.3354131568009264 0
    endloop
  endfacet
  facet normal 0 0 -1
    outer loop
      vertex -2.916526960942118 3.0913379766854563 0
      vertex -3.797938721374502 1.9073965158519635 0
      vertex -3.2556888832556568 2.731847341167792 0
    endloop
  endfacet
  facet normal -0.8660254037844387 0.5000000000000001 -5.4659122244513715e-18
    outer loop
      vertex -3.797938721374502 1.9073965158519635 0
      vertex -3.550823198504979 2.3354131568009264 1.38
      vertex -3.550823198504979 2.3354131568009264 0
    endloop
  endfacet
  facet normal -0.802123192755044 0.5971585917027858 0
    outer loop
      vertex -3.550823198504979 2.3354131568009264 1.38
      vertex -3.2556888832556568 2.731847341167792 0
      vertex -3.550823198504979 2.3354131568009264 0
    endloop
  endfacet
  facet normal 0 0 -1
    outer loop
      vertex -2.916526960942118 3.0913379766854563 0
      vertex 0.24711552286952193 4.24280967265289 0
      vertex -4.25 0 0
    endloop
  endfacet
  facet normal -0.7273736415730485 0.6862416378687339 -1.5696879606876167e-18
    outer loop
      vertex -3.2556888832556568 2.731847341167792 0
      vertex -2.916526960942118 3.0913379766854563 1.38
      vertex -2.916526960942118 3.0913379766854563 0
    endloop
  endfacet
  facet normal 0 0 -1
    outer loop
      vertex -2.125 3.680607966083864 0
      vertex -2.916526960942118 3.0913379766854563 0
      vertex -2.5379240147368414 3.409023569208936 0
    endloop
  endfacet
  facet normal -0.6427876096865397 0.7660444431189776 3.3486707432744244e-18
    outer loop
      vertex -2.916526960942118 3.0913379766854563 0
      vertex -2.5379240147368414 3.409023569208936 1.38
      vertex -2.5379240147368414 3.409023569208936 0
    endloop
  endfacet
  facet normal -0.5495089780708061 0.8354878114129364 0
    outer loop
      vertex -2.5379240147368414 3.409023569208936 1.38
      vertex -2.125 3.680607966083864 0
      vertex -2.5379240147368414 3.409023569208936 0
    endloop
  endfacet
  facet normal -0.802123192755044 0.5971585917027858 0
    outer loop
      vertex -3.2556888832556568 2.731847341167792 0
      vertex -3.550823198504979 2.3354131568009264 1.38
      vertex -3.2556888832556568 2.731847341167792 1.38
    endloop
  endfacet
  facet normal -0.7273736415730485 0.6862416378687339 -1.5696879606876167e-18
    outer loop
      vertex -2.916526960942118 3.0913379766854563 1.38
      vertex -3.2556888832556568 2.731847341167792 0
      vertex -3.2556888832556568 2.731847341167792 1.38
    endloop
  endfacet
  facet normal -0.6427876096865397 0.7660444431189776 3.3486707432744244e-18
    outer loop
      vertex -2.5379240147368414 3.409023569208936 1.38
      vertex -2.916526960942118 3.0913379766854563 0
      vertex -2.916526960942118 3.0913379766854563 1.38
    endloop
  endfacet
  facet normal -0.5495089780708061 0.8354878114129364 0
    outer loop
      vertex -2.125 3.680607966083864 1.38
      vertex -2.125 3.680607966083864 0
      vertex -2.5379240147368414 3.409023569208936 1.38
    endloop
  endfacet
  facet normal 0 0 -1
    outer loop
      vertex -1.2189137390221338 4.071455427340828 0
      vertex -2.916526960942118 3.0913379766854563 0
      vertex -2.125 3.680607966083864 0
    endloop
  endfacet
  facet normal 0 0 -1
    outer loop
      vertex -1.2189137390221338 4.071455427340828 0
      vertex -2.125 3.680607966083864 0
      vertex -1.6833390056664161 3.9024184542411646 0
    endloop
  endfacet
  facet normal 0 0 -1
    outer loop
      vertex 0.24711552286952193 4.24280967265289 0
      vertex -2.916526960942118 3.0913379766854563 0
      vertex -1.2189137390221338 4.071455427340828 0
    endloop
  endfacet
  facet normal -0.448799180200462 0.8936326403234123 -8.325783653710129e-19
    outer loop
      vertex -1.6833390056664161 3.9024184542411646 0
      vertex -2.125 3.680607966083864 0
      vertex -2.125 3.680607966083864 1.38
    endloop
  endfacet
  facet normal -0.3420201433256693 0.9396926207859081 0
    outer loop
      vertex -1.2189137390221338 4.071455427340828 1.38
      vertex -1.2189137390221338 4.071455427340828 0
      vertex -1.6833390056664161 3.9024184542411646 0
    endloop
  endfacet
  facet normal 0 0 -1
    outer loop
      vertex -0.24711552286952193 4.24280967265289 0
      vertex -1.2189137390221338 4.071455427340828 0
      vertex -0.738004755084454 4.185432950301884 0
    endloop
  endfacet
  facet normal 0 0 -1
    outer loop
      vertex 0.24711552286952193 4.24280967265289 0
      vertex -1.2189137390221338 4.071455427340828 0
      vertex -0.24711552286952193 4.24280967265289 0
    endloop
  endfacet
  facet normal -0.23061587074243906 0.9730448705798241 -2.2662040111237314e-18
    outer loop
      vertex -1.2189137390221338 4.071455427340828 0
      vertex -0.738004755084454 4.185432950301884 1.38
      vertex -0.738004755084454 4.185432950301884 0
    endloop
  endfacet
  facet normal -0.11609291412523132 0.9932383577419428 0
    outer loop
      vertex -0.738004755084454 4.185432950301884 1.38
      vertex -0.24711552286952193 4.24280967265289 0
      vertex -0.738004755084454 4.185432950301884 0
    endloop
  endfacet
  facet normal 0 1 0
    outer loop
      vertex -0.24711552286952193 4.24280967265289 1.38
      vertex 0.24711552286952193 4.24280967265289 0
      vertex -0.24711552286952193 4.24280967265289 0
    endloop
  endfacet
  facet normal -0.448799180200462 0.8936326403234123 0
    outer loop
      vertex -1.6833390056664161 3.9024184542411646 0
      vertex -2.125 3.680607966083864 1.38
      vertex -1.6833390056664161 3.9024184542411646 1.38
    endloop
  endfacet
  facet normal -0.3420201433256693 0.9396926207859081 6.875668810063071e-18
    outer loop
      vertex -1.2189137390221338 4.071455427340828 1.38
      vertex -1.6833390056664161 3.9024184542411646 0
      vertex -1.6833390056664161 3.9024184542411646 1.38
    endloop
  endfacet
  facet normal -0.23061587074243906 0.9730448705798241 0
    outer loop
      vertex -1.2189137390221338 4.071455427340828 0
      vertex -1.2189137390221338 4.071455427340828 1.38
      vertex -0.738004755084454 4.185432950301884 1.38
    endloop
  endfacet
  facet normal -0.11609291412523132 0.9932383577419428 -1.4842982040902102e-18
    outer loop
      vertex -0.738004755084454 4.185432950301884 1.38
      vertex -0.24711552286952193 4.24280967265289 1.38
      vertex -0.24711552286952193 4.24280967265289 0
    endloop
  endfacet
  facet normal -0.6692597415196895 0.03897994105819679 0.7420053655979167
    outer loop
      vertex -4.25 0 1.38
      vertex -2.9749999999999996 0 2.53
      vertex -4.221263020403258 0.4933948850322278 1.38
    endloop
  endfacet
  facet normal -0.6616124331324633 0.1166601227334292 0.740715467698875
    outer loop
      vertex -4.135440699964251 0.9801174506553714 1.38
      vertex -4.221263020403258 0.4933948850322278 1.38
      vertex -2.9344248776230986 0.48966890608518404 2.53
    endloop
  endfacet
  facet normal -0.6429744304861303 0.1924939081726233 0.7413028915750066
    outer loop
      vertex -2.8138062940593875 0.9659809208839332 2.53
      vertex -3.993693638340111 1.453585609134092 1.38
      vertex -4.135440699964251 0.9801174506553714 1.38
    endloop
  endfacet
  facet normal -0.614587845862738 0.26510731882811917 0.7429669502888844
    outer loop
      vertex -3.993693638340111 1.453585609134092 1.38
      vertex -2.8138062940593875 0.9659809208839332 2.53
      vertex -3.797938721374502 1.9073965158519635 1.38
    endloop
  endfacet
  facet normal -0.5815594882712528 0.3357635271031889 0.7409800371595071
    outer loop
      vertex -3.550823198504979 2.3354131568009264 1.38
      vertex -3.797938721374502 1.9073965158519635 1.38
      vertex -2.616434409839304 1.4159434942852942 2.53
    endloop
  endfacet
  facet normal -0.6652482428041337 0.055124041014971974 0.7445845254557686
    outer loop
      vertex -4.221263020403258 0.4933948850322278 1.38
      vertex -2.9749999999999996 0 2.53
      vertex -2.9344248776230986 0.48966890608518404 2.53
    endloop
  endfacet
  facet normal -0.6465674044298946 0.1637331036752252 0.7450785611528942
    outer loop
      vertex -2.8138062940593875 0.9659809208839332 2.53
      vertex -4.135440699964251 0.9801174506553714 1.38
      vertex -2.9344248776230986 0.48966890608518404 2.53
    endloop
  endfacet
  facet normal 0 0 1
    outer loop
      vertex -2.9344248776230986 0.48966890608518404 2.53
      vertex -2.9749999999999996 0 2.53
      vertex -2.8138062940593875 0.9659809208839332 2.53
    endloop
  endfacet
  facet normal -0.612189326865732 0.26853113588879785 0.7437171889434543
    outer loop
      vertex -3.797938721374502 1.9073965158519635 1.38
      vertex -2.8138062940593875 0.9659809208839332 2.53
      vertex -2.616434409839304 1.4159434942852942 2.53
    endloop
  endfacet
  facet normal -0.5582551885732393 0.3647263179793375 0.7452018903654849
    outer loop
      vertex -2.616434409839304 1.4159434942852942 2.53
      vertex -2.347693015454271 1.8272828202517615 2.53
      vertex -3.550823198504979 2.3354131568009264 1.38
    endloop
  endfacet
  facet normal 0 0 1
    outer loop
      vertex -2.8138062940593875 0.9659809208839332 2.53
      vertex -2.347693015454271 1.8272828202517615 2.53
      vertex -2.616434409839304 1.4159434942852942 2.53
    endloop
  endfacet
  facet normal 0 0 1
    outer loop
      vertex -2.8138062940593875 0.9659809208839332 2.53
      vertex -1.62717077041422 2.490570272831022 2.53
      vertex -2.347693015454271 1.8272828202517615 2.53
    endloop
  endfacet
  facet normal -0.5387514392796409 0.40108558593483734 0.7408624969786388
    outer loop
      vertex -3.550823198504979 2.3354131568009264 1.38
      vertex -2.347693015454271 1.8272828202517615 2.53
      vertex -3.2556888832556568 2.731847341167792 1.38
    endloop
  endfacet
  facet normal -0.4871333277212654 0.45958659149778336 0.7426178599647709
    outer loop
      vertex -2.0149126755865794 2.1887786342525666 2.53
      vertex -2.916526960942118 3.0913379766854563 1.38
      vertex -3.2556888832556568 2.731847341167792 1.38
    endloop
  endfacet
  facet normal -0.4312744684776955 0.5139728972024514 0.7415080537530254
    outer loop
      vertex -2.916526960942118 3.0913379766854563 1.38
      vertex -2.0149126755865794 2.1887786342525666 2.53
      vertex -2.5379240147368414 3.409023569208936 1.38
    endloop
  endfacet
  facet normal -0.4915563794219477 0.45250952479301276 0.74404801983554
    outer loop
      vertex -2.347693015454271 1.8272828202517615 2.53
      vertex -2.0149126755865794 2.1887786342525666 2.53
      vertex -3.2556888832556568 2.731847341167792 1.38
    endloop
  endfacet
  facet normal -0.3691883249772262 0.5613235778555115 0.740686047960941
    outer loop
      vertex -2.5379240147368414 3.409023569208936 1.38
      vertex -1.62717077041422 2.490570272831022 2.53
      vertex -2.125 3.680607966083864 1.38
    endloop
  endfacet
  facet normal -0.3010029008065524 0.5993460524429199 0.7417422484442486
    outer loop
      vertex -2.125 3.680607966083864 1.38
      vertex -1.1950438883425842 2.7244256467987955 2.53
      vertex -1.6833390056664161 3.9024184542411646 1.38
    endloop
  endfacet
  facet normal -0.22917767750507312 0.6296604939882405 0.7422972817166082
    outer loop
      vertex -1.1950438883425842 2.7244256467987955 2.53
      vertex -1.2189137390221338 4.071455427340828 1.38
      vertex -1.6833390056664161 3.9024184542411646 1.38
    endloop
  endfacet
  facet normal -0.1549171353313656 0.6536467911502051 0.7407742932903136
    outer loop
      vertex -0.738004755084454 4.185432950301884 1.38
      vertex -1.2189137390221338 4.071455427340828 1.38
      vertex -0.7303193242438777 2.8839657911695076 2.53
    endloop
  endfacet
  facet normal -0.07794072071890333 0.6668254822560448 0.7411268584175122
    outer loop
      vertex -0.24711552286952193 4.24280967265289 1.38
      vertex -0.738004755084454 4.185432950301884 1.38
      vertex -0.24567355278018901 2.9648388666948424 2.53
    endloop
  endfacet
  facet normal -0.4097502312717431 0.5264471079003 0.7449551600976819
    outer loop
      vertex -1.62717077041422 2.490570272831022 2.53
      vertex -2.5379240147368414 3.409023569208936 1.38
      vertex -2.0149126755865794 2.1887786342525666 2.53
    endloop
  endfacet
  facet normal -0.3175989111458898 0.5868713850541347 0.7447905135295338
    outer loop
      vertex -2.125 3.680607966083864 1.38
      vertex -1.62717077041422 2.490570272831022 2.53
      vertex -1.1950438883425842 2.7244256467987955 2.53
    endloop
  endfacet
  facet normal 0 0 1
    outer loop
      vertex -2.347693015454271 1.8272828202517615 2.53
      vertex -1.62717077041422 2.490570272831022 2.53
      vertex -2.0149126755865794 2.1887786342525666 2.53
    endloop
  endfacet
  facet normal 0 0 1
    outer loop
      vertex -2.8138062940593875 0.9659809208839332 2.53
      vertex 0.24567355278018901 2.9648388666948424 2.53
      vertex -1.62717077041422 2.490570272831022 2.53
    endloop
  endfacet
  facet normal 0 0 1
    outer loop
      vertex -1.62717077041422 2.490570272831022 2.53
      vertex -0.7303193242438777 2.8839657911695076 2.53
      vertex -1.1950438883425842 2.7244256467987955 2.53
    endloop
  endfacet
  facet normal 0 0 1
    outer loop
      vertex -1.62717077041422 2.490570272831022 2.53
      vertex 0.24567355278018901 2.9648388666948424 2.53
      vertex -0.7303193242438777 2.8839657911695076 2.53
    endloop
  endfacet
  facet normal 0 0 1
    outer loop
      vertex -0.7303193242438777 2.8839657911695076 2.53
      vertex 0.24567355278018901 2.9648388666948424 2.53
      vertex -0.24567355278018901 2.9648388666948424 2.53
    endloop
  endfacet
  facet normal -0.21683563722730442 0.6316206330951721 0.7443370757101131
    outer loop
      vertex -1.1950438883425842 2.7244256467987955 2.53
      vertex -0.7303193242438777 2.8839657911695076 2.53
      vertex -1.2189137390221338 4.071455427340828 1.38
    endloop
  endfacet
  facet normal -0.10976563815183878 0.657789406879141 0.7451607886078733
    outer loop
      vertex -0.738004755084454 4.185432950301884 1.38
      vertex -0.7303193242438777 2.8839657911695076 2.53
      vertex -0.24567355278018901 2.9648388666948424 2.53
    endloop
  endfacet
  facet normal 0 0.6689089015148827 0.7433443895491192
    outer loop
      vertex 0.24567355278018901 2.9648388666948424 2.53
      vertex -0.24711552286952193 4.24280967265289 1.38
      vertex -0.24567355278018901 2.9648388666948424 2.53
    endloop
  endfacet
  facet normal 0 0 -1
    outer loop
      vertex -0.24711552286952085 -4.24280967265289 0
      vertex 1.2189137390221347 -4.071455427340827 0
      vertex 0.24711552286952085 -4.24280967265289 0
    endloop
  endfacet
  facet normal 0 0 -1
    outer loop
      vertex 0.24711552286952085 -4.24280967265289 0
      vertex 1.2189137390221347 -4.071455427340827 0
      vertex 0.738004755084454 -4.185432950301884 0
    endloop
  endfacet
  facet normal 0.11609291412523107 -0.9932383577419428 0
    outer loop
      vertex 0.738004755084454 -4.185432950301884 1.38
      vertex 0.24711552286952085 -4.24280967265289 0
      vertex 0.738004755084454 -4.185432950301884 0
    endloop
  endfacet
  facet normal 0.23061587074244033 -0.9730448705798237 -7.861990063048091e-19
    outer loop
      vertex 1.2189137390221347 -4.071455427340827 0
      vertex 0.738004755084454 -4.185432950301884 1.38
      vertex 0.738004755084454 -4.185432950301884 0
    endloop
  endfacet
  facet normal 0 0 -1
    outer loop
      vertex -0.24711552286952085 -4.24280967265289 0
      vertex 2.9165269609421167 -3.091337976685458 0
      vertex 1.2189137390221347 -4.071455427340827 0
    endloop
  endfacet
  facet normal 0 0 -1
    outer loop
      vertex 1.2189137390221347 -4.071455427340827 0
      vertex 2.125 -3.680607966083864 0
      vertex 1.6833390056664153 -3.902418454241165 0
    endloop
  endfacet
  facet normal 0 0 -1
    outer loop
      vertex 1.2189137390221347 -4.071455427340827 0
      vertex 2.9165269609421167 -3.091337976685458 0
      vertex 2.125 -3.680607966083864 0
    endloop
  endfacet
  facet normal 0.34202014332566805 -0.9396926207859085 0
    outer loop
      vertex 1.6833390056664153 -3.902418454241165 1.38
      vertex 1.2189137390221347 -4.071455427340827 0
      vertex 1.6833390056664153 -3.902418454241165 0
    endloop
  endfacet
  facet normal 0.44879918020046206 -0.8936326403234124 5.862219543744087e-18
    outer loop
      vertex 2.125 -3.680607966083864 0
      vertex 1.6833390056664153 -3.902418454241165 1.38
      vertex 1.6833390056664153 -3.902418454241165 0
    endloop
  endfacet
  facet normal 0 -1 0
    outer loop
      vertex -0.24711552286952085 -4.24280967265289 1.38
      vertex 0.24711552286952085 -4.24280967265289 0
      vertex 0.24711552286952085 -4.24280967265289 1.38
    endloop
  endfacet
  facet normal 0.11609291412523107 -0.9932383577419428 0
    outer loop
      vertex 0.24711552286952085 -4.24280967265289 0
      vertex 0.738004755084454 -4.185432950301884 1.38
      vertex 0.24711552286952085 -4.24280967265289 1.38
    endloop
  endfacet
  facet normal 0.23061587074244033 -0.9730448705798237 0
    outer loop
      vertex 1.2189137390221347 -4.071455427340827 0
      vertex 1.2189137390221347 -4.071455427340827 1.38
      vertex 0.738004755084454 -4.185432950301884 1.38
    endloop
  endfacet
  facet normal 0.34202014332566805 -0.9396926207859085 0
    outer loop
      vertex 1.2189137390221347 -4.071455427340827 1.38
      vertex 1.2189137390221347 -4.071455427340827 0
      vertex 1.6833390056664153 -3.902418454241165 1.38
    endloop
  endfacet
  facet normal 0.44879918020046206 -0.8936326403234124 0
    outer loop
      vertex 2.125 -3.680607966083864 0
      vertex 2.125 -3.680607966083864 1.38
      vertex 1.6833390056664153 -3.902418454241165 1.38
    endloop
  endfacet
  facet normal 0 0 -1
    outer loop
      vertex 2.125 -3.680607966083864 0
      vertex 2.9165269609421167 -3.091337976685458 0
      vertex 2.5379240147368423 -3.4090235692089355 0
    endloop
  endfacet
  facet normal 0.5495089780708059 -0.8354878114129365 0
    outer loop
      vertex 2.5379240147368423 -3.4090235692089355 1.38
      vertex 2.125 -3.680607966083864 0
      vertex 2.5379240147368423 -3.4090235692089355 0
    endloop
  endfacet
  facet normal 0.6427876096865394 -0.766044443118978 -4.915797399546798e-18
    outer loop
      vertex 2.9165269609421167 -3.091337976685458 0
      vertex 2.5379240147368423 -3.4090235692089355 1.38
      vertex 2.5379240147368423 -3.4090235692089355 0
    endloop
  endfacet
  facet normal 0 0 -1
    outer loop
      vertex -0.24711552286952085 -4.24280967265289 0
      vertex 4.25 0 0
      vertex 2.9165269609421167 -3.091337976685458 0
    endloop
  endfacet
  facet normal 0.7273736415730487 -0.6862416378687335 0
    outer loop
      vertex 3.2556888832556568 -2.731847341167792 1.38
      vertex 2.9165269609421167 -3.091337976685458 0
      vertex 3.2556888832556568 -2.731847341167792 0
    endloop
  endfacet
  facet normal 0 0 -1
    outer loop
      vertex 2.9165269609421167 -3.091337976685458 0
      vertex 3.5508231985049807 -2.335413156800924 0
      vertex 3.2556888832556568 -2.731847341167792 0
    endloop
  endfacet
  facet normal 0 0 -1
    outer loop
      vertex 2.9165269609421167 -3.091337976685458 0
      vertex 3.993693638340111 -1.453585609134092 0
      vertex 3.5508231985049807 -2.335413156800924 0
    endloop
  endfacet
  facet normal 0.8021231927550438 -0.5971585917027861 8.027508270588936e-18
    outer loop
      vertex 3.5508231985049807 -2.335413156800924 0
      vertex 3.2556888832556568 -2.731847341167792 1.38
      vertex 3.2556888832556568 -2.731847341167792 0
    endloop
  endfacet
  facet normal 0.5495089780708059 -0.8354878114129365 0
    outer loop
      vertex 2.125 -3.680607966083864 0
      vertex 2.5379240147368423 -3.4090235692089355 1.38
      vertex 2.125 -3.680607966083864 1.38
    endloop
  endfacet
  facet normal 0.6427876096865394 -0.766044443118978 -4.915797399546798e-18
    outer loop
      vertex 2.5379240147368423 -3.4090235692089355 1.38
      vertex 2.9165269609421167 -3.091337976685458 0
      vertex 2.9165269609421167 -3.091337976685458 1.38
    endloop
  endfacet
  facet normal 0.7273736415730487 -0.6862416378687335 0
    outer loop
      vertex 2.9165269609421167 -3.091337976685458 0
      vertex 3.2556888832556568 -2.731847341167792 1.38
      vertex 2.9165269609421167 -3.091337976685458 1.38
    endloop
  endfacet
  facet normal 0.8021231927550438 -0.5971585917027861 8.027508270588936e-18
    outer loop
      vertex 3.2556888832556568 -2.731847341167792 1.38
      vertex 3.5508231985049807 -2.335413156800924 0
      vertex 3.5508231985049807 -2.335413156800924 1.38
    endloop
  endfacet
  facet normal 0.8660254037844388 -0.49999999999999967 0
    outer loop
      vertex 3.5508231985049807 -2.335413156800924 0
      vertex 3.7979387213745013 -1.9073965158519655 1.38
      vertex 3.5508231985049807 -2.335413156800924 1.38
    endloop
  endfacet
  facet normal 0 0 -1
    outer loop
      vertex 3.5508231985049807 -2.335413156800924 0
      vertex 3.993693638340111 -1.453585609134092 0
      vertex 3.7979387213745013 -1.9073965158519655 0
    endloop
  endfacet
  facet normal 0 0 -1
    outer loop
      vertex 2.9165269609421167 -3.091337976685458 0
      vertex 4.25 0 0
      vertex 3.993693638340111 -1.453585609134092 0
    endloop
  endfacet
  facet normal 0.8660254037844388 -0.49999999999999967 0
    outer loop
      vertex 3.7979387213745013 -1.9073965158519655 1.38
      vertex 3.5508231985049807 -2.335413156800924 0
      vertex 3.7979387213745013 -1.9073965158519655 0
    endloop
  endfacet
  facet normal 0.9182161068802738 -0.3960797660391577 -1.4478565553574097e-18
    outer loop
      vertex 3.993693638340111 -1.453585609134092 0
      vertex 3.7979387213745013 -1.9073965158519655 1.38
      vertex 3.7979387213745013 -1.9073965158519655 0
    endloop
  endfacet
  facet normal 0.9579895123154889 -0.2868032327110901 7.324569970505381e-18
    outer loop
      vertex 4.135440699964252 -0.9801174506553694 0
      vertex 3.993693638340111 -1.453585609134092 1.38
      vertex 3.993693638340111 -1.453585609134092 0
    endloop
  endfacet
  facet normal 0 0 -1
    outer loop
      vertex 3.993693638340111 -1.453585609134092 0
      vertex 4.25 0 0
      vertex 4.135440699964252 -0.9801174506553694 0
    endloop
  endfacet
  facet normal 0 0 -1
    outer loop
      vertex 4.135440699964252 -0.9801174506553694 0
      vertex 4.25 0 0
      vertex 4.221263020403257 -0.49339488503222984 0
    endloop
  endfacet
  facet normal 0.9848077530122082 -0.17364817766692933 0
    outer loop
      vertex 4.221263020403257 -0.49339488503222984 1.38
      vertex 4.135440699964252 -0.9801174506553694 0
      vertex 4.221263020403257 -0.49339488503222984 0
    endloop
  endfacet
  facet normal 0.9983081582712682 -0.0581448289104765 1.091227204932219e-18
    outer loop
      vertex 4.25 0 0
      vertex 4.221263020403257 -0.49339488503222984 1.38
      vertex 4.221263020403257 -0.49339488503222984 0
    endloop
  endfacet
  facet normal 0.9182161068802738 -0.3960797660391577 0
    outer loop
      vertex 3.993693638340111 -1.453585609134092 1.38
      vertex 3.7979387213745013 -1.9073965158519655 1.38
      vertex 3.993693638340111 -1.453585609134092 0
    endloop
  endfacet
  facet normal 0.9579895123154889 -0.2868032327110901 7.324569970505381e-18
    outer loop
      vertex 3.993693638340111 -1.453585609134092 1.38
      vertex 4.135440699964252 -0.9801174506553694 0
      vertex 4.135440699964252 -0.9801174506553694 1.38
    endloop
  endfacet
  facet normal 0.9848077530122082 -0.17364817766692933 0
    outer loop
      vertex 4.135440699964252 -0.9801174506553694 0
      vertex 4.221263020403257 -0.49339488503222984 1.38
      vertex 4.135440699964252 -0.9801174506553694 1.38
    endloop
  endfacet
  facet normal 0.9983081582712682 -0.0581448289104765 1.091227204932219e-18
    outer loop
      vertex 4.221263020403257 -0.49339488503222984 1.38
      vertex 4.25 0 0
      vertex 4.25 0 1.38
    endloop
  endfacet
  facet normal -2.905617987799551e-17 -0.6689089015148827 0.7433443895491192
    outer loop
      vertex 0.24567355278018976 -2.9648388666948424 2.53
      vertex -0.24711552286952085 -4.24280967265289 1.38
      vertex 0.24711552286952085 -4.24280967265289 1.38
    endloop
  endfacet
  facet normal 0.07794072071890316 -0.6668254822560448 0.7411268584175122
    outer loop
      vertex 0.738004755084454 -4.185432950301884 1.38
      vertex 0.24567355278018976 -2.9648388666948424 2.53
      vertex 0.24711552286952085 -4.24280967265289 1.38
    endloop
  endfacet
  facet normal 0.1549171353313665 -0.6536467911502051 0.7407742932903135
    outer loop
      vertex 1.2189137390221347 -4.071455427340827 1.38
      vertex 0.7303193242438777 -2.8839657911695076 2.53
      vertex 0.738004755084454 -4.185432950301884 1.38
    endloop
  endfacet
  facet normal 0.2291776775050723 -0.6296604939882409 0.7422972817166081
    outer loop
      vertex 1.1950438883425836 -2.724425646798796 2.53
      vertex 1.2189137390221347 -4.071455427340827 1.38
      vertex 1.6833390056664153 -3.902418454241165 1.38
    endloop
  endfacet
  facet normal 0.30100290080655245 -0.5993460524429199 0.7417422484442487
    outer loop
      vertex 1.1950438883425836 -2.724425646798796 2.53
      vertex 1.6833390056664153 -3.902418454241165 1.38
      vertex 2.125 -3.680607966083864 1.38
    endloop
  endfacet
  facet normal 0.3691883249772261 -0.5613235778555116 0.7406860479609412
    outer loop
      vertex 2.5379240147368423 -3.4090235692089355 1.38
      vertex 1.6271707704142189 -2.4905702728310226 2.53
      vertex 2.125 -3.680607966083864 1.38
    endloop
  endfacet
  facet normal 0.10976563815183892 -0.657789406879141 0.7451607886078733
    outer loop
      vertex 0.7303193242438777 -2.8839657911695076 2.53
      vertex 0.24567355278018976 -2.9648388666948424 2.53
      vertex 0.738004755084454 -4.185432950301884 1.38
    endloop
  endfacet
  facet normal 0.21683563722730412 -0.6316206330951725 0.7443370757101131
    outer loop
      vertex 1.2189137390221347 -4.071455427340827 1.38
      vertex 1.1950438883425836 -2.724425646798796 2.53
      vertex 0.7303193242438777 -2.8839657911695076 2.53
    endloop
  endfacet
  facet normal 0 0 1
    outer loop
      vertex 1.1950438883425836 -2.724425646798796 2.53
      vertex -0.24567355278018976 -2.9648388666948424 2.53
      vertex 0.24567355278018976 -2.9648388666948424 2.53
    endloop
  endfacet
  facet normal 0 0 1
    outer loop
      vertex 1.1950438883425836 -2.724425646798796 2.53
      vertex 0.24567355278018976 -2.9648388666948424 2.53
      vertex 0.7303193242438777 -2.8839657911695076 2.53
    endloop
  endfacet
  facet normal 0.31759891114588995 -0.5868713850541346 0.7447905135295338
    outer loop
      vertex 1.6271707704142189 -2.4905702728310226 2.53
      vertex 1.1950438883425836 -2.724425646798796 2.53
      vertex 2.125 -3.680607966083864 1.38
    endloop
  endfacet
  facet normal 0.40975023127174287 -0.5264471079003 0.7449551600976821
    outer loop
      vertex 1.6271707704142189 -2.4905702728310226 2.53
      vertex 2.5379240147368423 -3.4090235692089355 1.38
      vertex 2.0149126755865803 -2.1887786342525657 2.53
    endloop
  endfacet
  facet normal 0 0 1
    outer loop
      vertex 1.1950438883425836 -2.724425646798796 2.53
      vertex 2.347693015454271 -1.8272828202517615 2.53
      vertex -0.24567355278018976 -2.9648388666948424 2.53
    endloop
  endfacet
  facet normal 0 0 1
    outer loop
      vertex 2.347693015454271 -1.8272828202517615 2.53
      vertex 1.1950438883425836 -2.724425646798796 2.53
      vertex 1.6271707704142189 -2.4905702728310226 2.53
    endloop
  endfacet
  facet normal 0 0 1
    outer loop
      vertex 2.347693015454271 -1.8272828202517615 2.53
      vertex 1.6271707704142189 -2.4905702728310226 2.53
      vertex 2.0149126755865803 -2.1887786342525657 2.53
    endloop
  endfacet
  facet normal 0 0 1
    outer loop
      vertex 2.8138062940593875 0.9659809208839332 2.53
      vertex -0.24567355278018976 -2.9648388666948424 2.53
      vertex 2.347693015454271 -1.8272828202517615 2.53
    endloop
  endfacet
  facet normal 0.4312744684776952 -0.5139728972024515 0.7415080537530255
    outer loop
      vertex 2.5379240147368423 -3.4090235692089355 1.38
      vertex 2.9165269609421167 -3.091337976685458 1.38
      vertex 2.0149126755865803 -2.1887786342525657 2.53
    endloop
  endfacet
  facet normal 0.48713332772126544 -0.4595865914977831 0.7426178599647709
    outer loop
      vertex 2.9165269609421167 -3.091337976685458 1.38
      vertex 3.2556888832556568 -2.731847341167792 1.38
      vertex 2.0149126755865803 -2.1887786342525657 2.53
    endloop
  endfacet
  facet normal 0.5387514392796406 -0.40108558593483745 0.7408624969786389
    outer loop
      vertex 2.347693015454271 -1.8272828202517615 2.53
      vertex 3.2556888832556568 -2.731847341167792 1.38
      vertex 3.5508231985049807 -2.335413156800924 1.38
    endloop
  endfacet
  facet normal 0.49155637942194763 -0.4525095247930127 0.7440480198355399
    outer loop
      vertex 3.2556888832556568 -2.731847341167792 1.38
      vertex 2.347693015454271 -1.8272828202517615 2.53
      vertex 2.0149126755865803 -2.1887786342525657 2.53
    endloop
  endfacet
  facet normal 0.5815594882712529 -0.3357635271031886 0.7409800371595071
    outer loop
      vertex 3.7979387213745013 -1.9073965158519655 1.38
      vertex 2.616434409839304 -1.4159434942852942 2.53
      vertex 3.5508231985049807 -2.335413156800924 1.38
    endloop
  endfacet
  facet normal 0.6145878458627381 -0.2651073188281193 0.7429669502888842
    outer loop
      vertex 3.993693638340111 -1.453585609134092 1.38
      vertex 2.8138062940593875 -0.9659809208839346 2.53
      vertex 3.7979387213745013 -1.9073965158519655 1.38
    endloop
  endfacet
  facet normal 0.6429744304861303 -0.19249390817262363 0.7413028915750065
    outer loop
      vertex 3.993693638340111 -1.453585609134092 1.38
      vertex 4.135440699964252 -0.9801174506553694 1.38
      vertex 2.8138062940593875 -0.9659809208839346 2.53
    endloop
  endfacet
  facet normal 0.6616124331324637 -0.1166601227334278 0.7407154676988748
    outer loop
      vertex 4.221263020403257 -0.49339488503222984 1.38
      vertex 2.934424877623099 -0.48966890608518254 2.53
      vertex 4.135440699964252 -0.9801174506553694 1.38
    endloop
  endfacet
  facet normal 0.6692597415196893 -0.038979941058197826 0.7420053655979166
    outer loop
      vertex 4.221263020403257 -0.49339488503222984 1.38
      vertex 4.25 0 1.38
      vertex 2.9749999999999996 0 2.53
    endloop
  endfacet
  facet normal 0.5582551885732393 -0.3647263179793375 0.745201890365485
    outer loop
      vertex 2.347693015454271 -1.8272828202517615 2.53
      vertex 3.5508231985049807 -2.335413156800924 1.38
      vertex 2.616434409839304 -1.4159434942852942 2.53
    endloop
  endfacet
  facet normal 0.6121893268657317 -0.26853113588879846 0.7437171889434546
    outer loop
      vertex 3.7979387213745013 -1.9073965158519655 1.38
      vertex 2.8138062940593875 -0.9659809208839346 2.53
      vertex 2.616434409839304 -1.4159434942852942 2.53
    endloop
  endfacet
  facet normal 0 0 1
    outer loop
      vertex 2.934424877623099 -0.48966890608518254 2.53
      vertex 2.347693015454271 -1.8272828202517615 2.53
      vertex 2.616434409839304 -1.4159434942852942 2.53
    endloop
  endfacet
  facet normal 0 0 1
    outer loop
      vertex 2.934424877623099 -0.48966890608518254 2.53
      vertex 2.616434409839304 -1.4159434942852942 2.53
      vertex 2.8138062940593875 -0.9659809208839346 2.53
    endloop
  endfacet
  facet normal 0 0 1
    outer loop
      vertex 2.934424877623099 -0.48966890608518254 2.53
      vertex 2.8138062940593875 0.9659809208839332 2.53
      vertex 2.347693015454271 -1.8272828202517615 2.53
    endloop
  endfacet
  facet normal 0.6465674044298947 -0.1637331036752249 0.7450785611528942
    outer loop
      vertex 4.135440699964252 -0.9801174506553694 1.38
      vertex 2.934424877623099 -0.48966890608518254 2.53
      vertex 2.8138062940593875 -0.9659809208839346 2.53
    endloop
  endfacet
  facet normal 0.665248242804134 -0.055124041014971537 0.7445845254557683
    outer loop
      vertex 2.934424877623099 -0.48966890608518254 2.53
      vertex 4.221263020403257 -0.49339488503222984 1.38
      vertex 2.9749999999999996 0 2.53
    endloop
  endfacet
  facet normal 0 0 -1
    outer loop
      vertex 4.25 0 0
      vertex -4.25 0 0
      vertex 0.24711552286952193 4.24280967265289 0
    endloop
  endfacet
  facet normal 0 0 -1
    outer loop
      vertex 1.2189137390221338 4.071455427340828 0
      vertex 0.24711552286952193 4.24280967265289 0
      vertex 0.738004755084454 4.185432950301884 0
    endloop
  endfacet
  facet normal 0.11609291412523132 0.9932383577419428 0
    outer loop
      vertex 0.24711552286952193 4.24280967265289 0
      vertex 0.24711552286952193 4.24280967265289 1.38
      vertex 0.738004755084454 4.185432950301884 0
    endloop
  endfacet
  facet normal 0.23061587074243906 0.9730448705798241 2.2662040111237314e-18
    outer loop
      vertex 0.738004755084454 4.185432950301884 0
      vertex 1.2189137390221338 4.071455427340828 1.38
      vertex 1.2189137390221338 4.071455427340828 0
    endloop
  endfacet
  facet normal 0 0 -1
    outer loop
      vertex 2.125 3.680607966083864 0
      vertex 0.24711552286952193 4.24280967265289 0
      vertex 1.2189137390221338 4.071455427340828 0
    endloop
  endfacet
  facet normal 0 0 -1
    outer loop
      vertex 3.2556888832556568 2.731847341167792 0
      vertex 0.24711552286952193 4.24280967265289 0
      vertex 2.125 3.680607966083864 0
    endloop
  endfacet
  facet normal 0 0 -1
    outer loop
      vertex 2.125 3.680607966083864 0
      vertex 1.2189137390221338 4.071455427340828 0
      vertex 1.6833390056664161 3.9024184542411646 0
    endloop
  endfacet
  facet normal 0.3420201433256693 0.9396926207859081 0
    outer loop
      vertex 1.2189137390221338 4.071455427340828 1.38
      vertex 1.6833390056664161 3.9024184542411646 0
      vertex 1.2189137390221338 4.071455427340828 0
    endloop
  endfacet
  facet normal 0.448799180200462 0.8936326403234123 0
    outer loop
      vertex 2.125 3.680607966083864 1.38
      vertex 2.125 3.680607966083864 0
      vertex 1.6833390056664161 3.9024184542411646 0
    endloop
  endfacet
  facet normal 0 1 0
    outer loop
      vertex 0.24711552286952193 4.24280967265289 1.38
      vertex 0.24711552286952193 4.24280967265289 0
      vertex -0.24711552286952193 4.24280967265289 1.38
    endloop
  endfacet
  facet normal 0.11609291412523132 0.9932383577419428 1.4842982040902102e-18
    outer loop
      vertex 0.24711552286952193 4.24280967265289 1.38
      vertex 0.738004755084454 4.185432950301884 1.38
      vertex 0.738004755084454 4.185432950301884 0
    endloop
  endfacet
  facet normal 0.23061587074243906 0.9730448705798241 0
    outer loop
      vertex 0.738004755084454 4.185432950301884 0
      vertex 0.738004755084454 4.185432950301884 1.38
      vertex 1.2189137390221338 4.071455427340828 1.38
    endloop
  endfacet
  facet normal 0.3420201433256693 0.9396926207859081 0
    outer loop
      vertex 1.6833390056664161 3.9024184542411646 0
      vertex 1.2189137390221338 4.071455427340828 1.38
      vertex 1.6833390056664161 3.9024184542411646 1.38
    endloop
  endfacet
  facet normal 0.448799180200462 0.8936326403234123 8.325783653710129e-19
    outer loop
      vertex 2.125 3.680607966083864 1.38
      vertex 1.6833390056664161 3.9024184542411646 0
      vertex 1.6833390056664161 3.9024184542411646 1.38
    endloop
  endfacet
  facet normal 0 0 -1
    outer loop
      vertex 4.25 0 0
      vertex 3.993693638340111 1.453585609134092 0
      vertex 4.221263020403258 0.4933948850322285 0
    endloop
  endfacet
  facet normal 0 0 -1
    outer loop
      vertex 4.221263020403258 0.4933948850322285 0
      vertex 3.993693638340111 1.453585609134092 0
      vertex 4.135440699964251 0.9801174506553707 0
    endloop
  endfacet
  facet normal 0.9983081582712682 0.05814482891047485 0
    outer loop
      vertex 4.221263020403258 0.4933948850322285 1.38
      vertex 4.25 0 0
      vertex 4.221263020403258 0.4933948850322285 0
    endloop
  endfacet
  facet normal 0.9848077530122078 0.1736481776669319 0
    outer loop
      vertex 4.135440699964251 0.9801174506553707 1.38
      vertex 4.221263020403258 0.4933948850322285 0
      vertex 4.135440699964251 0.9801174506553707 0
    endloop
  endfacet
  facet normal 0 0 -1
    outer loop
      vertex 3.993693638340111 1.453585609134092 0
      vertex 3.2556888832556568 2.731847341167792 0
      vertex 3.797938721374502 1.9073965158519641 0
    endloop
  endfacet
  facet normal 0 0 -1
    outer loop
      vertex 4.25 0 0
      vertex 3.2556888832556568 2.731847341167792 0
      vertex 3.993693638340111 1.453585609134092 0
    endloop
  endfacet
  facet normal 0.8660254037844385 0.5000000000000003 0
    outer loop
      vertex 3.797938721374502 1.9073965158519641 0
      vertex 3.5508231985049794 2.335413156800926 0
      vertex 3.797938721374502 1.9073965158519641 1.38
    endloop
  endfacet
  facet normal 0.9579895123154893 0.2868032327110892 -9.162355303148105e-18
    outer loop
      vertex 3.993693638340111 1.453585609134092 0
      vertex 4.135440699964251 0.9801174506553707 1.38
      vertex 4.135440699964251 0.9801174506553707 0
    endloop
  endfacet
  facet normal 0.918216106880274 0.3960797660391572 -1.881604263588232e-18
    outer loop
      vertex 3.993693638340111 1.453585609134092 0
      vertex 3.797938721374502 1.9073965158519641 0
      vertex 3.797938721374502 1.9073965158519641 1.38
    endloop
  endfacet
  facet normal 0.9983081582712682 0.05814482891047485 0
    outer loop
      vertex 4.25 0 0
      vertex 4.221263020403258 0.4933948850322285 1.38
      vertex 4.25 0 1.38
    endloop
  endfacet
  facet normal 0.9848077530122078 0.1736481776669319 3.937718423662827e-18
    outer loop
      vertex 4.135440699964251 0.9801174506553707 1.38
      vertex 4.221263020403258 0.4933948850322285 1.38
      vertex 4.221263020403258 0.4933948850322285 0
    endloop
  endfacet
  facet normal 0.9579895123154893 0.2868032327110892 -9.162355303148105e-18
    outer loop
      vertex 4.135440699964251 0.9801174506553707 1.38
      vertex 3.993693638340111 1.453585609134092 0
      vertex 3.993693638340111 1.453585609134092 1.38
    endloop
  endfacet
  facet normal 0.918216106880274 0.3960797660391572 0
    outer loop
      vertex 3.993693638340111 1.453585609134092 0
      vertex 3.797938721374502 1.9073965158519641 1.38
      vertex 3.993693638340111 1.453585609134092 1.38
    endloop
  endfacet
  facet normal 0 0 -1
    outer loop
      vertex 4.25 0 0
      vertex 0.24711552286952193 4.24280967265289 0
      vertex 3.2556888832556568 2.731847341167792 0
    endloop
  endfacet
  facet normal 0 0 -1
    outer loop
      vertex 3.2556888832556568 2.731847341167792 0
      vertex 2.5379240147368414 3.4090235692089363 0
      vertex 2.9165269609421176 3.0913379766854567 0
    endloop
  endfacet
  facet normal 0.7273736415730484 0.6862416378687339 0
    outer loop
      vertex 3.2556888832556568 2.731847341167792 1.38
      vertex 3.2556888832556568 2.731847341167792 0
      vertex 2.9165269609421176 3.0913379766854567 0
    endloop
  endfacet
  facet normal 0 0 -1
    outer loop
      vertex 3.2556888832556568 2.731847341167792 0
      vertex 2.125 3.680607966083864 0
      vertex 2.5379240147368414 3.4090235692089363 0
    endloop
  endfacet
  facet normal 0.5495089780708055 0.8354878114129367 0
    outer loop
      vertex 2.125 3.680607966083864 0
      vertex 2.125 3.680607966083864 1.38
      vertex 2.5379240147368414 3.4090235692089363 0
    endloop
  endfacet
  facet normal 0.6427876096865403 0.7660444431189773 2.7772856070073983e-20
    outer loop
      vertex 2.9165269609421176 3.0913379766854567 0
      vertex 2.5379240147368414 3.4090235692089363 0
      vertex 2.5379240147368414 3.4090235692089363 1.38
    endloop
  endfacet
  facet normal 0 0 -1
    outer loop
      vertex 3.797938721374502 1.9073965158519641 0
      vertex 3.2556888832556568 2.731847341167792 0
      vertex 3.5508231985049794 2.335413156800926 0
    endloop
  endfacet
  facet normal 0.8021231927550438 0.5971585917027861 0
    outer loop
      vertex 3.2556888832556568 2.731847341167792 0
      vertex 3.2556888832556568 2.731847341167792 1.38
      vertex 3.5508231985049794 2.335413156800926 0
    endloop
  endfacet
  facet normal 0.7273736415730484 0.6862416378687339 -5.6919667750027876e-18
    outer loop
      vertex 3.2556888832556568 2.731847341167792 1.38
      vertex 2.9165269609421176 3.0913379766854567 0
      vertex 2.9165269609421176 3.0913379766854567 1.38
    endloop
  endfacet
  facet normal 0.5495089780708055 0.8354878114129367 0
    outer loop
      vertex 2.5379240147368414 3.4090235692089363 1.38
      vertex 2.5379240147368414 3.4090235692089363 0
      vertex 2.125 3.680607966083864 1.38
    endloop
  endfacet
  facet normal 0.6427876096865403 0.7660444431189773 0
    outer loop
      vertex 2.9165269609421176 3.0913379766854567 0
      vertex 2.5379240147368414 3.4090235692089363 1.38
      vertex 2.9165269609421176 3.0913379766854567 1.38
    endloop
  endfacet
  facet normal 0.8021231927550438 0.5971585917027861 0
    outer loop
      vertex 3.5508231985049794 2.335413156800926 1.38
      vertex 3.5508231985049794 2.335413156800926 0
      vertex 3.2556888832556568 2.731847341167792 1.38
    endloop
  endfacet
  facet normal 0.8660254037844385 0.5000000000000003 -5.4042463108695516e-18
    outer loop
      vertex 3.797938721374502 1.9073965158519641 1.38
      vertex 3.5508231985049794 2.335413156800926 0
      vertex 3.5508231985049794 2.335413156800926 1.38
    endloop
  endfacet
  facet normal 0 0 1
    outer loop
      vertex -2.8138062940593875 0.9659809208839332 2.53
      vertex 2.8138062940593875 0.9659809208839332 2.53
      vertex 0.24567355278018901 2.9648388666948424 2.53
    endloop
  endfacet
  facet normal 0 0 1
    outer loop
      vertex 2.8138062940593875 0.9659809208839332 2.53
      vertex 2.347693015454271 1.8272828202517615 2.53
      vertex 1.1950438883425842 2.7244256467987955 2.53
    endloop
  endfacet
  facet normal 2.9056179877995384e-17 0.6689089015148827 0.7433443895491194
    outer loop
      vertex 0.24567355278018901 2.9648388666948424 2.53
      vertex 0.24711552286952193 4.24280967265289 1.38
      vertex -0.24711552286952193 4.24280967265289 1.38
    endloop
  endfacet
  facet normal 0.07794072071890333 0.6668254822560448 0.7411268584175122
    outer loop
      vertex 0.24711552286952193 4.24280967265289 1.38
      vertex 0.24567355278018901 2.9648388666948424 2.53
      vertex 0.738004755084454 4.185432950301884 1.38
    endloop
  endfacet
  facet normal 0.15491713533136567 0.6536467911502052 0.7407742932903135
    outer loop
      vertex 0.7303193242438777 2.8839657911695076 2.53
      vertex 1.2189137390221338 4.071455427340828 1.38
      vertex 0.738004755084454 4.185432950301884 1.38
    endloop
  endfacet
  facet normal 0.22917767750507304 0.6296604939882405 0.7422972817166082
    outer loop
      vertex 1.2189137390221338 4.071455427340828 1.38
      vertex 1.1950438883425842 2.7244256467987955 2.53
      vertex 1.6833390056664161 3.9024184542411646 1.38
    endloop
  endfacet
  facet normal 0.3010029008065523 0.59934605244292 0.7417422484442486
    outer loop
      vertex 1.1950438883425842 2.7244256467987955 2.53
      vertex 2.125 3.680607966083864 1.38
      vertex 1.6833390056664161 3.9024184542411646 1.38
    endloop
  endfacet
  facet normal 0.36918832497722576 0.5613235778555117 0.7406860479609412
    outer loop
      vertex 2.5379240147368414 3.4090235692089363 1.38
      vertex 2.125 3.680607966083864 1.38
      vertex 1.6271707704142195 2.490570272831022 2.53
    endloop
  endfacet
  facet normal 0 0 1
    outer loop
      vertex 0.24567355278018901 2.9648388666948424 2.53
      vertex 1.1950438883425842 2.7244256467987955 2.53
      vertex 0.7303193242438777 2.8839657911695076 2.53
    endloop
  endfacet
  facet normal 0.10976563815183873 0.657789406879141 0.7451607886078733
    outer loop
      vertex 0.24567355278018901 2.9648388666948424 2.53
      vertex 0.7303193242438777 2.8839657911695076 2.53
      vertex 0.738004755084454 4.185432950301884 1.38
    endloop
  endfacet
  facet normal 0.21683563722730442 0.6316206330951721 0.7443370757101131
    outer loop
      vertex 0.7303193242438777 2.8839657911695076 2.53
      vertex 1.1950438883425842 2.7244256467987955 2.53
      vertex 1.2189137390221338 4.071455427340828 1.38
    endloop
  endfacet
  facet normal 0.31759891114588984 0.5868713850541347 0.7447905135295338
    outer loop
      vertex 2.125 3.680607966083864 1.38
      vertex 1.1950438883425842 2.7244256467987955 2.53
      vertex 1.6271707704142195 2.490570272831022 2.53
    endloop
  endfacet
  facet normal 0.4097502312717431 0.5264471079002998 0.7449551600976821
    outer loop
      vertex 1.6271707704142195 2.490570272831022 2.53
      vertex 2.0149126755865794 2.188778634252566 2.53
      vertex 2.5379240147368414 3.4090235692089363 1.38
    endloop
  endfacet
  facet normal 0 0 1
    outer loop
      vertex 0.24567355278018901 2.9648388666948424 2.53
      vertex 2.8138062940593875 0.9659809208839332 2.53
      vertex 1.1950438883425842 2.7244256467987955 2.53
    endloop
  endfacet
  facet normal 0 0 1
    outer loop
      vertex 1.1950438883425842 2.7244256467987955 2.53
      vertex 2.347693015454271 1.8272828202517615 2.53
      vertex 1.6271707704142195 2.490570272831022 2.53
    endloop
  endfacet
  facet normal 0 0 1
    outer loop
      vertex 1.6271707704142195 2.490570272831022 2.53
      vertex 2.347693015454271 1.8272828202517615 2.53
      vertex 2.0149126755865794 2.188778634252566 2.53
    endloop
  endfacet
  facet normal 0.6692597415196895 0.0389799410581967 0.7420053655979167
    outer loop
      vertex 2.9749999999999996 0 2.53
      vertex 4.25 0 1.38
      vertex 4.221263020403258 0.4933948850322285 1.38
    endloop
  endfacet
  facet normal 0.6616124331324632 0.1166601227334295 0.740715467698875
    outer loop
      vertex 4.221263020403258 0.4933948850322285 1.38
      vertex 4.135440699964251 0.9801174506553707 1.38
      vertex 2.9344248776230986 0.48966890608518326 2.53
    endloop
  endfacet
  facet normal 0.6429744304861305 0.19249390817262305 0.7413028915750066
    outer loop
      vertex 2.8138062940593875 0.9659809208839332 2.53
      vertex 4.135440699964251 0.9801174506553707 1.38
      vertex 3.993693638340111 1.453585609134092 1.38
    endloop
  endfacet
  facet normal 0.614587845862738 0.26510731882811883 0.7429669502888843
    outer loop
      vertex 3.797938721374502 1.9073965158519641 1.38
      vertex 2.8138062940593875 0.9659809208839332 2.53
      vertex 3.993693638340111 1.453585609134092 1.38
    endloop
  endfacet
  facet normal 0.5815594882712527 0.3357635271031891 0.7409800371595071
    outer loop
      vertex 2.6164344098393046 1.4159434942852938 2.53
      vertex 3.797938721374502 1.9073965158519641 1.38
      vertex 3.5508231985049794 2.335413156800926 1.38
    endloop
  endfacet
  facet normal 0 0 1
    outer loop
      vertex 2.8138062940593875 0.9659809208839332 2.53
      vertex 2.934424877623099 -0.48966890608518254 2.53
      vertex 2.9344248776230986 0.48966890608518326 2.53
    endloop
  endfacet
  facet normal 0 0 1
    outer loop
      vertex 2.9344248776230986 0.48966890608518326 2.53
      vertex 2.934424877623099 -0.48966890608518254 2.53
      vertex 2.9749999999999996 0 2.53
    endloop
  endfacet
  facet normal 0.6121893268657322 0.2685311358887975 0.7437171889434545
    outer loop
      vertex 2.6164344098393046 1.4159434942852938 2.53
      vertex 2.8138062940593875 0.9659809208839332 2.53
      vertex 3.797938721374502 1.9073965158519641 1.38
    endloop
  endfacet
  facet normal 0.5582551885732392 0.36472631797933763 0.745201890365485
    outer loop
      vertex 2.347693015454271 1.8272828202517615 2.53
      vertex 2.6164344098393046 1.4159434942852938 2.53
      vertex 3.5508231985049794 2.335413156800926 1.38
    endloop
  endfacet
  facet normal 0 0 1
    outer loop
      vertex 2.6164344098393046 1.4159434942852938 2.53
      vertex 2.347693015454271 1.8272828202517615 2.53
      vertex 2.8138062940593875 0.9659809208839332 2.53
    endloop
  endfacet
  facet normal 0.6652482428041336 0.055124041014972106 0.7445845254557686
    outer loop
      vertex 4.221263020403258 0.4933948850322285 1.38
      vertex 2.9344248776230986 0.48966890608518326 2.53
      vertex 2.9749999999999996 0 2.53
    endloop
  endfacet
  facet normal 0.6465674044298948 0.16373310367522492 0.7450785611528941
    outer loop
      vertex 4.135440699964251 0.9801174506553707 1.38
      vertex 2.8138062940593875 0.9659809208839332 2.53
      vertex 2.9344248776230986 0.48966890608518326 2.53
    endloop
  endfacet
  facet normal 0.43127446847769574 0.513972897202451 0.7415080537530255
    outer loop
      vertex 2.0149126755865794 2.188778634252566 2.53
      vertex 2.9165269609421176 3.0913379766854567 1.38
      vertex 2.5379240147368414 3.4090235692089363 1.38
    endloop
  endfacet
  facet normal 0.5387514392796408 0.4010855859348374 0.7408624969786389
    outer loop
      vertex 3.2556888832556568 2.731847341167792 1.38
      vertex 2.347693015454271 1.8272828202517615 2.53
      vertex 3.5508231985049794 2.335413156800926 1.38
    endloop
  endfacet
  facet normal 0.48713332772126516 0.45958659149778336 0.742617859964771
    outer loop
      vertex 3.2556888832556568 2.731847341167792 1.38
      vertex 2.9165269609421176 3.0913379766854567 1.38
      vertex 2.0149126755865794 2.188778634252566 2.53
    endloop
  endfacet
  facet normal 0.49155637942194735 0.452509524793013 0.74404801983554
    outer loop
      vertex 2.347693015454271 1.8272828202517615 2.53
      vertex 3.2556888832556568 2.731847341167792 1.38
      vertex 2.0149126755865794 2.188778634252566 2.53
    endloop
  endfacet
endsolid OpenSCAD_Model
