solid OpenSCAD_Model
  facet normal 0.9990989662046815 0.042441203196147886 -1.674757764610841e-19
    outer loop
      vertex 7 0 3.5
      vertex 6.974782419797686 0.5936414713285644 0
      vertex 6.974782419797686 0.5936414713285644 3.5
    endloop
  endfacet
  facet normal 0.9990989662046815 0.042441203196147886 -1.674757764610841e-19
    outer loop
      vertex 6.974782419797686 0.5936414713285644 0
      vertex 7 0 3.5
      vertex 7 0 0
    endloop
  endfacet
  facet normal 0.991900435258877 0.12701781974687926 -7.273156005305294e-19
    outer loop
      vertex 6.974782419797686 0.5936414713285644 3.5
      vertex 6.899311372433959 1.1830057422529434 0
      vertex 6.899311372433959 1.1830057422529434 3.5
    endloop
  endfacet
  facet normal 0.991900435258877 0.12701781974687926 -7.273156005305294e-19
    outer loop
      vertex 6.899311372433959 1.1830057422529434 0
      vertex 6.974782419797686 0.5936414713285644 3.5
      vertex 6.974782419797686 0.5936414713285644 0
    endloop
  endfacet
  facet normal 0.9775552389476865 0.2106792699957254 3.1319786567653026e-18
    outer loop
      vertex 6.899311372433959 1.1830057422529434 3.5
      vertex 6.774130628534492 1.7638464296958762 0
      vertex 6.774130628534492 1.7638464296958762 3.5
    endloop
  endfacet
  facet normal 0.9775552389476865 0.2106792699957254 3.1319786567653026e-18
    outer loop
      vertex 6.774130628534492 1.7638464296958762 0
      vertex 6.899311372433959 1.1830057422529434 3.5
      vertex 6.899311372433959 1.1830057422529434 0
    endloop
  endfacet
  facet normal 0.9561667347392507 0.29282277127655076 -3.194368755327027e-18
    outer loop
      vertex 6.774130628534492 1.7638464296958762 3.5
      vertex 6.6001421182275894 2.331978563194403 0
      vertex 6.6001421182275894 2.331978563194403 3.5
    endloop
  endfacet
  facet normal 0.9561667347392507 0.29282277127655076 -3.194368755327027e-18
    outer loop
      vertex 6.6001421182275894 2.331978563194403 0
      vertex 6.774130628534492 1.7638464296958762 3.5
      vertex 6.774130628534492 1.7638464296958762 0
    endloop
  endfacet
  facet normal 0.9278890272965089 0.37285647778030967 -7.988206103012211e-19
    outer loop
      vertex 6.6001421182275894 2.331978563194403 3.5
      vertex 6.37859943271695 2.883308737707948 0
      vertex 6.37859943271695 2.883308737707948 3.5
    endloop
  endfacet
  facet normal 0.9278890272965089 0.37285647778030967 -7.988206103012211e-19
    outer loop
      vertex 6.37859943271695 2.883308737707948 0
      vertex 6.6001421182275894 2.331978563194403 3.5
      vertex 6.6001421182275894 2.331978563194403 0
    endloop
  endfacet
  facet normal 0.8929258581495688 0.4502037448176727 -1.430472227123943e-18
    outer loop
      vertex 6.37859943271695 2.883308737707948 3.5
      vertex 6.111098792128317 3.413864606695442 0
      vertex 6.111098792128317 3.413864606695442 3.5
    endloop
  endfacet
  facet normal 0.8929258581495688 0.4502037448176727 -1.430472227123943e-18
    outer loop
      vertex 6.111098792128317 3.413864606695442 0
      vertex 6.37859943271695 2.883308737707948 3.5
      vertex 6.37859943271695 2.883308737707948 0
    endloop
  endfacet
  facet normal 0.8515291377333113 0.5243072835572314 2.691103238994794e-19
    outer loop
      vertex 6.111098792128317 3.413864606695442 3.5
      vertex 5.799567544706895 3.919823502963167 0
      vertex 5.799567544706895 3.919823502963167 3.5
    endloop
  endfacet
  facet normal 0.8515291377333113 0.5243072835572314 2.691103238994794e-19
    outer loop
      vertex 5.799567544706895 3.919823502963167 0
      vertex 6.111098792128317 3.413864606695442 3.5
      vertex 6.111098792128317 3.413864606695442 0
    endloop
  endfacet
  facet normal 0.8039971303669403 0.594633176304287 4.125421809710228e-18
    outer loop
      vertex 5.799567544706895 3.919823502963167 3.5
      vertex 5.446250280229076 4.397539981069496 0
      vertex 5.446250280229076 4.397539981069496 3.5
    endloop
  endfacet
  facet normal 0.8039971303669403 0.594633176304287 4.125421809710228e-18
    outer loop
      vertex 5.446250280229076 4.397539981069496 0
      vertex 5.799567544706895 3.919823502963167 3.5
      vertex 5.799567544706895 3.919823502963167 0
    endloop
  endfacet
  facet normal 0.7506723052527249 0.6606747233900808 -3.401800381468578e-18
    outer loop
      vertex 5.446250280229076 4.397539981069496 3.5
      vertex 5.053692657681672 4.843572082842823 0
      vertex 5.053692657681672 4.843572082842823 3.5
    endloop
  endfacet
  facet normal 0.7506723052527249 0.6606747233900808 -3.401800381468578e-18
    outer loop
      vertex 5.053692657681672 4.843572082842823 0
      vertex 5.446250280229076 4.397539981069496 3.5
      vertex 5.446250280229076 4.397539981069496 0
    endloop
  endfacet
  facet normal 0.6919388689775463 0.7219560939545244 0
    outer loop
      vertex 5.053692657681672 4.843572082842823 0
      vertex 4.6247230637305705 5.25470613676907 3.5
      vertex 5.053692657681672 4.843572082842823 3.5
    endloop
  endfacet
  facet normal 0.6919388689775463 0.7219560939545244 0
    outer loop
      vertex 4.6247230637305705 5.25470613676907 3.5
      vertex 5.053692657681672 4.843572082842823 0
      vertex 4.6247230637305705 5.25470613676907 0
    endloop
  endfacet
  facet normal 0.6282199972956422 0.7780357543184397 0
    outer loop
      vertex 4.6247230637305705 5.25470613676907 0
      vertex 4.162432234130006 5.627979912568584 3.5
      vertex 4.6247230637305705 5.25470613676907 3.5
    endloop
  endfacet
  facet normal 0.6282199972956422 0.7780357543184397 0
    outer loop
      vertex 4.162432234130006 5.627979912568584 3.5
      vertex 4.6247230637305705 5.25470613676907 0
      vertex 4.162432234130006 5.627979912568584 0
    endloop
  endfacet
  facet normal 0.5599747861375952 0.8285096492438423 0
    outer loop
      vertex 4.162432234130006 5.627979912568584 0
      vertex 3.6701509849006215 5.960703964133179 3.5
      vertex 4.162432234130006 5.627979912568584 3.5
    endloop
  endfacet
  facet normal 0.5599747861375952 0.8285096492438423 0
    outer loop
      vertex 3.6701509849006215 5.960703964133179 3.5
      vertex 4.162432234130006 5.627979912568584 0
      vertex 3.6701509849006215 5.960703964133179 0
    endloop
  endfacet
  facet normal 0.4876949438136351 0.8730141131611879 0
    outer loop
      vertex 3.6701509849006215 5.960703964133179 0
      vertex 3.1514262137237132 6.25048100704698 3.5
      vertex 3.6701509849006215 5.960703964133179 3.5
    endloop
  endfacet
  facet normal 0.4876949438136351 0.8730141131611879 0
    outer loop
      vertex 3.1514262137237132 6.25048100704698 3.5
      vertex 3.6701509849006215 5.960703964133179 0
      vertex 3.1514262137237132 6.25048100704698 0
    endloop
  endfacet
  facet normal 0.41190124824399205 0.9112284903881361 0
    outer loop
      vertex 3.1514262137237132 6.25048100704698 0
      vertex 2.6099953444621597 6.495223191075565 3.5
      vertex 3.1514262137237132 6.25048100704698 3.5
    endloop
  endfacet
  facet normal 0.41190124824399205 0.9112284903881361 0
    outer loop
      vertex 2.6099953444621597 6.495223191075565 3.5
      vertex 3.1514262137237132 6.25048100704698 0
      vertex 2.6099953444621597 6.495223191075565 0
    endloop
  endfacet
  facet normal 0.33313979474205774 0.9428774454610841 0
    outer loop
      vertex 2.6099953444621597 6.495223191075565 0
      vertex 2.049759398935853 6.693167143174756 3.5
      vertex 2.6099953444621597 6.495223191075565 3.5
    endloop
  endfacet
  facet normal 0.33313979474205774 0.9428774454610841 0
    outer loop
      vertex 2.049759398935853 6.693167143174756 3.5
      vertex 2.6099953444621597 6.495223191075565 0
      vertex 2.049759398935853 6.693167143174756 0
    endloop
  endfacet
  facet normal 0.25197806138512585 0.9677329469334987 0
    outer loop
      vertex 2.049759398935853 6.693167143174756 0
      vertex 1.474754889970084 6.842886672633804 3.5
      vertex 2.049759398935853 6.693167143174756 3.5
    endloop
  endfacet
  facet normal 0.25197806138512585 0.9677329469334987 0
    outer loop
      vertex 1.474754889970084 6.842886672633804 3.5
      vertex 2.049759398935853 6.693167143174756 0
      vertex 1.474754889970084 6.842886672633804 0
    endloop
  endfacet
  facet normal 0.16900082032184854 0.9856159103477085 0
    outer loop
      vertex 1.474754889970084 6.842886672633804 0
      vertex 0.8891247382281505 6.943303046812138 3.5
      vertex 1.474754889970084 6.842886672633804 3.5
    endloop
  endfacet
  facet normal 0.16900082032184854 0.9856159103477085 0
    outer loop
      vertex 0.8891247382281505 6.943303046812138 3.5
      vertex 1.474754889970084 6.842886672633804 0
      vertex 0.8891247382281505 6.943303046812138 0
    endloop
  endfacet
  facet normal 0.08480592447550801 0.9963974885425266 0
    outer loop
      vertex 0.8891247382281505 6.943303046812138 0
      vertex 0.29708842237303845 6.99369276343277 3.5
      vertex 0.8891247382281505 6.943303046812138 3.5
    endloop
  endfacet
  facet normal 0.08480592447550801 0.9963974885425266 0
    outer loop
      vertex 0.29708842237303845 6.99369276343277 3.5
      vertex 0.8891247382281505 6.943303046812138 0
      vertex 0.29708842237303845 6.99369276343277 0
    endloop
  endfacet
  facet normal 0 1 0
    outer loop
      vertex 0.29708842237303845 6.99369276343277 0
      vertex -0.29708842237303845 6.99369276343277 3.5
      vertex 0.29708842237303845 6.99369276343277 3.5
    endloop
  endfacet
  facet normal 0 1 0
    outer loop
      vertex -0.29708842237303845 6.99369276343277 3.5
      vertex 0.29708842237303845 6.99369276343277 0
      vertex -0.29708842237303845 6.99369276343277 0
    endloop
  endfacet
  facet normal -0.08480592447550801 0.9963974885425266 0
    outer loop
      vertex -0.29708842237303845 6.99369276343277 0
      vertex -0.8891247382281505 6.943303046812138 3.5
      vertex -0.29708842237303845 6.99369276343277 3.5
    endloop
  endfacet
  facet normal -0.08480592447550801 0.9963974885425266 0
    outer loop
      vertex -0.8891247382281505 6.943303046812138 3.5
      vertex -0.29708842237303845 6.99369276343277 0
      vertex -0.8891247382281505 6.943303046812138 0
    endloop
  endfacet
  facet normal -0.16900082032184854 0.9856159103477085 0
    outer loop
      vertex -0.8891247382281505 6.943303046812138 0
      vertex -1.474754889970084 6.842886672633804 3.5
      vertex -0.8891247382281505 6.943303046812138 3.5
    endloop
  endfacet
  facet normal -0.16900082032184854 0.9856159103477085 0
    outer loop
      vertex -1.474754889970084 6.842886672633804 3.5
      vertex -0.8891247382281505 6.943303046812138 0
      vertex -1.474754889970084 6.842886672633804 0
    endloop
  endfacet
  facet normal -0.25197806138512585 0.9677329469334987 0
    outer loop
      vertex -1.474754889970084 6.842886672633804 0
      vertex -2.049759398935853 6.693167143174756 3.5
      vertex -1.474754889970084 6.842886672633804 3.5
    endloop
  endfacet
  facet normal -0.25197806138512585 0.9677329469334987 0
    outer loop
      vertex -2.049759398935853 6.693167143174756 3.5
      vertex -1.474754889970084 6.842886672633804 0
      vertex -2.049759398935853 6.693167143174756 0
    endloop
  endfacet
  facet normal -0.33313979474205774 0.9428774454610841 0
    outer loop
      vertex -2.049759398935853 6.693167143174756 0
      vertex -2.6099953444621597 6.495223191075565 3.5
      vertex -2.049759398935853 6.693167143174756 3.5
    endloop
  endfacet
  facet normal -0.33313979474205774 0.9428774454610841 0
    outer loop
      vertex -2.6099953444621597 6.495223191075565 3.5
      vertex -2.049759398935853 6.693167143174756 0
      vertex -2.6099953444621597 6.495223191075565 0
    endloop
  endfacet
  facet normal -0.41190124824399205 0.9112284903881361 0
    outer loop
      vertex -2.6099953444621597 6.495223191075565 0
      vertex -3.1514262137237132 6.25048100704698 3.5
      vertex -2.6099953444621597 6.495223191075565 3.5
    endloop
  endfacet
  facet normal -0.41190124824399205 0.9112284903881361 0
    outer loop
      vertex -3.1514262137237132 6.25048100704698 3.5
      vertex -2.6099953444621597 6.495223191075565 0
      vertex -3.1514262137237132 6.25048100704698 0
    endloop
  endfacet
  facet normal -0.48769494381363443 0.8730141131611883 0
    outer loop
      vertex -3.1514262137237132 6.25048100704698 0
      vertex -3.6701509849006224 5.960703964133179 3.5
      vertex -3.1514262137237132 6.25048100704698 3.5
    endloop
  endfacet
  facet normal -0.48769494381363443 0.8730141131611883 0
    outer loop
      vertex -3.6701509849006224 5.960703964133179 3.5
      vertex -3.1514262137237132 6.25048100704698 0
      vertex -3.6701509849006224 5.960703964133179 0
    endloop
  endfacet
  facet normal -0.559974786137596 0.828509649243842 0
    outer loop
      vertex -3.6701509849006224 5.960703964133179 0
      vertex -4.162432234130006 5.627979912568584 3.5
      vertex -3.6701509849006224 5.960703964133179 3.5
    endloop
  endfacet
  facet normal -0.559974786137596 0.828509649243842 0
    outer loop
      vertex -4.162432234130006 5.627979912568584 3.5
      vertex -3.6701509849006224 5.960703964133179 0
      vertex -4.162432234130006 5.627979912568584 0
    endloop
  endfacet
  facet normal -0.6282199972956422 0.7780357543184397 0
    outer loop
      vertex -4.162432234130006 5.627979912568584 0
      vertex -4.6247230637305705 5.25470613676907 3.5
      vertex -4.162432234130006 5.627979912568584 3.5
    endloop
  endfacet
  facet normal -0.6282199972956422 0.7780357543184397 0
    outer loop
      vertex -4.6247230637305705 5.25470613676907 3.5
      vertex -4.162432234130006 5.627979912568584 0
      vertex -4.6247230637305705 5.25470613676907 0
    endloop
  endfacet
  facet normal -0.6919388689775463 0.7219560939545243 0
    outer loop
      vertex -4.6247230637305705 5.25470613676907 0
      vertex -5.0536926576816725 4.843572082842822 3.5
      vertex -4.6247230637305705 5.25470613676907 3.5
    endloop
  endfacet
  facet normal -0.6919388689775463 0.7219560939545243 0
    outer loop
      vertex -5.0536926576816725 4.843572082842822 3.5
      vertex -4.6247230637305705 5.25470613676907 0
      vertex -5.0536926576816725 4.843572082842822 0
    endloop
  endfacet
  facet normal -0.7506723052527249 0.6606747233900808 3.401800381468578e-18
    outer loop
      vertex -5.446250280229077 4.397539981069495 0
      vertex -5.0536926576816725 4.843572082842822 3.5
      vertex -5.0536926576816725 4.843572082842822 0
    endloop
  endfacet
  facet normal -0.7506723052527249 0.6606747233900808 3.401800381468578e-18
    outer loop
      vertex -5.0536926576816725 4.843572082842822 3.5
      vertex -5.446250280229077 4.397539981069495 0
      vertex -5.446250280229077 4.397539981069495 3.5
    endloop
  endfacet
  facet normal -0.8039971303669406 0.5946331763042865 -6.609994652718866e-18
    outer loop
      vertex -5.799567544706894 3.919823502963168 0
      vertex -5.446250280229077 4.397539981069495 3.5
      vertex -5.446250280229077 4.397539981069495 0
    endloop
  endfacet
  facet normal -0.8039971303669406 0.5946331763042865 -6.609994652718866e-18
    outer loop
      vertex -5.446250280229077 4.397539981069495 3.5
      vertex -5.799567544706894 3.919823502963168 0
      vertex -5.799567544706894 3.919823502963168 3.5
    endloop
  endfacet
  facet normal -0.8515291377333112 0.5243072835572319 1.8621156498845604e-18
    outer loop
      vertex -6.111098792128317 3.413864606695442 0
      vertex -5.799567544706894 3.919823502963168 3.5
      vertex -5.799567544706894 3.919823502963168 0
    endloop
  endfacet
  facet normal -0.8515291377333112 0.5243072835572319 1.8621156498845604e-18
    outer loop
      vertex -5.799567544706894 3.919823502963168 3.5
      vertex -6.111098792128317 3.413864606695442 0
      vertex -6.111098792128317 3.413864606695442 3.5
    endloop
  endfacet
  facet normal -0.8929258581495688 0.4502037448176727 1.430472227123943e-18
    outer loop
      vertex -6.37859943271695 2.883308737707948 0
      vertex -6.111098792128317 3.413864606695442 3.5
      vertex -6.111098792128317 3.413864606695442 0
    endloop
  endfacet
  facet normal -0.8929258581495688 0.4502037448176727 1.430472227123943e-18
    outer loop
      vertex -6.111098792128317 3.413864606695442 3.5
      vertex -6.37859943271695 2.883308737707948 0
      vertex -6.37859943271695 2.883308737707948 3.5
    endloop
  endfacet
  facet normal -0.927889027296509 0.3728564777803091 1.9915405533821516e-18
    outer loop
      vertex -6.6001421182275894 2.331978563194402 0
      vertex -6.37859943271695 2.883308737707948 3.5
      vertex -6.37859943271695 2.883308737707948 0
    endloop
  endfacet
  facet normal -0.927889027296509 0.3728564777803091 1.9915405533821516e-18
    outer loop
      vertex -6.37859943271695 2.883308737707948 3.5
      vertex -6.6001421182275894 2.331978563194402 0
      vertex -6.6001421182275894 2.331978563194402 3.5
    endloop
  endfacet
  facet normal -0.956166734739251 0.29282277127655043 -1.1335684102503115e-18
    outer loop
      vertex -6.774130628534492 1.7638464296958747 0
      vertex -6.6001421182275894 2.331978563194402 3.5
      vertex -6.6001421182275894 2.331978563194402 0
    endloop
  endfacet
  facet normal -0.956166734739251 0.29282277127655043 -1.1335684102503115e-18
    outer loop
      vertex -6.6001421182275894 2.331978563194402 3.5
      vertex -6.774130628534492 1.7638464296958747 0
      vertex -6.774130628534492 1.7638464296958747 3.5
    endloop
  endfacet
  facet normal -0.9775552389476861 0.21067926999572642 3.271080354110833e-18
    outer loop
      vertex -6.899311372433959 1.183005742252945 0
      vertex -6.774130628534492 1.7638464296958747 3.5
      vertex -6.774130628534492 1.7638464296958747 0
    endloop
  endfacet
  facet normal -0.9775552389476861 0.21067926999572642 3.271080354110833e-18
    outer loop
      vertex -6.774130628534492 1.7638464296958747 3.5
      vertex -6.899311372433959 1.183005742252945 0
      vertex -6.899311372433959 1.183005742252945 3.5
    endloop
  endfacet
  facet normal -0.991900435258877 0.12701781974687903 2.8631754564287717e-19
    outer loop
      vertex -6.974782419797686 0.5936414713285649 0
      vertex -6.899311372433959 1.183005742252945 3.5
      vertex -6.899311372433959 1.183005742252945 0
    endloop
  endfacet
  facet normal -0.991900435258877 0.12701781974687903 2.8631754564287717e-19
    outer loop
      vertex -6.899311372433959 1.183005742252945 3.5
      vertex -6.974782419797686 0.5936414713285649 0
      vertex -6.974782419797686 0.5936414713285649 3.5
    endloop
  endfacet
  facet normal -0.9990989662046815 0.042441203196147845 2.2555433684925533e-19
    outer loop
      vertex -7 0 0
      vertex -6.974782419797686 0.5936414713285649 3.5
      vertex -6.974782419797686 0.5936414713285649 0
    endloop
  endfacet
  facet normal -0.9990989662046815 0.042441203196147845 2.2555433684925533e-19
    outer loop
      vertex -6.974782419797686 0.5936414713285649 3.5
      vertex -7 0 0
      vertex -7 0 3.5
    endloop
  endfacet
  facet normal -0.9990989662046815 -0.042441203196147845 -2.2555433684925533e-19
    outer loop
      vertex -6.974782419797686 -0.5936414713285649 0
      vertex -7 0 3.5
      vertex -7 0 0
    endloop
  endfacet
  facet normal -0.9990989662046815 -0.042441203196147845 -2.2555433684925533e-19
    outer loop
      vertex -7 0 3.5
      vertex -6.974782419797686 -0.5936414713285649 0
      vertex -6.974782419797686 -0.5936414713285649 3.5
    endloop
  endfacet
  facet normal -0.991900435258877 -0.12701781974687903 -2.8631754564287717e-19
    outer loop
      vertex -6.899311372433959 -1.183005742252945 0
      vertex -6.974782419797686 -0.5936414713285649 3.5
      vertex -6.974782419797686 -0.5936414713285649 0
    endloop
  endfacet
  facet normal -0.991900435258877 -0.12701781974687903 -2.8631754564287717e-19
    outer loop
      vertex -6.974782419797686 -0.5936414713285649 3.5
      vertex -6.899311372433959 -1.183005742252945 0
      vertex -6.899311372433959 -1.183005742252945 3.5
    endloop
  endfacet
  facet normal -0.9775552389476861 -0.21067926999572642 -3.271080354110833e-18
    outer loop
      vertex -6.774130628534492 -1.7638464296958747 0
      vertex -6.899311372433959 -1.183005742252945 3.5
      vertex -6.899311372433959 -1.183005742252945 0
    endloop
  endfacet
  facet normal -0.9775552389476861 -0.21067926999572642 -3.271080354110833e-18
    outer loop
      vertex -6.899311372433959 -1.183005742252945 3.5
      vertex -6.774130628534492 -1.7638464296958747 0
      vertex -6.774130628534492 -1.7638464296958747 3.5
    endloop
  endfacet
  facet normal -0.956166734739251 -0.29282277127655043 1.1335684102503115e-18
    outer loop
      vertex -6.6001421182275894 -2.331978563194402 0
      vertex -6.774130628534492 -1.7638464296958747 3.5
      vertex -6.774130628534492 -1.7638464296958747 0
    endloop
  endfacet
  facet normal -0.956166734739251 -0.29282277127655043 1.1335684102503115e-18
    outer loop
      vertex -6.774130628534492 -1.7638464296958747 3.5
      vertex -6.6001421182275894 -2.331978563194402 0
      vertex -6.6001421182275894 -2.331978563194402 3.5
    endloop
  endfacet
  facet normal -0.927889027296509 -0.3728564777803091 -1.9915405533821516e-18
    outer loop
      vertex -6.37859943271695 -2.883308737707948 0
      vertex -6.6001421182275894 -2.331978563194402 3.5
      vertex -6.6001421182275894 -2.331978563194402 0
    endloop
  endfacet
  facet normal -0.927889027296509 -0.3728564777803091 -1.9915405533821516e-18
    outer loop
      vertex -6.6001421182275894 -2.331978563194402 3.5
      vertex -6.37859943271695 -2.883308737707948 0
      vertex -6.37859943271695 -2.883308737707948 3.5
    endloop
  endfacet
  facet normal -0.8929258581495688 -0.4502037448176727 -1.430472227123943e-18
    outer loop
      vertex -6.111098792128317 -3.413864606695442 0
      vertex -6.37859943271695 -2.883308737707948 3.5
      vertex -6.37859943271695 -2.883308737707948 0
    endloop
  endfacet
  facet normal -0.8929258581495688 -0.4502037448176727 -1.430472227123943e-18
    outer loop
      vertex -6.37859943271695 -2.883308737707948 3.5
      vertex -6.111098792128317 -3.413864606695442 0
      vertex -6.111098792128317 -3.413864606695442 3.5
    endloop
  endfacet
  facet normal -0.8515291377333112 -0.5243072835572319 -1.8621156498845604e-18
    outer loop
      vertex -5.799567544706894 -3.919823502963168 0
      vertex -6.111098792128317 -3.413864606695442 3.5
      vertex -6.111098792128317 -3.413864606695442 0
    endloop
  endfacet
  facet normal -0.8515291377333112 -0.5243072835572319 -1.8621156498845604e-18
    outer loop
      vertex -6.111098792128317 -3.413864606695442 3.5
      vertex -5.799567544706894 -3.919823502963168 0
      vertex -5.799567544706894 -3.919823502963168 3.5
    endloop
  endfacet
  facet normal -0.8039971303669406 -0.5946331763042865 6.609994652718866e-18
    outer loop
      vertex -5.446250280229077 -4.397539981069495 0
      vertex -5.799567544706894 -3.919823502963168 3.5
      vertex -5.799567544706894 -3.919823502963168 0
    endloop
  endfacet
  facet normal -0.8039971303669406 -0.5946331763042865 6.609994652718866e-18
    outer loop
      vertex -5.799567544706894 -3.919823502963168 3.5
      vertex -5.446250280229077 -4.397539981069495 0
      vertex -5.446250280229077 -4.397539981069495 3.5
    endloop
  endfacet
  facet normal -0.7506723052527249 -0.6606747233900808 -3.401800381468578e-18
    outer loop
      vertex -5.0536926576816725 -4.843572082842822 0
      vertex -5.446250280229077 -4.397539981069495 3.5
      vertex -5.446250280229077 -4.397539981069495 0
    endloop
  endfacet
  facet normal -0.7506723052527249 -0.6606747233900808 -3.401800381468578e-18
    outer loop
      vertex -5.446250280229077 -4.397539981069495 3.5
      vertex -5.0536926576816725 -4.843572082842822 0
      vertex -5.0536926576816725 -4.843572082842822 3.5
    endloop
  endfacet
  facet normal -0.6919388689775463 -0.7219560939545243 0
    outer loop
      vertex -5.0536926576816725 -4.843572082842822 0
      vertex -4.6247230637305705 -5.25470613676907 3.5
      vertex -5.0536926576816725 -4.843572082842822 3.5
    endloop
  endfacet
  facet normal -0.6919388689775463 -0.7219560939545243 0
    outer loop
      vertex -4.6247230637305705 -5.25470613676907 3.5
      vertex -5.0536926576816725 -4.843572082842822 0
      vertex -4.6247230637305705 -5.25470613676907 0
    endloop
  endfacet
  facet normal -0.6282199972956422 -0.7780357543184397 0
    outer loop
      vertex -4.6247230637305705 -5.25470613676907 0
      vertex -4.162432234130006 -5.627979912568584 3.5
      vertex -4.6247230637305705 -5.25470613676907 3.5
    endloop
  endfacet
  facet normal -0.6282199972956422 -0.7780357543184397 0
    outer loop
      vertex -4.162432234130006 -5.627979912568584 3.5
      vertex -4.6247230637305705 -5.25470613676907 0
      vertex -4.162432234130006 -5.627979912568584 0
    endloop
  endfacet
  facet normal -0.5599747861375959 -0.8285096492438419 0
    outer loop
      vertex -4.162432234130006 -5.627979912568584 0
      vertex -3.670150984900621 -5.96070396413318 3.5
      vertex -4.162432234130006 -5.627979912568584 3.5
    endloop
  endfacet
  facet normal -0.5599747861375959 -0.8285096492438419 0
    outer loop
      vertex -3.670150984900621 -5.96070396413318 3.5
      vertex -4.162432234130006 -5.627979912568584 0
      vertex -3.670150984900621 -5.96070396413318 0
    endloop
  endfacet
  facet normal -0.48769494381363415 -0.8730141131611885 0
    outer loop
      vertex -3.670150984900621 -5.96070396413318 0
      vertex -3.1514262137237115 -6.2504810070469805 3.5
      vertex -3.670150984900621 -5.96070396413318 3.5
    endloop
  endfacet
  facet normal -0.48769494381363415 -0.8730141131611885 0
    outer loop
      vertex -3.1514262137237115 -6.2504810070469805 3.5
      vertex -3.670150984900621 -5.96070396413318 0
      vertex -3.1514262137237115 -6.2504810070469805 0
    endloop
  endfacet
  facet normal -0.4119012482439918 -0.9112284903881361 0
    outer loop
      vertex -3.1514262137237115 -6.2504810070469805 0
      vertex -2.6099953444621615 -6.4952231910755645 3.5
      vertex -3.1514262137237115 -6.2504810070469805 3.5
    endloop
  endfacet
  facet normal -0.4119012482439918 -0.9112284903881361 0
    outer loop
      vertex -2.6099953444621615 -6.4952231910755645 3.5
      vertex -3.1514262137237115 -6.2504810070469805 0
      vertex -2.6099953444621615 -6.4952231910755645 0
    endloop
  endfacet
  facet normal -0.3331397947420582 -0.9428774454610841 0
    outer loop
      vertex -2.6099953444621615 -6.4952231910755645 0
      vertex -2.049759398935853 -6.693167143174756 3.5
      vertex -2.6099953444621615 -6.4952231910755645 3.5
    endloop
  endfacet
  facet normal -0.3331397947420582 -0.9428774454610841 0
    outer loop
      vertex -2.049759398935853 -6.693167143174756 3.5
      vertex -2.6099953444621615 -6.4952231910755645 0
      vertex -2.049759398935853 -6.693167143174756 0
    endloop
  endfacet
  facet normal -0.2519780613851259 -0.9677329469334987 0
    outer loop
      vertex -2.049759398935853 -6.693167143174756 0
      vertex -1.4747548899700875 -6.842886672633803 3.5
      vertex -2.049759398935853 -6.693167143174756 3.5
    endloop
  endfacet
  facet normal -0.2519780613851259 -0.9677329469334987 0
    outer loop
      vertex -1.4747548899700875 -6.842886672633803 3.5
      vertex -2.049759398935853 -6.693167143174756 0
      vertex -1.4747548899700875 -6.842886672633803 0
    endloop
  endfacet
  facet normal -0.16900082032184902 -0.9856159103477086 0
    outer loop
      vertex -1.4747548899700875 -6.842886672633803 0
      vertex -0.8891247382281505 -6.943303046812138 3.5
      vertex -1.4747548899700875 -6.842886672633803 3.5
    endloop
  endfacet
  facet normal -0.16900082032184902 -0.9856159103477086 0
    outer loop
      vertex -0.8891247382281505 -6.943303046812138 3.5
      vertex -1.4747548899700875 -6.842886672633803 0
      vertex -0.8891247382281505 -6.943303046812138 0
    endloop
  endfacet
  facet normal -0.08480592447550826 -0.9963974885425266 0
    outer loop
      vertex -0.8891247382281505 -6.943303046812138 0
      vertex -0.29708842237304023 -6.99369276343277 3.5
      vertex -0.8891247382281505 -6.943303046812138 3.5
    endloop
  endfacet
  facet normal -0.08480592447550826 -0.9963974885425266 0
    outer loop
      vertex -0.29708842237304023 -6.99369276343277 3.5
      vertex -0.8891247382281505 -6.943303046812138 0
      vertex -0.29708842237304023 -6.99369276343277 0
    endloop
  endfacet
  facet normal 0 -1 0
    outer loop
      vertex -0.29708842237304023 -6.99369276343277 0
      vertex 0.29708842237304023 -6.99369276343277 3.5
      vertex -0.29708842237304023 -6.99369276343277 3.5
    endloop
  endfacet
  facet normal 0 -1 0
    outer loop
      vertex 0.29708842237304023 -6.99369276343277 3.5
      vertex -0.29708842237304023 -6.99369276343277 0
      vertex 0.29708842237304023 -6.99369276343277 0
    endloop
  endfacet
  facet normal 0.08480592447550826 -0.9963974885425266 0
    outer loop
      vertex 0.29708842237304023 -6.99369276343277 0
      vertex 0.8891247382281505 -6.943303046812138 3.5
      vertex 0.29708842237304023 -6.99369276343277 3.5
    endloop
  endfacet
  facet normal 0.08480592447550826 -0.9963974885425266 0
    outer loop
      vertex 0.8891247382281505 -6.943303046812138 3.5
      vertex 0.29708842237304023 -6.99369276343277 0
      vertex 0.8891247382281505 -6.943303046812138 0
    endloop
  endfacet
  facet normal 0.16900082032184902 -0.9856159103477086 0
    outer loop
      vertex 0.8891247382281505 -6.943303046812138 0
      vertex 1.4747548899700875 -6.842886672633803 3.5
      vertex 0.8891247382281505 -6.943303046812138 3.5
    endloop
  endfacet
  facet normal 0.16900082032184902 -0.9856159103477086 0
    outer loop
      vertex 1.4747548899700875 -6.842886672633803 3.5
      vertex 0.8891247382281505 -6.943303046812138 0
      vertex 1.4747548899700875 -6.842886672633803 0
    endloop
  endfacet
  facet normal 0.2519780613851259 -0.9677329469334987 0
    outer loop
      vertex 1.4747548899700875 -6.842886672633803 0
      vertex 2.049759398935853 -6.693167143174756 3.5
      vertex 1.4747548899700875 -6.842886672633803 3.5
    endloop
  endfacet
  facet normal 0.2519780613851259 -0.9677329469334987 0
    outer loop
      vertex 2.049759398935853 -6.693167143174756 3.5
      vertex 1.4747548899700875 -6.842886672633803 0
      vertex 2.049759398935853 -6.693167143174756 0
    endloop
  endfacet
  facet normal 0.3331397947420572 -0.9428774454610844 0
    outer loop
      vertex 2.049759398935853 -6.693167143174756 0
      vertex 2.6099953444621584 -6.495223191075566 3.5
      vertex 2.049759398935853 -6.693167143174756 3.5
    endloop
  endfacet
  facet normal 0.3331397947420572 -0.9428774454610844 0
    outer loop
      vertex 2.6099953444621584 -6.495223191075566 3.5
      vertex 2.049759398935853 -6.693167143174756 0
      vertex 2.6099953444621584 -6.495223191075566 0
    endloop
  endfacet
  facet normal 0.4119012482439929 -0.9112284903881357 0
    outer loop
      vertex 2.6099953444621584 -6.495223191075566 0
      vertex 3.1514262137237146 -6.250481007046979 3.5
      vertex 2.6099953444621584 -6.495223191075566 3.5
    endloop
  endfacet
  facet normal 0.4119012482439929 -0.9112284903881357 0
    outer loop
      vertex 3.1514262137237146 -6.250481007046979 3.5
      vertex 2.6099953444621584 -6.495223191075566 0
      vertex 3.1514262137237146 -6.250481007046979 0
    endloop
  endfacet
  facet normal 0.48769494381363404 -0.8730141131611885 0
    outer loop
      vertex 3.1514262137237146 -6.250481007046979 0
      vertex 3.670150984900621 -5.96070396413318 3.5
      vertex 3.1514262137237146 -6.250481007046979 3.5
    endloop
  endfacet
  facet normal 0.48769494381363404 -0.8730141131611885 0
    outer loop
      vertex 3.670150984900621 -5.96070396413318 3.5
      vertex 3.1514262137237146 -6.250481007046979 0
      vertex 3.670150984900621 -5.96070396413318 0
    endloop
  endfacet
  facet normal 0.5599747861375959 -0.828509649243842 0
    outer loop
      vertex 3.670150984900621 -5.96070396413318 0
      vertex 4.162432234130009 -5.627979912568582 3.5
      vertex 3.670150984900621 -5.96070396413318 3.5
    endloop
  endfacet
  facet normal 0.5599747861375959 -0.828509649243842 0
    outer loop
      vertex 4.162432234130009 -5.627979912568582 3.5
      vertex 3.670150984900621 -5.96070396413318 0
      vertex 4.162432234130009 -5.627979912568582 0
    endloop
  endfacet
  facet normal 0.6282199972956425 -0.7780357543184394 0
    outer loop
      vertex 4.162432234130009 -5.627979912568582 0
      vertex 4.6247230637305705 -5.25470613676907 3.5
      vertex 4.162432234130009 -5.627979912568582 3.5
    endloop
  endfacet
  facet normal 0.6282199972956425 -0.7780357543184394 0
    outer loop
      vertex 4.6247230637305705 -5.25470613676907 3.5
      vertex 4.162432234130009 -5.627979912568582 0
      vertex 4.6247230637305705 -5.25470613676907 0
    endloop
  endfacet
  facet normal 0.691938868977547 -0.7219560939545238 0
    outer loop
      vertex 4.6247230637305705 -5.25470613676907 0
      vertex 5.053692657681669 -4.843572082842825 3.5
      vertex 4.6247230637305705 -5.25470613676907 3.5
    endloop
  endfacet
  facet normal 0.691938868977547 -0.7219560939545238 0
    outer loop
      vertex 5.053692657681669 -4.843572082842825 3.5
      vertex 4.6247230637305705 -5.25470613676907 0
      vertex 5.053692657681669 -4.843572082842825 0
    endloop
  endfacet
  facet normal 0.7506723052527239 -0.660674723390082 4.340894915946308e-19
    outer loop
      vertex 5.053692657681669 -4.843572082842825 3.5
      vertex 5.446250280229077 -4.397539981069495 0
      vertex 5.446250280229077 -4.397539981069495 3.5
    endloop
  endfacet
  facet normal 0.7506723052527239 -0.660674723390082 4.340894915946308e-19
    outer loop
      vertex 5.446250280229077 -4.397539981069495 0
      vertex 5.053692657681669 -4.843572082842825 3.5
      vertex 5.053692657681669 -4.843572082842825 0
    endloop
  endfacet
  facet normal 0.8039971303669406 -0.5946331763042865 -6.609994652718866e-18
    outer loop
      vertex 5.446250280229077 -4.397539981069495 3.5
      vertex 5.799567544706894 -3.919823502963168 0
      vertex 5.799567544706894 -3.919823502963168 3.5
    endloop
  endfacet
  facet normal 0.8039971303669406 -0.5946331763042865 -6.609994652718866e-18
    outer loop
      vertex 5.799567544706894 -3.919823502963168 0
      vertex 5.446250280229077 -4.397539981069495 3.5
      vertex 5.446250280229077 -4.397539981069495 0
    endloop
  endfacet
  facet normal 0.8515291377333113 -0.5243072835572318 5.50395501004952e-18
    outer loop
      vertex 5.799567544706894 -3.919823502963168 3.5
      vertex 6.111098792128319 -3.413864606695439 0
      vertex 6.111098792128319 -3.413864606695439 3.5
    endloop
  endfacet
  facet normal 0.8515291377333113 -0.5243072835572318 5.50395501004952e-18
    outer loop
      vertex 6.111098792128319 -3.413864606695439 0
      vertex 5.799567544706894 -3.919823502963168 3.5
      vertex 5.799567544706894 -3.919823502963168 0
    endloop
  endfacet
  facet normal 0.8929258581495689 -0.45020374481767245 2.5562823372855712e-18
    outer loop
      vertex 6.111098792128319 -3.413864606695439 3.5
      vertex 6.37859943271695 -2.883308737707948 0
      vertex 6.37859943271695 -2.883308737707948 3.5
    endloop
  endfacet
  facet normal 0.8929258581495689 -0.45020374481767245 2.5562823372855712e-18
    outer loop
      vertex 6.37859943271695 -2.883308737707948 0
      vertex 6.111098792128319 -3.413864606695439 3.5
      vertex 6.111098792128319 -3.413864606695439 0
    endloop
  endfacet
  facet normal 0.9278890272965089 -0.37285647778030967 2.587509075639401e-18
    outer loop
      vertex 6.37859943271695 -2.883308737707948 3.5
      vertex 6.600142118227589 -2.331978563194405 0
      vertex 6.600142118227589 -2.331978563194405 3.5
    endloop
  endfacet
  facet normal 0.9278890272965089 -0.37285647778030967 2.587509075639401e-18
    outer loop
      vertex 6.600142118227589 -2.331978563194405 0
      vertex 6.37859943271695 -2.883308737707948 3.5
      vertex 6.37859943271695 -2.883308737707948 0
    endloop
  endfacet
  facet normal 0.956166734739251 -0.2928227712765504 1.0945106169411332e-18
    outer loop
      vertex 6.600142118227589 -2.331978563194405 3.5
      vertex 6.774130628534492 -1.7638464296958747 0
      vertex 6.774130628534492 -1.7638464296958747 3.5
    endloop
  endfacet
  facet normal 0.956166734739251 -0.2928227712765504 1.0945106169411332e-18
    outer loop
      vertex 6.774130628534492 -1.7638464296958747 0
      vertex 6.600142118227589 -2.331978563194405 3.5
      vertex 6.600142118227589 -2.331978563194405 0
    endloop
  endfacet
  facet normal 0.9775552389476861 -0.21067926999572642 3.271080354110833e-18
    outer loop
      vertex 6.774130628534492 -1.7638464296958747 3.5
      vertex 6.899311372433959 -1.183005742252945 0
      vertex 6.899311372433959 -1.183005742252945 3.5
    endloop
  endfacet
  facet normal 0.9775552389476861 -0.21067926999572642 3.271080354110833e-18
    outer loop
      vertex 6.899311372433959 -1.183005742252945 0
      vertex 6.774130628534492 -1.7638464296958747 3.5
      vertex 6.774130628534492 -1.7638464296958747 0
    endloop
  endfacet
  facet normal 0.991900435258877 -0.1270178197468783 -1.6034110803863315e-18
    outer loop
      vertex 6.899311372433959 -1.183005742252945 3.5
      vertex 6.974782419797686 -0.5936414713285615 0
      vertex 6.974782419797686 -0.5936414713285615 3.5
    endloop
  endfacet
  facet normal 0.991900435258877 -0.1270178197468783 -1.6034110803863315e-18
    outer loop
      vertex 6.974782419797686 -0.5936414713285615 0
      vertex 6.899311372433959 -1.183005742252945 3.5
      vertex 6.899311372433959 -1.183005742252945 0
    endloop
  endfacet
  facet normal 0.9990989662046814 -0.042441203196148095 1.991290557171721e-19
    outer loop
      vertex 6.974782419797686 -0.5936414713285615 3.5
      vertex 7 0 0
      vertex 7 0 3.5
    endloop
  endfacet
  facet normal 0.9990989662046814 -0.042441203196148095 1.991290557171721e-19
    outer loop
      vertex 7 0 0
      vertex 6.974782419797686 -0.5936414713285615 3.5
      vertex 6.974782419797686 -0.5936414713285615 0
    endloop
  endfacet
  facet normal 0 0 -1
    outer loop
      vertex 6.974782419797686 -0.5936414713285615 0
      vertex 6.974782419797686 0.5936414713285644 0
      vertex 7 0 0
    endloop
  endfacet
  facet normal 0 0 -1
    outer loop
      vertex 6.899311372433959 -1.183005742252945 0
      vertex 6.974782419797686 0.5936414713285644 0
      vertex 6.974782419797686 -0.5936414713285615 0
    endloop
  endfacet
  facet normal 0 0 -1
    outer loop
      vertex 6.899311372433959 -1.183005742252945 0
      vertex 6.899311372433959 1.1830057422529434 0
      vertex 6.974782419797686 0.5936414713285644 0
    endloop
  endfacet
  facet normal 0 0 -1
    outer loop
      vertex 6.774130628534492 -1.7638464296958747 0
      vertex 6.899311372433959 1.1830057422529434 0
      vertex 6.899311372433959 -1.183005742252945 0
    endloop
  endfacet
  facet normal 0 0 -1
    outer loop
      vertex 6.774130628534492 -1.7638464296958747 0
      vertex 6.774130628534492 1.7638464296958762 0
      vertex 6.899311372433959 1.1830057422529434 0
    endloop
  endfacet
  facet normal 0 0 -1
    outer loop
      vertex 6.600142118227589 -2.331978563194405 0
      vertex 6.774130628534492 1.7638464296958762 0
      vertex 6.774130628534492 -1.7638464296958747 0
    endloop
  endfacet
  facet normal 0 0 -1
    outer loop
      vertex 6.600142118227589 -2.331978563194405 0
      vertex 6.6001421182275894 2.331978563194403 0
      vertex 6.774130628534492 1.7638464296958762 0
    endloop
  endfacet
  facet normal 0 0 -1
    outer loop
      vertex 6.37859943271695 -2.883308737707948 0
      vertex 6.6001421182275894 2.331978563194403 0
      vertex 6.600142118227589 -2.331978563194405 0
    endloop
  endfacet
  facet normal 0 0 -1
    outer loop
      vertex 6.37859943271695 -2.883308737707948 0
      vertex 6.37859943271695 2.883308737707948 0
      vertex 6.6001421182275894 2.331978563194403 0
    endloop
  endfacet
  facet normal 0 0 -1
    outer loop
      vertex 6.111098792128319 -3.413864606695439 0
      vertex 6.37859943271695 2.883308737707948 0
      vertex 6.37859943271695 -2.883308737707948 0
    endloop
  endfacet
  facet normal 0 0 -1
    outer loop
      vertex 6.111098792128319 -3.413864606695439 0
      vertex 6.111098792128317 3.413864606695442 0
      vertex 6.37859943271695 2.883308737707948 0
    endloop
  endfacet
  facet normal 0 0 -1
    outer loop
      vertex 5.799567544706894 -3.919823502963168 0
      vertex 6.111098792128317 3.413864606695442 0
      vertex 6.111098792128319 -3.413864606695439 0
    endloop
  endfacet
  facet normal 0 0 -1
    outer loop
      vertex 5.799567544706894 -3.919823502963168 0
      vertex 5.799567544706895 3.919823502963167 0
      vertex 6.111098792128317 3.413864606695442 0
    endloop
  endfacet
  facet normal 0 0 -1
    outer loop
      vertex 5.446250280229077 -4.397539981069495 0
      vertex 5.799567544706895 3.919823502963167 0
      vertex 5.799567544706894 -3.919823502963168 0
    endloop
  endfacet
  facet normal 0 0 -1
    outer loop
      vertex 5.446250280229077 -4.397539981069495 0
      vertex 5.446250280229076 4.397539981069496 0
      vertex 5.799567544706895 3.919823502963167 0
    endloop
  endfacet
  facet normal 0 0 -1
    outer loop
      vertex 5.053692657681669 -4.843572082842825 0
      vertex 5.446250280229076 4.397539981069496 0
      vertex 5.446250280229077 -4.397539981069495 0
    endloop
  endfacet
  facet normal 0 0 -1
    outer loop
      vertex 5.053692657681669 -4.843572082842825 0
      vertex 5.053692657681672 4.843572082842823 0
      vertex 5.446250280229076 4.397539981069496 0
    endloop
  endfacet
  facet normal 0 0 -1
    outer loop
      vertex 4.6247230637305705 -5.25470613676907 0
      vertex 5.053692657681672 4.843572082842823 0
      vertex 5.053692657681669 -4.843572082842825 0
    endloop
  endfacet
  facet normal 0 0 -1
    outer loop
      vertex 4.6247230637305705 -5.25470613676907 0
      vertex 4.6247230637305705 5.25470613676907 0
      vertex 5.053692657681672 4.843572082842823 0
    endloop
  endfacet
  facet normal 0 0 -1
    outer loop
      vertex 4.162432234130009 -5.627979912568582 0
      vertex 4.6247230637305705 5.25470613676907 0
      vertex 4.6247230637305705 -5.25470613676907 0
    endloop
  endfacet
  facet normal 0 0 -1
    outer loop
      vertex 4.162432234130009 -5.627979912568582 0
      vertex 4.162432234130006 5.627979912568584 0
      vertex 4.6247230637305705 5.25470613676907 0
    endloop
  endfacet
  facet normal 0 0 -1
    outer loop
      vertex 3.670150984900621 -5.96070396413318 0
      vertex 4.162432234130006 5.627979912568584 0
      vertex 4.162432234130009 -5.627979912568582 0
    endloop
  endfacet
  facet normal 0 0 -1
    outer loop
      vertex 3.670150984900621 -5.96070396413318 0
      vertex 3.6701509849006215 5.960703964133179 0
      vertex 4.162432234130006 5.627979912568584 0
    endloop
  endfacet
  facet normal 0 0 -1
    outer loop
      vertex 3.1514262137237146 -6.250481007046979 0
      vertex 3.6701509849006215 5.960703964133179 0
      vertex 3.670150984900621 -5.96070396413318 0
    endloop
  endfacet
  facet normal 0 0 -1
    outer loop
      vertex 3.1514262137237146 -6.250481007046979 0
      vertex 3.1514262137237132 6.25048100704698 0
      vertex 3.6701509849006215 5.960703964133179 0
    endloop
  endfacet
  facet normal 0 0 -1
    outer loop
      vertex 2.6099953444621584 -6.495223191075566 0
      vertex 3.1514262137237132 6.25048100704698 0
      vertex 3.1514262137237146 -6.250481007046979 0
    endloop
  endfacet
  facet normal 0 0 -1
    outer loop
      vertex 2.6099953444621584 -6.495223191075566 0
      vertex 2.6099953444621597 6.495223191075565 0
      vertex 3.1514262137237132 6.25048100704698 0
    endloop
  endfacet
  facet normal 0 0 -1
    outer loop
      vertex 2.049759398935853 -6.693167143174756 0
      vertex 2.6099953444621597 6.495223191075565 0
      vertex 2.6099953444621584 -6.495223191075566 0
    endloop
  endfacet
  facet normal 0 0 -1
    outer loop
      vertex 2.049759398935853 -6.693167143174756 0
      vertex 2.049759398935853 6.693167143174756 0
      vertex 2.6099953444621597 6.495223191075565 0
    endloop
  endfacet
  facet normal 0 0 -1
    outer loop
      vertex 1.4747548899700875 -6.842886672633803 0
      vertex 2.049759398935853 6.693167143174756 0
      vertex 2.049759398935853 -6.693167143174756 0
    endloop
  endfacet
  facet normal 0 0 -1
    outer loop
      vertex 1.4747548899700875 -6.842886672633803 0
      vertex 1.474754889970084 6.842886672633804 0
      vertex 2.049759398935853 6.693167143174756 0
    endloop
  endfacet
  facet normal 0 0 -1
    outer loop
      vertex 0.8891247382281505 -6.943303046812138 0
      vertex 1.474754889970084 6.842886672633804 0
      vertex 1.4747548899700875 -6.842886672633803 0
    endloop
  endfacet
  facet normal 0 0 -1
    outer loop
      vertex 0.8891247382281505 -6.943303046812138 0
      vertex 0.8891247382281505 6.943303046812138 0
      vertex 1.474754889970084 6.842886672633804 0
    endloop
  endfacet
  facet normal 0 0 -1
    outer loop
      vertex 0.29708842237304023 -6.99369276343277 0
      vertex 0.8891247382281505 6.943303046812138 0
      vertex 0.8891247382281505 -6.943303046812138 0
    endloop
  endfacet
  facet normal 0 0 -1
    outer loop
      vertex 0.29708842237304023 -6.99369276343277 0
      vertex 0.29708842237303845 6.99369276343277 0
      vertex 0.8891247382281505 6.943303046812138 0
    endloop
  endfacet
  facet normal 0 0 -1
    outer loop
      vertex -0.29708842237304023 -6.99369276343277 0
      vertex 0.29708842237303845 6.99369276343277 0
      vertex 0.29708842237304023 -6.99369276343277 0
    endloop
  endfacet
  facet normal 0 0 -1
    outer loop
      vertex -0.29708842237304023 -6.99369276343277 0
      vertex -0.29708842237303845 6.99369276343277 0
      vertex 0.29708842237303845 6.99369276343277 0
    endloop
  endfacet
  facet normal 0 0 -1
    outer loop
      vertex -0.8891247382281505 -6.943303046812138 0
      vertex -0.29708842237303845 6.99369276343277 0
      vertex -0.29708842237304023 -6.99369276343277 0
    endloop
  endfacet
  facet normal 0 0 -1
    outer loop
      vertex -0.8891247382281505 -6.943303046812138 0
      vertex -0.8891247382281505 6.943303046812138 0
      vertex -0.29708842237303845 6.99369276343277 0
    endloop
  endfacet
  facet normal 0 0 -1
    outer loop
      vertex -1.4747548899700875 -6.842886672633803 0
      vertex -0.8891247382281505 6.943303046812138 0
      vertex -0.8891247382281505 -6.943303046812138 0
    endloop
  endfacet
  facet normal 0 0 -1
    outer loop
      vertex -1.4747548899700875 -6.842886672633803 0
      vertex -1.474754889970084 6.842886672633804 0
      vertex -0.8891247382281505 6.943303046812138 0
    endloop
  endfacet
  facet normal 0 0 -1
    outer loop
      vertex -2.049759398935853 -6.693167143174756 0
      vertex -1.474754889970084 6.842886672633804 0
      vertex -1.4747548899700875 -6.842886672633803 0
    endloop
  endfacet
  facet normal 0 0 -1
    outer loop
      vertex -2.049759398935853 -6.693167143174756 0
      vertex -2.049759398935853 6.693167143174756 0
      vertex -1.474754889970084 6.842886672633804 0
    endloop
  endfacet
  facet normal 0 0 -1
    outer loop
      vertex -2.6099953444621615 -6.4952231910755645 0
      vertex -2.049759398935853 6.693167143174756 0
      vertex -2.049759398935853 -6.693167143174756 0
    endloop
  endfacet
  facet normal 0 0 -1
    outer loop
      vertex -2.6099953444621615 -6.4952231910755645 0
      vertex -2.6099953444621597 6.495223191075565 0
      vertex -2.049759398935853 6.693167143174756 0
    endloop
  endfacet
  facet normal 0 0 -1
    outer loop
      vertex -3.1514262137237115 -6.2504810070469805 0
      vertex -2.6099953444621597 6.495223191075565 0
      vertex -2.6099953444621615 -6.4952231910755645 0
    endloop
  endfacet
  facet normal 0 0 -1
    outer loop
      vertex -3.1514262137237115 -6.2504810070469805 0
      vertex -3.1514262137237132 6.25048100704698 0
      vertex -2.6099953444621597 6.495223191075565 0
    endloop
  endfacet
  facet normal 0 0 -1
    outer loop
      vertex -3.670150984900621 -5.96070396413318 0
      vertex -3.1514262137237132 6.25048100704698 0
      vertex -3.1514262137237115 -6.2504810070469805 0
    endloop
  endfacet
  facet normal 0 0 -1
    outer loop
      vertex -3.670150984900621 -5.96070396413318 0
      vertex -3.6701509849006224 5.960703964133179 0
      vertex -3.1514262137237132 6.25048100704698 0
    endloop
  endfacet
  facet normal 0 0 -1
    outer loop
      vertex -4.162432234130006 -5.627979912568584 0
      vertex -3.6701509849006224 5.960703964133179 0
      vertex -3.670150984900621 -5.96070396413318 0
    endloop
  endfacet
  facet normal 0 0 -1
    outer loop
      vertex -4.162432234130006 -5.627979912568584 0
      vertex -4.162432234130006 5.627979912568584 0
      vertex -3.6701509849006224 5.960703964133179 0
    endloop
  endfacet
  facet normal 0 0 -1
    outer loop
      vertex -4.6247230637305705 -5.25470613676907 0
      vertex -4.162432234130006 5.627979912568584 0
      vertex -4.162432234130006 -5.627979912568584 0
    endloop
  endfacet
  facet normal 0 0 -1
    outer loop
      vertex -4.6247230637305705 -5.25470613676907 0
      vertex -4.6247230637305705 5.25470613676907 0
      vertex -4.162432234130006 5.627979912568584 0
    endloop
  endfacet
  facet normal 0 0 -1
    outer loop
      vertex -5.0536926576816725 -4.843572082842822 0
      vertex -4.6247230637305705 5.25470613676907 0
      vertex -4.6247230637305705 -5.25470613676907 0
    endloop
  endfacet
  facet normal 0 0 -1
    outer loop
      vertex -5.0536926576816725 -4.843572082842822 0
      vertex -5.0536926576816725 4.843572082842822 0
      vertex -4.6247230637305705 5.25470613676907 0
    endloop
  endfacet
  facet normal 0 0 -1
    outer loop
      vertex -5.446250280229077 -4.397539981069495 0
      vertex -5.0536926576816725 4.843572082842822 0
      vertex -5.0536926576816725 -4.843572082842822 0
    endloop
  endfacet
  facet normal 0 0 -1
    outer loop
      vertex -5.446250280229077 -4.397539981069495 0
      vertex -5.446250280229077 4.397539981069495 0
      vertex -5.0536926576816725 4.843572082842822 0
    endloop
  endfacet
  facet normal 0 0 -1
    outer loop
      vertex -5.799567544706894 -3.919823502963168 0
      vertex -5.446250280229077 4.397539981069495 0
      vertex -5.446250280229077 -4.397539981069495 0
    endloop
  endfacet
  facet normal 0 0 -1
    outer loop
      vertex -5.799567544706894 -3.919823502963168 0
      vertex -5.799567544706894 3.919823502963168 0
      vertex -5.446250280229077 4.397539981069495 0
    endloop
  endfacet
  facet normal 0 0 -1
    outer loop
      vertex -6.111098792128317 -3.413864606695442 0
      vertex -5.799567544706894 3.919823502963168 0
      vertex -5.799567544706894 -3.919823502963168 0
    endloop
  endfacet
  facet normal 0 0 -1
    outer loop
      vertex -6.111098792128317 -3.413864606695442 0
      vertex -6.111098792128317 3.413864606695442 0
      vertex -5.799567544706894 3.919823502963168 0
    endloop
  endfacet
  facet normal 0 0 -1
    outer loop
      vertex -6.37859943271695 -2.883308737707948 0
      vertex -6.111098792128317 3.413864606695442 0
      vertex -6.111098792128317 -3.413864606695442 0
    endloop
  endfacet
  facet normal 0 0 -1
    outer loop
      vertex -6.37859943271695 -2.883308737707948 0
      vertex -6.37859943271695 2.883308737707948 0
      vertex -6.111098792128317 3.413864606695442 0
    endloop
  endfacet
  facet normal 0 0 -1
    outer loop
      vertex -6.6001421182275894 -2.331978563194402 0
      vertex -6.37859943271695 2.883308737707948 0
      vertex -6.37859943271695 -2.883308737707948 0
    endloop
  endfacet
  facet normal 0 0 -1
    outer loop
      vertex -6.6001421182275894 -2.331978563194402 0
      vertex -6.6001421182275894 2.331978563194402 0
      vertex -6.37859943271695 2.883308737707948 0
    endloop
  endfacet
  facet normal 0 0 -1
    outer loop
      vertex -6.774130628534492 -1.7638464296958747 0
      vertex -6.6001421182275894 2.331978563194402 0
      vertex -6.6001421182275894 -2.331978563194402 0
    endloop
  endfacet
  facet normal 0 0 -1
    outer loop
      vertex -6.774130628534492 -1.7638464296958747 0
      vertex -6.774130628534492 1.7638464296958747 0
      vertex -6.6001421182275894 2.331978563194402 0
    endloop
  endfacet
  facet normal 0 0 -1
    outer loop
      vertex -6.899311372433959 -1.183005742252945 0
      vertex -6.774130628534492 1.7638464296958747 0
      vertex -6.774130628534492 -1.7638464296958747 0
    endloop
  endfacet
  facet normal 0 0 -1
    outer loop
      vertex -6.899311372433959 -1.183005742252945 0
      vertex -6.899311372433959 1.183005742252945 0
      vertex -6.774130628534492 1.7638464296958747 0
    endloop
  endfacet
  facet normal 0 0 -1
    outer loop
      vertex -6.974782419797686 -0.5936414713285649 0
      vertex -6.899311372433959 1.183005742252945 0
      vertex -6.899311372433959 -1.183005742252945 0
    endloop
  endfacet
  facet normal 0 0 -1
    outer loop
      vertex -6.974782419797686 -0.5936414713285649 0
      vertex -6.974782419797686 0.5936414713285649 0
      vertex -6.899311372433959 1.183005742252945 0
    endloop
  endfacet
  facet normal 0 0 -1
    outer loop
      vertex -6.974782419797686 0.5936414713285649 0
      vertex -6.974782419797686 -0.5936414713285649 0
      vertex -7 0 0
    endloop
  endfacet
  facet normal 0 0 1
    outer loop
      vertex 6.974782419797686 0.5936414713285644 3.5
      vertex 6.974782419797686 -0.5936414713285615 3.5
      vertex 7 0 3.5
    endloop
  endfacet
  facet normal 0 0 1
    outer loop
      vertex 6.899311372433959 1.1830057422529434 3.5
      vertex 6.974782419797686 -0.5936414713285615 3.5
      vertex 6.974782419797686 0.5936414713285644 3.5
    endloop
  endfacet
  facet normal 0 0 1
    outer loop
      vertex 6.899311372433959 1.1830057422529434 3.5
      vertex 6.899311372433959 -1.183005742252945 3.5
      vertex 6.974782419797686 -0.5936414713285615 3.5
    endloop
  endfacet
  facet normal 0 0 1
    outer loop
      vertex 6.774130628534492 1.7638464296958762 3.5
      vertex 6.899311372433959 -1.183005742252945 3.5
      vertex 6.899311372433959 1.1830057422529434 3.5
    endloop
  endfacet
  facet normal 0 0 1
    outer loop
      vertex 6.774130628534492 1.7638464296958762 3.5
      vertex 6.774130628534492 -1.7638464296958747 3.5
      vertex 6.899311372433959 -1.183005742252945 3.5
    endloop
  endfacet
  facet normal 0 0 1
    outer loop
      vertex 6.6001421182275894 2.331978563194403 3.5
      vertex 6.774130628534492 -1.7638464296958747 3.5
      vertex 6.774130628534492 1.7638464296958762 3.5
    endloop
  endfacet
  facet normal 0 0 1
    outer loop
      vertex 6.6001421182275894 2.331978563194403 3.5
      vertex 6.600142118227589 -2.331978563194405 3.5
      vertex 6.774130628534492 -1.7638464296958747 3.5
    endloop
  endfacet
  facet normal 0 0 1
    outer loop
      vertex 6.37859943271695 2.883308737707948 3.5
      vertex 6.600142118227589 -2.331978563194405 3.5
      vertex 6.6001421182275894 2.331978563194403 3.5
    endloop
  endfacet
  facet normal 0 0 1
    outer loop
      vertex 6.37859943271695 2.883308737707948 3.5
      vertex 6.37859943271695 -2.883308737707948 3.5
      vertex 6.600142118227589 -2.331978563194405 3.5
    endloop
  endfacet
  facet normal 0 0 1
    outer loop
      vertex 6.111098792128317 3.413864606695442 3.5
      vertex 6.37859943271695 -2.883308737707948 3.5
      vertex 6.37859943271695 2.883308737707948 3.5
    endloop
  endfacet
  facet normal 0 0 1
    outer loop
      vertex 6.111098792128317 3.413864606695442 3.5
      vertex 6.111098792128319 -3.413864606695439 3.5
      vertex 6.37859943271695 -2.883308737707948 3.5
    endloop
  endfacet
  facet normal 0 0 1
    outer loop
      vertex 5.799567544706895 3.919823502963167 3.5
      vertex 6.111098792128319 -3.413864606695439 3.5
      vertex 6.111098792128317 3.413864606695442 3.5
    endloop
  endfacet
  facet normal 0 0 1
    outer loop
      vertex 5.799567544706895 3.919823502963167 3.5
      vertex 5.799567544706894 -3.919823502963168 3.5
      vertex 6.111098792128319 -3.413864606695439 3.5
    endloop
  endfacet
  facet normal 0 0 1
    outer loop
      vertex 5.446250280229076 4.397539981069496 3.5
      vertex 5.799567544706894 -3.919823502963168 3.5
      vertex 5.799567544706895 3.919823502963167 3.5
    endloop
  endfacet
  facet normal 0 0 1
    outer loop
      vertex 5.446250280229076 4.397539981069496 3.5
      vertex 5.446250280229077 -4.397539981069495 3.5
      vertex 5.799567544706894 -3.919823502963168 3.5
    endloop
  endfacet
  facet normal 0 0 1
    outer loop
      vertex 5.053692657681672 4.843572082842823 3.5
      vertex 5.446250280229077 -4.397539981069495 3.5
      vertex 5.446250280229076 4.397539981069496 3.5
    endloop
  endfacet
  facet normal 0 0 1
    outer loop
      vertex 5.053692657681672 4.843572082842823 3.5
      vertex 5.053692657681669 -4.843572082842825 3.5
      vertex 5.446250280229077 -4.397539981069495 3.5
    endloop
  endfacet
  facet normal 0 0 1
    outer loop
      vertex 4.6247230637305705 5.25470613676907 3.5
      vertex 5.053692657681669 -4.843572082842825 3.5
      vertex 5.053692657681672 4.843572082842823 3.5
    endloop
  endfacet
  facet normal 0 0 1
    outer loop
      vertex 4.6247230637305705 5.25470613676907 3.5
      vertex 4.6247230637305705 -5.25470613676907 3.5
      vertex 5.053692657681669 -4.843572082842825 3.5
    endloop
  endfacet
  facet normal 0 0 1
    outer loop
      vertex 4.162432234130006 5.627979912568584 3.5
      vertex 4.6247230637305705 -5.25470613676907 3.5
      vertex 4.6247230637305705 5.25470613676907 3.5
    endloop
  endfacet
  facet normal 0 0 1
    outer loop
      vertex 4.162432234130006 5.627979912568584 3.5
      vertex 4.162432234130009 -5.627979912568582 3.5
      vertex 4.6247230637305705 -5.25470613676907 3.5
    endloop
  endfacet
  facet normal 0 0 1
    outer loop
      vertex 3.6701509849006215 5.960703964133179 3.5
      vertex 4.162432234130009 -5.627979912568582 3.5
      vertex 4.162432234130006 5.627979912568584 3.5
    endloop
  endfacet
  facet normal 0 0 1
    outer loop
      vertex 3.6701509849006215 5.960703964133179 3.5
      vertex 3.670150984900621 -5.96070396413318 3.5
      vertex 4.162432234130009 -5.627979912568582 3.5
    endloop
  endfacet
  facet normal 0 0 1
    outer loop
      vertex 3.1514262137237132 6.25048100704698 3.5
      vertex 3.670150984900621 -5.96070396413318 3.5
      vertex 3.6701509849006215 5.960703964133179 3.5
    endloop
  endfacet
  facet normal 0 0 1
    outer loop
      vertex 3.1514262137237132 6.25048100704698 3.5
      vertex 3.1514262137237146 -6.250481007046979 3.5
      vertex 3.670150984900621 -5.96070396413318 3.5
    endloop
  endfacet
  facet normal 0 0 1
    outer loop
      vertex 2.6099953444621597 6.495223191075565 3.5
      vertex 3.1514262137237146 -6.250481007046979 3.5
      vertex 3.1514262137237132 6.25048100704698 3.5
    endloop
  endfacet
  facet normal 0 0 1
    outer loop
      vertex 2.6099953444621597 6.495223191075565 3.5
      vertex 2.6099953444621584 -6.495223191075566 3.5
      vertex 3.1514262137237146 -6.250481007046979 3.5
    endloop
  endfacet
  facet normal 0 0 1
    outer loop
      vertex 2.049759398935853 6.693167143174756 3.5
      vertex 2.6099953444621584 -6.495223191075566 3.5
      vertex 2.6099953444621597 6.495223191075565 3.5
    endloop
  endfacet
  facet normal 0 0 1
    outer loop
      vertex 2.049759398935853 6.693167143174756 3.5
      vertex 2.049759398935853 -6.693167143174756 3.5
      vertex 2.6099953444621584 -6.495223191075566 3.5
    endloop
  endfacet
  facet normal 0 0 1
    outer loop
      vertex 1.474754889970084 6.842886672633804 3.5
      vertex 2.049759398935853 -6.693167143174756 3.5
      vertex 2.049759398935853 6.693167143174756 3.5
    endloop
  endfacet
  facet normal 0 0 1
    outer loop
      vertex 1.474754889970084 6.842886672633804 3.5
      vertex 1.4747548899700875 -6.842886672633803 3.5
      vertex 2.049759398935853 -6.693167143174756 3.5
    endloop
  endfacet
  facet normal 0 0 1
    outer loop
      vertex 0.8891247382281505 6.943303046812138 3.5
      vertex 1.4747548899700875 -6.842886672633803 3.5
      vertex 1.474754889970084 6.842886672633804 3.5
    endloop
  endfacet
  facet normal 0 0 1
    outer loop
      vertex 0.8891247382281505 6.943303046812138 3.5
      vertex 0.8891247382281505 -6.943303046812138 3.5
      vertex 1.4747548899700875 -6.842886672633803 3.5
    endloop
  endfacet
  facet normal 0 0 1
    outer loop
      vertex 0.29708842237303845 6.99369276343277 3.5
      vertex 0.8891247382281505 -6.943303046812138 3.5
      vertex 0.8891247382281505 6.943303046812138 3.5
    endloop
  endfacet
  facet normal 0 0 1
    outer loop
      vertex 0.29708842237303845 6.99369276343277 3.5
      vertex 0.29708842237304023 -6.99369276343277 3.5
      vertex 0.8891247382281505 -6.943303046812138 3.5
    endloop
  endfacet
  facet normal 0 0 1
    outer loop
      vertex -0.29708842237303845 6.99369276343277 3.5
      vertex 0.29708842237304023 -6.99369276343277 3.5
      vertex 0.29708842237303845 6.99369276343277 3.5
    endloop
  endfacet
  facet normal 0 0 1
    outer loop
      vertex -0.29708842237303845 6.99369276343277 3.5
      vertex -0.29708842237304023 -6.99369276343277 3.5
      vertex 0.29708842237304023 -6.99369276343277 3.5
    endloop
  endfacet
  facet normal 0 0 1
    outer loop
      vertex -0.8891247382281505 6.943303046812138 3.5
      vertex -0.29708842237304023 -6.99369276343277 3.5
      vertex -0.29708842237303845 6.99369276343277 3.5
    endloop
  endfacet
  facet normal 0 0 1
    outer loop
      vertex -0.8891247382281505 6.943303046812138 3.5
      vertex -0.8891247382281505 -6.943303046812138 3.5
      vertex -0.29708842237304023 -6.99369276343277 3.5
    endloop
  endfacet
  facet normal 0 0 1
    outer loop
      vertex -1.474754889970084 6.842886672633804 3.5
      vertex -0.8891247382281505 -6.943303046812138 3.5
      vertex -0.8891247382281505 6.943303046812138 3.5
    endloop
  endfacet
  facet normal 0 0 1
    outer loop
      vertex -1.474754889970084 6.842886672633804 3.5
      vertex -1.4747548899700875 -6.842886672633803 3.5
      vertex -0.8891247382281505 -6.943303046812138 3.5
    endloop
  endfacet
  facet normal 0 0 1
    outer loop
      vertex -2.049759398935853 6.693167143174756 3.5
      vertex -1.4747548899700875 -6.842886672633803 3.5
      vertex -1.474754889970084 6.842886672633804 3.5
    endloop
  endfacet
  facet normal 0 0 1
    outer loop
      vertex -2.049759398935853 6.693167143174756 3.5
      vertex -2.049759398935853 -6.693167143174756 3.5
      vertex -1.4747548899700875 -6.842886672633803 3.5
    endloop
  endfacet
  facet normal 0 0 1
    outer loop
      vertex -2.6099953444621597 6.495223191075565 3.5
      vertex -2.049759398935853 -6.693167143174756 3.5
      vertex -2.049759398935853 6.693167143174756 3.5
    endloop
  endfacet
  facet normal 0 0 1
    outer loop
      vertex -2.6099953444621597 6.495223191075565 3.5
      vertex -2.6099953444621615 -6.4952231910755645 3.5
      vertex -2.049759398935853 -6.693167143174756 3.5
    endloop
  endfacet
  facet normal 0 0 1
    outer loop
      vertex -3.1514262137237132 6.25048100704698 3.5
      vertex -2.6099953444621615 -6.4952231910755645 3.5
      vertex -2.6099953444621597 6.495223191075565 3.5
    endloop
  endfacet
  facet normal 0 0 1
    outer loop
      vertex -3.1514262137237132 6.25048100704698 3.5
      vertex -3.1514262137237115 -6.2504810070469805 3.5
      vertex -2.6099953444621615 -6.4952231910755645 3.5
    endloop
  endfacet
  facet normal 0 0 1
    outer loop
      vertex -3.6701509849006224 5.960703964133179 3.5
      vertex -3.1514262137237115 -6.2504810070469805 3.5
      vertex -3.1514262137237132 6.25048100704698 3.5
    endloop
  endfacet
  facet normal 0 0 1
    outer loop
      vertex -3.6701509849006224 5.960703964133179 3.5
      vertex -3.670150984900621 -5.96070396413318 3.5
      vertex -3.1514262137237115 -6.2504810070469805 3.5
    endloop
  endfacet
  facet normal 0 0 1
    outer loop
      vertex -4.162432234130006 5.627979912568584 3.5
      vertex -3.670150984900621 -5.96070396413318 3.5
      vertex -3.6701509849006224 5.960703964133179 3.5
    endloop
  endfacet
  facet normal 0 0 1
    outer loop
      vertex -4.162432234130006 5.627979912568584 3.5
      vertex -4.162432234130006 -5.627979912568584 3.5
      vertex -3.670150984900621 -5.96070396413318 3.5
    endloop
  endfacet
  facet normal 0 0 1
    outer loop
      vertex -4.6247230637305705 5.25470613676907 3.5
      vertex -4.162432234130006 -5.627979912568584 3.5
      vertex -4.162432234130006 5.627979912568584 3.5
    endloop
  endfacet
  facet normal 0 0 1
    outer loop
      vertex -4.6247230637305705 5.25470613676907 3.5
      vertex -4.6247230637305705 -5.25470613676907 3.5
      vertex -4.162432234130006 -5.627979912568584 3.5
    endloop
  endfacet
  facet normal 0 0 1
    outer loop
      vertex -5.0536926576816725 4.843572082842822 3.5
      vertex -4.6247230637305705 -5.25470613676907 3.5
      vertex -4.6247230637305705 5.25470613676907 3.5
    endloop
  endfacet
  facet normal 0 0 1
    outer loop
      vertex -5.0536926576816725 4.843572082842822 3.5
      vertex -5.0536926576816725 -4.843572082842822 3.5
      vertex -4.6247230637305705 -5.25470613676907 3.5
    endloop
  endfacet
  facet normal 0 0 1
    outer loop
      vertex -5.446250280229077 4.397539981069495 3.5
      vertex -5.0536926576816725 -4.843572082842822 3.5
      vertex -5.0536926576816725 4.843572082842822 3.5
    endloop
  endfacet
  facet normal 0 0 1
    outer loop
      vertex -5.446250280229077 4.397539981069495 3.5
      vertex -5.446250280229077 -4.397539981069495 3.5
      vertex -5.0536926576816725 -4.843572082842822 3.5
    endloop
  endfacet
  facet normal 0 0 1
    outer loop
      vertex -5.799567544706894 3.919823502963168 3.5
      vertex -5.446250280229077 -4.397539981069495 3.5
      vertex -5.446250280229077 4.397539981069495 3.5
    endloop
  endfacet
  facet normal 0 0 1
    outer loop
      vertex -5.799567544706894 3.919823502963168 3.5
      vertex -5.799567544706894 -3.919823502963168 3.5
      vertex -5.446250280229077 -4.397539981069495 3.5
    endloop
  endfacet
  facet normal 0 0 1
    outer loop
      vertex -6.111098792128317 3.413864606695442 3.5
      vertex -5.799567544706894 -3.919823502963168 3.5
      vertex -5.799567544706894 3.919823502963168 3.5
    endloop
  endfacet
  facet normal 0 0 1
    outer loop
      vertex -6.111098792128317 3.413864606695442 3.5
      vertex -6.111098792128317 -3.413864606695442 3.5
      vertex -5.799567544706894 -3.919823502963168 3.5
    endloop
  endfacet
  facet normal 0 0 1
    outer loop
      vertex -6.37859943271695 2.883308737707948 3.5
      vertex -6.111098792128317 -3.413864606695442 3.5
      vertex -6.111098792128317 3.413864606695442 3.5
    endloop
  endfacet
  facet normal 0 0 1
    outer loop
      vertex -6.37859943271695 2.883308737707948 3.5
      vertex -6.37859943271695 -2.883308737707948 3.5
      vertex -6.111098792128317 -3.413864606695442 3.5
    endloop
  endfacet
  facet normal 0 0 1
    outer loop
      vertex -6.6001421182275894 2.331978563194402 3.5
      vertex -6.37859943271695 -2.883308737707948 3.5
      vertex -6.37859943271695 2.883308737707948 3.5
    endloop
  endfacet
  facet normal 0 0 1
    outer loop
      vertex -6.6001421182275894 2.331978563194402 3.5
      vertex -6.6001421182275894 -2.331978563194402 3.5
      vertex -6.37859943271695 -2.883308737707948 3.5
    endloop
  endfacet
  facet normal 0 0 1
    outer loop
      vertex -6.774130628534492 1.7638464296958747 3.5
      vertex -6.6001421182275894 -2.331978563194402 3.5
      vertex -6.6001421182275894 2.331978563194402 3.5
    endloop
  endfacet
  facet normal 0 0 1
    outer loop
      vertex -6.774130628534492 1.7638464296958747 3.5
      vertex -6.774130628534492 -1.7638464296958747 3.5
      vertex -6.6001421182275894 -2.331978563194402 3.5
    endloop
  endfacet
  facet normal 0 0 1
    outer loop
      vertex -6.899311372433959 1.183005742252945 3.5
      vertex -6.774130628534492 -1.7638464296958747 3.5
      vertex -6.774130628534492 1.7638464296958747 3.5
    endloop
  endfacet
  facet normal 0 0 1
    outer loop
      vertex -6.899311372433959 1.183005742252945 3.5
      vertex -6.899311372433959 -1.183005742252945 3.5
      vertex -6.774130628534492 -1.7638464296958747 3.5
    endloop
  endfacet
  facet normal 0 0 1
    outer loop
      vertex -6.974782419797686 0.5936414713285649 3.5
      vertex -6.899311372433959 -1.183005742252945 3.5
      vertex -6.899311372433959 1.183005742252945 3.5
    endloop
  endfacet
  facet normal 0 0 1
    outer loop
      vertex -6.974782419797686 0.5936414713285649 3.5
      vertex -6.974782419797686 -0.5936414713285649 3.5
      vertex -6.899311372433959 -1.183005742252945 3.5
    endloop
  endfacet
  facet normal 0 0 1
    outer loop
      vertex -6.974782419797686 -0.5936414713285649 3.5
      vertex -6.974782419797686 0.5936414713285649 3.5
      vertex -7 0 3.5
    endloop
  endfacet
endsolid OpenSCAD_Model
