solid OpenSCAD_Model
  facet normal 0 0 -1
    outer loop
      vertex -6.655140562924286 -3.458193760869944 0
      vertex -5.773754875724296 -4.786831377336152 0
      vertex -6.249854393118863 -4.14600049020895 0
    endloop
  endfacet
  facet normal -0.8027116379309638 -0.5963673585385013 -1.3938451970254103e-17
    outer loop
      vertex -5.773754875724296 -4.786831377336152 0
      vertex -6.249854393118863 -4.14600049020895 2.4
      vertex -6.249854393118863 -4.14600049020895 0
    endloop
  endfacet
  facet normal -0.8615540813938065 -0.5076658003388393 0
    outer loop
      vertex -6.249854393118863 -4.14600049020895 2.4
      vertex -6.655140562924286 -3.458193760869944 0
      vertex -6.249854393118863 -4.14600049020895 0
    endloop
  endfacet
  facet normal 0 0 -1
    outer loop
      vertex -5.773754875724296 -4.786831377336152 0
      vertex -3.279804903441415 -6.744840976284144 0
      vertex -4.631434612096441 -5.899136668519818 0
    endloop
  endfacet
  facet normal 0 0 -1
    outer loop
      vertex -4.631434612096441 -5.899136668519818 0
      vertex -3.279804903441415 -6.744840976284144 0
      vertex -3.978156810898067 -6.358008209172533 0
    endloop
  endfacet
  facet normal -0.658511379065039 -0.7525707698561384 -7.0714215044386e-18
    outer loop
      vertex -5.232236408512385 -5.3734255522373635 0
      vertex -4.631434612096441 -5.899136668519818 0
      vertex -4.631434612096441 -5.899136668519818 2.4
    endloop
  endfacet
  facet normal -0.574787410214407 -0.8183027759081689 0
    outer loop
      vertex -4.631434612096441 -5.899136668519818 0
      vertex -3.978156810898067 -6.358008209172533 0
      vertex -4.631434612096441 -5.899136668519818 2.4
    endloop
  endfacet
  facet normal 0 0 -1
    outer loop
      vertex -5.773754875724296 -4.786831377336152 0
      vertex -4.631434612096441 -5.899136668519818 0
      vertex -5.232236408512385 -5.3734255522373635 0
    endloop
  endfacet
  facet normal 0 0 -1
    outer loop
      vertex -7.489370217575715 0.39916631131634117 0
      vertex -0.1996539107833114 -7.497342083425894 0
      vertex -5.773754875724296 -4.786831377336152 0
    endloop
  endfacet
  facet normal -0.734774150863067 -0.6783118362696164 0
    outer loop
      vertex -5.773754875724296 -4.786831377336152 2.4
      vertex -5.773754875724296 -4.786831377336152 0
      vertex -5.232236408512385 -5.3734255522373635 0
    endloop
  endfacet
  facet normal -0.8027116379309638 -0.5963673585385013 0
    outer loop
      vertex -5.773754875724296 -4.786831377336152 0
      vertex -5.773754875724296 -4.786831377336152 2.4
      vertex -6.249854393118863 -4.14600049020895 2.4
    endloop
  endfacet
  facet normal -0.574787410214407 -0.8183027759081689 8.045572942999887e-18
    outer loop
      vertex -4.631434612096441 -5.899136668519818 2.4
      vertex -3.978156810898067 -6.358008209172533 0
      vertex -3.978156810898067 -6.358008209172533 2.4
    endloop
  endfacet
  facet normal -0.4845508703326494 -0.8747630845319617 0
    outer loop
      vertex -3.978156810898067 -6.358008209172533 0
      vertex -3.279804903441415 -6.744840976284144 2.4
      vertex -3.978156810898067 -6.358008209172533 2.4
    endloop
  endfacet
  facet normal -0.734774150863067 -0.6783118362696164 1.0854863613216024e-17
    outer loop
      vertex -5.773754875724296 -4.786831377336152 2.4
      vertex -5.232236408512385 -5.3734255522373635 0
      vertex -5.232236408512385 -5.3734255522373635 2.4
    endloop
  endfacet
  facet normal -0.658511379065039 -0.7525707698561384 0
    outer loop
      vertex -5.232236408512385 -5.3734255522373635 0
      vertex -4.631434612096441 -5.899136668519818 2.4
      vertex -5.232236408512385 -5.3734255522373635 2.4
    endloop
  endfacet
  facet normal 0 0 -1
    outer loop
      vertex -7.2357590161088705 -1.9732692317064082 0
      vertex -5.773754875724296 -4.786831377336152 0
      vertex -6.655140562924286 -3.458193760869944 0
    endloop
  endfacet
  facet normal 0 0 -1
    outer loop
      vertex -7.2357590161088705 -1.9732692317064082 0
      vertex -6.655140562924286 -3.458193760869944 0
      vertex -6.985021330892538 -2.7312043143961673 0
    endloop
  endfacet
  facet normal 0 0 -1
    outer loop
      vertex -7.489370217575715 0.39916631131634117 0
      vertex -5.773754875724296 -4.786831377336152 0
      vertex -7.2357590161088705 -1.9732692317064082 0
    endloop
  endfacet
  facet normal -0.9106347728549128 -0.4132121857683789 -3.7766695594305785e-18
    outer loop
      vertex -6.655140562924286 -3.458193760869944 0
      vertex -6.985021330892538 -2.7312043143961673 2.4
      vertex -6.985021330892538 -2.7312043143961673 0
    endloop
  endfacet
  facet normal -0.9493976084683811 -0.3140767120219494 0
    outer loop
      vertex -6.985021330892538 -2.7312043143961673 2.4
      vertex -7.2357590161088705 -1.9732692317064082 0
      vertex -6.985021330892538 -2.7312043143961673 0
    endloop
  endfacet
  facet normal 0 0 -1
    outer loop
      vertex -7.489370217575715 -0.39916631131634117 0
      vertex -7.2357590161088705 -1.9732692317064082 0
      vertex -7.404512660410084 -1.1929762201430405 0
    endloop
  endfacet
  facet normal 0 0 -1
    outer loop
      vertex -7.489370217575715 0.39916631131634117 0
      vertex -7.2357590161088705 -1.9732692317064082 0
      vertex -7.489370217575715 -0.39916631131634117 0
    endloop
  endfacet
  facet normal -0.9774033898178668 -0.2113826236296237 -3.2142882927270835e-18
    outer loop
      vertex -7.2357590161088705 -1.9732692317064082 0
      vertex -7.404512660410084 -1.1929762201430405 2.4
      vertex -7.404512660410084 -1.1929762201430405 0
    endloop
  endfacet
  facet normal -0.9943348002101372 -0.10629348564736575 0
    outer loop
      vertex -7.404512660410084 -1.1929762201430405 2.4
      vertex -7.489370217575715 -0.39916631131634117 0
      vertex -7.404512660410084 -1.1929762201430405 0
    endloop
  endfacet
  facet normal -1 0 0
    outer loop
      vertex -7.489370217575715 -0.39916631131634117 2.4
      vertex -7.489370217575715 0.39916631131634117 0
      vertex -7.489370217575715 -0.39916631131634117 0
    endloop
  endfacet
  facet normal -0.9106347728549128 -0.4132121857683789 0
    outer loop
      vertex -6.655140562924286 -3.458193760869944 0
      vertex -6.655140562924286 -3.458193760869944 2.4
      vertex -6.985021330892538 -2.7312043143961673 2.4
    endloop
  endfacet
  facet normal -0.9493976084683811 -0.3140767120219494 0
    outer loop
      vertex -7.2357590161088705 -1.9732692317064082 2.4
      vertex -7.2357590161088705 -1.9732692317064082 0
      vertex -6.985021330892538 -2.7312043143961673 2.4
    endloop
  endfacet
  facet normal -0.8615540813938065 -0.5076658003388393 0
    outer loop
      vertex -6.655140562924286 -3.458193760869944 2.4
      vertex -6.655140562924286 -3.458193760869944 0
      vertex -6.249854393118863 -4.14600049020895 2.4
    endloop
  endfacet
  facet normal -0.9774033898178668 -0.2113826236296237 0
    outer loop
      vertex -7.2357590161088705 -1.9732692317064082 2.4
      vertex -7.404512660410084 -1.1929762201430405 2.4
      vertex -7.2357590161088705 -1.9732692317064082 0
    endloop
  endfacet
  facet normal -0.9943348002101372 -0.10629348564736575 0
    outer loop
      vertex -7.489370217575715 -0.39916631131634117 0
      vertex -7.404512660410084 -1.1929762201430405 2.4
      vertex -7.489370217575715 -0.39916631131634117 2.4
    endloop
  endfacet
  facet normal 0 0 -1
    outer loop
      vertex -5.773754875724296 -4.786831377336152 0
      vertex -0.1996539107833114 -7.497342083425894 0
      vertex -3.279804903441415 -6.744840976284144 0
    endloop
  endfacet
  facet normal 0 0 -1
    outer loop
      vertex -3.279804903441415 -6.744840976284144 0
      vertex -1.7799502490333592 -7.285724199485325 0
      vertex -2.544291495885228 -7.055252000032749 0
    endloop
  endfacet
  facet normal -0.4845508703326494 -0.8747630845319617 0
    outer loop
      vertex -3.279804903441415 -6.744840976284144 0
      vertex -3.279804903441415 -6.744840976284144 2.4
      vertex -3.978156810898067 -6.358008209172533 0
    endloop
  endfacet
  facet normal -0.3888241754733208 -0.921311977870413 0
    outer loop
      vertex -3.279804903441415 -6.744840976284144 2.4
      vertex -3.279804903441415 -6.744840976284144 0
      vertex -2.544291495885228 -7.055252000032749 0
    endloop
  endfacet
  facet normal -0.2886919473396211 -0.9574220383620055 0
    outer loop
      vertex -1.7799502490333592 -7.285724199485325 0
      vertex -1.7799502490333592 -7.285724199485325 2.4
      vertex -2.544291495885228 -7.055252000032749 0
    endloop
  endfacet
  facet normal 0 0 -1
    outer loop
      vertex -3.279804903441415 -6.744840976284144 0
      vertex -0.1996539107833114 -7.497342083425894 0
      vertex -1.7799502490333592 -7.285724199485325 0
    endloop
  endfacet
  facet normal 0 0 -1
    outer loop
      vertex -1.7799502490333592 -7.285724199485325 0
      vertex -0.1996539107833114 -7.497342083425894 0
      vertex -0.9954414546279179 -7.433646232530053 0
    endloop
  endfacet
  facet normal -0.1852887240871145 -0.982684124592521 3.014227259602974e-18
    outer loop
      vertex -0.9954414546279179 -7.433646232530053 0
      vertex -1.7799502490333592 -7.285724199485325 2.4
      vertex -1.7799502490333592 -7.285724199485325 0
    endloop
  endfacet
  facet normal -0.07978610555308324 -0.9968120070307501 0
    outer loop
      vertex -0.1996539107833114 -7.497342083425894 0
      vertex -0.1996539107833114 -7.497342083425894 2.4
      vertex -0.9954414546279179 -7.433646232530053 0
    endloop
  endfacet
  facet normal -0.3888241754733208 -0.921311977870413 -2.3054036737709045e-18
    outer loop
      vertex -3.279804903441415 -6.744840976284144 2.4
      vertex -2.544291495885228 -7.055252000032749 0
      vertex -2.544291495885228 -7.055252000032749 2.4
    endloop
  endfacet
  facet normal -0.2886919473396211 -0.9574220383620055 0
    outer loop
      vertex -2.544291495885228 -7.055252000032749 0
      vertex -1.7799502490333592 -7.285724199485325 2.4
      vertex -2.544291495885228 -7.055252000032749 2.4
    endloop
  endfacet
  facet normal -0.1852887240871145 -0.982684124592521 0
    outer loop
      vertex -0.9954414546279179 -7.433646232530053 2.4
      vertex -1.7799502490333592 -7.285724199485325 2.4
      vertex -0.9954414546279179 -7.433646232530053 0
    endloop
  endfacet
  facet normal -0.07978610555308324 -0.9968120070307501 0
    outer loop
      vertex -0.9954414546279179 -7.433646232530053 0
      vertex -0.1996539107833114 -7.497342083425894 2.4
      vertex -0.9954414546279179 -7.433646232530053 2.4
    endloop
  endfacet
  facet normal 0 0 -1
    outer loop
      vertex -7.489370217575715 0.39916631131634117 0
      vertex 7.5 0 0
      vertex -0.1996539107833114 -7.497342083425894 0
    endloop
  endfacet
  facet normal -0.5341288372913356 -0.3968261935702373 0.7464819872377112
    outer loop
      vertex -5.773754875724296 -4.786831377336152 2.4
      vertex -4.337753565158973 -2.9574303048340154 4.4
      vertex -6.249854393118863 -4.14600049020895 2.4
    endloop
  endfacet
  facet normal -0.4894456838164082 -0.451835166157903 0.745847105790824
    outer loop
      vertex -5.232236408512385 -5.3734255522373635 2.4
      vertex -3.8485223271065885 -3.5709068732973273 4.4
      vertex -5.773754875724296 -4.786831377336152 2.4
    endloop
  endfacet
  facet normal -0.43805234643686064 -0.5006221639834656 0.7466509162317237
    outer loop
      vertex -4.631434612096441 -5.899136668519818 2.4
      vertex -3.273321459758352 -4.104615282957156 4.4
      vertex -5.232236408512385 -5.3734255522373635 2.4
    endloop
  endfacet
  facet normal -0.3819544312551929 -0.5437738645840575 0.7472755827938187
    outer loop
      vertex -4.631434612096441 -5.899136668519818 2.4
      vertex -3.978156810898067 -6.358008209172533 2.4
      vertex -3.273321459758352 -4.104615282957156 4.4
    endloop
  endfacet
  facet normal -0.5177057563367904 -0.41285656394982767 0.749353192733102
    outer loop
      vertex -5.773754875724296 -4.786831377336152 2.4
      vertex -3.8485223271065885 -3.5709068732973273 4.4
      vertex -4.337753565158973 -2.9574303048340154 4.4
    endloop
  endfacet
  facet normal -0.4504819343704287 -0.4855040593040989 0.7492341658020667
    outer loop
      vertex -5.232236408512385 -5.3734255522373635 2.4
      vertex -3.273321459758352 -4.104615282957156 4.4
      vertex -3.8485223271065885 -3.5709068732973273 4.4
    endloop
  endfacet
  facet normal -0.606386072486853 -0.27515544310508855 0.746046522157708
    outer loop
      vertex -6.985021330892538 -2.7312043143961673 2.4
      vertex -6.655140562924286 -3.458193760869944 2.4
      vertex -4.7300865564877 -2.2778896303671807 4.4
    endloop
  endfacet
  facet normal -0.5722752965124493 -0.3372099357339631 0.7475228720540159
    outer loop
      vertex -4.337753565158973 -2.9574303048340154 4.4
      vertex -6.655140562924286 -3.458193760869944 2.4
      vertex -6.249854393118863 -4.14600049020895 2.4
    endloop
  endfacet
  facet normal -0.632243057398623 -0.2091566472205596 0.7460041643950092
    outer loop
      vertex -7.2357590161088705 -1.9732692317064082 2.4
      vertex -6.985021330892538 -2.7312043143961673 2.4
      vertex -5.016757230377239 -1.5474646656572468 4.4
    endloop
  endfacet
  facet normal -0.649365236837774 -0.14043794904601165 0.7473967966578206
    outer loop
      vertex -5.191361837681924 -0.7824718974249169 4.4
      vertex -7.404512660410084 -1.1929762201430405 2.4
      vertex -7.2357590161088705 -1.9732692317064082 2.4
    endloop
  endfacet
  facet normal -0.661544485624189 -0.07071850374031774 0.7465639870560045
    outer loop
      vertex -7.489370217575715 -0.39916631131634117 2.4
      vertex -7.404512660410084 -1.1929762201430405 2.4
      vertex -5.191361837681924 -0.7824718974249169 4.4
    endloop
  endfacet
  facet normal -0.6464031146633972 -0.1475372927473878 0.7485958593274681
    outer loop
      vertex -7.2357590161088705 -1.9732692317064082 2.4
      vertex -5.016757230377239 -1.5474646656572468 4.4
      vertex -5.191361837681924 -0.7824718974249169 4.4
    endloop
  endfacet
  facet normal -0.6603821483325965 -0.049488800471076407 0.7492971885650971
    outer loop
      vertex -5.25 0 4.4
      vertex -7.489370217575715 -0.39916631131634117 2.4
      vertex -5.191361837681924 -0.7824718974249169 4.4
    endloop
  endfacet
  facet normal -0.5743146449765809 -0.33158071487677365 0.7484763978157437
    outer loop
      vertex -6.655140562924286 -3.458193760869944 2.4
      vertex -4.337753565158973 -2.9574303048340154 4.4
      vertex -4.7300865564877 -2.2778896303671807 4.4
    endloop
  endfacet
  facet normal -0.6161907259896872 -0.2418370389819528 0.7495490883062589
    outer loop
      vertex -5.016757230377239 -1.5474646656572468 4.4
      vertex -6.985021330892538 -2.7312043143961673 2.4
      vertex -4.7300865564877 -2.2778896303671807 4.4
    endloop
  endfacet
  facet normal 0 0 1
    outer loop
      vertex -4.7300865564877 -2.2778896303671807 4.4
      vertex -4.337753565158973 -2.9574303048340154 4.4
      vertex -5.016757230377239 -1.5474646656572468 4.4
    endloop
  endfacet
  facet normal 0 0 1
    outer loop
      vertex -2.625 -4.546633369868303 4.4
      vertex -5.016757230377239 -1.5474646656572468 4.4
      vertex -3.8485223271065885 -3.5709068732973273 4.4
    endloop
  endfacet
  facet normal 0 0 1
    outer loop
      vertex -3.8485223271065885 -3.5709068732973273 4.4
      vertex -5.016757230377239 -1.5474646656572468 4.4
      vertex -4.337753565158973 -2.9574303048340154 4.4
    endloop
  endfacet
  facet normal 0 0 1
    outer loop
      vertex -5.016757230377239 -1.5474646656572468 4.4
      vertex -5.25 0 4.4
      vertex -5.191361837681924 -0.7824718974249169 4.4
    endloop
  endfacet
  facet normal 0 0 1
    outer loop
      vertex -5.016757230377239 -1.5474646656572468 4.4
      vertex -5.191361837681924 0.7824718974249169 4.4
      vertex -5.25 0 4.4
    endloop
  endfacet
  facet normal -0.3227027165823367 -0.5825774774702482 0.7459667817368161
    outer loop
      vertex -3.279804903441415 -6.744840976284144 2.4
      vertex -2.625 -4.546633369868303 4.4
      vertex -3.978156810898067 -6.358008209172533 2.4
    endloop
  endfacet
  facet normal -0.2588949982231162 -0.6134471000506563 0.7460938515592344
    outer loop
      vertex -2.544291495885228 -7.055252000032749 2.4
      vertex -1.9180403779235728 -4.887087180382073 4.4
      vertex -3.279804903441415 -6.744840976284144 2.4
    endloop
  endfacet
  facet normal -0.12330817584252667 -0.653968488530062 0.7464049234698916
    outer loop
      vertex -1.7799502490333592 -7.285724199485325 2.4
      vertex -0.9954414546279179 -7.433646232530053 2.4
      vertex -1.1682349032706483 -5.118371538954575 4.4
    endloop
  endfacet
  facet normal -0.19171705908849865 -0.6358131537536232 0.7476537987386465
    outer loop
      vertex -1.7799502490333592 -7.285724199485325 2.4
      vertex -1.1682349032706483 -5.118371538954575 4.4
      vertex -2.544291495885228 -7.055252000032749 2.4
    endloop
  endfacet
  facet normal -0.053146227048717624 -0.6639852501047024 0.7458545878345737
    outer loop
      vertex -0.1996539107833114 -7.497342083425894 2.4
      vertex -0.3923329913287266 -5.235319935201196 4.4
      vertex -0.9954414546279179 -7.433646232530053 2.4
    endloop
  endfacet
  facet normal -0.19551235928123709 -0.6338355012685684 0.7483498344356784
    outer loop
      vertex -1.1682349032706483 -5.118371538954575 4.4
      vertex -1.9180403779235728 -4.887087180382073 4.4
      vertex -2.544291495885228 -7.055252000032749 2.4
    endloop
  endfacet
  facet normal -0.3734246857740852 -0.5477134184319586 0.7487082311048168
    outer loop
      vertex -3.273321459758352 -4.104615282957156 4.4
      vertex -3.978156810898067 -6.358008209172533 2.4
      vertex -2.625 -4.546633369868303 4.4
    endloop
  endfacet
  facet normal -0.2872122398759876 -0.5964023614599545 0.7495420952224152
    outer loop
      vertex -2.625 -4.546633369868303 4.4
      vertex -3.279804903441415 -6.744840976284144 2.4
      vertex -1.9180403779235728 -4.887087180382073 4.4
    endloop
  endfacet
  facet normal 0 0 1
    outer loop
      vertex -2.625 -4.546633369868303 4.4
      vertex -3.8485223271065885 -3.5709068732973273 4.4
      vertex -3.273321459758352 -4.104615282957156 4.4
    endloop
  endfacet
  facet normal 0 0 1
    outer loop
      vertex -0.3923329913287266 -5.235319935201196 4.4
      vertex -5.016757230377239 -1.5474646656572468 4.4
      vertex -2.625 -4.546633369868303 4.4
    endloop
  endfacet
  facet normal -0.09868313058382465 -0.6547197922657799 0.7494021839797571
    outer loop
      vertex -0.9954414546279179 -7.433646232530053 2.4
      vertex -0.3923329913287266 -5.235319935201196 4.4
      vertex -1.1682349032706483 -5.118371538954575 4.4
    endloop
  endfacet
  facet normal 0 -0.6623844232878108 0.7491641180580356
    outer loop
      vertex -0.3923329913287266 -5.235319935201196 4.4
      vertex -0.1996539107833114 -7.497342083425894 2.4
      vertex 0.3923329913287266 -5.235319935201196 4.4
    endloop
  endfacet
  facet normal 0 0 1
    outer loop
      vertex -0.3923329913287266 -5.235319935201196 4.4
      vertex -2.625 -4.546633369868303 4.4
      vertex -1.9180403779235728 -4.887087180382073 4.4
    endloop
  endfacet
  facet normal 0 0 1
    outer loop
      vertex -0.3923329913287266 -5.235319935201196 4.4
      vertex -1.9180403779235728 -4.887087180382073 4.4
      vertex -1.1682349032706483 -5.118371538954575 4.4
    endloop
  endfacet
  facet normal 0 0 1
    outer loop
      vertex 5.016757230377238 -1.547464665657249 4.4
      vertex -5.016757230377239 -1.5474646656572468 4.4
      vertex -0.3923329913287266 -5.235319935201196 4.4
    endloop
  endfacet
  facet normal -0.9943348002101372 0.10629348564736575 0
    outer loop
      vertex -7.489370217575715 0.39916631131634117 0
      vertex -7.489370217575715 0.39916631131634117 2.4
      vertex -7.404512660410084 1.1929762201430405 0
    endloop
  endfacet
  facet normal -0.9774033898178668 0.2113826236296237 3.2142882927270835e-18
    outer loop
      vertex -7.404512660410084 1.1929762201430405 0
      vertex -7.2357590161088705 1.9732692317064082 2.4
      vertex -7.2357590161088705 1.9732692317064082 0
    endloop
  endfacet
  facet normal 0 0 -1
    outer loop
      vertex -6.985021330892538 2.7312043143961673 0
      vertex -7.404512660410084 1.1929762201430405 0
      vertex -7.2357590161088705 1.9732692317064082 0
    endloop
  endfacet
  facet normal 0 0 -1
    outer loop
      vertex -6.985021330892538 2.7312043143961673 0
      vertex -6.249854393118863 4.14600049020895 0
      vertex -7.404512660410084 1.1929762201430405 0
    endloop
  endfacet
  facet normal 0 0 -1
    outer loop
      vertex -6.249854393118863 4.14600049020895 0
      vertex -6.985021330892538 2.7312043143961673 0
      vertex -6.655140562924286 3.458193760869944 0
    endloop
  endfacet
  facet normal 0 0 -1
    outer loop
      vertex -4.631434612096441 5.899136668519818 0
      vertex -7.489370217575715 0.39916631131634117 0
      vertex -7.404512660410084 1.1929762201430405 0
    endloop
  endfacet
  facet normal 0 0 -1
    outer loop
      vertex -4.631434612096441 5.899136668519818 0
      vertex -7.404512660410084 1.1929762201430405 0
      vertex -6.249854393118863 4.14600049020895 0
    endloop
  endfacet
  facet normal -0.9493976084683811 0.3140767120219494 0
    outer loop
      vertex -7.2357590161088705 1.9732692317064082 2.4
      vertex -6.985021330892538 2.7312043143961673 0
      vertex -7.2357590161088705 1.9732692317064082 0
    endloop
  endfacet
  facet normal -0.9106347728549128 0.4132121857683789 3.7766695594305785e-18
    outer loop
      vertex -6.985021330892538 2.7312043143961673 0
      vertex -6.655140562924286 3.458193760869944 2.4
      vertex -6.655140562924286 3.458193760869944 0
    endloop
  endfacet
  facet normal -0.8615540813938065 0.5076658003388393 0
    outer loop
      vertex -6.655140562924286 3.458193760869944 2.4
      vertex -6.249854393118863 4.14600049020895 0
      vertex -6.655140562924286 3.458193760869944 0
    endloop
  endfacet
  facet normal -1 0 0
    outer loop
      vertex -7.489370217575715 0.39916631131634117 2.4
      vertex -7.489370217575715 0.39916631131634117 0
      vertex -7.489370217575715 -0.39916631131634117 2.4
    endloop
  endfacet
  facet normal -0.9943348002101372 0.10629348564736575 0
    outer loop
      vertex -7.404512660410084 1.1929762201430405 0
      vertex -7.489370217575715 0.39916631131634117 2.4
      vertex -7.404512660410084 1.1929762201430405 2.4
    endloop
  endfacet
  facet normal -0.9774033898178668 0.2113826236296237 3.2142882927270835e-18
    outer loop
      vertex -7.2357590161088705 1.9732692317064082 2.4
      vertex -7.404512660410084 1.1929762201430405 0
      vertex -7.404512660410084 1.1929762201430405 2.4
    endloop
  endfacet
  facet normal -0.9493976084683811 0.3140767120219494 1.9535462708566817e-18
    outer loop
      vertex -7.2357590161088705 1.9732692317064082 2.4
      vertex -6.985021330892538 2.7312043143961673 2.4
      vertex -6.985021330892538 2.7312043143961673 0
    endloop
  endfacet
  facet normal -0.9106347728549128 0.4132121857683789 0
    outer loop
      vertex -6.985021330892538 2.7312043143961673 2.4
      vertex -6.655140562924286 3.458193760869944 2.4
      vertex -6.985021330892538 2.7312043143961673 0
    endloop
  endfacet
  facet normal -0.8027116379309638 0.5963673585385013 1.3938451970254103e-17
    outer loop
      vertex -6.249854393118863 4.14600049020895 0
      vertex -5.773754875724296 4.786831377336152 2.4
      vertex -5.773754875724296 4.786831377336152 0
    endloop
  endfacet
  facet normal 0 0 -1
    outer loop
      vertex -4.631434612096441 5.899136668519818 0
      vertex -6.249854393118863 4.14600049020895 0
      vertex -5.773754875724296 4.786831377336152 0
    endloop
  endfacet
  facet normal 0 0 -1
    outer loop
      vertex -4.631434612096441 5.899136668519818 0
      vertex -5.773754875724296 4.786831377336152 0
      vertex -5.232236408512385 5.3734255522373635 0
    endloop
  endfacet
  facet normal 0 0 -1
    outer loop
      vertex 0.5983957916481232 7.476090052730626 0
      vertex -7.489370217575715 0.39916631131634117 0
      vertex -4.631434612096441 5.899136668519818 0
    endloop
  endfacet
  facet normal -0.734774150863067 0.6783118362696164 -1.0854863613216024e-17
    outer loop
      vertex -5.773754875724296 4.786831377336152 0
      vertex -5.232236408512385 5.3734255522373635 2.4
      vertex -5.232236408512385 5.3734255522373635 0
    endloop
  endfacet
  facet normal -0.658511379065039 0.7525707698561384 0
    outer loop
      vertex -5.232236408512385 5.3734255522373635 2.4
      vertex -4.631434612096441 5.899136668519818 0
      vertex -5.232236408512385 5.3734255522373635 0
    endloop
  endfacet
  facet normal 0 0 -1
    outer loop
      vertex -3.279804903441415 6.744840976284144 0
      vertex -4.631434612096441 5.899136668519818 0
      vertex -3.978156810898069 6.358008209172532 0
    endloop
  endfacet
  facet normal -0.5747874102144067 0.8183027759081691 3.8685057705907616e-18
    outer loop
      vertex -4.631434612096441 5.899136668519818 0
      vertex -3.978156810898069 6.358008209172532 2.4
      vertex -3.978156810898069 6.358008209172532 0
    endloop
  endfacet
  facet normal -0.8615540813938065 0.5076658003388393 -3.6776530946145803e-19
    outer loop
      vertex -6.655140562924286 3.458193760869944 2.4
      vertex -6.249854393118863 4.14600049020895 2.4
      vertex -6.249854393118863 4.14600049020895 0
    endloop
  endfacet
  facet normal -0.8027116379309638 0.5963673585385013 0
    outer loop
      vertex -6.249854393118863 4.14600049020895 2.4
      vertex -5.773754875724296 4.786831377336152 2.4
      vertex -6.249854393118863 4.14600049020895 0
    endloop
  endfacet
  facet normal -0.734774150863067 0.6783118362696164 0
    outer loop
      vertex -5.773754875724296 4.786831377336152 2.4
      vertex -5.232236408512385 5.3734255522373635 2.4
      vertex -5.773754875724296 4.786831377336152 0
    endloop
  endfacet
  facet normal -0.658511379065039 0.7525707698561384 7.0714215044386e-18
    outer loop
      vertex -5.232236408512385 5.3734255522373635 2.4
      vertex -4.631434612096441 5.899136668519818 2.4
      vertex -4.631434612096441 5.899136668519818 0
    endloop
  endfacet
  facet normal -0.5747874102144067 0.8183027759081691 0
    outer loop
      vertex -4.631434612096441 5.899136668519818 0
      vertex -4.631434612096441 5.899136668519818 2.4
      vertex -3.978156810898069 6.358008209172532 2.4
    endloop
  endfacet
  facet normal -0.48455087033265004 0.8747630845319614 0
    outer loop
      vertex -3.978156810898069 6.358008209172532 2.4
      vertex -3.279804903441415 6.744840976284144 2.4
      vertex -3.978156810898069 6.358008209172532 0
    endloop
  endfacet
  facet normal 0 0 -1
    outer loop
      vertex -3.279804903441415 6.744840976284144 0
      vertex -2.544291495885228 7.055252000032749 0
      vertex -4.631434612096441 5.899136668519818 0
    endloop
  endfacet
  facet normal 0 0 -1
    outer loop
      vertex -1.7799502490333612 7.285724199485324 0
      vertex -4.631434612096441 5.899136668519818 0
      vertex -2.544291495885228 7.055252000032749 0
    endloop
  endfacet
  facet normal 0 0 -1
    outer loop
      vertex 0.5983957916481232 7.476090052730626 0
      vertex -4.631434612096441 5.899136668519818 0
      vertex -1.7799502490333612 7.285724199485324 0
    endloop
  endfacet
  facet normal -0.48455087033265004 0.8747630845319614 0
    outer loop
      vertex -3.279804903441415 6.744840976284144 2.4
      vertex -3.279804903441415 6.744840976284144 0
      vertex -3.978156810898069 6.358008209172532 0
    endloop
  endfacet
  facet normal -0.3888241754733208 0.921311977870413 0
    outer loop
      vertex -3.279804903441415 6.744840976284144 2.4
      vertex -2.544291495885228 7.055252000032749 0
      vertex -3.279804903441415 6.744840976284144 0
    endloop
  endfacet
  facet normal -0.28869194733962084 0.9574220383620056 0
    outer loop
      vertex -2.544291495885228 7.055252000032749 2.4
      vertex -1.7799502490333612 7.285724199485324 0
      vertex -2.544291495885228 7.055252000032749 0
    endloop
  endfacet
  facet normal 0 0 -1
    outer loop
      vertex 0.5983957916481232 7.476090052730626 0
      vertex -1.7799502490333612 7.285724199485324 0
      vertex -0.9954414546279142 7.433646232530054 0
    endloop
  endfacet
  facet normal 0 0 -1
    outer loop
      vertex 0.5983957916481232 7.476090052730626 0
      vertex -0.9954414546279142 7.433646232530054 0
      vertex -0.1996539107833114 7.497342083425894 0
    endloop
  endfacet
  facet normal -0.18528872408711536 0.9826841245925207 2.5580076764984975e-18
    outer loop
      vertex -1.7799502490333612 7.285724199485324 0
      vertex -0.9954414546279142 7.433646232530054 2.4
      vertex -0.9954414546279142 7.433646232530054 0
    endloop
  endfacet
  facet normal -0.07978610555308249 0.9968120070307502 0
    outer loop
      vertex -0.9954414546279142 7.433646232530054 0
      vertex -0.9954414546279142 7.433646232530054 2.4
      vertex -0.1996539107833114 7.497342083425894 0
    endloop
  endfacet
  facet normal -0.3888241754733208 0.921311977870413 2.3054036737709045e-18
    outer loop
      vertex -3.279804903441415 6.744840976284144 2.4
      vertex -2.544291495885228 7.055252000032749 2.4
      vertex -2.544291495885228 7.055252000032749 0
    endloop
  endfacet
  facet normal -0.28869194733962084 0.9574220383620056 0
    outer loop
      vertex -1.7799502490333612 7.285724199485324 0
      vertex -2.544291495885228 7.055252000032749 2.4
      vertex -1.7799502490333612 7.285724199485324 2.4
    endloop
  endfacet
  facet normal -0.18528872408711536 0.9826841245925207 2.5580076764984975e-18
    outer loop
      vertex -0.9954414546279142 7.433646232530054 2.4
      vertex -1.7799502490333612 7.285724199485324 0
      vertex -1.7799502490333612 7.285724199485324 2.4
    endloop
  endfacet
  facet normal -0.07978610555308249 0.9968120070307502 1.4614110692017748e-18
    outer loop
      vertex -0.9954414546279142 7.433646232530054 2.4
      vertex -0.1996539107833114 7.497342083425894 2.4
      vertex -0.1996539107833114 7.497342083425894 0
    endloop
  endfacet
  facet normal -0.6661199705652899 0 0.7458446117081609
    outer loop
      vertex -7.489370217575715 0.39916631131634117 2.4
      vertex -7.489370217575715 -0.39916631131634117 2.4
      vertex -5.25 0 4.4
    endloop
  endfacet
  facet normal -0.661544485624189 0.07071850374031774 0.7465639870560045
    outer loop
      vertex -7.489370217575715 0.39916631131634117 2.4
      vertex -5.191361837681924 0.7824718974249169 4.4
      vertex -7.404512660410084 1.1929762201430405 2.4
    endloop
  endfacet
  facet normal -0.6493652368377739 0.14043794904601167 0.7473967966578204
    outer loop
      vertex -5.191361837681924 0.7824718974249169 4.4
      vertex -7.2357590161088705 1.9732692317064082 2.4
      vertex -7.404512660410084 1.1929762201430405 2.4
    endloop
  endfacet
  facet normal -0.632243057398623 0.2091566472205596 0.7460041643950092
    outer loop
      vertex -6.985021330892538 2.7312043143961673 2.4
      vertex -7.2357590161088705 1.9732692317064082 2.4
      vertex -5.016757230377239 1.5474646656572468 4.4
    endloop
  endfacet
  facet normal -0.606386072486853 0.27515544310508855 0.746046522157708
    outer loop
      vertex -4.7300865564877 2.2778896303671807 4.4
      vertex -6.655140562924286 3.458193760869944 2.4
      vertex -6.985021330892538 2.7312043143961673 2.4
    endloop
  endfacet
  facet normal -0.5722752965124495 0.33720993573396324 0.7475228720540159
    outer loop
      vertex -6.249854393118863 4.14600049020895 2.4
      vertex -6.655140562924286 3.458193760869944 2.4
      vertex -4.337753565158973 2.9574303048340154 4.4
    endloop
  endfacet
  facet normal -0.6603821483325965 0.049488800471076407 0.749297188565097
    outer loop
      vertex -5.25 0 4.4
      vertex -5.191361837681924 0.7824718974249169 4.4
      vertex -7.489370217575715 0.39916631131634117 2.4
    endloop
  endfacet
  facet normal -0.6464031146633972 0.14753729274738786 0.7485958593274682
    outer loop
      vertex -7.2357590161088705 1.9732692317064082 2.4
      vertex -5.191361837681924 0.7824718974249169 4.4
      vertex -5.016757230377239 1.5474646656572468 4.4
    endloop
  endfacet
  facet normal 0 0 1
    outer loop
      vertex -5.016757230377239 -1.5474646656572468 4.4
      vertex -3.8485223271065885 3.5709068732973273 4.4
      vertex -5.191361837681924 0.7824718974249169 4.4
    endloop
  endfacet
  facet normal 0 0 1
    outer loop
      vertex -5.191361837681924 0.7824718974249169 4.4
      vertex -4.7300865564877 2.2778896303671807 4.4
      vertex -5.016757230377239 1.5474646656572468 4.4
    endloop
  endfacet
  facet normal -0.6161907259896872 0.2418370389819528 0.7495490883062589
    outer loop
      vertex -5.016757230377239 1.5474646656572468 4.4
      vertex -4.7300865564877 2.2778896303671807 4.4
      vertex -6.985021330892538 2.7312043143961673 2.4
    endloop
  endfacet
  facet normal -0.5743146449765809 0.3315807148767737 0.7484763978157437
    outer loop
      vertex -6.655140562924286 3.458193760869944 2.4
      vertex -4.7300865564877 2.2778896303671807 4.4
      vertex -4.337753565158973 2.9574303048340154 4.4
    endloop
  endfacet
  facet normal 0 0 1
    outer loop
      vertex -5.191361837681924 0.7824718974249169 4.4
      vertex -3.8485223271065885 3.5709068732973273 4.4
      vertex -4.7300865564877 2.2778896303671807 4.4
    endloop
  endfacet
  facet normal 0 0 1
    outer loop
      vertex -4.337753565158973 2.9574303048340154 4.4
      vertex -4.7300865564877 2.2778896303671807 4.4
      vertex -3.8485223271065885 3.5709068732973273 4.4
    endloop
  endfacet
  facet normal -0.5341288372913356 0.3968261935702373 0.7464819872377112
    outer loop
      vertex -5.773754875724296 4.786831377336152 2.4
      vertex -6.249854393118863 4.14600049020895 2.4
      vertex -4.337753565158973 2.9574303048340154 4.4
    endloop
  endfacet
  facet normal -0.4894456838164082 0.451835166157903 0.745847105790824
    outer loop
      vertex -5.773754875724296 4.786831377336152 2.4
      vertex -3.8485223271065885 3.5709068732973273 4.4
      vertex -5.232236408512385 5.3734255522373635 2.4
    endloop
  endfacet
  facet normal -0.43805234643686075 0.5006221639834657 0.7466509162317236
    outer loop
      vertex -3.273321459758352 4.104615282957156 4.4
      vertex -4.631434612096441 5.899136668519818 2.4
      vertex -5.232236408512385 5.3734255522373635 2.4
    endloop
  endfacet
  facet normal -0.3819544312551925 0.5437738645840576 0.7472755827938187
    outer loop
      vertex -4.631434612096441 5.899136668519818 2.4
      vertex -3.273321459758352 4.104615282957156 4.4
      vertex -3.978156810898069 6.358008209172532 2.4
    endloop
  endfacet
  facet normal -0.5177057563367904 0.4128565639498277 0.7493531927331021
    outer loop
      vertex -3.8485223271065885 3.5709068732973273 4.4
      vertex -5.773754875724296 4.786831377336152 2.4
      vertex -4.337753565158973 2.9574303048340154 4.4
    endloop
  endfacet
  facet normal -0.4504819343704287 0.4855040593040989 0.7492341658020666
    outer loop
      vertex -3.8485223271065885 3.5709068732973273 4.4
      vertex -3.273321459758352 4.104615282957156 4.4
      vertex -5.232236408512385 5.3734255522373635 2.4
    endloop
  endfacet
  facet normal 0 0 1
    outer loop
      vertex -5.016757230377239 -1.5474646656572468 4.4
      vertex 0.39233299132872784 5.235319935201196 4.4
      vertex -3.8485223271065885 3.5709068732973273 4.4
    endloop
  endfacet
  facet normal -0.3227027165823372 0.582577477470248 0.745966781736816
    outer loop
      vertex -3.279804903441415 6.744840976284144 2.4
      vertex -3.978156810898069 6.358008209172532 2.4
      vertex -2.625 4.546633369868303 4.4
    endloop
  endfacet
  facet normal -0.2588949982231161 0.6134471000506563 0.7460938515592344
    outer loop
      vertex -1.918040377923574 4.887087180382072 4.4
      vertex -2.544291495885228 7.055252000032749 2.4
      vertex -3.279804903441415 6.744840976284144 2.4
    endloop
  endfacet
  facet normal -0.19171705908849843 0.6358131537536234 0.7476537987386465
    outer loop
      vertex -2.544291495885228 7.055252000032749 2.4
      vertex -1.168234903270651 5.118371538954574 4.4
      vertex -1.7799502490333612 7.285724199485324 2.4
    endloop
  endfacet
  facet normal -0.12330817584252723 0.6539684885300618 0.7464049234698916
    outer loop
      vertex -1.7799502490333612 7.285724199485324 2.4
      vertex -1.168234903270651 5.118371538954574 4.4
      vertex -0.9954414546279142 7.433646232530054 2.4
    endloop
  endfacet
  facet normal -0.05314622704871713 0.6639852501047024 0.7458545878345737
    outer loop
      vertex -0.9954414546279142 7.433646232530054 2.4
      vertex -0.39233299132872784 5.235319935201196 4.4
      vertex -0.1996539107833114 7.497342083425894 2.4
    endloop
  endfacet
  facet normal -0.3734246857740852 0.5477134184319589 0.7487082311048168
    outer loop
      vertex -3.978156810898069 6.358008209172532 2.4
      vertex -3.273321459758352 4.104615282957156 4.4
      vertex -2.625 4.546633369868303 4.4
    endloop
  endfacet
  facet normal -0.2872122398759873 0.5964023614599546 0.7495420952224151
    outer loop
      vertex -1.918040377923574 4.887087180382072 4.4
      vertex -3.279804903441415 6.744840976284144 2.4
      vertex -2.625 4.546633369868303 4.4
    endloop
  endfacet
  facet normal 0 0 1
    outer loop
      vertex -3.8485223271065885 3.5709068732973273 4.4
      vertex -1.918040377923574 4.887087180382072 4.4
      vertex -3.273321459758352 4.104615282957156 4.4
    endloop
  endfacet
  facet normal 0 0 1
    outer loop
      vertex -3.273321459758352 4.104615282957156 4.4
      vertex -1.918040377923574 4.887087180382072 4.4
      vertex -2.625 4.546633369868303 4.4
    endloop
  endfacet
  facet normal -0.1955123592812374 0.6338355012685682 0.7483498344356784
    outer loop
      vertex -2.544291495885228 7.055252000032749 2.4
      vertex -1.918040377923574 4.887087180382072 4.4
      vertex -1.168234903270651 5.118371538954574 4.4
    endloop
  endfacet
  facet normal 0 0 1
    outer loop
      vertex -1.918040377923574 4.887087180382072 4.4
      vertex -3.8485223271065885 3.5709068732973273 4.4
      vertex 0.39233299132872784 5.235319935201196 4.4
    endloop
  endfacet
  facet normal 0 0 1
    outer loop
      vertex -1.918040377923574 4.887087180382072 4.4
      vertex -0.39233299132872784 5.235319935201196 4.4
      vertex -1.168234903270651 5.118371538954574 4.4
    endloop
  endfacet
  facet normal 0 0 1
    outer loop
      vertex -1.918040377923574 4.887087180382072 4.4
      vertex 0.39233299132872784 5.235319935201196 4.4
      vertex -0.39233299132872784 5.235319935201196 4.4
    endloop
  endfacet
  facet normal -0.09868313058382525 0.6547197922657799 0.7494021839797572
    outer loop
      vertex -0.39233299132872784 5.235319935201196 4.4
      vertex -0.9954414546279142 7.433646232530054 2.4
      vertex -1.168234903270651 5.118371538954574 4.4
    endloop
  endfacet
  facet normal 0 0.6623844232878109 0.7491641180580357
    outer loop
      vertex 0.39233299132872784 5.235319935201196 4.4
      vertex -0.1996539107833114 7.497342083425894 2.4
      vertex -0.39233299132872784 5.235319935201196 4.4
    endloop
  endfacet
  facet normal 0 0 -1
    outer loop
      vertex -0.1996539107833114 -7.497342083425894 0
      vertex 1.3896654306533545 -7.370130934443908 0
      vertex 0.5983957916481251 -7.476090052730626 0
    endloop
  endfacet
  facet normal 0 0 -1
    outer loop
      vertex -0.1996539107833114 -7.497342083425894 0
      vertex 2.9161813160499066 -6.909839834028096 0
      vertex 1.3896654306533545 -7.370130934443908 0
    endloop
  endfacet
  facet normal 0.026620521437774616 -0.9996456111234526 0
    outer loop
      vertex 0.5983957916481251 -7.476090052730626 2.4
      vertex -0.1996539107833114 -7.497342083425894 0
      vertex 0.5983957916481251 -7.476090052730626 0
    endloop
  endfacet
  facet normal 0.13272552728372214 -0.9911528310040071 1.7985660953021533e-18
    outer loop
      vertex 1.3896654306533545 -7.370130934443908 0
      vertex 0.5983957916481251 -7.476090052730626 2.4
      vertex 0.5983957916481251 -7.476090052730626 0
    endloop
  endfacet
  facet normal 0.23732669987111546 -0.9714298932647097 0
    outer loop
      vertex 1.3896654306533545 -7.370130934443908 2.4
      vertex 1.3896654306533545 -7.370130934443908 0
      vertex 2.165189605047157 -7.1806652877150405 0
    endloop
  endfacet
  facet normal 0 0 -1
    outer loop
      vertex 1.3896654306533545 -7.370130934443908 0
      vertex 2.9161813160499066 -6.909839834028096 0
      vertex 2.165189605047157 -7.1806652877150405 0
    endloop
  endfacet
  facet normal 0 0 -1
    outer loop
      vertex -0.1996539107833114 -7.497342083425894 0
      vertex 5.510806131473003 -5.087338772022123 0
      vertex 2.9161813160499066 -6.909839834028096 0
    endloop
  endfacet
  facet normal 0 0 -1
    outer loop
      vertex 2.9161813160499066 -6.909839834028096 0
      vertex 4.310905576608051 -6.137270819311269 0
      vertex 3.634131527494874 -6.560723133989711 0
    endloop
  endfacet
  facet normal 0.3392388661180301 -0.9407002666710333 6.0289567392451935e-18
    outer loop
      vertex 2.165189605047157 -7.1806652877150405 0
      vertex 2.9161813160499066 -6.909839834028096 0
      vertex 2.9161813160499066 -6.909839834028096 2.4
    endloop
  endfacet
  facet normal 0.43730732045885456 -0.8993121301712196 0
    outer loop
      vertex 3.634131527494874 -6.560723133989711 0
      vertex 3.634131527494874 -6.560723133989711 2.4
      vertex 2.9161813160499066 -6.909839834028096 0
    endloop
  endfacet
  facet normal 0.026620521437774616 -0.9996456111234526 0
    outer loop
      vertex -0.1996539107833114 -7.497342083425894 2.4
      vertex -0.1996539107833114 -7.497342083425894 0
      vertex 0.5983957916481251 -7.476090052730626 2.4
    endloop
  endfacet
  facet normal 0.13272552728372214 -0.9911528310040071 0
    outer loop
      vertex 1.3896654306533545 -7.370130934443908 2.4
      vertex 0.5983957916481251 -7.476090052730626 2.4
      vertex 1.3896654306533545 -7.370130934443908 0
    endloop
  endfacet
  facet normal 0.23732669987111546 -0.9714298932647097 4.2833633552535834e-18
    outer loop
      vertex 1.3896654306533545 -7.370130934443908 2.4
      vertex 2.165189605047157 -7.1806652877150405 0
      vertex 2.165189605047157 -7.1806652877150405 2.4
    endloop
  endfacet
  facet normal 0.3392388661180301 -0.9407002666710333 0
    outer loop
      vertex 2.165189605047157 -7.1806652877150405 2.4
      vertex 2.165189605047157 -7.1806652877150405 0
      vertex 2.9161813160499066 -6.909839834028096 2.4
    endloop
  endfacet
  facet normal 0.43730732045885456 -0.8993121301712196 0
    outer loop
      vertex 2.9161813160499066 -6.909839834028096 0
      vertex 3.634131527494874 -6.560723133989711 2.4
      vertex 2.9161813160499066 -6.909839834028096 2.4
    endloop
  endfacet
  facet normal 0 0 -1
    outer loop
      vertex 2.9161813160499066 -6.909839834028096 0
      vertex 5.510806131473003 -5.087338772022123 0
      vertex 4.310905576608051 -6.137270819311269 0
    endloop
  endfacet
  facet normal 0.5304209081197423 -0.847734427889671 1.1809833584381736e-18
    outer loop
      vertex 3.634131527494874 -6.560723133989711 0
      vertex 4.310905576608051 -6.137270819311269 0
      vertex 4.310905576608051 -6.137270819311269 2.4
    endloop
  endfacet
  facet normal 0.6175246149461927 -0.7865515558026418 0
    outer loop
      vertex 4.310905576608051 -6.137270819311269 2.4
      vertex 4.310905576608051 -6.137270819311269 0
      vertex 4.93883534298779 -5.644280773921038 0
    endloop
  endfacet
  facet normal 0 0 -1
    outer loop
      vertex 5.510806131473003 -5.087338772022123 0
      vertex -0.1996539107833114 -7.497342083425894 0
      vertex 7.5 0 0
    endloop
  endfacet
  facet normal 0 0 -1
    outer loop
      vertex 4.310905576608051 -6.137270819311269 0
      vertex 5.510806131473003 -5.087338772022123 0
      vertex 4.93883534298779 -5.644280773921038 0
    endloop
  endfacet
  facet normal 0.6976315211349841 -0.7164567402983157 -1.073284811664083e-17
    outer loop
      vertex 5.510806131473003 -5.087338772022123 0
      vertex 4.93883534298779 -5.644280773921038 2.4
      vertex 4.93883534298779 -5.644280773921038 0
    endloop
  endfacet
  facet normal 0 0 -1
    outer loop
      vertex 5.510806131473003 -5.087338772022123 0
      vertex 6.829760796411848 -3.099091393262839 0
      vertex 6.020337284482228 -4.472755189038761 0
    endloop
  endfacet
  facet normal 0 0 -1
    outer loop
      vertex 6.020337284482228 -4.472755189038761 0
      vertex 6.829760796411848 -3.099091393262839 0
      vertex 6.461655610453548 -3.8074935025412975 0
    endloop
  endfacet
  facet normal 0.7698339834299059 -0.6382441836448204 0
    outer loop
      vertex 5.510806131473003 -5.087338772022123 0
      vertex 6.020337284482228 -4.472755189038761 0
      vertex 5.510806131473003 -5.087338772022123 2.4
    endloop
  endfacet
  facet normal 0.833313919082515 -0.5528000653611934 0
    outer loop
      vertex 6.461655610453548 -3.8074935025412975 2.4
      vertex 6.020337284482228 -4.472755189038761 0
      vertex 6.461655610453548 -3.8074935025412975 0
    endloop
  endfacet
  facet normal 0.5304209081197423 -0.847734427889671 0
    outer loop
      vertex 3.634131527494874 -6.560723133989711 0
      vertex 4.310905576608051 -6.137270819311269 2.4
      vertex 3.634131527494874 -6.560723133989711 2.4
    endloop
  endfacet
  facet normal 0.6175246149461927 -0.7865515558026418 0
    outer loop
      vertex 4.93883534298779 -5.644280773921038 0
      vertex 4.93883534298779 -5.644280773921038 2.4
      vertex 4.310905576608051 -6.137270819311269 2.4
    endloop
  endfacet
  facet normal 0.6976315211349841 -0.7164567402983157 -1.073284811664083e-17
    outer loop
      vertex 4.93883534298779 -5.644280773921038 2.4
      vertex 5.510806131473003 -5.087338772022123 0
      vertex 5.510806131473003 -5.087338772022123 2.4
    endloop
  endfacet
  facet normal 0.7698339834299059 -0.6382441836448204 0
    outer loop
      vertex 6.020337284482228 -4.472755189038761 2.4
      vertex 5.510806131473003 -5.087338772022123 2.4
      vertex 6.020337284482228 -4.472755189038761 0
    endloop
  endfacet
  facet normal 0.833313919082515 -0.5528000653611934 0
    outer loop
      vertex 6.020337284482228 -4.472755189038761 0
      vertex 6.461655610453548 -3.8074935025412975 2.4
      vertex 6.020337284482228 -4.472755189038761 2.4
    endloop
  endfacet
  facet normal 0 0 -1
    outer loop
      vertex 5.510806131473003 -5.087338772022123 0
      vertex 7.5 0 0
      vertex 6.829760796411848 -3.099091393262839 0
    endloop
  endfacet
  facet normal 0 0 -1
    outer loop
      vertex 6.829760796411848 -3.099091393262839 0
      vertex 7.3305254236340005 -1.5853696772221801 0
      vertex 7.12048206351286 -2.355575340164616 0
    endloop
  endfacet
  facet normal 0.8873520750565718 -0.46109250144932545 -9.849786294619337e-18
    outer loop
      vertex 6.829760796411848 -3.099091393262839 0
      vertex 6.461655610453548 -3.8074935025412975 2.4
      vertex 6.461655610453548 -3.8074935025412975 0
    endloop
  endfacet
  facet normal 0.9313361774523384 -0.3641605752528223 0
    outer loop
      vertex 7.12048206351286 -2.355575340164616 2.4
      vertex 6.829760796411848 -3.099091393262839 0
      vertex 7.12048206351286 -2.355575340164616 0
    endloop
  endfacet
  facet normal 0.964767868814516 -0.2631025642275212 -1.3970323770192094e-18
    outer loop
      vertex 7.3305254236340005 -1.5853696772221801 0
      vertex 7.12048206351286 -2.355575340164616 2.4
      vertex 7.12048206351286 -2.355575340164616 0
    endloop
  endfacet
  facet normal 0 0 -1
    outer loop
      vertex 7.3305254236340005 -1.5853696772221801 0
      vertex 6.829760796411848 -3.099091393262839 0
      vertex 7.5 0 0
    endloop
  endfacet
  facet normal 0 0 -1
    outer loop
      vertex 7.3305254236340005 -1.5853696772221801 0
      vertex 7.5 0 0
      vertex 7.457511001576028 -0.797201142355243 0
    endloop
  endfacet
  facet normal 0.9872683547213446 -0.1590634960190721 0
    outer loop
      vertex 7.3305254236340005 -1.5853696772221801 2.4
      vertex 7.3305254236340005 -1.5853696772221801 0
      vertex 7.457511001576028 -0.797201142355243 0
    endloop
  endfacet
  facet normal 0.9985826956767619 -0.05322217484217857 0
    outer loop
      vertex 7.5 0 0
      vertex 7.5 0 2.4
      vertex 7.457511001576028 -0.797201142355243 0
    endloop
  endfacet
  facet normal 0.8873520750565718 -0.46109250144932545 0
    outer loop
      vertex 6.829760796411848 -3.099091393262839 0
      vertex 6.829760796411848 -3.099091393262839 2.4
      vertex 6.461655610453548 -3.8074935025412975 2.4
    endloop
  endfacet
  facet normal 0.9313361774523384 -0.3641605752528223 0
    outer loop
      vertex 6.829760796411848 -3.099091393262839 0
      vertex 7.12048206351286 -2.355575340164616 2.4
      vertex 6.829760796411848 -3.099091393262839 2.4
    endloop
  endfacet
  facet normal 0.964767868814516 -0.2631025642275212 -1.3970323770192094e-18
    outer loop
      vertex 7.12048206351286 -2.355575340164616 2.4
      vertex 7.3305254236340005 -1.5853696772221801 0
      vertex 7.3305254236340005 -1.5853696772221801 2.4
    endloop
  endfacet
  facet normal 0.9872683547213446 -0.1590634960190721 -6.252821836555055e-19
    outer loop
      vertex 7.3305254236340005 -1.5853696772221801 2.4
      vertex 7.457511001576028 -0.797201142355243 0
      vertex 7.457511001576028 -0.797201142355243 2.4
    endloop
  endfacet
  facet normal 0.9985826956767619 -0.05322217484217857 0
    outer loop
      vertex 7.457511001576028 -0.797201142355243 0
      vertex 7.5 0 2.4
      vertex 7.457511001576028 -0.797201142355243 2.4
    endloop
  endfacet
  facet normal 0.017705653597474502 -0.6648772433763103 0.7467427676723793
    outer loop
      vertex 0.5983957916481251 -7.476090052730626 2.4
      vertex 0.3923329913287266 -5.235319935201196 4.4
      vertex -0.1996539107833114 -7.497342083425894 2.4
    endloop
  endfacet
  facet normal 0.08821536742559752 -0.6587648431415416 0.7471592403167259
    outer loop
      vertex 0.3923329913287266 -5.235319935201196 4.4
      vertex 0.5983957916481251 -7.476090052730626 2.4
      vertex 1.3896654306533545 -7.370130934443908 2.4
    endloop
  endfacet
  facet normal 0.15806419759640522 -0.6469912010887737 0.7459343772423352
    outer loop
      vertex 2.165189605047157 -7.1806652877150405 2.4
      vertex 1.1682349032706483 -5.118371538954575 4.4
      vertex 1.3896654306533545 -7.370130934443908 2.4
    endloop
  endfacet
  facet normal 0.2258591952725197 -0.6263014838312833 0.7461461487279706
    outer loop
      vertex 2.9161813160499066 -6.909839834028096 2.4
      vertex 1.9180403779235755 -4.887087180382072 4.4
      vertex 2.165189605047157 -7.1806652877150405 2.4
    endloop
  endfacet
  facet normal 0.2903439916944538 -0.5970855310155311 0.7477895660804798
    outer loop
      vertex 2.625 -4.546633369868303 4.4
      vertex 2.9161813160499066 -6.909839834028096 2.4
      vertex 3.634131527494874 -6.560723133989711 2.4
    endloop
  endfacet
  facet normal 0.35303380729171263 -0.5642291019617769 0.7463328020451229
    outer loop
      vertex 4.310905576608051 -6.137270819311269 2.4
      vertex 2.625 -4.546633369868303 4.4
      vertex 3.634131527494874 -6.560723133989711 2.4
    endloop
  endfacet
  facet normal 0.09878234303184333 -0.6553780238497665 0.7488135245572919
    outer loop
      vertex 1.1682349032706483 -5.118371538954575 4.4
      vertex 0.3923329913287266 -5.235319935201196 4.4
      vertex 1.3896654306533545 -7.370130934443908 2.4
    endloop
  endfacet
  facet normal 0.19511982504525158 -0.6325629365307397 0.7495281083467904
    outer loop
      vertex 1.1682349032706483 -5.118371538954575 4.4
      vertex 2.165189605047157 -7.1806652877150405 2.4
      vertex 1.9180403779235755 -4.887087180382072 4.4
    endloop
  endfacet
  facet normal 0 0 1
    outer loop
      vertex 1.1682349032706483 -5.118371538954575 4.4
      vertex -0.3923329913287266 -5.235319935201196 4.4
      vertex 0.3923329913287266 -5.235319935201196 4.4
    endloop
  endfacet
  facet normal 0 0 1
    outer loop
      vertex 2.625 -4.546633369868303 4.4
      vertex -0.3923329913287266 -5.235319935201196 4.4
      vertex 1.1682349032706483 -5.118371538954575 4.4
    endloop
  endfacet
  facet normal 0.2878623513041031 -0.597752331750592 0.7482161563267685
    outer loop
      vertex 2.9161813160499066 -6.909839834028096 2.4
      vertex 2.625 -4.546633369868303 4.4
      vertex 1.9180403779235755 -4.887087180382072 4.4
    endloop
  endfacet
  facet normal 0.3729559304467697 -0.5470258806431805 0.749444167267407
    outer loop
      vertex 3.27332145975835 -4.104615282957157 4.4
      vertex 2.625 -4.546633369868303 4.4
      vertex 4.310905576608051 -6.137270819311269 2.4
    endloop
  endfacet
  facet normal 0 0 1
    outer loop
      vertex 2.625 -4.546633369868303 4.4
      vertex 1.1682349032706483 -5.118371538954575 4.4
      vertex 1.9180403779235755 -4.887087180382072 4.4
    endloop
  endfacet
  facet normal 0 0 1
    outer loop
      vertex 5.016757230377238 -1.547464665657249 4.4
      vertex -0.3923329913287266 -5.235319935201196 4.4
      vertex 2.625 -4.546633369868303 4.4
    endloop
  endfacet
  facet normal 0 0 1
    outer loop
      vertex 5.016757230377238 -1.547464665657249 4.4
      vertex 2.625 -4.546633369868303 4.4
      vertex 3.27332145975835 -4.104615282957157 4.4
    endloop
  endfacet
  facet normal 0.4113299582301583 -0.5239179309837831 0.7458670572267205
    outer loop
      vertex 4.310905576608051 -6.137270819311269 2.4
      vertex 4.93883534298779 -5.644280773921038 2.4
      vertex 3.27332145975835 -4.104615282957157 4.4
    endloop
  endfacet
  facet normal 0.4639279569667418 -0.476446808539972 0.7468395338871263
    outer loop
      vertex 3.8485223271065894 -3.5709068732973255 4.4
      vertex 4.93883534298779 -5.644280773921038 2.4
      vertex 5.510806131473003 -5.087338772022123 2.4
    endloop
  endfacet
  facet normal 0.5117628055146497 -0.42428580844173713 0.7470477786907048
    outer loop
      vertex 3.8485223271065894 -3.5709068732973255 4.4
      vertex 5.510806131473003 -5.087338772022123 2.4
      vertex 6.020337284482228 -4.472755189038761 2.4
    endloop
  endfacet
  facet normal 0.4505951158836557 -0.4856260399650695 0.7490870382336352
    outer loop
      vertex 3.27332145975835 -4.104615282957157 4.4
      vertex 4.93883534298779 -5.644280773921038 2.4
      vertex 3.8485223271065894 -3.5709068732973255 4.4
    endloop
  endfacet
  facet normal 0.5550288697538801 -0.36819257239229297 0.7459069535638321
    outer loop
      vertex 6.461655610453548 -3.8074935025412975 2.4
      vertex 4.337753565158973 -2.9574303048340154 4.4
      vertex 6.020337284482228 -4.472755189038761 2.4
    endloop
  endfacet
  facet normal 0.5907262595627041 -0.30695758352309666 0.7462034093869567
    outer loop
      vertex 6.461655610453548 -3.8074935025412975 2.4
      vertex 6.829760796411848 -3.099091393262839 2.4
      vertex 4.7300865564877 -2.2778896303671807 4.4
    endloop
  endfacet
  facet normal 0.6181999305498098 -0.24172156926846575 0.7479301630624351
    outer loop
      vertex 7.12048206351286 -2.355575340164616 2.4
      vertex 5.016757230377238 -1.547464665657249 4.4
      vertex 6.829760796411848 -3.099091393262839 2.4
    endloop
  endfacet
  facet normal 0.6421960569119026 -0.17513376509723838 0.7462656288545451
    outer loop
      vertex 5.016757230377238 -1.547464665657249 4.4
      vertex 7.12048206351286 -2.355575340164616 2.4
      vertex 7.3305254236340005 -1.5853696772221801 2.4
    endloop
  endfacet
  facet normal 0.6575950567152054 -0.10594826440629065 0.7458845129462205
    outer loop
      vertex 7.457511001576028 -0.797201142355243 2.4
      vertex 5.191361837681925 -0.7824718974249144 4.4
      vertex 7.3305254236340005 -1.5853696772221801 2.4
    endloop
  endfacet
  facet normal 0.6639477395448143 -0.03538689668177645 0.746941206987916
    outer loop
      vertex 5.25 0 4.4
      vertex 7.457511001576028 -0.797201142355243 2.4
      vertex 7.5 0 2.4
    endloop
  endfacet
  facet normal 0.5180960686579009 -0.4131678276392667 0.7489117503718824
    outer loop
      vertex 4.337753565158973 -2.9574303048340154 4.4
      vertex 3.8485223271065894 -3.5709068732973255 4.4
      vertex 6.020337284482228 -4.472755189038761 2.4
    endloop
  endfacet
  facet normal 0.5733055910771295 -0.3309981373362986 0.7495071262633891
    outer loop
      vertex 4.337753565158973 -2.9574303048340154 4.4
      vertex 6.461655610453548 -3.8074935025412975 2.4
      vertex 4.7300865564877 -2.2778896303671807 4.4
    endloop
  endfacet
  facet normal 0.617740662376951 -0.24244534418794925 0.7480753498997762
    outer loop
      vertex 6.829760796411848 -3.099091393262839 2.4
      vertex 5.016757230377238 -1.547464665657249 4.4
      vertex 4.7300865564877 -2.2778896303671807 4.4
    endloop
  endfacet
  facet normal 0 0 1
    outer loop
      vertex 3.27332145975835 -4.104615282957157 4.4
      vertex 3.8485223271065894 -3.5709068732973255 4.4
      vertex 4.337753565158973 -2.9574303048340154 4.4
    endloop
  endfacet
  facet normal 0 0 1
    outer loop
      vertex 5.016757230377238 -1.547464665657249 4.4
      vertex 3.27332145975835 -4.104615282957157 4.4
      vertex 4.337753565158973 -2.9574303048340154 4.4
    endloop
  endfacet
  facet normal 0 0 1
    outer loop
      vertex 5.016757230377238 -1.547464665657249 4.4
      vertex 4.337753565158973 -2.9574303048340154 4.4
      vertex 4.7300865564877 -2.2778896303671807 4.4
    endloop
  endfacet
  facet normal 0 0 1
    outer loop
      vertex 5.191361837681925 -0.7824718974249144 4.4
      vertex 5.191361837681924 0.7824718974249159 4.4
      vertex 5.016757230377238 -1.547464665657249 4.4
    endloop
  endfacet
  facet normal 0.6454295284682711 -0.1473150780515945 0.7494791468479147
    outer loop
      vertex 5.016757230377238 -1.547464665657249 4.4
      vertex 7.3305254236340005 -1.5853696772221801 2.4
      vertex 5.191361837681925 -0.7824718974249144 4.4
    endloop
  endfacet
  facet normal 0.660714026196417 -0.049513671278720826 0.7490029185148902
    outer loop
      vertex 5.191361837681925 -0.7824718974249144 4.4
      vertex 7.457511001576028 -0.797201142355243 2.4
      vertex 5.25 0 4.4
    endloop
  endfacet
  facet normal 0 0 -1
    outer loop
      vertex 7.5 0 0
      vertex -7.489370217575715 0.39916631131634117 0
      vertex 0.5983957916481232 7.476090052730626 0
    endloop
  endfacet
  facet normal 0 0 -1
    outer loop
      vertex 2.165189605047157 7.1806652877150405 0
      vertex 0.5983957916481232 7.476090052730626 0
      vertex 1.389665430653358 7.370130934443908 0
    endloop
  endfacet
  facet normal 0.026620521437774682 0.9996456111234526 0
    outer loop
      vertex -0.1996539107833114 7.497342083425894 2.4
      vertex 0.5983957916481232 7.476090052730626 0
      vertex -0.1996539107833114 7.497342083425894 0
    endloop
  endfacet
  facet normal 0.13272552728372125 0.9911528310040073 1.5624229368464556e-18
    outer loop
      vertex 0.5983957916481232 7.476090052730626 0
      vertex 1.389665430653358 7.370130934443908 2.4
      vertex 1.389665430653358 7.370130934443908 0
    endloop
  endfacet
  facet normal 0.2373266998711165 0.9714298932647095 0
    outer loop
      vertex 1.389665430653358 7.370130934443908 2.4
      vertex 2.165189605047157 7.1806652877150405 0
      vertex 1.389665430653358 7.370130934443908 0
    endloop
  endfacet
  facet normal 0 0 -1
    outer loop
      vertex 7.5 0 0
      vertex 0.5983957916481232 7.476090052730626 0
      vertex 2.165189605047157 7.1806652877150405 0
    endloop
  endfacet
  facet normal 0 0 -1
    outer loop
      vertex 3.6341315274948762 6.560723133989709 0
      vertex 2.165189605047157 7.1806652877150405 0
      vertex 2.9161813160499053 6.909839834028097 0
    endloop
  endfacet
  facet normal 0 0 -1
    outer loop
      vertex 4.310905576608051 6.137270819311269 0
      vertex 2.165189605047157 7.1806652877150405 0
      vertex 3.6341315274948762 6.560723133989709 0
    endloop
  endfacet
  facet normal 0.33923886611802967 0.9407002666710336 -5.574719114929709e-18
    outer loop
      vertex 2.165189605047157 7.1806652877150405 0
      vertex 2.9161813160499053 6.909839834028097 2.4
      vertex 2.9161813160499053 6.909839834028097 0
    endloop
  endfacet
  facet normal 0.4373073204588555 0.8993121301712192 0
    outer loop
      vertex 2.9161813160499053 6.909839834028097 2.4
      vertex 3.6341315274948762 6.560723133989709 0
      vertex 2.9161813160499053 6.909839834028097 0
    endloop
  endfacet
  facet normal 0.026620521437774682 0.9996456111234526 0
    outer loop
      vertex 0.5983957916481232 7.476090052730626 0
      vertex -0.1996539107833114 7.497342083425894 2.4
      vertex 0.5983957916481232 7.476090052730626 2.4
    endloop
  endfacet
  facet normal 0.13272552728372125 0.9911528310040073 1.5624229368464556e-18
    outer loop
      vertex 1.389665430653358 7.370130934443908 2.4
      vertex 0.5983957916481232 7.476090052730626 0
      vertex 0.5983957916481232 7.476090052730626 2.4
    endloop
  endfacet
  facet normal 0.2373266998711165 0.9714298932647095 0
    outer loop
      vertex 2.165189605047157 7.1806652877150405 0
      vertex 1.389665430653358 7.370130934443908 2.4
      vertex 2.165189605047157 7.1806652877150405 2.4
    endloop
  endfacet
  facet normal 0.33923886611802967 0.9407002666710336 -5.574719114929709e-18
    outer loop
      vertex 2.9161813160499053 6.909839834028097 2.4
      vertex 2.165189605047157 7.1806652877150405 0
      vertex 2.165189605047157 7.1806652877150405 2.4
    endloop
  endfacet
  facet normal 0.4373073204588555 0.8993121301712192 -5.516480211143155e-18
    outer loop
      vertex 2.9161813160499053 6.909839834028097 2.4
      vertex 3.6341315274948762 6.560723133989709 2.4
      vertex 3.6341315274948762 6.560723133989709 0
    endloop
  endfacet
  facet normal 0 0 -1
    outer loop
      vertex 7.5 0 0
      vertex 7.3305254236340005 1.5853696772221824 0
      vertex 7.457511001576028 0.7972011423552405 0
    endloop
  endfacet
  facet normal 0.9985826956767619 0.053222174842178734 0
    outer loop
      vertex 7.5 0 2.4
      vertex 7.5 0 0
      vertex 7.457511001576028 0.7972011423552405 0
    endloop
  endfacet
  facet normal 0.9872683547213448 0.15906349601907122 0
    outer loop
      vertex 7.3305254236340005 1.5853696772221824 0
      vertex 7.3305254236340005 1.5853696772221824 2.4
      vertex 7.457511001576028 0.7972011423552405 0
    endloop
  endfacet
  facet normal 0 0 -1
    outer loop
      vertex 7.5 0 0
      vertex 2.165189605047157 7.1806652877150405 0
      vertex 7.3305254236340005 1.5853696772221824 0
    endloop
  endfacet
  facet normal 0 0 -1
    outer loop
      vertex 7.3305254236340005 1.5853696772221824 0
      vertex 6.82976079641185 3.099091393262836 0
      vertex 7.12048206351286 2.355575340164616 0
    endloop
  endfacet
  facet normal 0 0 -1
    outer loop
      vertex 7.3305254236340005 1.5853696772221824 0
      vertex 6.020337284482228 4.472755189038761 0
      vertex 6.82976079641185 3.099091393262836 0
    endloop
  endfacet
  facet normal 0.9313361774523387 0.3641605752528215 1.6475938456036972e-18
    outer loop
      vertex 6.82976079641185 3.099091393262836 0
      vertex 7.12048206351286 2.355575340164616 2.4
      vertex 7.12048206351286 2.355575340164616 0
    endloop
  endfacet
  facet normal 0.9647678688145158 0.26310256422752193 0
    outer loop
      vertex 7.12048206351286 2.355575340164616 2.4
      vertex 7.3305254236340005 1.5853696772221824 0
      vertex 7.12048206351286 2.355575340164616 0
    endloop
  endfacet
  facet normal 0.8873520750565712 0.4610925014493267 -1.2926895960459152e-17
    outer loop
      vertex 6.461655610453546 3.8074935025412993 0
      vertex 6.82976079641185 3.099091393262836 2.4
      vertex 6.82976079641185 3.099091393262836 0
    endloop
  endfacet
  facet normal 0.9985826956767619 0.053222174842178734 -1.880137015213708e-19
    outer loop
      vertex 7.5 0 2.4
      vertex 7.457511001576028 0.7972011423552405 0
      vertex 7.457511001576028 0.7972011423552405 2.4
    endloop
  endfacet
  facet normal 0.9872683547213448 0.15906349601907122 0
    outer loop
      vertex 7.457511001576028 0.7972011423552405 0
      vertex 7.3305254236340005 1.5853696772221824 2.4
      vertex 7.457511001576028 0.7972011423552405 2.4
    endloop
  endfacet
  facet normal 0.9647678688145158 0.26310256422752193 -1.4499619703240857e-18
    outer loop
      vertex 7.12048206351286 2.355575340164616 2.4
      vertex 7.3305254236340005 1.5853696772221824 2.4
      vertex 7.3305254236340005 1.5853696772221824 0
    endloop
  endfacet
  facet normal 0.9313361774523387 0.3641605752528215 0
    outer loop
      vertex 6.82976079641185 3.099091393262836 2.4
      vertex 7.12048206351286 2.355575340164616 2.4
      vertex 6.82976079641185 3.099091393262836 0
    endloop
  endfacet
  facet normal 0.8873520750565712 0.4610925014493267 0
    outer loop
      vertex 6.461655610453546 3.8074935025412993 2.4
      vertex 6.82976079641185 3.099091393262836 2.4
      vertex 6.461655610453546 3.8074935025412993 0
    endloop
  endfacet
  facet normal 0 0 -1
    outer loop
      vertex 7.3305254236340005 1.5853696772221824 0
      vertex 2.165189605047157 7.1806652877150405 0
      vertex 4.310905576608051 6.137270819311269 0
    endloop
  endfacet
  facet normal 0 0 -1
    outer loop
      vertex 5.510806131473005 5.087338772022121 0
      vertex 4.310905576608051 6.137270819311269 0
      vertex 4.93883534298779 5.6442807739210386 0
    endloop
  endfacet
  facet normal 0 0 -1
    outer loop
      vertex 6.020337284482228 4.472755189038761 0
      vertex 4.310905576608051 6.137270819311269 0
      vertex 5.510806131473005 5.087338772022121 0
    endloop
  endfacet
  facet normal 0.6976315211349846 0.7164567402983152 0
    outer loop
      vertex 4.93883534298779 5.6442807739210386 2.4
      vertex 5.510806131473005 5.087338772022121 0
      vertex 4.93883534298779 5.6442807739210386 0
    endloop
  endfacet
  facet normal 0.530420908119742 0.8477344278896712 0
    outer loop
      vertex 3.6341315274948762 6.560723133989709 2.4
      vertex 4.310905576608051 6.137270819311269 0
      vertex 3.6341315274948762 6.560723133989709 0
    endloop
  endfacet
  facet normal 0.6175246149461919 0.7865515558026424 0
    outer loop
      vertex 4.310905576608051 6.137270819311269 0
      vertex 4.310905576608051 6.137270819311269 2.4
      vertex 4.93883534298779 5.6442807739210386 0
    endloop
  endfacet
  facet normal 0 0 -1
    outer loop
      vertex 7.3305254236340005 1.5853696772221824 0
      vertex 4.310905576608051 6.137270819311269 0
      vertex 6.020337284482228 4.472755189038761 0
    endloop
  endfacet
  facet normal 0 0 -1
    outer loop
      vertex 6.82976079641185 3.099091393262836 0
      vertex 6.020337284482228 4.472755189038761 0
      vertex 6.461655610453546 3.8074935025412993 0
    endloop
  endfacet
  facet normal 0.8333139190825153 0.552800065361193 -1.1653064560942176e-17
    outer loop
      vertex 6.020337284482228 4.472755189038761 0
      vertex 6.461655610453546 3.8074935025412993 2.4
      vertex 6.461655610453546 3.8074935025412993 0
    endloop
  endfacet
  facet normal 0.7698339834299062 0.6382441836448203 0
    outer loop
      vertex 5.510806131473005 5.087338772022121 2.4
      vertex 6.020337284482228 4.472755189038761 0
      vertex 5.510806131473005 5.087338772022121 0
    endloop
  endfacet
  facet normal 0.6976315211349846 0.7164567402983152 0
    outer loop
      vertex 5.510806131473005 5.087338772022121 0
      vertex 4.93883534298779 5.6442807739210386 2.4
      vertex 5.510806131473005 5.087338772022121 2.4
    endloop
  endfacet
  facet normal 0.530420908119742 0.8477344278896712 0
    outer loop
      vertex 4.310905576608051 6.137270819311269 2.4
      vertex 4.310905576608051 6.137270819311269 0
      vertex 3.6341315274948762 6.560723133989709 2.4
    endloop
  endfacet
  facet normal 0.6175246149461919 0.7865515558026424 0
    outer loop
      vertex 4.93883534298779 5.6442807739210386 2.4
      vertex 4.93883534298779 5.6442807739210386 0
      vertex 4.310905576608051 6.137270819311269 2.4
    endloop
  endfacet
  facet normal 0.7698339834299062 0.6382441836448203 1.2322254216299293e-17
    outer loop
      vertex 5.510806131473005 5.087338772022121 2.4
      vertex 6.020337284482228 4.472755189038761 2.4
      vertex 6.020337284482228 4.472755189038761 0
    endloop
  endfacet
  facet normal 0.8333139190825153 0.552800065361193 -1.1653064560942176e-17
    outer loop
      vertex 6.461655610453546 3.8074935025412993 2.4
      vertex 6.020337284482228 4.472755189038761 0
      vertex 6.020337284482228 4.472755189038761 2.4
    endloop
  endfacet
  facet normal 0 0 1
    outer loop
      vertex 0.39233299132872784 5.235319935201196 4.4
      vertex -5.016757230377239 -1.5474646656572468 4.4
      vertex 5.016757230377238 -1.547464665657249 4.4
    endloop
  endfacet
  facet normal 0 0 1
    outer loop
      vertex 0.39233299132872784 5.235319935201196 4.4
      vertex 5.016757230377238 -1.547464665657249 4.4
      vertex 4.337753565158973 2.957430304834016 4.4
    endloop
  endfacet
  facet normal 0.01770565359747454 0.6648772433763102 0.7467427676723792
    outer loop
      vertex -0.1996539107833114 7.497342083425894 2.4
      vertex 0.39233299132872784 5.235319935201196 4.4
      vertex 0.5983957916481232 7.476090052730626 2.4
    endloop
  endfacet
  facet normal 0.08821536742559688 0.6587648431415418 0.7471592403167259
    outer loop
      vertex 0.39233299132872784 5.235319935201196 4.4
      vertex 1.389665430653358 7.370130934443908 2.4
      vertex 0.5983957916481232 7.476090052730626 2.4
    endloop
  endfacet
  facet normal 0.1580641975964059 0.6469912010887736 0.7459343772423354
    outer loop
      vertex 1.389665430653358 7.370130934443908 2.4
      vertex 1.168234903270651 5.118371538954574 4.4
      vertex 2.165189605047157 7.1806652877150405 2.4
    endloop
  endfacet
  facet normal 0.22585919527251933 0.6263014838312833 0.7461461487279707
    outer loop
      vertex 1.918040377923574 4.887087180382072 4.4
      vertex 2.9161813160499053 6.909839834028097 2.4
      vertex 2.165189605047157 7.1806652877150405 2.4
    endloop
  endfacet
  facet normal 0.2903439916944545 0.5970855310155309 0.7477895660804798
    outer loop
      vertex 3.6341315274948762 6.560723133989709 2.4
      vertex 2.9161813160499053 6.909839834028097 2.4
      vertex 2.625 4.546633369868303 4.4
    endloop
  endfacet
  facet normal 0.3530338072917124 0.564229101961777 0.7463328020451229
    outer loop
      vertex 3.6341315274948762 6.560723133989709 2.4
      vertex 2.625 4.546633369868303 4.4
      vertex 4.310905576608051 6.137270819311269 2.4
    endloop
  endfacet
  facet normal 0 0 1
    outer loop
      vertex 0.39233299132872784 5.235319935201196 4.4
      vertex 1.918040377923574 4.887087180382072 4.4
      vertex 1.168234903270651 5.118371538954574 4.4
    endloop
  endfacet
  facet normal 0.09878234303184383 0.6553780238497663 0.748813524557292
    outer loop
      vertex 1.389665430653358 7.370130934443908 2.4
      vertex 0.39233299132872784 5.235319935201196 4.4
      vertex 1.168234903270651 5.118371538954574 4.4
    endloop
  endfacet
  facet normal 0.19511982504525185 0.6325629365307395 0.7495281083467903
    outer loop
      vertex 1.168234903270651 5.118371538954574 4.4
      vertex 1.918040377923574 4.887087180382072 4.4
      vertex 2.165189605047157 7.1806652877150405 2.4
    endloop
  endfacet
  facet normal 0.28786235130410254 0.5977523317505921 0.7482161563267687
    outer loop
      vertex 2.9161813160499053 6.909839834028097 2.4
      vertex 1.918040377923574 4.887087180382072 4.4
      vertex 2.625 4.546633369868303 4.4
    endloop
  endfacet
  facet normal 0.37295593044677006 0.5470258806431803 0.749444167267407
    outer loop
      vertex 2.625 4.546633369868303 4.4
      vertex 3.2733214597583506 4.104615282957156 4.4
      vertex 4.310905576608051 6.137270819311269 2.4
    endloop
  endfacet
  facet normal 0 0 1
    outer loop
      vertex 0.39233299132872784 5.235319935201196 4.4
      vertex 4.337753565158973 2.957430304834016 4.4
      vertex 1.918040377923574 4.887087180382072 4.4
    endloop
  endfacet
  facet normal 0 0 1
    outer loop
      vertex 1.918040377923574 4.887087180382072 4.4
      vertex 3.2733214597583506 4.104615282957156 4.4
      vertex 2.625 4.546633369868303 4.4
    endloop
  endfacet
  facet normal 0 0 1
    outer loop
      vertex 1.918040377923574 4.887087180382072 4.4
      vertex 4.337753565158973 2.957430304834016 4.4
      vertex 3.2733214597583506 4.104615282957156 4.4
    endloop
  endfacet
  facet normal 0.5550288697538804 0.3681925723922926 0.745906953563832
    outer loop
      vertex 4.337753565158973 2.957430304834016 4.4
      vertex 6.461655610453546 3.8074935025412993 2.4
      vertex 6.020337284482228 4.472755189038761 2.4
    endloop
  endfacet
  facet normal 0.6421960569119023 0.1751337650972388 0.7462656288545451
    outer loop
      vertex 7.12048206351286 2.355575340164616 2.4
      vertex 5.016757230377238 1.547464665657247 4.4
      vertex 7.3305254236340005 1.5853696772221824 2.4
    endloop
  endfacet
  facet normal 0.6639477395448143 0.03538689668177651 0.7469412069879159
    outer loop
      vertex 7.5 0 2.4
      vertex 7.457511001576028 0.7972011423552405 2.4
      vertex 5.25 0 4.4
    endloop
  endfacet
  facet normal 0.6575950567152054 0.10594826440629002 0.7458845129462206
    outer loop
      vertex 7.3305254236340005 1.5853696772221824 2.4
      vertex 5.191361837681924 0.7824718974249159 4.4
      vertex 7.457511001576028 0.7972011423552405 2.4
    endloop
  endfacet
  facet normal 0.6181999305498099 0.24172156926846516 0.7479301630624353
    outer loop
      vertex 5.016757230377238 1.547464665657247 4.4
      vertex 7.12048206351286 2.355575340164616 2.4
      vertex 6.82976079641185 3.099091393262836 2.4
    endloop
  endfacet
  facet normal 0.5907262595627035 0.3069575835230974 0.7462034093869566
    outer loop
      vertex 6.461655610453546 3.8074935025412993 2.4
      vertex 4.7300865564877 2.2778896303671803 4.4
      vertex 6.82976079641185 3.099091393262836 2.4
    endloop
  endfacet
  facet normal 0 0 1
    outer loop
      vertex 5.191361837681924 0.7824718974249159 4.4
      vertex 4.337753565158973 2.957430304834016 4.4
      vertex 5.016757230377238 -1.547464665657249 4.4
    endloop
  endfacet
  facet normal 0 0 1
    outer loop
      vertex 5.191361837681924 0.7824718974249159 4.4
      vertex 5.191361837681925 -0.7824718974249144 4.4
      vertex 5.25 0 4.4
    endloop
  endfacet
  facet normal 0 0 1
    outer loop
      vertex 4.337753565158973 2.957430304834016 4.4
      vertex 5.191361837681924 0.7824718974249159 4.4
      vertex 5.016757230377238 1.547464665657247 4.4
    endloop
  endfacet
  facet normal 0.6177406623769511 0.24244534418794877 0.7480753498997763
    outer loop
      vertex 4.7300865564877 2.2778896303671803 4.4
      vertex 5.016757230377238 1.547464665657247 4.4
      vertex 6.82976079641185 3.099091393262836 2.4
    endloop
  endfacet
  facet normal 0.5180960686579009 0.41316782763926685 0.7489117503718825
    outer loop
      vertex 3.8485223271065885 3.570906873297327 4.4
      vertex 4.337753565158973 2.957430304834016 4.4
      vertex 6.020337284482228 4.472755189038761 2.4
    endloop
  endfacet
  facet normal 0.57330559107713 0.3309981373362983 0.749507126263389
    outer loop
      vertex 6.461655610453546 3.8074935025412993 2.4
      vertex 4.337753565158973 2.957430304834016 4.4
      vertex 4.7300865564877 2.2778896303671803 4.4
    endloop
  endfacet
  facet normal 0 0 1
    outer loop
      vertex 3.2733214597583506 4.104615282957156 4.4
      vertex 4.337753565158973 2.957430304834016 4.4
      vertex 3.8485223271065885 3.570906873297327 4.4
    endloop
  endfacet
  facet normal 0 0 1
    outer loop
      vertex 4.337753565158973 2.957430304834016 4.4
      vertex 5.016757230377238 1.547464665657247 4.4
      vertex 4.7300865564877 2.2778896303671803 4.4
    endloop
  endfacet
  facet normal 0.6607140261964168 0.04951367127872142 0.7490029185148903
    outer loop
      vertex 7.457511001576028 0.7972011423552405 2.4
      vertex 5.191361837681924 0.7824718974249159 4.4
      vertex 5.25 0 4.4
    endloop
  endfacet
  facet normal 0.645429528468271 0.14731507805159438 0.7494791468479148
    outer loop
      vertex 5.191361837681924 0.7824718974249159 4.4
      vertex 7.3305254236340005 1.5853696772221824 2.4
      vertex 5.016757230377238 1.547464665657247 4.4
    endloop
  endfacet
  facet normal 0.4113299582301578 0.5239179309837836 0.7458670572267206
    outer loop
      vertex 3.2733214597583506 4.104615282957156 4.4
      vertex 4.93883534298779 5.6442807739210386 2.4
      vertex 4.310905576608051 6.137270819311269 2.4
    endloop
  endfacet
  facet normal 0.5117628055146499 0.4242858084417371 0.7470477786907049
    outer loop
      vertex 3.8485223271065885 3.570906873297327 4.4
      vertex 6.020337284482228 4.472755189038761 2.4
      vertex 5.510806131473005 5.087338772022121 2.4
    endloop
  endfacet
  facet normal 0.46392795696674227 0.4764468085399716 0.7468395338871262
    outer loop
      vertex 4.93883534298779 5.6442807739210386 2.4
      vertex 3.8485223271065885 3.570906873297327 4.4
      vertex 5.510806131473005 5.087338772022121 2.4
    endloop
  endfacet
  facet normal 0.4505951158836552 0.4856260399650698 0.7490870382336354
    outer loop
      vertex 3.2733214597583506 4.104615282957156 4.4
      vertex 3.8485223271065885 3.570906873297327 4.4
      vertex 4.93883534298779 5.6442807739210386 2.4
    endloop
  endfacet
endsolid OpenSCAD_Model
