solid OpenSCAD_Model
  facet normal 0 0 -1
    outer loop
      vertex -15.266671262579715 -6.191030516984701 0
      vertex -13.779528339354407 -6.7700279829137004 0
      vertex -14.539653937454489 -6.523048204480166 0
    endloop
  endfacet
  facet normal 0 0 -1
    outer loop
      vertex -15.266671262579715 -6.191030516984701 0
      vertex -15.951102532067384 -5.7783032787394175 0
      vertex -16.584025137616994 -5.290247020479809 0
    endloop
  endfacet
  facet normal 0 0 -1
    outer loop
      vertex -15.266671262579715 -6.191030516984701 0
      vertex -16.584025137616994 -5.290247020479809 0
      vertex -17.157187965134835 -4.733224301918135 0
    endloop
  endfacet
  facet normal 0 0 -1
    outer loop
      vertex -15.266671262579715 -6.191030516984701 0
      vertex -17.157187965134835 -4.733224301918135 0
      vertex -12.199892355555873 -6.997145349797325 0
    endloop
  endfacet
  facet normal 0 0 -1
    outer loop
      vertex -17.157187965134835 -4.733224301918135 0
      vertex -18.09522253983844 -3.442130472519228 0
      vertex -18.447865571803952 -2.72489074422174 0
    endloop
  endfacet
  facet normal 0 0 -1
    outer loop
      vertex -17.157187965134835 -4.733224301918135 0
      vertex -17.663118960624633 -4.114496766047312 0
      vertex -18.09522253983844 -3.442130472519228 0
    endloop
  endfacet
  facet normal 0 0 -1
    outer loop
      vertex -17.157187965134835 -4.733224301918135 0
      vertex -18.98858372748295 0.3996216760393768 0
      vertex -12.199892355555873 -6.997145349797325 0
    endloop
  endfacet
  facet normal 0 0 -1
    outer loop
      vertex -15.266671262579715 -6.191030516984701 0
      vertex -12.199892355555873 -6.997145349797325 0
      vertex -13.779528339354407 -6.7700279829137004 0
    endloop
  endfacet
  facet normal 0 0 -1
    outer loop
      vertex -13.779528339354407 -6.7700279829137004 0
      vertex -12.199892355555873 -6.997145349797325 0
      vertex -12.996203867912996 -6.928750093166529 0
    endloop
  endfacet
  facet normal 0 0 -1
    outer loop
      vertex -12.199892355555873 -6.997145349797325 0
      vertex -11.172372934133115 -2.369212689730282 0
      vertex -10.47115087529586 -2.7325566741445795 0
    endloop
  endfacet
  facet normal 0 0 -1
    outer loop
      vertex -12.199892355555873 -6.997145349797325 0
      vertex -10.47115087529586 -2.7325566741445795 0
      vertex -9.697902998757547 -2.8932394306525633 0
    endloop
  endfacet
  facet normal 0 0 -1
    outer loop
      vertex -12.199892355555873 -6.997145349797325 0
      vertex -11.749562743042818 -1.830155038545553 0
      vertex -11.172372934133115 -2.369212689730282 0
    endloop
  endfacet
  facet normal -0.3090169943749466 -0.9510565162951538 0
    outer loop
      vertex -14.539653937454489 -6.523048204480166 0
      vertex -13.779528339354407 -6.7700279829137004 0
      vertex -14.539653937454489 -6.523048204480166 4.7
    endloop
  endfacet
  facet normal -0.4154150130018871 -0.9096319953545181 -1.819969950059828e-18
    outer loop
      vertex -15.266671262579715 -6.191030516984701 0
      vertex -14.539653937454489 -6.523048204480166 0
      vertex -14.539653937454489 -6.523048204480166 4.7
    endloop
  endfacet
  facet normal -0.516397461638962 -0.8563490302515889 5.2241019973231565e-18
    outer loop
      vertex -15.266671262579715 -6.191030516984701 0
      vertex -15.951102532067384 -5.7783032787394175 4.7
      vertex -15.951102532067384 -5.7783032787394175 0
    endloop
  endfacet
  facet normal -0.6106478796354384 -0.791902245922275 0
    outer loop
      vertex -15.951102532067384 -5.7783032787394175 0
      vertex -15.951102532067384 -5.7783032787394175 4.7
      vertex -16.584025137616994 -5.290247020479809 0
    endloop
  endfacet
  facet normal -0.6969375686552935 -0.7171318047589633 0
    outer loop
      vertex -16.584025137616994 -5.290247020479809 0
      vertex -16.584025137616994 -5.290247020479809 4.7
      vertex -17.157187965134835 -4.733224301918135 0
    endloop
  endfacet
  facet normal -0.8412535328311823 -0.540640817455596 0
    outer loop
      vertex -17.663118960624633 -4.114496766047312 0
      vertex -17.663118960624633 -4.114496766047312 4.7
      vertex -18.09522253983844 -3.442130472519228 0
    endloop
  endfacet
  facet normal -0.7741416106390814 -0.6330124538088715 1.5529110534125266e-18
    outer loop
      vertex -17.157187965134835 -4.733224301918135 0
      vertex -17.663118960624633 -4.114496766047312 4.7
      vertex -17.663118960624633 -4.114496766047312 0
    endloop
  endfacet
  facet normal -0.19859046664574478 -0.9800825610923934 0
    outer loop
      vertex -13.779528339354407 -6.7700279829137004 0
      vertex -12.996203867912996 -6.928750093166529 0
      vertex -13.779528339354407 -6.7700279829137004 4.7
    endloop
  endfacet
  facet normal -0.08557500847884074 -0.9963317308626913 3.911347294074348e-19
    outer loop
      vertex -12.996203867912996 -6.928750093166529 0
      vertex -12.199892355555873 -6.997145349797325 0
      vertex -12.199892355555873 -6.997145349797325 4.7
    endloop
  endfacet
  facet normal 0 0 -1
    outer loop
      vertex -17.157187965134835 -4.733224301918135 0
      vertex -18.447865571803952 -2.72489074422174 0
      vertex -18.98858372748295 0.3996216760393768 0
    endloop
  endfacet
  facet normal 0 0 -1
    outer loop
      vertex -18.447865571803952 -2.72489074422174 0
      vertex -18.71645081530148 -1.972127897890009 0
      vertex -18.89747685093385 -1.1936553484283658 0
    endloop
  endfacet
  facet normal 0 0 -1
    outer loop
      vertex -12.199892355555873 -6.997145349797325 0
      vertex -18.98858372748295 0.3996216760393768 0
      vertex -12.159912774365814 -1.1553631605541004 0
    endloop
  endfacet
  facet normal 0 0 -1
    outer loop
      vertex -18.447865571803952 -2.72489074422174 0
      vertex -18.89747685093385 -1.1936553484283658 0
      vertex -18.98858372748295 0.3996216760393768 0
    endloop
  endfacet
  facet normal 0 0 -1
    outer loop
      vertex -18.89747685093385 -1.1936553484283658 0
      vertex -18.98858372748295 -0.3996216760393768 0
      vertex -18.98858372748295 0.3996216760393768 0
    endloop
  endfacet
  facet normal 0 0 -1
    outer loop
      vertex -18.98858372748295 0.3996216760393768 0
      vertex -12.372989243505359 -0.3948832823791156 0
      vertex -12.159912774365814 -1.1553631605541004 0
    endloop
  endfacet
  facet normal 0 0 -1
    outer loop
      vertex -12.199892355555873 -6.997145349797325 0
      vertex -12.159912774365814 -1.1553631605541004 0
      vertex -11.749562743042818 -1.830155038545553 0
    endloop
  endfacet
  facet normal -0.8973984286913574 -0.4412211012432233 5.434358671881168e-18
    outer loop
      vertex -18.09522253983844 -3.442130472519228 0
      vertex -18.447865571803952 -2.72489074422174 4.7
      vertex -18.447865571803952 -2.72489074422174 0
    endloop
  endfacet
  facet normal -0.9418443636395251 -0.33604939321542915 0
    outer loop
      vertex -18.447865571803952 -2.72489074422174 0
      vertex -18.447865571803952 -2.72489074422174 4.7
      vertex -18.71645081530148 -1.972127897890009 0
    endloop
  endfacet
  facet normal -0.9740119169423342 -0.22649676742576158 1.1356392271169935e-18
    outer loop
      vertex -18.71645081530148 -1.972127897890009 0
      vertex -18.89747685093385 -1.1936553484283658 4.7
      vertex -18.89747685093385 -1.1936553484283658 0
    endloop
  endfacet
  facet normal -0.9934817353485497 -0.11399140989054453 0
    outer loop
      vertex -18.89747685093385 -1.1936553484283658 0
      vertex -18.89747685093385 -1.1936553484283658 4.7
      vertex -18.98858372748295 -0.3996216760393768 0
    endloop
  endfacet
  facet normal 0 0 -1
    outer loop
      vertex -12.199892355555873 -6.997145349797325 0
      vertex -9.697902998757547 -2.8932394306525633 0
      vertex 8.52884912470414 -2.7325566741445795 0
    endloop
  endfacet
  facet normal 0 0 -1
    outer loop
      vertex 8.52884912470414 -2.7325566741445795 0
      vertex -9.697902998757547 -2.8932394306525633 0
      vertex -8.909977562147361 -2.839343854278736 0
    endloop
  endfacet
  facet normal 0 0 -1
    outer loop
      vertex 8.52884912470414 -2.7325566741445795 0
      vertex -8.909977562147361 -2.839343854278736 0
      vertex -8.165811390579659 -2.574867133366889 0
    endloop
  endfacet
  facet normal 0 0 -1
    outer loop
      vertex 8.52884912470414 -2.7325566741445795 0
      vertex -8.165811390579659 -2.574867133366889 0
      vertex -7.520595884665903 -2.11942429640656 0
    endloop
  endfacet
  facet normal 0 0 -1
    outer loop
      vertex -7.520595884665903 -2.11942429640656 0
      vertex -7.022183726815182 -1.5067934551027564 0
      vertex 7.827627065866886 -2.369212689730282 0
    endloop
  endfacet
  facet normal 0 0 -1
    outer loop
      vertex -6.707539866691382 -0.7824106363553712 0
      vertex 6.840087225634186 -1.1553631605541004 0
      vertex -7.022183726815182 -1.5067934551027564 0
    endloop
  endfacet
  facet normal 0 0 -1
    outer loop
      vertex -6.707539866691382 -0.7824106363553712 0
      vertex -6.6 0 0
      vertex 6.627010756494641 -0.3948832823791156 0
    endloop
  endfacet
  facet normal -0.4154150130018871 -0.9096319953545181 0
    outer loop
      vertex -15.266671262579715 -6.191030516984701 0
      vertex -14.539653937454489 -6.523048204480166 4.7
      vertex -15.266671262579715 -6.191030516984701 4.7
    endloop
  endfacet
  facet normal -0.516397461638962 -0.8563490302515889 0
    outer loop
      vertex -15.266671262579715 -6.191030516984701 0
      vertex -15.266671262579715 -6.191030516984701 4.7
      vertex -15.951102532067384 -5.7783032787394175 4.7
    endloop
  endfacet
  facet normal -0.6106478796354384 -0.791902245922275 0
    outer loop
      vertex -16.584025137616994 -5.290247020479809 0
      vertex -15.951102532067384 -5.7783032787394175 4.7
      vertex -16.584025137616994 -5.290247020479809 4.7
    endloop
  endfacet
  facet normal -0.6969375686552935 -0.7171318047589633 0
    outer loop
      vertex -17.157187965134835 -4.733224301918135 0
      vertex -16.584025137616994 -5.290247020479809 4.7
      vertex -17.157187965134835 -4.733224301918135 4.7
    endloop
  endfacet
  facet normal -0.7741416106390814 -0.6330124538088715 0
    outer loop
      vertex -17.157187965134835 -4.733224301918135 0
      vertex -17.157187965134835 -4.733224301918135 4.7
      vertex -17.663118960624633 -4.114496766047312 4.7
    endloop
  endfacet
  facet normal -0.8412535328311823 -0.540640817455596 0
    outer loop
      vertex -18.09522253983844 -3.442130472519228 0
      vertex -17.663118960624633 -4.114496766047312 4.7
      vertex -18.09522253983844 -3.442130472519228 4.7
    endloop
  endfacet
  facet normal -0.3090169943749466 -0.9510565162951538 0
    outer loop
      vertex -13.779528339354407 -6.7700279829137004 0
      vertex -13.779528339354407 -6.7700279829137004 4.7
      vertex -14.539653937454489 -6.523048204480166 4.7
    endloop
  endfacet
  facet normal -0.19859046664574478 -0.9800825610923934 0
    outer loop
      vertex -12.996203867912996 -6.928750093166529 0
      vertex -12.996203867912996 -6.928750093166529 4.7
      vertex -13.779528339354407 -6.7700279829137004 4.7
    endloop
  endfacet
  facet normal -0.08557500847884074 -0.9963317308626913 0
    outer loop
      vertex -12.996203867912996 -6.928750093166529 0
      vertex -12.199892355555873 -6.997145349797325 4.7
      vertex -12.996203867912996 -6.928750093166529 4.7
    endloop
  endfacet
  facet normal 0 0 1
    outer loop
      vertex -15.266671262579715 -6.191030516984701 4.7
      vertex -14.539653937454489 -6.523048204480166 4.7
      vertex -15.951102532067384 -5.7783032787394175 4.7
    endloop
  endfacet
  facet normal 0 0 1
    outer loop
      vertex -14.539653937454489 -6.523048204480166 4.7
      vertex -12.199892355555873 -6.997145349797325 4.7
      vertex -16.584025137616994 -5.290247020479809 4.7
    endloop
  endfacet
  facet normal 0 0 1
    outer loop
      vertex -14.539653937454489 -6.523048204480166 4.7
      vertex -16.584025137616994 -5.290247020479809 4.7
      vertex -15.951102532067384 -5.7783032787394175 4.7
    endloop
  endfacet
  facet normal 0 0 1
    outer loop
      vertex -16.584025137616994 -5.290247020479809 4.7
      vertex -17.663118960624633 -4.114496766047312 4.7
      vertex -17.157187965134835 -4.733224301918135 4.7
    endloop
  endfacet
  facet normal 0 0 1
    outer loop
      vertex -16.584025137616994 -5.290247020479809 4.7
      vertex -18.89747685093385 -1.1936553484283658 4.7
      vertex -17.663118960624633 -4.114496766047312 4.7
    endloop
  endfacet
  facet normal 0 0 1
    outer loop
      vertex -16.584025137616994 -5.290247020479809 4.7
      vertex -12.199892355555873 -6.997145349797325 4.7
      vertex -18.89747685093385 -1.1936553484283658 4.7
    endloop
  endfacet
  facet normal 0 0 1
    outer loop
      vertex -14.539653937454489 -6.523048204480166 4.7
      vertex -13.779528339354407 -6.7700279829137004 4.7
      vertex -12.199892355555873 -6.997145349797325 4.7
    endloop
  endfacet
  facet normal 0 0 1
    outer loop
      vertex -13.779528339354407 -6.7700279829137004 4.7
      vertex -12.996203867912996 -6.928750093166529 4.7
      vertex -12.199892355555873 -6.997145349797325 4.7
    endloop
  endfacet
  facet normal 0 0 1
    outer loop
      vertex -12.199892355555873 -6.997145349797325 4.7
      vertex -10.47115087529586 -2.7325566741445795 4.7
      vertex -11.172372934133115 -2.369212689730282 4.7
    endloop
  endfacet
  facet normal 0 0 1
    outer loop
      vertex -12.199892355555873 -6.997145349797325 4.7
      vertex -9.697902998757547 -2.8932394306525633 4.7
      vertex -10.47115087529586 -2.7325566741445795 4.7
    endloop
  endfacet
  facet normal 0 0 1
    outer loop
      vertex -12.199892355555873 -6.997145349797325 4.7
      vertex -11.172372934133115 -2.369212689730282 4.7
      vertex -11.749562743042818 -1.830155038545553 4.7
    endloop
  endfacet
  facet normal 0 0 1
    outer loop
      vertex -12.199892355555873 -6.997145349797325 4.7
      vertex -8.909977562147361 -2.839343854278736 4.7
      vertex -9.697902998757547 -2.8932394306525633 4.7
    endloop
  endfacet
  facet normal 0 0 1
    outer loop
      vertex -12.199892355555873 -6.997145349797325 4.7
      vertex -8.165811390579659 -2.574867133366889 4.7
      vertex -8.909977562147361 -2.839343854278736 4.7
    endloop
  endfacet
  facet normal -0.8973984286913574 -0.4412211012432233 0
    outer loop
      vertex -18.09522253983844 -3.442130472519228 0
      vertex -18.09522253983844 -3.442130472519228 4.7
      vertex -18.447865571803952 -2.72489074422174 4.7
    endloop
  endfacet
  facet normal -0.9418443636395251 -0.33604939321542915 0
    outer loop
      vertex -18.71645081530148 -1.972127897890009 0
      vertex -18.447865571803952 -2.72489074422174 4.7
      vertex -18.71645081530148 -1.972127897890009 4.7
    endloop
  endfacet
  facet normal -0.9740119169423342 -0.22649676742576158 0
    outer loop
      vertex -18.71645081530148 -1.972127897890009 0
      vertex -18.71645081530148 -1.972127897890009 4.7
      vertex -18.89747685093385 -1.1936553484283658 4.7
    endloop
  endfacet
  facet normal -0.9934817353485497 -0.11399140989054453 0
    outer loop
      vertex -18.98858372748295 -0.3996216760393768 0
      vertex -18.89747685093385 -1.1936553484283658 4.7
      vertex -18.98858372748295 -0.3996216760393768 4.7
    endloop
  endfacet
  facet normal -1 0 0
    outer loop
      vertex -18.98858372748295 -0.3996216760393768 0
      vertex -18.98858372748295 -0.3996216760393768 4.7
      vertex -18.98858372748295 0.3996216760393768 4.7
    endloop
  endfacet
  facet normal 0 0 1
    outer loop
      vertex -17.663118960624633 -4.114496766047312 4.7
      vertex -18.447865571803952 -2.72489074422174 4.7
      vertex -18.09522253983844 -3.442130472519228 4.7
    endloop
  endfacet
  facet normal 0 0 1
    outer loop
      vertex -17.663118960624633 -4.114496766047312 4.7
      vertex -18.89747685093385 -1.1936553484283658 4.7
      vertex -18.447865571803952 -2.72489074422174 4.7
    endloop
  endfacet
  facet normal 0 0 1
    outer loop
      vertex -18.447865571803952 -2.72489074422174 4.7
      vertex -18.89747685093385 -1.1936553484283658 4.7
      vertex -18.71645081530148 -1.972127897890009 4.7
    endloop
  endfacet
  facet normal 0 0 1
    outer loop
      vertex -18.89747685093385 -1.1936553484283658 4.7
      vertex -18.98858372748295 0.3996216760393768 4.7
      vertex -18.98858372748295 -0.3996216760393768 4.7
    endloop
  endfacet
  facet normal 0 0 1
    outer loop
      vertex -12.199892355555873 -6.997145349797325 4.7
      vertex -15.266671262579715 6.191030516984701 4.7
      vertex -18.89747685093385 -1.1936553484283658 4.7
    endloop
  endfacet
  facet normal 0 0 1
    outer loop
      vertex -12.199892355555873 -6.997145349797325 4.7
      vertex -11.749562743042818 -1.830155038545553 4.7
      vertex -12.159912774365814 -1.1553631605541004 4.7
    endloop
  endfacet
  facet normal 0 0 1
    outer loop
      vertex -12.199892355555873 -6.997145349797325 4.7
      vertex -12.159912774365814 -1.1553631605541004 4.7
      vertex -12.372989243505359 -0.3948832823791156 4.7
    endloop
  endfacet
  facet normal 0 0 1
    outer loop
      vertex -12.199892355555873 -6.997145349797325 4.7
      vertex -12.372989243505359 -0.3948832823791156 4.7
      vertex -15.266671262579715 6.191030516984701 4.7
    endloop
  endfacet
  facet normal 0 -1 0
    outer loop
      vertex -12.199892355555873 -6.997145349797325 0
      vertex 11.800107644444127 -6.997145349797325 4.7
      vertex -12.199892355555873 -6.997145349797325 4.7
    endloop
  endfacet
  facet normal 0 0 1
    outer loop
      vertex -12.199892355555873 -6.997145349797325 4.7
      vertex 11.800107644444125 6.997145349797325 4.7
      vertex -8.165811390579659 -2.574867133366889 4.7
    endloop
  endfacet
  facet normal 0 0 -1
    outer loop
      vertex -18.98858372748295 0.3996216760393768 0
      vertex -18.89747685093385 1.1936553484283658 0
      vertex -18.71645081530148 1.972127897890009 0
    endloop
  endfacet
  facet normal 0 0 -1
    outer loop
      vertex -18.98858372748295 0.3996216760393768 0
      vertex -18.71645081530148 1.972127897890009 0
      vertex -18.447865571803952 2.72489074422174 0
    endloop
  endfacet
  facet normal 0 0 -1
    outer loop
      vertex -18.98858372748295 0.3996216760393768 0
      vertex -12.372989243505359 0.3948832823791156 0
      vertex -12.372989243505359 -0.3948832823791156 0
    endloop
  endfacet
  facet normal 0 0 -1
    outer loop
      vertex -18.98858372748295 0.3996216760393768 0
      vertex -12.159912774365814 1.1553631605541004 0
      vertex -12.372989243505359 0.3948832823791156 0
    endloop
  endfacet
  facet normal 0 0 -1
    outer loop
      vertex -18.98858372748295 0.3996216760393768 0
      vertex -11.749562743042818 1.830155038545553 0
      vertex -12.159912774365814 1.1553631605541004 0
    endloop
  endfacet
  facet normal 0 0 -1
    outer loop
      vertex -18.98858372748295 0.3996216760393768 0
      vertex -18.447865571803952 2.72489074422174 0
      vertex -17.157187965134835 4.733224301918135 0
    endloop
  endfacet
  facet normal 0 0 -1
    outer loop
      vertex -18.447865571803952 2.72489074422174 0
      vertex -18.09522253983844 3.442130472519228 0
      vertex -17.663118960624633 4.114496766047312 0
    endloop
  endfacet
  facet normal 0 0 -1
    outer loop
      vertex -18.98858372748295 0.3996216760393768 0
      vertex -13.77952833935441 6.7700279829137004 0
      vertex -11.749562743042818 1.830155038545553 0
    endloop
  endfacet
  facet normal -1 0 0
    outer loop
      vertex -18.98858372748295 -0.3996216760393768 0
      vertex -18.98858372748295 0.3996216760393768 4.7
      vertex -18.98858372748295 0.3996216760393768 0
    endloop
  endfacet
  facet normal -0.9934817353485497 0.11399140989054453 -1.6461652228306516e-18
    outer loop
      vertex -18.98858372748295 0.3996216760393768 0
      vertex -18.89747685093385 1.1936553484283658 4.7
      vertex -18.89747685093385 1.1936553484283658 0
    endloop
  endfacet
  facet normal -0.9740119169423342 0.22649676742576158 0
    outer loop
      vertex -18.89747685093385 1.1936553484283658 0
      vertex -18.89747685093385 1.1936553484283658 4.7
      vertex -18.71645081530148 1.972127897890009 0
    endloop
  endfacet
  facet normal -0.9418443636395251 0.33604939321542915 0
    outer loop
      vertex -18.71645081530148 1.972127897890009 0
      vertex -18.71645081530148 1.972127897890009 4.7
      vertex -18.447865571803952 2.72489074422174 0
    endloop
  endfacet
  facet normal -0.8973984286913574 0.4412211012432233 -5.434358671881168e-18
    outer loop
      vertex -18.447865571803952 2.72489074422174 0
      vertex -18.09522253983844 3.442130472519228 4.7
      vertex -18.09522253983844 3.442130472519228 0
    endloop
  endfacet
  facet normal 0 0 -1
    outer loop
      vertex -18.447865571803952 2.72489074422174 0
      vertex -17.663118960624633 4.114496766047312 0
      vertex -17.157187965134835 4.733224301918135 0
    endloop
  endfacet
  facet normal 0 0 -1
    outer loop
      vertex -18.98858372748295 0.3996216760393768 0
      vertex -17.157187965134835 4.733224301918135 0
      vertex -13.77952833935441 6.7700279829137004 0
    endloop
  endfacet
  facet normal 0 0 -1
    outer loop
      vertex -17.157187965134835 4.733224301918135 0
      vertex -16.584025137616994 5.290247020479809 0
      vertex -15.951102532067384 5.778303278739418 0
    endloop
  endfacet
  facet normal 0 0 -1
    outer loop
      vertex -17.157187965134835 4.733224301918135 0
      vertex -15.951102532067384 5.778303278739418 0
      vertex -15.266671262579715 6.191030516984701 0
    endloop
  endfacet
  facet normal 0 0 -1
    outer loop
      vertex -17.157187965134835 4.733224301918135 0
      vertex -15.266671262579715 6.191030516984701 0
      vertex -13.77952833935441 6.7700279829137004 0
    endloop
  endfacet
  facet normal 0 0 -1
    outer loop
      vertex -15.266671262579715 6.191030516984701 0
      vertex -14.539653937454485 6.523048204480167 0
      vertex -13.77952833935441 6.7700279829137004 0
    endloop
  endfacet
  facet normal 0 0 -1
    outer loop
      vertex -13.77952833935441 6.7700279829137004 0
      vertex -11.172372934133115 2.369212689730282 0
      vertex -11.749562743042818 1.830155038545553 0
    endloop
  endfacet
  facet normal 0 0 -1
    outer loop
      vertex -13.77952833935441 6.7700279829137004 0
      vertex -10.47115087529586 2.7325566741445795 0
      vertex -11.172372934133115 2.369212689730282 0
    endloop
  endfacet
  facet normal 0 0 -1
    outer loop
      vertex -13.77952833935441 6.7700279829137004 0
      vertex -9.697902998757547 2.8932394306525633 0
      vertex -10.47115087529586 2.7325566741445795 0
    endloop
  endfacet
  facet normal 0 0 -1
    outer loop
      vertex -13.77952833935441 6.7700279829137004 0
      vertex -12.996203867912996 6.928750093166529 0
      vertex -12.199892355555875 6.997145349797325 0
    endloop
  endfacet
  facet normal -0.8412535328311823 0.540640817455596 0
    outer loop
      vertex -18.09522253983844 3.442130472519228 0
      vertex -18.09522253983844 3.442130472519228 4.7
      vertex -17.663118960624633 4.114496766047312 0
    endloop
  endfacet
  facet normal -0.7741416106390814 0.6330124538088715 0
    outer loop
      vertex -17.663118960624633 4.114496766047312 0
      vertex -17.663118960624633 4.114496766047312 4.7
      vertex -17.157187965134835 4.733224301918135 0
    endloop
  endfacet
  facet normal -0.6969375686552935 0.7171318047589633 2.0864444952664445e-18
    outer loop
      vertex -17.157187965134835 4.733224301918135 0
      vertex -16.584025137616994 5.290247020479809 4.7
      vertex -16.584025137616994 5.290247020479809 0
    endloop
  endfacet
  facet normal -0.6106478796354391 0.7919022459222743 0
    outer loop
      vertex -16.584025137616994 5.290247020479809 0
      vertex -16.584025137616994 5.290247020479809 4.7
      vertex -15.951102532067384 5.778303278739418 0
    endloop
  endfacet
  facet normal -0.5163974616389612 0.8563490302515895 0
    outer loop
      vertex -15.951102532067384 5.778303278739418 0
      vertex -15.951102532067384 5.778303278739418 4.7
      vertex -15.266671262579715 6.191030516984701 0
    endloop
  endfacet
  facet normal -0.41541501300188627 0.9096319953545183 6.748484231403449e-20
    outer loop
      vertex -15.266671262579715 6.191030516984701 0
      vertex -14.539653937454485 6.523048204480167 4.7
      vertex -14.539653937454485 6.523048204480167 0
    endloop
  endfacet
  facet normal -0.30901699437494823 0.9510565162951533 0
    outer loop
      vertex -14.539653937454485 6.523048204480167 0
      vertex -14.539653937454485 6.523048204480167 4.7
      vertex -13.77952833935441 6.7700279829137004 0
    endloop
  endfacet
  facet normal -0.19859046664574392 0.9800825610923937 2.4364769377663845e-19
    outer loop
      vertex -13.77952833935441 6.7700279829137004 0
      vertex -12.996203867912996 6.928750093166529 4.7
      vertex -12.996203867912996 6.928750093166529 0
    endloop
  endfacet
  facet normal -0.08557500847884093 0.9963317308626913 0
    outer loop
      vertex -12.996203867912996 6.928750093166529 0
      vertex -12.996203867912996 6.928750093166529 4.7
      vertex -12.199892355555875 6.997145349797325 0
    endloop
  endfacet
  facet normal 0 0 -1
    outer loop
      vertex -6.707539866691382 0.7824106363553703 0
      vertex 6.627010756494641 -0.3948832823791156 0
      vertex -6.6 0 0
    endloop
  endfacet
  facet normal 0 0 -1
    outer loop
      vertex -7.022183726815183 1.5067934551027573 0
      vertex 6.840087225634186 1.1553631605541004 0
      vertex -6.707539866691382 0.7824106363553703 0
    endloop
  endfacet
  facet normal 0 0 -1
    outer loop
      vertex -7.520595884665903 2.11942429640656 0
      vertex 7.250437256957182 1.830155038545553 0
      vertex -7.022183726815183 1.5067934551027573 0
    endloop
  endfacet
  facet normal 0 0 -1
    outer loop
      vertex -7.520595884665903 2.11942429640656 0
      vertex -8.165811390579659 2.574867133366888 0
      vertex 7.250437256957182 1.830155038545553 0
    endloop
  endfacet
  facet normal 0 0 -1
    outer loop
      vertex -8.165811390579659 2.574867133366888 0
      vertex -8.909977562147361 2.839343854278736 0
      vertex 7.827627065866885 2.369212689730282 0
    endloop
  endfacet
  facet normal 0 0 -1
    outer loop
      vertex 11.800107644444125 6.997145349797325 0
      vertex -8.909977562147361 2.839343854278736 0
      vertex -9.697902998757547 2.8932394306525633 0
    endloop
  endfacet
  facet normal 0 0 -1
    outer loop
      vertex -13.77952833935441 6.7700279829137004 0
      vertex 11.800107644444125 6.997145349797325 0
      vertex -9.697902998757547 2.8932394306525633 0
    endloop
  endfacet
  facet normal 0 0 -1
    outer loop
      vertex -13.77952833935441 6.7700279829137004 0
      vertex -12.199892355555875 6.997145349797325 0
      vertex 11.800107644444125 6.997145349797325 0
    endloop
  endfacet
  facet normal 0 1 0
    outer loop
      vertex -12.199892355555875 6.997145349797325 0
      vertex -12.199892355555875 6.997145349797325 4.7
      vertex 11.800107644444125 6.997145349797325 0
    endloop
  endfacet
  facet normal -0.9934817353485497 0.11399140989054453 0
    outer loop
      vertex -18.98858372748295 0.3996216760393768 0
      vertex -18.98858372748295 0.3996216760393768 4.7
      vertex -18.89747685093385 1.1936553484283658 4.7
    endloop
  endfacet
  facet normal -0.9740119169423342 0.22649676742576158 0
    outer loop
      vertex -18.71645081530148 1.972127897890009 0
      vertex -18.89747685093385 1.1936553484283658 4.7
      vertex -18.71645081530148 1.972127897890009 4.7
    endloop
  endfacet
  facet normal -0.9418443636395251 0.33604939321542915 0
    outer loop
      vertex -18.447865571803952 2.72489074422174 0
      vertex -18.71645081530148 1.972127897890009 4.7
      vertex -18.447865571803952 2.72489074422174 4.7
    endloop
  endfacet
  facet normal -0.8973984286913574 0.4412211012432233 0
    outer loop
      vertex -18.447865571803952 2.72489074422174 0
      vertex -18.447865571803952 2.72489074422174 4.7
      vertex -18.09522253983844 3.442130472519228 4.7
    endloop
  endfacet
  facet normal 0 0 1
    outer loop
      vertex -18.89747685093385 -1.1936553484283658 4.7
      vertex -18.447865571803952 2.72489074422174 4.7
      vertex -18.98858372748295 0.3996216760393768 4.7
    endloop
  endfacet
  facet normal 0 0 1
    outer loop
      vertex -18.98858372748295 0.3996216760393768 4.7
      vertex -18.71645081530148 1.972127897890009 4.7
      vertex -18.89747685093385 1.1936553484283658 4.7
    endloop
  endfacet
  facet normal 0 0 1
    outer loop
      vertex -18.98858372748295 0.3996216760393768 4.7
      vertex -18.447865571803952 2.72489074422174 4.7
      vertex -18.71645081530148 1.972127897890009 4.7
    endloop
  endfacet
  facet normal 0 0 1
    outer loop
      vertex -18.89747685093385 -1.1936553484283658 4.7
      vertex -15.266671262579715 6.191030516984701 4.7
      vertex -18.447865571803952 2.72489074422174 4.7
    endloop
  endfacet
  facet normal 0 0 1
    outer loop
      vertex -18.447865571803952 2.72489074422174 4.7
      vertex -17.663118960624633 4.114496766047312 4.7
      vertex -18.09522253983844 3.442130472519228 4.7
    endloop
  endfacet
  facet normal 0 0 1
    outer loop
      vertex -15.266671262579715 6.191030516984701 4.7
      vertex -12.372989243505359 -0.3948832823791156 4.7
      vertex -12.372989243505359 0.3948832823791156 4.7
    endloop
  endfacet
  facet normal 0 0 1
    outer loop
      vertex -15.266671262579715 6.191030516984701 4.7
      vertex -12.372989243505359 0.3948832823791156 4.7
      vertex -12.159912774365814 1.1553631605541004 4.7
    endloop
  endfacet
  facet normal 0 0 1
    outer loop
      vertex -15.266671262579715 6.191030516984701 4.7
      vertex -12.159912774365814 1.1553631605541004 4.7
      vertex -11.749562743042818 1.830155038545553 4.7
    endloop
  endfacet
  facet normal 0 0 1
    outer loop
      vertex -15.266671262579715 6.191030516984701 4.7
      vertex -11.749562743042818 1.830155038545553 4.7
      vertex -11.172372934133115 2.369212689730282 4.7
    endloop
  endfacet
  facet normal -0.8412535328311823 0.540640817455596 0
    outer loop
      vertex -17.663118960624633 4.114496766047312 0
      vertex -18.09522253983844 3.442130472519228 4.7
      vertex -17.663118960624633 4.114496766047312 4.7
    endloop
  endfacet
  facet normal -0.7741416106390814 0.6330124538088715 0
    outer loop
      vertex -17.157187965134835 4.733224301918135 0
      vertex -17.663118960624633 4.114496766047312 4.7
      vertex -17.157187965134835 4.733224301918135 4.7
    endloop
  endfacet
  facet normal -0.6969375686552935 0.7171318047589633 0
    outer loop
      vertex -17.157187965134835 4.733224301918135 0
      vertex -17.157187965134835 4.733224301918135 4.7
      vertex -16.584025137616994 5.290247020479809 4.7
    endloop
  endfacet
  facet normal -0.6106478796354391 0.7919022459222743 0
    outer loop
      vertex -15.951102532067384 5.778303278739418 0
      vertex -16.584025137616994 5.290247020479809 4.7
      vertex -15.951102532067384 5.778303278739418 4.7
    endloop
  endfacet
  facet normal -0.5163974616389612 0.8563490302515895 0
    outer loop
      vertex -15.266671262579715 6.191030516984701 0
      vertex -15.951102532067384 5.778303278739418 4.7
      vertex -15.266671262579715 6.191030516984701 4.7
    endloop
  endfacet
  facet normal -0.41541501300188627 0.9096319953545183 0
    outer loop
      vertex -15.266671262579715 6.191030516984701 0
      vertex -15.266671262579715 6.191030516984701 4.7
      vertex -14.539653937454485 6.523048204480167 4.7
    endloop
  endfacet
  facet normal -0.30901699437494823 0.9510565162951533 0
    outer loop
      vertex -13.77952833935441 6.7700279829137004 0
      vertex -14.539653937454485 6.523048204480167 4.7
      vertex -13.77952833935441 6.7700279829137004 4.7
    endloop
  endfacet
  facet normal -0.19859046664574392 0.9800825610923937 0
    outer loop
      vertex -13.77952833935441 6.7700279829137004 0
      vertex -13.77952833935441 6.7700279829137004 4.7
      vertex -12.996203867912996 6.928750093166529 4.7
    endloop
  endfacet
  facet normal -0.08557500847884093 0.9963317308626913 0
    outer loop
      vertex -12.199892355555875 6.997145349797325 0
      vertex -12.996203867912996 6.928750093166529 4.7
      vertex -12.199892355555875 6.997145349797325 4.7
    endloop
  endfacet
  facet normal 0 0 1
    outer loop
      vertex -18.447865571803952 2.72489074422174 4.7
      vertex -17.157187965134835 4.733224301918135 4.7
      vertex -17.663118960624633 4.114496766047312 4.7
    endloop
  endfacet
  facet normal 0 0 1
    outer loop
      vertex -18.447865571803952 2.72489074422174 4.7
      vertex -15.266671262579715 6.191030516984701 4.7
      vertex -17.157187965134835 4.733224301918135 4.7
    endloop
  endfacet
  facet normal 0 0 1
    outer loop
      vertex -17.157187965134835 4.733224301918135 4.7
      vertex -15.951102532067384 5.778303278739418 4.7
      vertex -16.584025137616994 5.290247020479809 4.7
    endloop
  endfacet
  facet normal 0 0 1
    outer loop
      vertex -17.157187965134835 4.733224301918135 4.7
      vertex -15.266671262579715 6.191030516984701 4.7
      vertex -15.951102532067384 5.778303278739418 4.7
    endloop
  endfacet
  facet normal 0 0 1
    outer loop
      vertex -15.266671262579715 6.191030516984701 4.7
      vertex -13.77952833935441 6.7700279829137004 4.7
      vertex -14.539653937454485 6.523048204480167 4.7
    endloop
  endfacet
  facet normal 0 0 1
    outer loop
      vertex -15.266671262579715 6.191030516984701 4.7
      vertex -11.172372934133115 2.369212689730282 4.7
      vertex -10.47115087529586 2.7325566741445795 4.7
    endloop
  endfacet
  facet normal 0 0 1
    outer loop
      vertex -15.266671262579715 6.191030516984701 4.7
      vertex -8.909977562147361 2.839343854278736 4.7
      vertex -8.165811390579659 2.574867133366888 4.7
    endloop
  endfacet
  facet normal 0 0 1
    outer loop
      vertex -15.266671262579715 6.191030516984701 4.7
      vertex -10.47115087529586 2.7325566741445795 4.7
      vertex -9.697902998757547 2.8932394306525633 4.7
    endloop
  endfacet
  facet normal 0 0 1
    outer loop
      vertex -15.266671262579715 6.191030516984701 4.7
      vertex -9.697902998757547 2.8932394306525633 4.7
      vertex -8.909977562147361 2.839343854278736 4.7
    endloop
  endfacet
  facet normal 0 0 1
    outer loop
      vertex -15.266671262579715 6.191030516984701 4.7
      vertex -12.199892355555875 6.997145349797325 4.7
      vertex -13.77952833935441 6.7700279829137004 4.7
    endloop
  endfacet
  facet normal 0 0 1
    outer loop
      vertex -13.77952833935441 6.7700279829137004 4.7
      vertex -12.199892355555875 6.997145349797325 4.7
      vertex -12.996203867912996 6.928750093166529 4.7
    endloop
  endfacet
  facet normal 0 0 1
    outer loop
      vertex 11.800107644444125 6.997145349797325 4.7
      vertex -7.520595884665903 -2.11942429640656 4.7
      vertex -8.165811390579659 -2.574867133366889 4.7
    endloop
  endfacet
  facet normal 0 0 1
    outer loop
      vertex 11.800107644444125 6.997145349797325 4.7
      vertex -7.022183726815182 -1.5067934551027564 4.7
      vertex -7.520595884665903 -2.11942429640656 4.7
    endloop
  endfacet
  facet normal 0 0 1
    outer loop
      vertex 11.800107644444125 6.997145349797325 4.7
      vertex -6.707539866691382 -0.7824106363553712 4.7
      vertex -7.022183726815182 -1.5067934551027564 4.7
    endloop
  endfacet
  facet normal 0 0 1
    outer loop
      vertex 11.800107644444125 6.997145349797325 4.7
      vertex -6.6 0 4.7
      vertex -6.707539866691382 -0.7824106363553712 4.7
    endloop
  endfacet
  facet normal 0 0 1
    outer loop
      vertex 11.800107644444125 6.997145349797325 4.7
      vertex -6.707539866691382 0.7824106363553703 4.7
      vertex -6.6 0 4.7
    endloop
  endfacet
  facet normal 0 0 1
    outer loop
      vertex 11.800107644444125 6.997145349797325 4.7
      vertex -7.022183726815183 1.5067934551027573 4.7
      vertex -6.707539866691382 0.7824106363553703 4.7
    endloop
  endfacet
  facet normal 0 0 1
    outer loop
      vertex -15.266671262579715 6.191030516984701 4.7
      vertex 11.800107644444125 6.997145349797325 4.7
      vertex -12.199892355555875 6.997145349797325 4.7
    endloop
  endfacet
  facet normal 0 0 1
    outer loop
      vertex 11.800107644444125 6.997145349797325 4.7
      vertex -8.165811390579659 2.574867133366888 4.7
      vertex -7.520595884665903 2.11942429640656 4.7
    endloop
  endfacet
  facet normal 0 0 1
    outer loop
      vertex 11.800107644444125 6.997145349797325 4.7
      vertex -7.520595884665903 2.11942429640656 4.7
      vertex -7.022183726815183 1.5067934551027573 4.7
    endloop
  endfacet
  facet normal 0 0 1
    outer loop
      vertex -15.266671262579715 6.191030516984701 4.7
      vertex -8.165811390579659 2.574867133366888 4.7
      vertex 11.800107644444125 6.997145349797325 4.7
    endloop
  endfacet
  facet normal 0 0 -1
    outer loop
      vertex -12.199892355555873 -6.997145349797325 0
      vertex 13.390133266520216 -6.860577927646754 0
      vertex 11.800107644444127 -6.997145349797325 0
    endloop
  endfacet
  facet normal 0 0 -1
    outer loop
      vertex -12.199892355555873 -6.997145349797325 0
      vertex 10.090022437852639 -2.839343854278736 0
      vertex 13.390133266520216 -6.860577927646754 0
    endloop
  endfacet
  facet normal 0 0 -1
    outer loop
      vertex -12.199892355555873 -6.997145349797325 0
      vertex 8.52884912470414 -2.7325566741445795 0
      vertex 9.302097001242453 -2.8932394306525633 0
    endloop
  endfacet
  facet normal 0 0 -1
    outer loop
      vertex -12.199892355555873 -6.997145349797325 0
      vertex 9.302097001242453 -2.8932394306525633 0
      vertex 10.090022437852639 -2.839343854278736 0
    endloop
  endfacet
  facet normal 0 -1 0
    outer loop
      vertex -12.199892355555873 -6.997145349797325 0
      vertex 11.800107644444127 -6.997145349797325 0
      vertex 11.800107644444127 -6.997145349797325 4.7
    endloop
  endfacet
  facet normal 0 0 -1
    outer loop
      vertex -7.520595884665903 -2.11942429640656 0
      vertex 7.827627065866886 -2.369212689730282 0
      vertex 8.52884912470414 -2.7325566741445795 0
    endloop
  endfacet
  facet normal 0 0 -1
    outer loop
      vertex -7.022183726815182 -1.5067934551027564 0
      vertex 7.250437256957182 -1.830155038545553 0
      vertex 7.827627065866886 -2.369212689730282 0
    endloop
  endfacet
  facet normal 0 0 -1
    outer loop
      vertex -7.022183726815182 -1.5067934551027564 0
      vertex 6.840087225634186 -1.1553631605541004 0
      vertex 7.250437256957182 -1.830155038545553 0
    endloop
  endfacet
  facet normal 0 0 -1
    outer loop
      vertex -6.707539866691382 -0.7824106363553712 0
      vertex 6.627010756494641 -0.3948832823791156 0
      vertex 6.840087225634186 -1.1553631605541004 0
    endloop
  endfacet
  facet normal 0 0 -1
    outer loop
      vertex 11.800107644444127 -6.997145349797325 0
      vertex 13.390133266520216 -6.860577927646754 0
      vertex 12.59902505935188 -6.97432211603884 0
    endloop
  endfacet
  facet normal 0 0 -1
    outer loop
      vertex 13.390133266520216 -6.860577927646754 0
      vertex 14.907905091013207 -6.367423967481628 0
      vertex 14.163118960624631 -6.657395614066075 0
    endloop
  endfacet
  facet normal 0 0 -1
    outer loop
      vertex 13.390133266520216 -6.860577927646754 0
      vertex 10.090022437852639 -2.839343854278736 0
      vertex 10.834188609420341 -2.574867133366889 0
    endloop
  endfacet
  facet normal 0 0 -1
    outer loop
      vertex 13.390133266520216 -6.860577927646754 0
      vertex 10.834188609420341 -2.574867133366889 0
      vertex 11.479404115334097 -2.11942429640656 0
    endloop
  endfacet
  facet normal 0 0 -1
    outer loop
      vertex 13.390133266520216 -6.860577927646754 0
      vertex 15.61478223147273 -5.994443211761125 0
      vertex 14.907905091013207 -6.367423967481628 0
    endloop
  endfacet
  facet normal 0 0 -1
    outer loop
      vertex 13.390133266520216 -6.860577927646754 0
      vertex 17.41899127447358 -4.43108717666209 0
      vertex 15.61478223147273 -5.994443211761125 0
    endloop
  endfacet
  facet normal 0 0 -1
    outer loop
      vertex 15.61478223147273 -5.994443211761125 0
      vertex 17.41899127447358 -4.43108717666209 0
      vertex 16.274535157448064 -5.543315721455927 0
    endloop
  endfacet
  facet normal 0 0 -1
    outer loop
      vertex 13.390133266520216 -6.860577927646754 0
      vertex 19 0 0
      vertex 17.41899127447358 -4.43108717666209 0
    endloop
  endfacet
  facet normal 0 0 -1
    outer loop
      vertex 16.274535157448064 -5.543315721455927 0
      vertex 17.41899127447358 -4.43108717666209 0
      vertex 16.878562980587056 -5.019922633312744 0
    endloop
  endfacet
  facet normal 0 0 -1
    outer loop
      vertex 17.41899127447358 -4.43108717666209 0
      vertex 18.28178900083951 -3.0885477087025492 0
      vertex 17.888774729818266 -3.784485722189185 0
    endloop
  endfacet
  facet normal 0.02855605079369666 -0.9995921928281891 0
    outer loop
      vertex 11.800107644444127 -6.997145349797325 0
      vertex 12.59902505935188 -6.97432211603884 0
      vertex 11.800107644444127 -6.997145349797325 4.7
    endloop
  endfacet
  facet normal 0.14231483827328562 -0.9898214418809327 0
    outer loop
      vertex 12.59902505935188 -6.97432211603884 0
      vertex 13.390133266520216 -6.860577927646754 0
      vertex 12.59902505935188 -6.97432211603884 4.7
    endloop
  endfacet
  facet normal 0.2542183341934874 -0.967146854701957 -9.669266312079024e-20
    outer loop
      vertex 13.390133266520216 -6.860577927646754 0
      vertex 14.163118960624631 -6.657395614066075 0
      vertex 14.163118960624631 -6.657395614066075 4.7
    endloop
  endfacet
  facet normal 0.3628077053506402 -0.9318640292114525 0
    outer loop
      vertex 14.163118960624631 -6.657395614066075 0
      vertex 14.907905091013207 -6.367423967481628 0
      vertex 14.163118960624631 -6.657395614066075 4.7
    endloop
  endfacet
  facet normal 0.4666673232256737 -0.8844329309978144 2.9172061353469755e-18
    outer loop
      vertex 14.907905091013207 -6.367423967481628 0
      vertex 15.61478223147273 -5.994443211761125 0
      vertex 15.61478223147273 -5.994443211761125 4.7
    endloop
  endfacet
  facet normal 0.5644432188667701 -0.8254718969627733 0
    outer loop
      vertex 15.61478223147273 -5.994443211761125 0
      vertex 16.274535157448064 -5.543315721455927 0
      vertex 15.61478223147273 -5.994443211761125 4.7
    endloop
  endfacet
  facet normal 0.6548607339452833 -0.7557495743542598 -7.016553007233539e-18
    outer loop
      vertex 16.274535157448064 -5.543315721455927 0
      vertex 16.878562980587056 -5.019922633312744 0
      vertex 16.878562980587056 -5.019922633312744 4.7
    endloop
  endfacet
  facet normal 0.7367411378764052 -0.6761749002740192 0
    outer loop
      vertex 16.878562980587056 -5.019922633312744 0
      vertex 17.41899127447358 -4.43108717666209 0
      vertex 16.878562980587056 -5.019922633312744 4.7
    endloop
  endfacet
  facet normal 0.8090169943749485 -0.5877852522924717 0
    outer loop
      vertex 17.41899127447358 -4.43108717666209 0
      vertex 17.888774729818266 -3.784485722189185 0
      vertex 17.41899127447358 -4.43108717666209 4.7
    endloop
  endfacet
  facet normal 0 0 -1
    outer loop
      vertex 13.390133266520216 -6.860577927646754 0
      vertex 11.479404115334097 -2.11942429640656 0
      vertex 11.977816273184818 -1.5067934551027564 0
    endloop
  endfacet
  facet normal 0 0 -1
    outer loop
      vertex 13.390133266520216 -6.860577927646754 0
      vertex 11.977816273184818 -1.5067934551027564 0
      vertex 19 0 0
    endloop
  endfacet
  facet normal 0 0 -1
    outer loop
      vertex 17.41899127447358 -4.43108717666209 0
      vertex 18.592910545476673 -2.3523457525080094 0
      vertex 18.28178900083951 -3.0885477087025492 0
    endloop
  endfacet
  facet normal 0 0 -1
    outer loop
      vertex 17.41899127447358 -4.43108717666209 0
      vertex 19 0 0
      vertex 18.592910545476673 -2.3523457525080094 0
    endloop
  endfacet
  facet normal 0 0 -1
    outer loop
      vertex 19 0 0
      vertex 11.977816273184818 -1.5067934551027564 0
      vertex 12.292460133308618 -0.7824106363553712 0
    endloop
  endfacet
  facet normal 0 0 -1
    outer loop
      vertex 19 0 0
      vertex 12.292460133308618 -0.7824106363553712 0
      vertex 12.4 0 0
    endloop
  endfacet
  facet normal 0 0 -1
    outer loop
      vertex 18.592910545476673 -2.3523457525080094 0
      vertex 19 0 0
      vertex 18.818083418596334 -1.5854773719803477 0
    endloop
  endfacet
  facet normal 0 0 -1
    outer loop
      vertex 18.818083418596334 -1.5854773719803477 0
      vertex 19 0 0
      vertex 18.95437214743985 -0.7979398692337862 0
    endloop
  endfacet
  facet normal 0.870746077119776 -0.4917329246456057 -5.43785956318205e-18
    outer loop
      vertex 17.888774729818266 -3.784485722189185 0
      vertex 18.28178900083951 -3.0885477087025492 0
      vertex 18.28178900083951 -3.0885477087025492 4.7
    endloop
  endfacet
  facet normal 0.9211236531148506 -0.38927010631739045 0
    outer loop
      vertex 18.28178900083951 -3.0885477087025492 0
      vertex 18.592910545476673 -2.3523457525080094 0
      vertex 18.28178900083951 -3.0885477087025492 4.7
    endloop
  endfacet
  facet normal 0.9594929736144979 -0.281732556841428 1.4353214234218739e-18
    outer loop
      vertex 18.592910545476673 -2.3523457525080094 0
      vertex 18.818083418596334 -1.5854773719803477 0
      vertex 18.818083418596334 -1.5854773719803477 4.7
    endloop
  endfacet
  facet normal 0.9853538358476928 -0.1705221926326256 1.0393207513840907e-18
    outer loop
      vertex 18.818083418596334 -1.5854773719803477 0
      vertex 18.95437214743985 -0.7979398692337862 0
      vertex 18.95437214743985 -0.7979398692337862 4.7
    endloop
  endfacet
  facet normal 0.9983691039261356 -0.0570888108627676 0
    outer loop
      vertex 18.95437214743985 -0.7979398692337862 0
      vertex 19 0 0
      vertex 18.95437214743985 -0.7979398692337862 4.7
    endloop
  endfacet
  facet normal 0 0 1
    outer loop
      vertex -12.199892355555873 -6.997145349797325 4.7
      vertex 11.800107644444127 -6.997145349797325 4.7
      vertex 12.59902505935188 -6.97432211603884 4.7
    endloop
  endfacet
  facet normal 0 0 1
    outer loop
      vertex -12.199892355555873 -6.997145349797325 4.7
      vertex 15.61478223147273 -5.994443211761125 4.7
      vertex 10.090022437852639 -2.839343854278736 4.7
    endloop
  endfacet
  facet normal 0 0 1
    outer loop
      vertex -12.199892355555873 -6.997145349797325 4.7
      vertex 7.827627065866886 -2.369212689730282 4.7
      vertex 7.250437256957182 -1.830155038545553 4.7
    endloop
  endfacet
  facet normal 0 0 1
    outer loop
      vertex -12.199892355555873 -6.997145349797325 4.7
      vertex 8.52884912470414 -2.7325566741445795 4.7
      vertex 7.827627065866886 -2.369212689730282 4.7
    endloop
  endfacet
  facet normal 0 0 1
    outer loop
      vertex -12.199892355555873 -6.997145349797325 4.7
      vertex 9.302097001242453 -2.8932394306525633 4.7
      vertex 8.52884912470414 -2.7325566741445795 4.7
    endloop
  endfacet
  facet normal 0 0 1
    outer loop
      vertex -12.199892355555873 -6.997145349797325 4.7
      vertex 10.090022437852639 -2.839343854278736 4.7
      vertex 9.302097001242453 -2.8932394306525633 4.7
    endloop
  endfacet
  facet normal 0 0 1
    outer loop
      vertex -12.199892355555873 -6.997145349797325 4.7
      vertex 12.59902505935188 -6.97432211603884 4.7
      vertex 15.61478223147273 -5.994443211761125 4.7
    endloop
  endfacet
  facet normal 0 0 1
    outer loop
      vertex -12.199892355555873 -6.997145349797325 4.7
      vertex 7.250437256957182 -1.830155038545553 4.7
      vertex 6.840087225634186 -1.1553631605541004 4.7
    endloop
  endfacet
  facet normal 0 0 1
    outer loop
      vertex -12.199892355555873 -6.997145349797325 4.7
      vertex 6.840087225634186 -1.1553631605541004 4.7
      vertex 6.627010756494641 -0.3948832823791156 4.7
    endloop
  endfacet
  facet normal 0 0 1
    outer loop
      vertex -12.199892355555873 -6.997145349797325 4.7
      vertex 6.627010756494641 -0.3948832823791156 4.7
      vertex 6.627010756494641 0.3948832823791156 4.7
    endloop
  endfacet
  facet normal 0 0 1
    outer loop
      vertex -12.199892355555873 -6.997145349797325 4.7
      vertex 6.627010756494641 0.3948832823791156 4.7
      vertex 6.840087225634186 1.1553631605541004 4.7
    endloop
  endfacet
  facet normal 0 0 1
    outer loop
      vertex -12.199892355555873 -6.997145349797325 4.7
      vertex 6.840087225634186 1.1553631605541004 4.7
      vertex 7.250437256957182 1.830155038545553 4.7
    endloop
  endfacet
  facet normal 0 0 1
    outer loop
      vertex -12.199892355555873 -6.997145349797325 4.7
      vertex 7.250437256957182 1.830155038545553 4.7
      vertex 7.827627065866885 2.369212689730282 4.7
    endloop
  endfacet
  facet normal 0 0 1
    outer loop
      vertex -12.199892355555873 -6.997145349797325 4.7
      vertex 7.827627065866885 2.369212689730282 4.7
      vertex 8.52884912470414 2.7325566741445795 4.7
    endloop
  endfacet
  facet normal 0.02855605079369666 -0.9995921928281891 0
    outer loop
      vertex 12.59902505935188 -6.97432211603884 0
      vertex 12.59902505935188 -6.97432211603884 4.7
      vertex 11.800107644444127 -6.997145349797325 4.7
    endloop
  endfacet
  facet normal 0.14231483827328562 -0.9898214418809327 0
    outer loop
      vertex 13.390133266520216 -6.860577927646754 0
      vertex 13.390133266520216 -6.860577927646754 4.7
      vertex 12.59902505935188 -6.97432211603884 4.7
    endloop
  endfacet
  facet normal 0.2542183341934874 -0.967146854701957 0
    outer loop
      vertex 13.390133266520216 -6.860577927646754 0
      vertex 14.163118960624631 -6.657395614066075 4.7
      vertex 13.390133266520216 -6.860577927646754 4.7
    endloop
  endfacet
  facet normal 0.3628077053506402 -0.9318640292114525 0
    outer loop
      vertex 14.907905091013207 -6.367423967481628 0
      vertex 14.907905091013207 -6.367423967481628 4.7
      vertex 14.163118960624631 -6.657395614066075 4.7
    endloop
  endfacet
  facet normal 0.4666673232256737 -0.8844329309978144 0
    outer loop
      vertex 14.907905091013207 -6.367423967481628 0
      vertex 15.61478223147273 -5.994443211761125 4.7
      vertex 14.907905091013207 -6.367423967481628 4.7
    endloop
  endfacet
  facet normal 0.5644432188667701 -0.8254718969627733 0
    outer loop
      vertex 16.274535157448064 -5.543315721455927 0
      vertex 16.274535157448064 -5.543315721455927 4.7
      vertex 15.61478223147273 -5.994443211761125 4.7
    endloop
  endfacet
  facet normal 0.6548607339452833 -0.7557495743542598 0
    outer loop
      vertex 16.274535157448064 -5.543315721455927 0
      vertex 16.878562980587056 -5.019922633312744 4.7
      vertex 16.274535157448064 -5.543315721455927 4.7
    endloop
  endfacet
  facet normal 0.7367411378764052 -0.6761749002740192 0
    outer loop
      vertex 17.41899127447358 -4.43108717666209 0
      vertex 17.41899127447358 -4.43108717666209 4.7
      vertex 16.878562980587056 -5.019922633312744 4.7
    endloop
  endfacet
  facet normal 0.8090169943749485 -0.5877852522924717 0
    outer loop
      vertex 17.888774729818266 -3.784485722189185 0
      vertex 17.888774729818266 -3.784485722189185 4.7
      vertex 17.41899127447358 -4.43108717666209 4.7
    endloop
  endfacet
  facet normal 0.870746077119776 -0.4917329246456057 0
    outer loop
      vertex 17.888774729818266 -3.784485722189185 0
      vertex 18.28178900083951 -3.0885477087025492 4.7
      vertex 17.888774729818266 -3.784485722189185 4.7
    endloop
  endfacet
  facet normal 0 0 1
    outer loop
      vertex 12.59902505935188 -6.97432211603884 4.7
      vertex 13.390133266520216 -6.860577927646754 4.7
      vertex 14.163118960624631 -6.657395614066075 4.7
    endloop
  endfacet
  facet normal 0 0 1
    outer loop
      vertex 12.59902505935188 -6.97432211603884 4.7
      vertex 14.163118960624631 -6.657395614066075 4.7
      vertex 15.61478223147273 -5.994443211761125 4.7
    endloop
  endfacet
  facet normal 0 0 1
    outer loop
      vertex 15.61478223147273 -5.994443211761125 4.7
      vertex 10.834188609420341 -2.574867133366889 4.7
      vertex 10.090022437852639 -2.839343854278736 4.7
    endloop
  endfacet
  facet normal 0 0 1
    outer loop
      vertex 15.61478223147273 -5.994443211761125 4.7
      vertex 11.479404115334097 -2.11942429640656 4.7
      vertex 10.834188609420341 -2.574867133366889 4.7
    endloop
  endfacet
  facet normal 0 0 1
    outer loop
      vertex 14.163118960624631 -6.657395614066075 4.7
      vertex 14.907905091013207 -6.367423967481628 4.7
      vertex 15.61478223147273 -5.994443211761125 4.7
    endloop
  endfacet
  facet normal 0 0 1
    outer loop
      vertex 15.61478223147273 -5.994443211761125 4.7
      vertex 16.274535157448064 -5.543315721455927 4.7
      vertex 16.878562980587056 -5.019922633312744 4.7
    endloop
  endfacet
  facet normal 0 0 1
    outer loop
      vertex 15.61478223147273 -5.994443211761125 4.7
      vertex 16.878562980587056 -5.019922633312744 4.7
      vertex 18.28178900083951 -3.0885477087025492 4.7
    endloop
  endfacet
  facet normal 0 0 1
    outer loop
      vertex 16.878562980587056 -5.019922633312744 4.7
      vertex 17.41899127447358 -4.43108717666209 4.7
      vertex 18.28178900083951 -3.0885477087025492 4.7
    endloop
  endfacet
  facet normal 0 0 1
    outer loop
      vertex 17.41899127447358 -4.43108717666209 4.7
      vertex 17.888774729818266 -3.784485722189185 4.7
      vertex 18.28178900083951 -3.0885477087025492 4.7
    endloop
  endfacet
  facet normal 0.9211236531148506 -0.38927010631739045 0
    outer loop
      vertex 18.592910545476673 -2.3523457525080094 0
      vertex 18.592910545476673 -2.3523457525080094 4.7
      vertex 18.28178900083951 -3.0885477087025492 4.7
    endloop
  endfacet
  facet normal 0.9594929736144979 -0.281732556841428 0
    outer loop
      vertex 18.592910545476673 -2.3523457525080094 0
      vertex 18.818083418596334 -1.5854773719803477 4.7
      vertex 18.592910545476673 -2.3523457525080094 4.7
    endloop
  endfacet
  facet normal 0.9853538358476928 -0.1705221926326256 0
    outer loop
      vertex 18.818083418596334 -1.5854773719803477 0
      vertex 18.95437214743985 -0.7979398692337862 4.7
      vertex 18.818083418596334 -1.5854773719803477 4.7
    endloop
  endfacet
  facet normal 0.9983691039261356 -0.0570888108627676 5.059632092139064e-19
    outer loop
      vertex 18.95437214743985 -0.7979398692337862 4.7
      vertex 19 0 0
      vertex 19 0 4.7
    endloop
  endfacet
  facet normal 0 0 1
    outer loop
      vertex 15.61478223147273 -5.994443211761125 4.7
      vertex 11.977816273184818 -1.5067934551027564 4.7
      vertex 11.479404115334097 -2.11942429640656 4.7
    endloop
  endfacet
  facet normal 0 0 1
    outer loop
      vertex 15.61478223147273 -5.994443211761125 4.7
      vertex 12.292460133308618 -0.7824106363553712 4.7
      vertex 11.977816273184818 -1.5067934551027564 4.7
    endloop
  endfacet
  facet normal 0 0 1
    outer loop
      vertex 15.61478223147273 -5.994443211761125 4.7
      vertex 12.4 0 4.7
      vertex 12.292460133308618 -0.7824106363553712 4.7
    endloop
  endfacet
  facet normal 0 0 1
    outer loop
      vertex 15.61478223147273 -5.994443211761125 4.7
      vertex 18.28178900083951 -3.0885477087025492 4.7
      vertex 18.818083418596334 1.5854773719803508 4.7
    endloop
  endfacet
  facet normal 0 0 1
    outer loop
      vertex 18.28178900083951 -3.0885477087025492 4.7
      vertex 18.592910545476673 -2.3523457525080094 4.7
      vertex 18.818083418596334 -1.5854773719803477 4.7
    endloop
  endfacet
  facet normal 0 0 1
    outer loop
      vertex 18.28178900083951 -3.0885477087025492 4.7
      vertex 18.818083418596334 -1.5854773719803477 4.7
      vertex 18.95437214743985 -0.7979398692337862 4.7
    endloop
  endfacet
  facet normal 0 0 1
    outer loop
      vertex 18.28178900083951 -3.0885477087025492 4.7
      vertex 18.95437214743985 -0.7979398692337862 4.7
      vertex 18.818083418596334 1.5854773719803508 4.7
    endloop
  endfacet
  facet normal 0 0 1
    outer loop
      vertex 18.95437214743985 -0.7979398692337862 4.7
      vertex 19 0 4.7
      vertex 18.95437214743985 0.7979398692337845 4.7
    endloop
  endfacet
  facet normal 0 0 -1
    outer loop
      vertex -6.707539866691382 0.7824106363553703 0
      vertex 6.627010756494641 0.3948832823791156 0
      vertex 6.627010756494641 -0.3948832823791156 0
    endloop
  endfacet
  facet normal 0 0 -1
    outer loop
      vertex -6.707539866691382 0.7824106363553703 0
      vertex 6.840087225634186 1.1553631605541004 0
      vertex 6.627010756494641 0.3948832823791156 0
    endloop
  endfacet
  facet normal 0 0 -1
    outer loop
      vertex -7.022183726815183 1.5067934551027573 0
      vertex 7.250437256957182 1.830155038545553 0
      vertex 6.840087225634186 1.1553631605541004 0
    endloop
  endfacet
  facet normal 0 0 -1
    outer loop
      vertex -8.165811390579659 2.574867133366888 0
      vertex 7.827627065866885 2.369212689730282 0
      vertex 7.250437256957182 1.830155038545553 0
    endloop
  endfacet
  facet normal 0 0 -1
    outer loop
      vertex -8.909977562147361 2.839343854278736 0
      vertex 8.52884912470414 2.7325566741445795 0
      vertex 7.827627065866885 2.369212689730282 0
    endloop
  endfacet
  facet normal 0 0 -1
    outer loop
      vertex -8.909977562147361 2.839343854278736 0
      vertex 9.302097001242453 2.8932394306525633 0
      vertex 8.52884912470414 2.7325566741445795 0
    endloop
  endfacet
  facet normal 0 0 -1
    outer loop
      vertex 11.800107644444125 6.997145349797325 0
      vertex 9.302097001242453 2.8932394306525633 0
      vertex -8.909977562147361 2.839343854278736 0
    endloop
  endfacet
  facet normal 0 0 -1
    outer loop
      vertex 19 0 0
      vertex 12.4 0 0
      vertex 12.292460133308618 0.7824106363553703 0
    endloop
  endfacet
  facet normal 0 0 -1
    outer loop
      vertex 19 0 0
      vertex 12.292460133308618 0.7824106363553703 0
      vertex 11.977816273184818 1.5067934551027573 0
    endloop
  endfacet
  facet normal 0 0 -1
    outer loop
      vertex 19 0 0
      vertex 18.592910545476673 2.3523457525080107 0
      vertex 18.95437214743985 0.7979398692337845 0
    endloop
  endfacet
  facet normal 0 0 -1
    outer loop
      vertex 18.95437214743985 0.7979398692337845 0
      vertex 18.592910545476673 2.3523457525080107 0
      vertex 18.818083418596334 1.5854773719803508 0
    endloop
  endfacet
  facet normal 0 0 -1
    outer loop
      vertex 19 0 0
      vertex 11.977816273184818 1.5067934551027573 0
      vertex 11.800107644444125 6.997145349797325 0
    endloop
  endfacet
  facet normal 0 0 -1
    outer loop
      vertex 19 0 0
      vertex 16.878562980587056 5.019922633312744 0
      vertex 18.592910545476673 2.3523457525080107 0
    endloop
  endfacet
  facet normal 0 0 -1
    outer loop
      vertex 18.592910545476673 2.3523457525080107 0
      vertex 17.88877472981827 3.7844857221891828 0
      vertex 18.28178900083951 3.088547708702549 0
    endloop
  endfacet
  facet normal 0.9983691039261358 0.05708881086276773 7.514800876245047e-19
    outer loop
      vertex 19 0 0
      vertex 18.95437214743985 0.7979398692337845 0
      vertex 18.95437214743985 0.7979398692337845 4.7
    endloop
  endfacet
  facet normal 0.985353835847693 0.17052219263262458 -9.419089812302344e-19
    outer loop
      vertex 18.95437214743985 0.7979398692337845 0
      vertex 18.818083418596334 1.5854773719803508 0
      vertex 18.818083418596334 1.5854773719803508 4.7
    endloop
  endfacet
  facet normal 0.9594929736144977 0.2817325568414286 1.6019434311952578e-18
    outer loop
      vertex 18.818083418596334 1.5854773719803508 0
      vertex 18.592910545476673 2.3523457525080107 0
      vertex 18.592910545476673 2.3523457525080107 4.7
    endloop
  endfacet
  facet normal 0.9211236531148502 0.38927010631739123 0
    outer loop
      vertex 18.592910545476673 2.3523457525080107 0
      vertex 18.28178900083951 3.088547708702549 0
      vertex 18.592910545476673 2.3523457525080107 4.7
    endloop
  endfacet
  facet normal 0 0 -1
    outer loop
      vertex 11.800107644444125 6.997145349797325 0
      vertex 10.090022437852639 2.839343854278736 0
      vertex 9.302097001242453 2.8932394306525633 0
    endloop
  endfacet
  facet normal 0 0 -1
    outer loop
      vertex 11.800107644444125 6.997145349797325 0
      vertex 11.977816273184818 1.5067934551027573 0
      vertex 11.479404115334097 2.11942429640656 0
    endloop
  endfacet
  facet normal 0 0 -1
    outer loop
      vertex 11.800107644444125 6.997145349797325 0
      vertex 11.479404115334097 2.11942429640656 0
      vertex 10.834188609420341 2.574867133366888 0
    endloop
  endfacet
  facet normal 0 0 -1
    outer loop
      vertex 11.800107644444125 6.997145349797325 0
      vertex 10.834188609420341 2.574867133366888 0
      vertex 10.090022437852639 2.839343854278736 0
    endloop
  endfacet
  facet normal 0 0 -1
    outer loop
      vertex 11.800107644444125 6.997145349797325 0
      vertex 12.599025059351877 6.97432211603884 0
      vertex 13.390133266520218 6.860577927646754 0
    endloop
  endfacet
  facet normal 0 0 -1
    outer loop
      vertex 11.800107644444125 6.997145349797325 0
      vertex 13.390133266520218 6.860577927646754 0
      vertex 14.907905091013205 6.367423967481629 0
    endloop
  endfacet
  facet normal 0 0 -1
    outer loop
      vertex 13.390133266520218 6.860577927646754 0
      vertex 14.163118960624631 6.657395614066075 0
      vertex 14.907905091013205 6.367423967481629 0
    endloop
  endfacet
  facet normal 0 0 -1
    outer loop
      vertex 19 0 0
      vertex 11.800107644444125 6.997145349797325 0
      vertex 16.878562980587056 5.019922633312744 0
    endloop
  endfacet
  facet normal 0 0 -1
    outer loop
      vertex 18.592910545476673 2.3523457525080107 0
      vertex 16.878562980587056 5.019922633312744 0
      vertex 17.88877472981827 3.7844857221891828 0
    endloop
  endfacet
  facet normal 0 0 -1
    outer loop
      vertex 17.88877472981827 3.7844857221891828 0
      vertex 16.878562980587056 5.019922633312744 0
      vertex 17.418991274473576 4.431087176662093 0
    endloop
  endfacet
  facet normal 0 0 -1
    outer loop
      vertex 16.878562980587056 5.019922633312744 0
      vertex 14.907905091013205 6.367423967481629 0
      vertex 16.274535157448067 5.543315721455927 0
    endloop
  endfacet
  facet normal 0 0 -1
    outer loop
      vertex 16.274535157448067 5.543315721455927 0
      vertex 14.907905091013205 6.367423967481629 0
      vertex 15.614782231472734 5.994443211761123 0
    endloop
  endfacet
  facet normal 0 0 -1
    outer loop
      vertex 11.800107644444125 6.997145349797325 0
      vertex 14.907905091013205 6.367423967481629 0
      vertex 16.878562980587056 5.019922633312744 0
    endloop
  endfacet
  facet normal 0.028556050793696722 0.9995921928281892 0
    outer loop
      vertex 11.800107644444125 6.997145349797325 0
      vertex 11.800107644444125 6.997145349797325 4.7
      vertex 12.599025059351877 6.97432211603884 0
    endloop
  endfacet
  facet normal 0.14231483827328467 0.9898214418809327 -9.129606533926453e-19
    outer loop
      vertex 12.599025059351877 6.97432211603884 0
      vertex 13.390133266520218 6.860577927646754 4.7
      vertex 13.390133266520218 6.860577927646754 0
    endloop
  endfacet
  facet normal 0.25421833419348794 0.9671468547019568 1.2379525740334185e-19
    outer loop
      vertex 13.390133266520218 6.860577927646754 0
      vertex 14.163118960624631 6.657395614066075 4.7
      vertex 14.163118960624631 6.657395614066075 0
    endloop
  endfacet
  facet normal 0.8090169943749463 0.5877852522924747 0
    outer loop
      vertex 17.88877472981827 3.7844857221891828 0
      vertex 17.418991274473576 4.431087176662093 0
      vertex 17.88877472981827 3.7844857221891828 4.7
    endloop
  endfacet
  facet normal 0.8707460771197775 0.4917329246456033 7.15929309504162e-18
    outer loop
      vertex 18.28178900083951 3.088547708702549 0
      vertex 17.88877472981827 3.7844857221891828 0
      vertex 17.88877472981827 3.7844857221891828 4.7
    endloop
  endfacet
  facet normal 0.7367411378764058 0.6761749002740183 6.8410340100576595e-18
    outer loop
      vertex 17.418991274473576 4.431087176662093 0
      vertex 16.878562980587056 5.019922633312744 0
      vertex 16.878562980587056 5.019922633312744 4.7
    endloop
  endfacet
  facet normal 0.4666673232256735 0.8844329309978144 0
    outer loop
      vertex 15.614782231472734 5.994443211761123 0
      vertex 14.907905091013205 6.367423967481629 0
      vertex 15.614782231472734 5.994443211761123 4.7
    endloop
  endfacet
  facet normal 0.6548607339452855 0.7557495743542578 -4.142405967962482e-19
    outer loop
      vertex 16.878562980587056 5.019922633312744 0
      vertex 16.274535157448067 5.543315721455927 0
      vertex 16.274535157448067 5.543315721455927 4.7
    endloop
  endfacet
  facet normal 0.5644432188667685 0.8254718969627743 4.16710050677648e-18
    outer loop
      vertex 16.274535157448067 5.543315721455927 0
      vertex 15.614782231472734 5.994443211761123 0
      vertex 15.614782231472734 5.994443211761123 4.7
    endloop
  endfacet
  facet normal 0.36280770535064005 0.9318640292114527 0
    outer loop
      vertex 14.163118960624631 6.657395614066075 0
      vertex 14.163118960624631 6.657395614066075 4.7
      vertex 14.907905091013205 6.367423967481629 0
    endloop
  endfacet
  facet normal 0 0 1
    outer loop
      vertex -12.199892355555873 -6.997145349797325 4.7
      vertex 8.52884912470414 2.7325566741445795 4.7
      vertex 11.800107644444125 6.997145349797325 4.7
    endloop
  endfacet
  facet normal 0 1 0
    outer loop
      vertex -12.199892355555875 6.997145349797325 4.7
      vertex 11.800107644444125 6.997145349797325 4.7
      vertex 11.800107644444125 6.997145349797325 0
    endloop
  endfacet
  facet normal 0.9983691039261358 0.05708881086276773 0
    outer loop
      vertex 19 0 0
      vertex 18.95437214743985 0.7979398692337845 4.7
      vertex 19 0 4.7
    endloop
  endfacet
  facet normal 0.985353835847693 0.17052219263262458 0
    outer loop
      vertex 18.95437214743985 0.7979398692337845 0
      vertex 18.818083418596334 1.5854773719803508 4.7
      vertex 18.95437214743985 0.7979398692337845 4.7
    endloop
  endfacet
  facet normal 0.9594929736144977 0.2817325568414286 0
    outer loop
      vertex 18.818083418596334 1.5854773719803508 0
      vertex 18.592910545476673 2.3523457525080107 4.7
      vertex 18.818083418596334 1.5854773719803508 4.7
    endloop
  endfacet
  facet normal 0.9211236531148502 0.38927010631739123 0
    outer loop
      vertex 18.28178900083951 3.088547708702549 0
      vertex 18.28178900083951 3.088547708702549 4.7
      vertex 18.592910545476673 2.3523457525080107 4.7
    endloop
  endfacet
  facet normal 0.8707460771197775 0.4917329246456033 0
    outer loop
      vertex 18.28178900083951 3.088547708702549 0
      vertex 17.88877472981827 3.7844857221891828 4.7
      vertex 18.28178900083951 3.088547708702549 4.7
    endloop
  endfacet
  facet normal 0 0 1
    outer loop
      vertex 15.61478223147273 -5.994443211761125 4.7
      vertex 11.800107644444125 6.997145349797325 4.7
      vertex 12.4 0 4.7
    endloop
  endfacet
  facet normal 0 0 1
    outer loop
      vertex 11.800107644444125 6.997145349797325 4.7
      vertex 12.292460133308618 0.7824106363553703 4.7
      vertex 12.4 0 4.7
    endloop
  endfacet
  facet normal 0 0 1
    outer loop
      vertex 11.800107644444125 6.997145349797325 4.7
      vertex 11.977816273184818 1.5067934551027573 4.7
      vertex 12.292460133308618 0.7824106363553703 4.7
    endloop
  endfacet
  facet normal 0 0 1
    outer loop
      vertex 15.61478223147273 -5.994443211761125 4.7
      vertex 18.818083418596334 1.5854773719803508 4.7
      vertex 11.800107644444125 6.997145349797325 4.7
    endloop
  endfacet
  facet normal 0 0 1
    outer loop
      vertex 18.95437214743985 -0.7979398692337862 4.7
      vertex 18.95437214743985 0.7979398692337845 4.7
      vertex 18.818083418596334 1.5854773719803508 4.7
    endloop
  endfacet
  facet normal 0 0 1
    outer loop
      vertex 18.818083418596334 1.5854773719803508 4.7
      vertex 18.592910545476673 2.3523457525080107 4.7
      vertex 17.88877472981827 3.7844857221891828 4.7
    endloop
  endfacet
  facet normal 0 0 1
    outer loop
      vertex 18.592910545476673 2.3523457525080107 4.7
      vertex 18.28178900083951 3.088547708702549 4.7
      vertex 17.88877472981827 3.7844857221891828 4.7
    endloop
  endfacet
  facet normal 0.028556050793696722 0.9995921928281892 0
    outer loop
      vertex 12.599025059351877 6.97432211603884 0
      vertex 11.800107644444125 6.997145349797325 4.7
      vertex 12.599025059351877 6.97432211603884 4.7
    endloop
  endfacet
  facet normal 0.14231483827328467 0.9898214418809327 0
    outer loop
      vertex 12.599025059351877 6.97432211603884 0
      vertex 12.599025059351877 6.97432211603884 4.7
      vertex 13.390133266520218 6.860577927646754 4.7
    endloop
  endfacet
  facet normal 0.25421833419348794 0.9671468547019568 0
    outer loop
      vertex 13.390133266520218 6.860577927646754 0
      vertex 13.390133266520218 6.860577927646754 4.7
      vertex 14.163118960624631 6.657395614066075 4.7
    endloop
  endfacet
  facet normal 0.8090169943749463 0.5877852522924747 0
    outer loop
      vertex 17.418991274473576 4.431087176662093 0
      vertex 17.418991274473576 4.431087176662093 4.7
      vertex 17.88877472981827 3.7844857221891828 4.7
    endloop
  endfacet
  facet normal 0.7367411378764058 0.6761749002740183 0
    outer loop
      vertex 17.418991274473576 4.431087176662093 0
      vertex 16.878562980587056 5.019922633312744 4.7
      vertex 17.418991274473576 4.431087176662093 4.7
    endloop
  endfacet
  facet normal 0.6548607339452855 0.7557495743542578 0
    outer loop
      vertex 16.878562980587056 5.019922633312744 0
      vertex 16.274535157448067 5.543315721455927 4.7
      vertex 16.878562980587056 5.019922633312744 4.7
    endloop
  endfacet
  facet normal 0.5644432188667685 0.8254718969627743 0
    outer loop
      vertex 16.274535157448067 5.543315721455927 0
      vertex 15.614782231472734 5.994443211761123 4.7
      vertex 16.274535157448067 5.543315721455927 4.7
    endloop
  endfacet
  facet normal 0.36280770535064005 0.9318640292114527 0
    outer loop
      vertex 14.907905091013205 6.367423967481629 0
      vertex 14.163118960624631 6.657395614066075 4.7
      vertex 14.907905091013205 6.367423967481629 4.7
    endloop
  endfacet
  facet normal 0.4666673232256735 0.8844329309978144 0
    outer loop
      vertex 14.907905091013205 6.367423967481629 0
      vertex 14.907905091013205 6.367423967481629 4.7
      vertex 15.614782231472734 5.994443211761123 4.7
    endloop
  endfacet
  facet normal 0 0 1
    outer loop
      vertex 11.800107644444125 6.997145349797325 4.7
      vertex 8.52884912470414 2.7325566741445795 4.7
      vertex 9.302097001242453 2.8932394306525633 4.7
    endloop
  endfacet
  facet normal 0 0 1
    outer loop
      vertex 11.800107644444125 6.997145349797325 4.7
      vertex 9.302097001242453 2.8932394306525633 4.7
      vertex 10.090022437852639 2.839343854278736 4.7
    endloop
  endfacet
  facet normal 0 0 1
    outer loop
      vertex 11.800107644444125 6.997145349797325 4.7
      vertex 11.479404115334097 2.11942429640656 4.7
      vertex 11.977816273184818 1.5067934551027573 4.7
    endloop
  endfacet
  facet normal 0 0 1
    outer loop
      vertex 11.800107644444125 6.997145349797325 4.7
      vertex 10.834188609420341 2.574867133366888 4.7
      vertex 11.479404115334097 2.11942429640656 4.7
    endloop
  endfacet
  facet normal 0 0 1
    outer loop
      vertex 11.800107644444125 6.997145349797325 4.7
      vertex 10.090022437852639 2.839343854278736 4.7
      vertex 10.834188609420341 2.574867133366888 4.7
    endloop
  endfacet
  facet normal 0 0 1
    outer loop
      vertex 11.800107644444125 6.997145349797325 4.7
      vertex 13.390133266520218 6.860577927646754 4.7
      vertex 12.599025059351877 6.97432211603884 4.7
    endloop
  endfacet
  facet normal 0 0 1
    outer loop
      vertex 11.800107644444125 6.997145349797325 4.7
      vertex 16.274535157448067 5.543315721455927 4.7
      vertex 14.163118960624631 6.657395614066075 4.7
    endloop
  endfacet
  facet normal 0 0 1
    outer loop
      vertex 11.800107644444125 6.997145349797325 4.7
      vertex 14.163118960624631 6.657395614066075 4.7
      vertex 13.390133266520218 6.860577927646754 4.7
    endloop
  endfacet
  facet normal 0 0 1
    outer loop
      vertex 18.818083418596334 1.5854773719803508 4.7
      vertex 16.274535157448067 5.543315721455927 4.7
      vertex 11.800107644444125 6.997145349797325 4.7
    endloop
  endfacet
  facet normal 0 0 1
    outer loop
      vertex 18.818083418596334 1.5854773719803508 4.7
      vertex 17.88877472981827 3.7844857221891828 4.7
      vertex 16.274535157448067 5.543315721455927 4.7
    endloop
  endfacet
  facet normal 0 0 1
    outer loop
      vertex 17.88877472981827 3.7844857221891828 4.7
      vertex 16.878562980587056 5.019922633312744 4.7
      vertex 16.274535157448067 5.543315721455927 4.7
    endloop
  endfacet
  facet normal 0 0 1
    outer loop
      vertex 17.88877472981827 3.7844857221891828 4.7
      vertex 17.418991274473576 4.431087176662093 4.7
      vertex 16.878562980587056 5.019922633312744 4.7
    endloop
  endfacet
  facet normal 0 0 1
    outer loop
      vertex 14.163118960624631 6.657395614066075 4.7
      vertex 16.274535157448067 5.543315721455927 4.7
      vertex 15.614782231472734 5.994443211761123 4.7
    endloop
  endfacet
  facet normal 0 0 1
    outer loop
      vertex 14.163118960624631 6.657395614066075 4.7
      vertex 15.614782231472734 5.994443211761123 4.7
      vertex 14.907905091013205 6.367423967481629 4.7
    endloop
  endfacet
  facet normal 0.20345601305263336 0.9790840876823229 0
    outer loop
      vertex -10.47115087529586 -2.7325566741445795 0
      vertex -10.47115087529586 -2.7325566741445795 4.7
      vertex -9.697902998757547 -2.8932394306525633 0
    endloop
  endfacet
  facet normal 0.46006503773115226 0.8878852184023751 0
    outer loop
      vertex -11.172372934133115 -2.369212689730282 0
      vertex -11.172372934133115 -2.369212689730282 4.7
      vertex -10.47115087529586 -2.7325566741445795 0
    endloop
  endfacet
  facet normal 0.6825531432186543 0.7308359642781239 1.457013817752646e-18
    outer loop
      vertex -11.172372934133115 -2.369212689730282 0
      vertex -11.749562743042818 -1.830155038545553 0
      vertex -11.749562743042818 -1.830155038545553 4.7
    endloop
  endfacet
  facet normal 0.8544194045464881 0.5195839500354342 -4.414348231269824e-18
    outer loop
      vertex -11.749562743042818 -1.830155038545553 0
      vertex -12.159912774365814 -1.1553631605541004 0
      vertex -12.159912774365814 -1.1553631605541004 4.7
    endloop
  endfacet
  facet normal 0.9629172873477998 0.2697967711570229 1.6394920074361435e-18
    outer loop
      vertex -12.159912774365814 -1.1553631605541004 0
      vertex -12.372989243505359 -0.3948832823791156 0
      vertex -12.372989243505359 -0.3948832823791156 4.7
    endloop
  endfacet
  facet normal -0.06824241336467056 0.9976687691905393 0
    outer loop
      vertex -9.697902998757547 -2.8932394306525633 0
      vertex -9.697902998757547 -2.8932394306525633 4.7
      vertex -8.909977562147361 -2.839343854278736 0
    endloop
  endfacet
  facet normal -0.33487961217098555 0.9422609221188207 0
    outer loop
      vertex -8.909977562147361 -2.839343854278736 0
      vertex -8.909977562147361 -2.839343854278736 4.7
      vertex -8.165811390579659 -2.574867133366889 0
    endloop
  endfacet
  facet normal -0.5766803221148675 0.8169698930104418 0
    outer loop
      vertex -8.165811390579659 -2.574867133366889 0
      vertex -8.165811390579659 -2.574867133366889 4.7
      vertex -7.520595884665903 -2.11942429640656 0
    endloop
  endfacet
  facet normal -0.7757112907044198 0.6310879443260528 0
    outer loop
      vertex -7.520595884665903 -2.11942429640656 0
      vertex -7.520595884665903 -2.11942429640656 4.7
      vertex -7.022183726815182 -1.5067934551027564 0
    endloop
  endfacet
  facet normal -0.9172113015054533 0.398401089846241 1.351331446368856e-18
    outer loop
      vertex -6.707539866691382 -0.7824106363553712 0
      vertex -7.022183726815182 -1.5067934551027564 0
      vertex -7.022183726815182 -1.5067934551027564 4.7
    endloop
  endfacet
  facet normal -0.9906859460363305 0.1361666490962473 0
    outer loop
      vertex -6.707539866691382 -0.7824106363553712 0
      vertex -6.707539866691382 -0.7824106363553712 4.7
      vertex -6.6 0 0
    endloop
  endfacet
  facet normal 0.20345601305263336 0.9790840876823229 0
    outer loop
      vertex -9.697902998757547 -2.8932394306525633 0
      vertex -10.47115087529586 -2.7325566741445795 4.7
      vertex -9.697902998757547 -2.8932394306525633 4.7
    endloop
  endfacet
  facet normal 0.6825531432186543 0.7308359642781239 0
    outer loop
      vertex -11.172372934133115 -2.369212689730282 0
      vertex -11.749562743042818 -1.830155038545553 4.7
      vertex -11.172372934133115 -2.369212689730282 4.7
    endloop
  endfacet
  facet normal 0.46006503773115226 0.8878852184023751 0
    outer loop
      vertex -10.47115087529586 -2.7325566741445795 0
      vertex -11.172372934133115 -2.369212689730282 4.7
      vertex -10.47115087529586 -2.7325566741445795 4.7
    endloop
  endfacet
  facet normal 0.8544194045464881 0.5195839500354342 0
    outer loop
      vertex -11.749562743042818 -1.830155038545553 0
      vertex -12.159912774365814 -1.1553631605541004 4.7
      vertex -11.749562743042818 -1.830155038545553 4.7
    endloop
  endfacet
  facet normal 0.9629172873477998 0.2697967711570229 0
    outer loop
      vertex -12.159912774365814 -1.1553631605541004 0
      vertex -12.372989243505359 -0.3948832823791156 4.7
      vertex -12.159912774365814 -1.1553631605541004 4.7
    endloop
  endfacet
  facet normal 1 0 0
    outer loop
      vertex -12.372989243505359 -0.3948832823791156 4.7
      vertex -12.372989243505359 -0.3948832823791156 0
      vertex -12.372989243505359 0.3948832823791156 4.7
    endloop
  endfacet
  facet normal -0.06824241336467056 0.9976687691905393 0
    outer loop
      vertex -8.909977562147361 -2.839343854278736 0
      vertex -9.697902998757547 -2.8932394306525633 4.7
      vertex -8.909977562147361 -2.839343854278736 4.7
    endloop
  endfacet
  facet normal -0.33487961217098555 0.9422609221188207 0
    outer loop
      vertex -8.165811390579659 -2.574867133366889 0
      vertex -8.909977562147361 -2.839343854278736 4.7
      vertex -8.165811390579659 -2.574867133366889 4.7
    endloop
  endfacet
  facet normal -0.5766803221148675 0.8169698930104418 0
    outer loop
      vertex -7.520595884665903 -2.11942429640656 0
      vertex -8.165811390579659 -2.574867133366889 4.7
      vertex -7.520595884665903 -2.11942429640656 4.7
    endloop
  endfacet
  facet normal -0.7757112907044198 0.6310879443260528 0
    outer loop
      vertex -7.022183726815182 -1.5067934551027564 0
      vertex -7.520595884665903 -2.11942429640656 4.7
      vertex -7.022183726815182 -1.5067934551027564 4.7
    endloop
  endfacet
  facet normal -0.9172113015054533 0.398401089846241 0
    outer loop
      vertex -6.707539866691382 -0.7824106363553712 0
      vertex -7.022183726815182 -1.5067934551027564 4.7
      vertex -6.707539866691382 -0.7824106363553712 4.7
    endloop
  endfacet
  facet normal -0.9906859460363305 0.1361666490962473 0
    outer loop
      vertex -6.6 0 0
      vertex -6.707539866691382 -0.7824106363553712 4.7
      vertex -6.6 0 4.7
    endloop
  endfacet
  facet normal 1 0 0
    outer loop
      vertex -12.372989243505359 -0.3948832823791156 0
      vertex -12.372989243505359 0.3948832823791156 0
      vertex -12.372989243505359 0.3948832823791156 4.7
    endloop
  endfacet
  facet normal 0.9629172873477998 -0.2697967711570229 0
    outer loop
      vertex -12.159912774365814 1.1553631605541004 4.7
      vertex -12.372989243505359 0.3948832823791156 0
      vertex -12.159912774365814 1.1553631605541004 0
    endloop
  endfacet
  facet normal 0.8544194045464881 -0.5195839500354342 0
    outer loop
      vertex -11.749562743042818 1.830155038545553 4.7
      vertex -12.159912774365814 1.1553631605541004 0
      vertex -11.749562743042818 1.830155038545553 0
    endloop
  endfacet
  facet normal 0.6825531432186543 -0.7308359642781239 0
    outer loop
      vertex -11.172372934133115 2.369212689730282 0
      vertex -11.172372934133115 2.369212689730282 4.7
      vertex -11.749562743042818 1.830155038545553 0
    endloop
  endfacet
  facet normal 0.46006503773115226 -0.8878852184023751 0
    outer loop
      vertex -10.47115087529586 2.7325566741445795 0
      vertex -10.47115087529586 2.7325566741445795 4.7
      vertex -11.172372934133115 2.369212689730282 0
    endloop
  endfacet
  facet normal 0.20345601305263336 -0.9790840876823229 0
    outer loop
      vertex -9.697902998757547 2.8932394306525633 0
      vertex -9.697902998757547 2.8932394306525633 4.7
      vertex -10.47115087529586 2.7325566741445795 0
    endloop
  endfacet
  facet normal -0.7757112907044199 -0.6310879443260528 0
    outer loop
      vertex -7.022183726815183 1.5067934551027573 4.7
      vertex -7.520595884665903 2.11942429640656 0
      vertex -7.022183726815183 1.5067934551027573 0
    endloop
  endfacet
  facet normal -0.9906859460363305 -0.13616664909624743 9.34377199060203e-19
    outer loop
      vertex -6.707539866691382 0.7824106363553703 0
      vertex -6.6 0 0
      vertex -6.6 0 4.7
    endloop
  endfacet
  facet normal -0.9172113015054532 -0.3984010898462411 0
    outer loop
      vertex -6.707539866691382 0.7824106363553703 4.7
      vertex -7.022183726815183 1.5067934551027573 0
      vertex -6.707539866691382 0.7824106363553703 0
    endloop
  endfacet
  facet normal -0.5766803221148668 -0.8169698930104423 0
    outer loop
      vertex -7.520595884665903 2.11942429640656 4.7
      vertex -8.165811390579659 2.574867133366888 0
      vertex -7.520595884665903 2.11942429640656 0
    endloop
  endfacet
  facet normal -0.06824241336467056 -0.9976687691905393 0
    outer loop
      vertex -8.909977562147361 2.839343854278736 0
      vertex -8.909977562147361 2.839343854278736 4.7
      vertex -9.697902998757547 2.8932394306525633 0
    endloop
  endfacet
  facet normal -0.33487961217098655 -0.9422609221188204 0
    outer loop
      vertex -8.165811390579659 2.574867133366888 4.7
      vertex -8.909977562147361 2.839343854278736 0
      vertex -8.165811390579659 2.574867133366888 0
    endloop
  endfacet
  facet normal 0.9629172873477998 -0.2697967711570229 -1.6394920074361435e-18
    outer loop
      vertex -12.159912774365814 1.1553631605541004 4.7
      vertex -12.372989243505359 0.3948832823791156 4.7
      vertex -12.372989243505359 0.3948832823791156 0
    endloop
  endfacet
  facet normal 0.8544194045464881 -0.5195839500354342 4.414348231269824e-18
    outer loop
      vertex -11.749562743042818 1.830155038545553 4.7
      vertex -12.159912774365814 1.1553631605541004 4.7
      vertex -12.159912774365814 1.1553631605541004 0
    endloop
  endfacet
  facet normal 0.6825531432186543 -0.7308359642781239 0
    outer loop
      vertex -11.749562743042818 1.830155038545553 4.7
      vertex -11.749562743042818 1.830155038545553 0
      vertex -11.172372934133115 2.369212689730282 4.7
    endloop
  endfacet
  facet normal 0.46006503773115226 -0.8878852184023751 0
    outer loop
      vertex -11.172372934133115 2.369212689730282 0
      vertex -10.47115087529586 2.7325566741445795 4.7
      vertex -11.172372934133115 2.369212689730282 4.7
    endloop
  endfacet
  facet normal 0.20345601305263336 -0.9790840876823229 0
    outer loop
      vertex -10.47115087529586 2.7325566741445795 0
      vertex -9.697902998757547 2.8932394306525633 4.7
      vertex -10.47115087529586 2.7325566741445795 4.7
    endloop
  endfacet
  facet normal -0.9906859460363305 -0.13616664909624743 9.34377199060203e-19
    outer loop
      vertex -6.6 0 4.7
      vertex -6.707539866691382 0.7824106363553703 4.7
      vertex -6.707539866691382 0.7824106363553703 0
    endloop
  endfacet
  facet normal -0.9172113015054532 -0.3984010898462411 -3.725102795687048e-18
    outer loop
      vertex -6.707539866691382 0.7824106363553703 4.7
      vertex -7.022183726815183 1.5067934551027573 4.7
      vertex -7.022183726815183 1.5067934551027573 0
    endloop
  endfacet
  facet normal -0.7757112907044199 -0.6310879443260528 -2.0437898856442367e-20
    outer loop
      vertex -7.022183726815183 1.5067934551027573 4.7
      vertex -7.520595884665903 2.11942429640656 4.7
      vertex -7.520595884665903 2.11942429640656 0
    endloop
  endfacet
  facet normal -0.5766803221148668 -0.8169698930104423 0
    outer loop
      vertex -8.165811390579659 2.574867133366888 4.7
      vertex -8.165811390579659 2.574867133366888 0
      vertex -7.520595884665903 2.11942429640656 4.7
    endloop
  endfacet
  facet normal -0.06824241336467056 -0.9976687691905393 0
    outer loop
      vertex -9.697902998757547 2.8932394306525633 0
      vertex -8.909977562147361 2.839343854278736 4.7
      vertex -9.697902998757547 2.8932394306525633 4.7
    endloop
  endfacet
  facet normal -0.33487961217098655 -0.9422609221188204 0
    outer loop
      vertex -8.909977562147361 2.839343854278736 0
      vertex -8.165811390579659 2.574867133366888 4.7
      vertex -8.909977562147361 2.839343854278736 4.7
    endloop
  endfacet
  facet normal 0.20345601305263336 0.9790840876823229 0
    outer loop
      vertex 8.52884912470414 -2.7325566741445795 0
      vertex 8.52884912470414 -2.7325566741445795 4.7
      vertex 9.302097001242453 -2.8932394306525633 0
    endloop
  endfacet
  facet normal 0.46006503773115276 0.887885218402375 0
    outer loop
      vertex 7.827627065866886 -2.369212689730282 0
      vertex 7.827627065866886 -2.369212689730282 4.7
      vertex 8.52884912470414 -2.7325566741445795 0
    endloop
  endfacet
  facet normal 0.6825531432186538 0.7308359642781244 7.066263073920427e-18
    outer loop
      vertex 7.827627065866886 -2.369212689730282 0
      vertex 7.250437256957182 -1.830155038545553 0
      vertex 7.250437256957182 -1.830155038545553 4.7
    endloop
  endfacet
  facet normal 0.8544194045464881 0.5195839500354342 -4.414348231269824e-18
    outer loop
      vertex 7.250437256957182 -1.830155038545553 0
      vertex 6.840087225634186 -1.1553631605541004 0
      vertex 6.840087225634186 -1.1553631605541004 4.7
    endloop
  endfacet
  facet normal 0.9629172873477998 0.2697967711570229 1.6394920074361435e-18
    outer loop
      vertex 6.840087225634186 -1.1553631605541004 0
      vertex 6.627010756494641 -0.3948832823791156 0
      vertex 6.627010756494641 -0.3948832823791156 4.7
    endloop
  endfacet
  facet normal -0.06824241336467056 0.9976687691905393 0
    outer loop
      vertex 9.302097001242453 -2.8932394306525633 0
      vertex 9.302097001242453 -2.8932394306525633 4.7
      vertex 10.090022437852639 -2.839343854278736 0
    endloop
  endfacet
  facet normal -0.33487961217098555 0.9422609221188207 0
    outer loop
      vertex 10.090022437852639 -2.839343854278736 0
      vertex 10.090022437852639 -2.839343854278736 4.7
      vertex 10.834188609420341 -2.574867133366889 0
    endloop
  endfacet
  facet normal -0.5766803221148675 0.8169698930104418 0
    outer loop
      vertex 10.834188609420341 -2.574867133366889 0
      vertex 10.834188609420341 -2.574867133366889 4.7
      vertex 11.479404115334097 -2.11942429640656 0
    endloop
  endfacet
  facet normal -0.7757112907044198 0.6310879443260528 -3.3191718487734777e-18
    outer loop
      vertex 11.977816273184818 -1.5067934551027564 0
      vertex 11.479404115334097 -2.11942429640656 0
      vertex 11.479404115334097 -2.11942429640656 4.7
    endloop
  endfacet
  facet normal -0.9172113015054533 0.398401089846241 1.351331446368856e-18
    outer loop
      vertex 12.292460133308618 -0.7824106363553712 0
      vertex 11.977816273184818 -1.5067934551027564 0
      vertex 11.977816273184818 -1.5067934551027564 4.7
    endloop
  endfacet
  facet normal -0.9906859460363305 0.1361666490962473 0
    outer loop
      vertex 12.292460133308618 -0.7824106363553712 0
      vertex 12.292460133308618 -0.7824106363553712 4.7
      vertex 12.4 0 0
    endloop
  endfacet
  facet normal 0.20345601305263336 0.9790840876823229 0
    outer loop
      vertex 9.302097001242453 -2.8932394306525633 0
      vertex 8.52884912470414 -2.7325566741445795 4.7
      vertex 9.302097001242453 -2.8932394306525633 4.7
    endloop
  endfacet
  facet normal 0.6825531432186538 0.7308359642781244 0
    outer loop
      vertex 7.827627065866886 -2.369212689730282 0
      vertex 7.250437256957182 -1.830155038545553 4.7
      vertex 7.827627065866886 -2.369212689730282 4.7
    endloop
  endfacet
  facet normal 0.46006503773115276 0.887885218402375 0
    outer loop
      vertex 8.52884912470414 -2.7325566741445795 0
      vertex 7.827627065866886 -2.369212689730282 4.7
      vertex 8.52884912470414 -2.7325566741445795 4.7
    endloop
  endfacet
  facet normal 0.8544194045464881 0.5195839500354342 0
    outer loop
      vertex 7.250437256957182 -1.830155038545553 0
      vertex 6.840087225634186 -1.1553631605541004 4.7
      vertex 7.250437256957182 -1.830155038545553 4.7
    endloop
  endfacet
  facet normal 0.9629172873477998 0.2697967711570229 0
    outer loop
      vertex 6.840087225634186 -1.1553631605541004 0
      vertex 6.627010756494641 -0.3948832823791156 4.7
      vertex 6.840087225634186 -1.1553631605541004 4.7
    endloop
  endfacet
  facet normal 1 0 0
    outer loop
      vertex 6.627010756494641 -0.3948832823791156 4.7
      vertex 6.627010756494641 -0.3948832823791156 0
      vertex 6.627010756494641 0.3948832823791156 4.7
    endloop
  endfacet
  facet normal -0.06824241336467056 0.9976687691905393 0
    outer loop
      vertex 10.090022437852639 -2.839343854278736 0
      vertex 9.302097001242453 -2.8932394306525633 4.7
      vertex 10.090022437852639 -2.839343854278736 4.7
    endloop
  endfacet
  facet normal -0.33487961217098555 0.9422609221188207 0
    outer loop
      vertex 10.834188609420341 -2.574867133366889 0
      vertex 10.090022437852639 -2.839343854278736 4.7
      vertex 10.834188609420341 -2.574867133366889 4.7
    endloop
  endfacet
  facet normal -0.5766803221148675 0.8169698930104418 0
    outer loop
      vertex 11.479404115334097 -2.11942429640656 0
      vertex 10.834188609420341 -2.574867133366889 4.7
      vertex 11.479404115334097 -2.11942429640656 4.7
    endloop
  endfacet
  facet normal -0.7757112907044198 0.6310879443260528 0
    outer loop
      vertex 11.977816273184818 -1.5067934551027564 0
      vertex 11.479404115334097 -2.11942429640656 4.7
      vertex 11.977816273184818 -1.5067934551027564 4.7
    endloop
  endfacet
  facet normal -0.9172113015054533 0.398401089846241 0
    outer loop
      vertex 12.292460133308618 -0.7824106363553712 0
      vertex 11.977816273184818 -1.5067934551027564 4.7
      vertex 12.292460133308618 -0.7824106363553712 4.7
    endloop
  endfacet
  facet normal -0.9906859460363305 0.1361666490962473 0
    outer loop
      vertex 12.4 0 0
      vertex 12.292460133308618 -0.7824106363553712 4.7
      vertex 12.4 0 4.7
    endloop
  endfacet
  facet normal 1 0 0
    outer loop
      vertex 6.627010756494641 -0.3948832823791156 0
      vertex 6.627010756494641 0.3948832823791156 0
      vertex 6.627010756494641 0.3948832823791156 4.7
    endloop
  endfacet
  facet normal 0.9629172873477998 -0.2697967711570229 0
    outer loop
      vertex 6.840087225634186 1.1553631605541004 4.7
      vertex 6.627010756494641 0.3948832823791156 0
      vertex 6.840087225634186 1.1553631605541004 0
    endloop
  endfacet
  facet normal 0.8544194045464881 -0.5195839500354342 0
    outer loop
      vertex 7.250437256957182 1.830155038545553 4.7
      vertex 6.840087225634186 1.1553631605541004 0
      vertex 7.250437256957182 1.830155038545553 0
    endloop
  endfacet
  facet normal 0.6825531432186543 -0.7308359642781239 0
    outer loop
      vertex 7.827627065866885 2.369212689730282 4.7
      vertex 7.250437256957182 1.830155038545553 0
      vertex 7.827627065866885 2.369212689730282 0
    endloop
  endfacet
  facet normal 0.46006503773115226 -0.8878852184023751 0
    outer loop
      vertex 8.52884912470414 2.7325566741445795 4.7
      vertex 7.827627065866885 2.369212689730282 0
      vertex 8.52884912470414 2.7325566741445795 0
    endloop
  endfacet
  facet normal 0.20345601305263336 -0.9790840876823229 0
    outer loop
      vertex 9.302097001242453 2.8932394306525633 4.7
      vertex 8.52884912470414 2.7325566741445795 0
      vertex 9.302097001242453 2.8932394306525633 0
    endloop
  endfacet
  facet normal -0.7757112907044194 -0.6310879443260534 0
    outer loop
      vertex 11.977816273184818 1.5067934551027573 4.7
      vertex 11.479404115334097 2.11942429640656 0
      vertex 11.977816273184818 1.5067934551027573 0
    endloop
  endfacet
  facet normal -0.9906859460363305 -0.13616664909624743 9.34377199060203e-19
    outer loop
      vertex 12.292460133308618 0.7824106363553703 0
      vertex 12.4 0 0
      vertex 12.4 0 4.7
    endloop
  endfacet
  facet normal -0.9172113015054535 -0.3984010898462402 0
    outer loop
      vertex 12.292460133308618 0.7824106363553703 4.7
      vertex 11.977816273184818 1.5067934551027573 0
      vertex 12.292460133308618 0.7824106363553703 0
    endloop
  endfacet
  facet normal -0.5766803221148668 -0.8169698930104423 0
    outer loop
      vertex 11.479404115334097 2.11942429640656 4.7
      vertex 10.834188609420341 2.574867133366888 0
      vertex 11.479404115334097 2.11942429640656 0
    endloop
  endfacet
  facet normal -0.06824241336467056 -0.9976687691905393 0
    outer loop
      vertex 10.090022437852639 2.839343854278736 4.7
      vertex 9.302097001242453 2.8932394306525633 0
      vertex 10.090022437852639 2.839343854278736 0
    endloop
  endfacet
  facet normal -0.33487961217098655 -0.9422609221188204 0
    outer loop
      vertex 10.834188609420341 2.574867133366888 4.7
      vertex 10.090022437852639 2.839343854278736 0
      vertex 10.834188609420341 2.574867133366888 0
    endloop
  endfacet
  facet normal 0.9629172873477998 -0.2697967711570229 -1.6394920074361435e-18
    outer loop
      vertex 6.840087225634186 1.1553631605541004 4.7
      vertex 6.627010756494641 0.3948832823791156 4.7
      vertex 6.627010756494641 0.3948832823791156 0
    endloop
  endfacet
  facet normal 0.8544194045464881 -0.5195839500354342 4.414348231269824e-18
    outer loop
      vertex 7.250437256957182 1.830155038545553 4.7
      vertex 6.840087225634186 1.1553631605541004 4.7
      vertex 6.840087225634186 1.1553631605541004 0
    endloop
  endfacet
  facet normal 0.6825531432186543 -0.7308359642781239 0
    outer loop
      vertex 7.250437256957182 1.830155038545553 4.7
      vertex 7.250437256957182 1.830155038545553 0
      vertex 7.827627065866885 2.369212689730282 4.7
    endloop
  endfacet
  facet normal 0.46006503773115226 -0.8878852184023751 0
    outer loop
      vertex 7.827627065866885 2.369212689730282 4.7
      vertex 7.827627065866885 2.369212689730282 0
      vertex 8.52884912470414 2.7325566741445795 4.7
    endloop
  endfacet
  facet normal 0.20345601305263336 -0.9790840876823229 0
    outer loop
      vertex 8.52884912470414 2.7325566741445795 4.7
      vertex 8.52884912470414 2.7325566741445795 0
      vertex 9.302097001242453 2.8932394306525633 4.7
    endloop
  endfacet
  facet normal -0.9906859460363305 -0.13616664909624743 9.34377199060203e-19
    outer loop
      vertex 12.4 0 4.7
      vertex 12.292460133308618 0.7824106363553703 4.7
      vertex 12.292460133308618 0.7824106363553703 0
    endloop
  endfacet
  facet normal -0.9172113015054535 -0.3984010898462402 -2.3772905684273904e-18
    outer loop
      vertex 12.292460133308618 0.7824106363553703 4.7
      vertex 11.977816273184818 1.5067934551027573 4.7
      vertex 11.977816273184818 1.5067934551027573 0
    endloop
  endfacet
  facet normal -0.7757112907044194 -0.6310879443260534 2.93923541557132e-18
    outer loop
      vertex 11.977816273184818 1.5067934551027573 4.7
      vertex 11.479404115334097 2.11942429640656 4.7
      vertex 11.479404115334097 2.11942429640656 0
    endloop
  endfacet
  facet normal -0.5766803221148668 -0.8169698930104423 0
    outer loop
      vertex 10.834188609420341 2.574867133366888 4.7
      vertex 10.834188609420341 2.574867133366888 0
      vertex 11.479404115334097 2.11942429640656 4.7
    endloop
  endfacet
  facet normal -0.06824241336467056 -0.9976687691905393 0
    outer loop
      vertex 9.302097001242453 2.8932394306525633 4.7
      vertex 9.302097001242453 2.8932394306525633 0
      vertex 10.090022437852639 2.839343854278736 4.7
    endloop
  endfacet
  facet normal -0.33487961217098655 -0.9422609221188204 0
    outer loop
      vertex 10.090022437852639 2.839343854278736 4.7
      vertex 10.090022437852639 2.839343854278736 0
      vertex 10.834188609420341 2.574867133366888 4.7
    endloop
  endfacet
endsolid OpenSCAD_Model
