solid OpenSCAD_Model
  facet normal 0 0 -1
    outer loop
      vertex -8.559143493170717 -3.6836220717798147 0
      vertex -9 -3.4641016151377544 0
      vertex -8.094651960288331 -3.8473025726912766 0
    endloop
  endfacet
  facet normal 0 0 -1
    outer loop
      vertex -9 -3.4641016151377544 0
      vertex -9.410538545517026 -3.192068909120958 0
      vertex -9.784535783851707 -2.8716476922577674 0
    endloop
  endfacet
  facet normal 0 0 -1
    outer loop
      vertex -9 -3.4641016151377544 0
      vertex -10.116322298102682 -2.5076952235764254 0
      vertex -7.12318023422468 -3.9981028788534636 0
    endloop
  endfacet
  facet normal 0 0 -1
    outer loop
      vertex -9 -3.4641016151377544 0
      vertex -9.784535783851707 -2.8716476922577674 0
      vertex -10.116322298102682 -2.5076952235764254 0
    endloop
  endfacet
  facet normal 0 0 -1
    outer loop
      vertex -10.116322298102682 -2.5076952235764254 0
      vertex -10.400868542918458 -2.1057286515094225 0
      vertex -10.633861087278095 -1.6718413795471345 0
    endloop
  endfacet
  facet normal 0 0 -1
    outer loop
      vertex -10.116322298102682 -2.5076952235764254 0
      vertex -10.992413314948177 0.24624362453577145 0
      vertex -7.12318023422468 -3.9981028788534636 0
    endloop
  endfacet
  facet normal 0 0 -1
    outer loop
      vertex -9 -3.4641016151377544 0
      vertex -7.12318023422468 -3.9981028788534636 0
      vertex -8.094651960288331 -3.8473025726912766 0
    endloop
  endfacet
  facet normal 0 0 -1
    outer loop
      vertex -8.094651960288331 -3.8473025726912766 0
      vertex -7.12318023422468 -3.9981028788534636 0
      vertex -7.6135666195147405 -3.952661888325038 0
    endloop
  endfacet
  facet normal 0 0 -1
    outer loop
      vertex -7.12318023422468 -3.9981028788534636 0
      vertex -6.325 -1.4289419162443235 0
      vertex -5.8671595410279185 -1.6086310551000091 0
    endloop
  endfacet
  facet normal 0 0 -1
    outer loop
      vertex -7.12318023422468 -3.9981028788534636 0
      vertex -6.709535588519214 -1.1222850173220171 0
      vertex -6.325 -1.4289419162443235 0
    endloop
  endfacet
  facet normal 0 0 -1
    outer loop
      vertex -7.12318023422468 -3.9981028788534636 0
      vertex -5.8671595410279185 -1.6086310551000091 0
      vertex -5.3766953455824 -1.645386265348947 0
    endloop
  endfacet
  facet normal -0.44573835577653886 -0.8951632913550621 0
    outer loop
      vertex -8.559143493170717 -3.6836220717798147 0
      vertex -8.559143493170717 -3.6836220717798147 2.8
      vertex -9 -3.4641016151377544 0
    endloop
  endfacet
  facet normal -0.3323547994796599 -0.9431544344712773 0
    outer loop
      vertex -8.559143493170717 -3.6836220717798147 0
      vertex -8.094651960288331 -3.8473025726912766 0
      vertex -8.559143493170717 -3.6836220717798147 2.8
    endloop
  endfacet
  facet normal -0.5523649729605051 -0.83360238522112 -4.235380107261316e-18
    outer loop
      vertex -9 -3.4641016151377544 0
      vertex -9.410538545517026 -3.192068909120958 2.8
      vertex -9.410538545517026 -3.192068909120958 0
    endloop
  endfacet
  facet normal -0.6506183002042423 -0.759404916654707 0
    outer loop
      vertex -9.410538545517026 -3.192068909120958 0
      vertex -9.410538545517026 -3.192068909120958 2.8
      vertex -9.784535783851707 -2.8716476922577674 0
    endloop
  endfacet
  facet normal -0.7390089172206593 -0.673695643646557 0
    outer loop
      vertex -9.784535783851707 -2.8716476922577674 0
      vertex -9.784535783851707 -2.8716476922577674 2.8
      vertex -10.116322298102682 -2.5076952235764254 0
    endloop
  endfacet
  facet normal -0.8161969123562215 -0.5777738314082516 1.5890064854430177e-18
    outer loop
      vertex -10.116322298102682 -2.5076952235764254 0
      vertex -10.400868542918458 -2.1057286515094225 2.8
      vertex -10.400868542918458 -2.1057286515094225 0
    endloop
  endfacet
  facet normal -0.21393308320649698 -0.9768483177596009 -2.4157486812509245e-18
    outer loop
      vertex -8.094651960288331 -3.8473025726912766 0
      vertex -7.6135666195147405 -3.952661888325038 0
      vertex -7.6135666195147405 -3.952661888325038 2.8
    endloop
  endfacet
  facet normal -0.09226835946330156 -0.9957341762950347 -1.7166980203197663e-19
    outer loop
      vertex -7.6135666195147405 -3.952661888325038 0
      vertex -7.12318023422468 -3.9981028788534636 0
      vertex -7.12318023422468 -3.9981028788534636 2.8
    endloop
  endfacet
  facet normal 0 0 -1
    outer loop
      vertex -10.116322298102682 -2.5076952235764254 0
      vertex -10.633861087278095 -1.6718413795471345 0
      vertex -10.811768001708625 -1.2126106964521743 0
    endloop
  endfacet
  facet normal 0 0 -1
    outer loop
      vertex -10.116322298102682 -2.5076952235764254 0
      vertex -10.811768001708625 -1.2126106964521743 0
      vertex -10.992413314948177 0.24624362453577145 0
    endloop
  endfacet
  facet normal 0 0 -1
    outer loop
      vertex -7.12318023422468 -3.9981028788534636 0
      vertex -10.992413314948177 0.24624362453577145 0
      vertex -6.986598632038991 -0.7159081695439711 0
    endloop
  endfacet
  facet normal 0 0 -1
    outer loop
      vertex -10.811768001708625 -1.2126106964521743 0
      vertex -10.931892398735608 -0.7349980712662817 0
      vertex -10.992413314948177 -0.24624362453577145 0
    endloop
  endfacet
  facet normal 0 0 -1
    outer loop
      vertex -10.811768001708625 -1.2126106964521743 0
      vertex -10.992413314948177 -0.24624362453577145 0
      vertex -10.992413314948177 0.24624362453577145 0
    endloop
  endfacet
  facet normal 0 0 -1
    outer loop
      vertex -10.992413314948177 0.24624362453577145 0
      vertex -7.131570863271462 -0.24591973919068813 0
      vertex -6.986598632038991 -0.7159081695439711 0
    endloop
  endfacet
  facet normal 0 0 -1
    outer loop
      vertex -7.12318023422468 -3.9981028788534636 0
      vertex -6.986598632038991 -0.7159081695439711 0
      vertex -6.709535588519214 -1.1222850173220171 0
    endloop
  endfacet
  facet normal -0.8810121942857841 -0.4730935568360107 0
    outer loop
      vertex -10.400868542918458 -2.1057286515094225 0
      vertex -10.400868542918458 -2.1057286515094225 2.8
      vertex -10.633861087278095 -1.6718413795471345 0
    endloop
  endfacet
  facet normal -0.9324722294043571 -0.36124166618714937 -4.9511217466124205e-18
    outer loop
      vertex -10.633861087278095 -1.6718413795471345 0
      vertex -10.811768001708625 -1.2126106964521743 2.8
      vertex -10.811768001708625 -1.2126106964521743 0
    endloop
  endfacet
  facet normal -0.9697969360350087 -0.24391372010838028 -1.4824063080147195e-18
    outer loop
      vertex -10.811768001708625 -1.2126106964521743 0
      vertex -10.931892398735608 -0.7349980712662817 2.8
      vertex -10.931892398735608 -0.7349980712662817 0
    endloop
  endfacet
  facet normal -0.9924205096719358 -0.12288829066471421 0
    outer loop
      vertex -10.931892398735608 -0.7349980712662817 0
      vertex -10.931892398735608 -0.7349980712662817 2.8
      vertex -10.992413314948177 -0.24624362453577145 0
    endloop
  endfacet
  facet normal 0 0 -1
    outer loop
      vertex -7.12318023422468 -3.9981028788534636 0
      vertex -5.3766953455824 -1.645386265348947 0
      vertex 4.675 -1.4289419162443235 0
    endloop
  endfacet
  facet normal 0 0 -1
    outer loop
      vertex 4.675 -1.4289419162443235 0
      vertex -5.3766953455824 -1.645386265348947 0
      vertex -4.897187309795448 -1.5359416852629368 0
    endloop
  endfacet
  facet normal 0 0 -1
    outer loop
      vertex 4.675 -1.4289419162443235 0
      vertex -4.897187309795448 -1.5359416852629368 0
      vertex -4.47124182693309 -1.2900219460722493 0
    endloop
  endfacet
  facet normal 0 0 -1
    outer loop
      vertex -4.47124182693309 -1.2900219460722493 0
      vertex -4.1367060223786085 -0.9294780958049762 0
      vertex 4.675 -1.4289419162443235 0
    endloop
  endfacet
  facet normal 0 0 -1
    outer loop
      vertex -3.923304870452868 -0.48634603777799257 0
      vertex 4.013401367961009 -0.7159081695439711 0
      vertex -4.1367060223786085 -0.9294780958049762 0
    endloop
  endfacet
  facet normal 0 0 -1
    outer loop
      vertex -3.923304870452868 -0.48634603777799257 0
      vertex -3.85 0 0
      vertex 3.8684291367285377 -0.24591973919068813 0
    endloop
  endfacet
  facet normal -0.3323547994796599 -0.9431544344712773 0
    outer loop
      vertex -8.094651960288331 -3.8473025726912766 0
      vertex -8.094651960288331 -3.8473025726912766 2.8
      vertex -8.559143493170717 -3.6836220717798147 2.8
    endloop
  endfacet
  facet normal -0.44573835577653886 -0.8951632913550621 0
    outer loop
      vertex -9 -3.4641016151377544 0
      vertex -8.559143493170717 -3.6836220717798147 2.8
      vertex -9 -3.4641016151377544 2.8
    endloop
  endfacet
  facet normal -0.5523649729605051 -0.83360238522112 0
    outer loop
      vertex -9 -3.4641016151377544 0
      vertex -9 -3.4641016151377544 2.8
      vertex -9.410538545517026 -3.192068909120958 2.8
    endloop
  endfacet
  facet normal -0.6506183002042423 -0.759404916654707 0
    outer loop
      vertex -9.784535783851707 -2.8716476922577674 0
      vertex -9.410538545517026 -3.192068909120958 2.8
      vertex -9.784535783851707 -2.8716476922577674 2.8
    endloop
  endfacet
  facet normal -0.7390089172206593 -0.673695643646557 0
    outer loop
      vertex -10.116322298102682 -2.5076952235764254 0
      vertex -9.784535783851707 -2.8716476922577674 2.8
      vertex -10.116322298102682 -2.5076952235764254 2.8
    endloop
  endfacet
  facet normal -0.8161969123562215 -0.5777738314082516 0
    outer loop
      vertex -10.116322298102682 -2.5076952235764254 0
      vertex -10.116322298102682 -2.5076952235764254 2.8
      vertex -10.400868542918458 -2.1057286515094225 2.8
    endloop
  endfacet
  facet normal -0.21393308320649698 -0.9768483177596009 0
    outer loop
      vertex -8.094651960288331 -3.8473025726912766 0
      vertex -7.6135666195147405 -3.952661888325038 2.8
      vertex -8.094651960288331 -3.8473025726912766 2.8
    endloop
  endfacet
  facet normal -0.09226835946330156 -0.9957341762950347 0
    outer loop
      vertex -7.6135666195147405 -3.952661888325038 0
      vertex -7.12318023422468 -3.9981028788534636 2.8
      vertex -7.6135666195147405 -3.952661888325038 2.8
    endloop
  endfacet
  facet normal 0 0 1
    outer loop
      vertex -8.559143493170717 -3.6836220717798147 2.8
      vertex -7.12318023422468 -3.9981028788534636 2.8
      vertex -9.784535783851707 -2.8716476922577674 2.8
    endloop
  endfacet
  facet normal 0 0 1
    outer loop
      vertex -8.559143493170717 -3.6836220717798147 2.8
      vertex -9.410538545517026 -3.192068909120958 2.8
      vertex -9 -3.4641016151377544 2.8
    endloop
  endfacet
  facet normal 0 0 1
    outer loop
      vertex -8.559143493170717 -3.6836220717798147 2.8
      vertex -9.784535783851707 -2.8716476922577674 2.8
      vertex -9.410538545517026 -3.192068909120958 2.8
    endloop
  endfacet
  facet normal 0 0 1
    outer loop
      vertex -9.784535783851707 -2.8716476922577674 2.8
      vertex -10.811768001708625 -1.2126106964521743 2.8
      vertex -10.400868542918458 -2.1057286515094225 2.8
    endloop
  endfacet
  facet normal 0 0 1
    outer loop
      vertex -9.784535783851707 -2.8716476922577674 2.8
      vertex -10.400868542918458 -2.1057286515094225 2.8
      vertex -10.116322298102682 -2.5076952235764254 2.8
    endloop
  endfacet
  facet normal 0 0 1
    outer loop
      vertex -9.784535783851707 -2.8716476922577674 2.8
      vertex -7.12318023422468 -3.9981028788534636 2.8
      vertex -10.931892398735608 -0.7349980712662817 2.8
    endloop
  endfacet
  facet normal 0 0 1
    outer loop
      vertex -8.559143493170717 -3.6836220717798147 2.8
      vertex -8.094651960288331 -3.8473025726912766 2.8
      vertex -7.6135666195147405 -3.952661888325038 2.8
    endloop
  endfacet
  facet normal 0 0 1
    outer loop
      vertex -8.559143493170717 -3.6836220717798147 2.8
      vertex -7.6135666195147405 -3.952661888325038 2.8
      vertex -7.12318023422468 -3.9981028788534636 2.8
    endloop
  endfacet
  facet normal 0 0 1
    outer loop
      vertex -7.12318023422468 -3.9981028788534636 2.8
      vertex -5.8671595410279185 -1.6086310551000091 2.8
      vertex -6.325 -1.4289419162443235 2.8
    endloop
  endfacet
  facet normal 0 0 1
    outer loop
      vertex -7.12318023422468 -3.9981028788534636 2.8
      vertex -6.325 -1.4289419162443235 2.8
      vertex -6.709535588519214 -1.1222850173220171 2.8
    endloop
  endfacet
  facet normal 0 0 1
    outer loop
      vertex -7.12318023422468 -3.9981028788534636 2.8
      vertex -5.3766953455824 -1.645386265348947 2.8
      vertex -5.8671595410279185 -1.6086310551000091 2.8
    endloop
  endfacet
  facet normal 0 0 1
    outer loop
      vertex -7.12318023422468 -3.9981028788534636 2.8
      vertex -4.897187309795448 -1.5359416852629368 2.8
      vertex -5.3766953455824 -1.645386265348947 2.8
    endloop
  endfacet
  facet normal -0.8810121942857841 -0.4730935568360107 0
    outer loop
      vertex -10.633861087278095 -1.6718413795471345 0
      vertex -10.400868542918458 -2.1057286515094225 2.8
      vertex -10.633861087278095 -1.6718413795471345 2.8
    endloop
  endfacet
  facet normal -0.9324722294043571 -0.36124166618714937 0
    outer loop
      vertex -10.633861087278095 -1.6718413795471345 0
      vertex -10.633861087278095 -1.6718413795471345 2.8
      vertex -10.811768001708625 -1.2126106964521743 2.8
    endloop
  endfacet
  facet normal -0.9697969360350087 -0.24391372010838028 0
    outer loop
      vertex -10.811768001708625 -1.2126106964521743 0
      vertex -10.811768001708625 -1.2126106964521743 2.8
      vertex -10.931892398735608 -0.7349980712662817 2.8
    endloop
  endfacet
  facet normal -0.9924205096719358 -0.12288829066471421 0
    outer loop
      vertex -10.992413314948177 -0.24624362453577145 0
      vertex -10.931892398735608 -0.7349980712662817 2.8
      vertex -10.992413314948177 -0.24624362453577145 2.8
    endloop
  endfacet
  facet normal -1 0 0
    outer loop
      vertex -10.992413314948177 -0.24624362453577145 0
      vertex -10.992413314948177 -0.24624362453577145 2.8
      vertex -10.992413314948177 0.24624362453577145 2.8
    endloop
  endfacet
  facet normal 0 0 1
    outer loop
      vertex -10.400868542918458 -2.1057286515094225 2.8
      vertex -10.811768001708625 -1.2126106964521743 2.8
      vertex -10.633861087278095 -1.6718413795471345 2.8
    endloop
  endfacet
  facet normal 0 0 1
    outer loop
      vertex -9.784535783851707 -2.8716476922577674 2.8
      vertex -10.931892398735608 -0.7349980712662817 2.8
      vertex -10.811768001708625 -1.2126106964521743 2.8
    endloop
  endfacet
  facet normal 0 0 1
    outer loop
      vertex -10.931892398735608 -0.7349980712662817 2.8
      vertex -10.992413314948177 0.24624362453577145 2.8
      vertex -10.992413314948177 -0.24624362453577145 2.8
    endloop
  endfacet
  facet normal 0 0 1
    outer loop
      vertex -7.12318023422468 -3.9981028788534636 2.8
      vertex -9 3.4641016151377544 2.8
      vertex -10.931892398735608 -0.7349980712662817 2.8
    endloop
  endfacet
  facet normal 0 0 1
    outer loop
      vertex -7.12318023422468 -3.9981028788534636 2.8
      vertex -6.709535588519214 -1.1222850173220171 2.8
      vertex -6.986598632038991 -0.7159081695439711 2.8
    endloop
  endfacet
  facet normal 0 0 1
    outer loop
      vertex -7.12318023422468 -3.9981028788534636 2.8
      vertex -6.986598632038991 -0.7159081695439711 2.8
      vertex -7.131570863271462 -0.24591973919068813 2.8
    endloop
  endfacet
  facet normal 0 0 1
    outer loop
      vertex -7.12318023422468 -3.9981028788534636 2.8
      vertex -7.131570863271462 -0.24591973919068813 2.8
      vertex -9 3.4641016151377544 2.8
    endloop
  endfacet
  facet normal 0 -1 0
    outer loop
      vertex -7.12318023422468 -3.9981028788534636 0
      vertex 6.87681976577532 -3.9981028788534636 2.8
      vertex -7.12318023422468 -3.9981028788534636 2.8
    endloop
  endfacet
  facet normal 0 0 1
    outer loop
      vertex -7.12318023422468 -3.9981028788534636 2.8
      vertex 6.876819765775319 3.9981028788534636 2.8
      vertex -4.897187309795448 -1.5359416852629368 2.8
    endloop
  endfacet
  facet normal 0 0 -1
    outer loop
      vertex -10.992413314948177 0.24624362453577145 0
      vertex -10.931892398735608 0.7349980712662817 0
      vertex -10.633861087278095 1.6718413795471345 0
    endloop
  endfacet
  facet normal 0 0 -1
    outer loop
      vertex -10.992413314948177 0.24624362453577145 0
      vertex -7.131570863271462 0.24591973919068813 0
      vertex -7.131570863271462 -0.24591973919068813 0
    endloop
  endfacet
  facet normal 0 0 -1
    outer loop
      vertex -10.992413314948177 0.24624362453577145 0
      vertex -6.986598632038991 0.7159081695439711 0
      vertex -7.131570863271462 0.24591973919068813 0
    endloop
  endfacet
  facet normal 0 0 -1
    outer loop
      vertex -10.931892398735608 0.7349980712662817 0
      vertex -10.811768001708625 1.2126106964521743 0
      vertex -10.633861087278095 1.6718413795471345 0
    endloop
  endfacet
  facet normal 0 0 -1
    outer loop
      vertex -10.992413314948177 0.24624362453577145 0
      vertex -10.633861087278095 1.6718413795471345 0
      vertex -9.784535783851707 2.8716476922577674 0
    endloop
  endfacet
  facet normal 0 0 -1
    outer loop
      vertex -10.992413314948177 0.24624362453577145 0
      vertex -7.613566619514741 3.9526618883250375 0
      vertex -6.709535588519214 1.1222850173220171 0
    endloop
  endfacet
  facet normal 0 0 -1
    outer loop
      vertex -10.992413314948177 0.24624362453577145 0
      vertex -6.709535588519214 1.1222850173220171 0
      vertex -6.986598632038991 0.7159081695439711 0
    endloop
  endfacet
  facet normal -1 0 0
    outer loop
      vertex -10.992413314948177 -0.24624362453577145 0
      vertex -10.992413314948177 0.24624362453577145 2.8
      vertex -10.992413314948177 0.24624362453577145 0
    endloop
  endfacet
  facet normal -0.9924205096719358 0.12288829066471421 0
    outer loop
      vertex -10.992413314948177 0.24624362453577145 0
      vertex -10.992413314948177 0.24624362453577145 2.8
      vertex -10.931892398735608 0.7349980712662817 0
    endloop
  endfacet
  facet normal -0.9697969360350087 0.24391372010838028 1.4824063080147195e-18
    outer loop
      vertex -10.931892398735608 0.7349980712662817 0
      vertex -10.811768001708625 1.2126106964521743 2.8
      vertex -10.811768001708625 1.2126106964521743 0
    endloop
  endfacet
  facet normal -0.9324722294043571 0.36124166618714937 0
    outer loop
      vertex -10.811768001708625 1.2126106964521743 0
      vertex -10.811768001708625 1.2126106964521743 2.8
      vertex -10.633861087278095 1.6718413795471345 0
    endloop
  endfacet
  facet normal -0.8810121942857841 0.4730935568360107 4.983428782691546e-18
    outer loop
      vertex -10.633861087278095 1.6718413795471345 0
      vertex -10.400868542918458 2.1057286515094225 2.8
      vertex -10.400868542918458 2.1057286515094225 0
    endloop
  endfacet
  facet normal 0 0 -1
    outer loop
      vertex -10.633861087278095 1.6718413795471345 0
      vertex -10.400868542918458 2.1057286515094225 0
      vertex -10.116322298102682 2.5076952235764254 0
    endloop
  endfacet
  facet normal 0 0 -1
    outer loop
      vertex -10.633861087278095 1.6718413795471345 0
      vertex -10.116322298102682 2.5076952235764254 0
      vertex -9.784535783851707 2.8716476922577674 0
    endloop
  endfacet
  facet normal 0 0 -1
    outer loop
      vertex -10.992413314948177 0.24624362453577145 0
      vertex -9.784535783851707 2.8716476922577674 0
      vertex -7.613566619514741 3.9526618883250375 0
    endloop
  endfacet
  facet normal 0 0 -1
    outer loop
      vertex -9.784535783851707 2.8716476922577674 0
      vertex -9.410538545517026 3.192068909120958 0
      vertex -9 3.4641016151377544 0
    endloop
  endfacet
  facet normal 0 0 -1
    outer loop
      vertex -9.784535783851707 2.8716476922577674 0
      vertex -9 3.4641016151377544 0
      vertex -8.559143493170717 3.6836220717798147 0
    endloop
  endfacet
  facet normal 0 0 -1
    outer loop
      vertex -9.784535783851707 2.8716476922577674 0
      vertex -8.559143493170717 3.6836220717798147 0
      vertex -7.613566619514741 3.9526618883250375 0
    endloop
  endfacet
  facet normal 0 0 -1
    outer loop
      vertex -7.613566619514741 3.9526618883250375 0
      vertex -6.325 1.4289419162443235 0
      vertex -6.709535588519214 1.1222850173220171 0
    endloop
  endfacet
  facet normal 0 0 -1
    outer loop
      vertex -7.613566619514741 3.9526618883250375 0
      vertex -5.8671595410279185 1.608631055100009 0
      vertex -6.325 1.4289419162443235 0
    endloop
  endfacet
  facet normal 0 0 -1
    outer loop
      vertex -8.559143493170717 3.6836220717798147 0
      vertex -8.094651960288331 3.8473025726912766 0
      vertex -7.613566619514741 3.9526618883250375 0
    endloop
  endfacet
  facet normal -0.8161969123562215 0.5777738314082516 0
    outer loop
      vertex -10.400868542918458 2.1057286515094225 0
      vertex -10.400868542918458 2.1057286515094225 2.8
      vertex -10.116322298102682 2.5076952235764254 0
    endloop
  endfacet
  facet normal -0.7390089172206593 0.673695643646557 0
    outer loop
      vertex -10.116322298102682 2.5076952235764254 0
      vertex -10.116322298102682 2.5076952235764254 2.8
      vertex -9.784535783851707 2.8716476922577674 0
    endloop
  endfacet
  facet normal -0.6506183002042423 0.759404916654707 -4.0462752729886755e-18
    outer loop
      vertex -9.784535783851707 2.8716476922577674 0
      vertex -9.410538545517026 3.192068909120958 2.8
      vertex -9.410538545517026 3.192068909120958 0
    endloop
  endfacet
  facet normal -0.5523649729605051 0.83360238522112 0
    outer loop
      vertex -9.410538545517026 3.192068909120958 0
      vertex -9.410538545517026 3.192068909120958 2.8
      vertex -9 3.4641016151377544 0
    endloop
  endfacet
  facet normal -0.44573835577653886 0.8951632913550621 0
    outer loop
      vertex -9 3.4641016151377544 0
      vertex -9 3.4641016151377544 2.8
      vertex -8.559143493170717 3.6836220717798147 0
    endloop
  endfacet
  facet normal -0.3323547994796599 0.9431544344712773 2.8280936804816142e-18
    outer loop
      vertex -8.559143493170717 3.6836220717798147 0
      vertex -8.094651960288331 3.8473025726912766 2.8
      vertex -8.094651960288331 3.8473025726912766 0
    endloop
  endfacet
  facet normal -0.21393308320649648 0.9768483177596009 1.0296739681072794e-18
    outer loop
      vertex -8.094651960288331 3.8473025726912766 0
      vertex -7.613566619514741 3.9526618883250375 2.8
      vertex -7.613566619514741 3.9526618883250375 0
    endloop
  endfacet
  facet normal -0.09226835946330245 0.9957341762950345 -4.0837103723730055e-19
    outer loop
      vertex -7.613566619514741 3.9526618883250375 0
      vertex -7.123180234224681 3.9981028788534636 2.8
      vertex -7.123180234224681 3.9981028788534636 0
    endloop
  endfacet
  facet normal 0 0 -1
    outer loop
      vertex -3.923304870452868 0.4863460377779919 0
      vertex 3.8684291367285377 -0.24591973919068813 0
      vertex -3.85 0 0
    endloop
  endfacet
  facet normal 0 0 -1
    outer loop
      vertex -4.1367060223786085 0.9294780958049763 0
      vertex 4.013401367961009 0.7159081695439711 0
      vertex -3.923304870452868 0.4863460377779919 0
    endloop
  endfacet
  facet normal 0 0 -1
    outer loop
      vertex -4.47124182693309 1.290021946072249 0
      vertex 4.290464411480786 1.1222850173220171 0
      vertex -4.1367060223786085 0.9294780958049763 0
    endloop
  endfacet
  facet normal 0 0 -1
    outer loop
      vertex -4.47124182693309 1.290021946072249 0
      vertex -4.897187309795449 1.5359416852629368 0
      vertex 4.290464411480786 1.1222850173220171 0
    endloop
  endfacet
  facet normal 0 0 -1
    outer loop
      vertex 6.876819765775319 3.9981028788534636 0
      vertex -5.3766953455824 1.645386265348947 0
      vertex -5.8671595410279185 1.608631055100009 0
    endloop
  endfacet
  facet normal 0 0 -1
    outer loop
      vertex 6.876819765775319 3.9981028788534636 0
      vertex -4.897187309795449 1.5359416852629368 0
      vertex -5.3766953455824 1.645386265348947 0
    endloop
  endfacet
  facet normal 0 0 -1
    outer loop
      vertex -7.613566619514741 3.9526618883250375 0
      vertex 6.876819765775319 3.9981028788534636 0
      vertex -5.8671595410279185 1.608631055100009 0
    endloop
  endfacet
  facet normal 0 0 -1
    outer loop
      vertex -7.613566619514741 3.9526618883250375 0
      vertex -7.123180234224681 3.9981028788534636 0
      vertex 6.876819765775319 3.9981028788534636 0
    endloop
  endfacet
  facet normal 0 1 0
    outer loop
      vertex -7.123180234224681 3.9981028788534636 0
      vertex -7.123180234224681 3.9981028788534636 2.8
      vertex 6.876819765775319 3.9981028788534636 0
    endloop
  endfacet
  facet normal -0.9924205096719358 0.12288829066471421 0
    outer loop
      vertex -10.931892398735608 0.7349980712662817 0
      vertex -10.992413314948177 0.24624362453577145 2.8
      vertex -10.931892398735608 0.7349980712662817 2.8
    endloop
  endfacet
  facet normal -0.9697969360350087 0.24391372010838028 0
    outer loop
      vertex -10.931892398735608 0.7349980712662817 0
      vertex -10.931892398735608 0.7349980712662817 2.8
      vertex -10.811768001708625 1.2126106964521743 2.8
    endloop
  endfacet
  facet normal -0.9324722294043571 0.36124166618714937 0
    outer loop
      vertex -10.633861087278095 1.6718413795471345 0
      vertex -10.811768001708625 1.2126106964521743 2.8
      vertex -10.633861087278095 1.6718413795471345 2.8
    endloop
  endfacet
  facet normal -0.8810121942857841 0.4730935568360107 0
    outer loop
      vertex -10.633861087278095 1.6718413795471345 0
      vertex -10.633861087278095 1.6718413795471345 2.8
      vertex -10.400868542918458 2.1057286515094225 2.8
    endloop
  endfacet
  facet normal 0 0 1
    outer loop
      vertex -10.931892398735608 -0.7349980712662817 2.8
      vertex -10.931892398735608 0.7349980712662817 2.8
      vertex -10.992413314948177 0.24624362453577145 2.8
    endloop
  endfacet
  facet normal 0 0 1
    outer loop
      vertex -10.931892398735608 -0.7349980712662817 2.8
      vertex -10.633861087278095 1.6718413795471345 2.8
      vertex -10.931892398735608 0.7349980712662817 2.8
    endloop
  endfacet
  facet normal 0 0 1
    outer loop
      vertex -10.931892398735608 0.7349980712662817 2.8
      vertex -10.633861087278095 1.6718413795471345 2.8
      vertex -10.811768001708625 1.2126106964521743 2.8
    endloop
  endfacet
  facet normal 0 0 1
    outer loop
      vertex -10.931892398735608 -0.7349980712662817 2.8
      vertex -9 3.4641016151377544 2.8
      vertex -10.633861087278095 1.6718413795471345 2.8
    endloop
  endfacet
  facet normal 0 0 1
    outer loop
      vertex -9 3.4641016151377544 2.8
      vertex -7.131570863271462 -0.24591973919068813 2.8
      vertex -7.131570863271462 0.24591973919068813 2.8
    endloop
  endfacet
  facet normal 0 0 1
    outer loop
      vertex -9 3.4641016151377544 2.8
      vertex -7.131570863271462 0.24591973919068813 2.8
      vertex -6.986598632038991 0.7159081695439711 2.8
    endloop
  endfacet
  facet normal 0 0 1
    outer loop
      vertex -9 3.4641016151377544 2.8
      vertex -6.986598632038991 0.7159081695439711 2.8
      vertex -6.709535588519214 1.1222850173220171 2.8
    endloop
  endfacet
  facet normal -0.8161969123562215 0.5777738314082516 0
    outer loop
      vertex -10.116322298102682 2.5076952235764254 0
      vertex -10.400868542918458 2.1057286515094225 2.8
      vertex -10.116322298102682 2.5076952235764254 2.8
    endloop
  endfacet
  facet normal -0.7390089172206593 0.673695643646557 0
    outer loop
      vertex -9.784535783851707 2.8716476922577674 0
      vertex -10.116322298102682 2.5076952235764254 2.8
      vertex -9.784535783851707 2.8716476922577674 2.8
    endloop
  endfacet
  facet normal -0.6506183002042423 0.759404916654707 0
    outer loop
      vertex -9.784535783851707 2.8716476922577674 0
      vertex -9.784535783851707 2.8716476922577674 2.8
      vertex -9.410538545517026 3.192068909120958 2.8
    endloop
  endfacet
  facet normal -0.5523649729605051 0.83360238522112 0
    outer loop
      vertex -9 3.4641016151377544 0
      vertex -9.410538545517026 3.192068909120958 2.8
      vertex -9 3.4641016151377544 2.8
    endloop
  endfacet
  facet normal -0.44573835577653886 0.8951632913550621 0
    outer loop
      vertex -8.559143493170717 3.6836220717798147 0
      vertex -9 3.4641016151377544 2.8
      vertex -8.559143493170717 3.6836220717798147 2.8
    endloop
  endfacet
  facet normal -0.3323547994796599 0.9431544344712773 0
    outer loop
      vertex -8.559143493170717 3.6836220717798147 0
      vertex -8.559143493170717 3.6836220717798147 2.8
      vertex -8.094651960288331 3.8473025726912766 2.8
    endloop
  endfacet
  facet normal -0.21393308320649648 0.9768483177596009 0
    outer loop
      vertex -8.094651960288331 3.8473025726912766 0
      vertex -8.094651960288331 3.8473025726912766 2.8
      vertex -7.613566619514741 3.9526618883250375 2.8
    endloop
  endfacet
  facet normal -0.09226835946330245 0.9957341762950345 0
    outer loop
      vertex -7.613566619514741 3.9526618883250375 0
      vertex -7.613566619514741 3.9526618883250375 2.8
      vertex -7.123180234224681 3.9981028788534636 2.8
    endloop
  endfacet
  facet normal 0 0 1
    outer loop
      vertex -10.633861087278095 1.6718413795471345 2.8
      vertex -10.116322298102682 2.5076952235764254 2.8
      vertex -10.400868542918458 2.1057286515094225 2.8
    endloop
  endfacet
  facet normal 0 0 1
    outer loop
      vertex -10.633861087278095 1.6718413795471345 2.8
      vertex -9.784535783851707 2.8716476922577674 2.8
      vertex -10.116322298102682 2.5076952235764254 2.8
    endloop
  endfacet
  facet normal 0 0 1
    outer loop
      vertex -10.633861087278095 1.6718413795471345 2.8
      vertex -9 3.4641016151377544 2.8
      vertex -9.784535783851707 2.8716476922577674 2.8
    endloop
  endfacet
  facet normal 0 0 1
    outer loop
      vertex -9.784535783851707 2.8716476922577674 2.8
      vertex -9 3.4641016151377544 2.8
      vertex -9.410538545517026 3.192068909120958 2.8
    endloop
  endfacet
  facet normal 0 0 1
    outer loop
      vertex -9 3.4641016151377544 2.8
      vertex -8.094651960288331 3.8473025726912766 2.8
      vertex -8.559143493170717 3.6836220717798147 2.8
    endloop
  endfacet
  facet normal 0 0 1
    outer loop
      vertex -9 3.4641016151377544 2.8
      vertex -6.709535588519214 1.1222850173220171 2.8
      vertex -6.325 1.4289419162443235 2.8
    endloop
  endfacet
  facet normal 0 0 1
    outer loop
      vertex -9 3.4641016151377544 2.8
      vertex -6.325 1.4289419162443235 2.8
      vertex -5.8671595410279185 1.608631055100009 2.8
    endloop
  endfacet
  facet normal 0 0 1
    outer loop
      vertex -9 3.4641016151377544 2.8
      vertex -5.8671595410279185 1.608631055100009 2.8
      vertex -5.3766953455824 1.645386265348947 2.8
    endloop
  endfacet
  facet normal 0 0 1
    outer loop
      vertex -9 3.4641016151377544 2.8
      vertex -5.3766953455824 1.645386265348947 2.8
      vertex -4.897187309795449 1.5359416852629368 2.8
    endloop
  endfacet
  facet normal 0 0 1
    outer loop
      vertex -9 3.4641016151377544 2.8
      vertex -7.123180234224681 3.9981028788534636 2.8
      vertex -8.094651960288331 3.8473025726912766 2.8
    endloop
  endfacet
  facet normal 0 0 1
    outer loop
      vertex -8.094651960288331 3.8473025726912766 2.8
      vertex -7.123180234224681 3.9981028788534636 2.8
      vertex -7.613566619514741 3.9526618883250375 2.8
    endloop
  endfacet
  facet normal 0 0 1
    outer loop
      vertex 6.876819765775319 3.9981028788534636 2.8
      vertex -4.47124182693309 -1.2900219460722493 2.8
      vertex -4.897187309795448 -1.5359416852629368 2.8
    endloop
  endfacet
  facet normal 0 0 1
    outer loop
      vertex 6.876819765775319 3.9981028788534636 2.8
      vertex -4.1367060223786085 -0.9294780958049762 2.8
      vertex -4.47124182693309 -1.2900219460722493 2.8
    endloop
  endfacet
  facet normal 0 0 1
    outer loop
      vertex 6.876819765775319 3.9981028788534636 2.8
      vertex -3.923304870452868 -0.48634603777799257 2.8
      vertex -4.1367060223786085 -0.9294780958049762 2.8
    endloop
  endfacet
  facet normal 0 0 1
    outer loop
      vertex 6.876819765775319 3.9981028788534636 2.8
      vertex -3.85 0 2.8
      vertex -3.923304870452868 -0.48634603777799257 2.8
    endloop
  endfacet
  facet normal 0 0 1
    outer loop
      vertex 6.876819765775319 3.9981028788534636 2.8
      vertex -3.923304870452868 0.4863460377779919 2.8
      vertex -3.85 0 2.8
    endloop
  endfacet
  facet normal 0 0 1
    outer loop
      vertex 6.876819765775319 3.9981028788534636 2.8
      vertex -4.1367060223786085 0.9294780958049763 2.8
      vertex -3.923304870452868 0.4863460377779919 2.8
    endloop
  endfacet
  facet normal 0 0 1
    outer loop
      vertex -9 3.4641016151377544 2.8
      vertex 6.876819765775319 3.9981028788534636 2.8
      vertex -7.123180234224681 3.9981028788534636 2.8
    endloop
  endfacet
  facet normal 0 0 1
    outer loop
      vertex 6.876819765775319 3.9981028788534636 2.8
      vertex -4.897187309795449 1.5359416852629368 2.8
      vertex -4.47124182693309 1.290021946072249 2.8
    endloop
  endfacet
  facet normal 0 0 1
    outer loop
      vertex 6.876819765775319 3.9981028788534636 2.8
      vertex -4.47124182693309 1.290021946072249 2.8
      vertex -4.1367060223786085 0.9294780958049763 2.8
    endloop
  endfacet
  facet normal 0 0 1
    outer loop
      vertex -9 3.4641016151377544 2.8
      vertex -4.897187309795449 1.5359416852629368 2.8
      vertex 6.876819765775319 3.9981028788534636 2.8
    endloop
  endfacet
  facet normal 0 0 -1
    outer loop
      vertex -7.12318023422468 -3.9981028788534636 0
      vertex 5.6233046544176 -1.645386265348947 0
      vertex 8.782953423106155 -3.5806531654202485 0
    endloop
  endfacet
  facet normal 0 0 -1
    outer loop
      vertex -7.12318023422468 -3.9981028788534636 0
      vertex 4.675 -1.4289419162443235 0
      vertex 5.1328404589720815 -1.6086310551000091 0
    endloop
  endfacet
  facet normal 0 0 -1
    outer loop
      vertex -7.12318023422468 -3.9981028788534636 0
      vertex 5.1328404589720815 -1.6086310551000091 0
      vertex 5.6233046544176 -1.645386265348947 0
    endloop
  endfacet
  facet normal 0 0 -1
    outer loop
      vertex -7.12318023422468 -3.9981028788534636 0
      vertex 8.782953423106155 -3.5806531654202485 0
      vertex 6.87681976577532 -3.9981028788534636 0
    endloop
  endfacet
  facet normal 0 -1 0
    outer loop
      vertex -7.12318023422468 -3.9981028788534636 0
      vertex 6.87681976577532 -3.9981028788534636 0
      vertex 6.87681976577532 -3.9981028788534636 2.8
    endloop
  endfacet
  facet normal 0 0 -1
    outer loop
      vertex -4.1367060223786085 -0.9294780958049762 0
      vertex 4.290464411480786 -1.1222850173220171 0
      vertex 4.675 -1.4289419162443235 0
    endloop
  endfacet
  facet normal 0 0 -1
    outer loop
      vertex -3.923304870452868 -0.48634603777799257 0
      vertex 3.8684291367285377 -0.24591973919068813 0
      vertex 4.013401367961009 -0.7159081695439711 0
    endloop
  endfacet
  facet normal 0 0 -1
    outer loop
      vertex -4.1367060223786085 -0.9294780958049762 0
      vertex 4.013401367961009 -0.7159081695439711 0
      vertex 4.290464411480786 -1.1222850173220171 0
    endloop
  endfacet
  facet normal 0 0 -1
    outer loop
      vertex 6.87681976577532 -3.9981028788534636 0
      vertex 7.855732332825991 -3.9073932710384027 0
      vertex 7.369073437853209 -3.982936705180138 0
    endloop
  endfacet
  facet normal 0 0 -1
    outer loop
      vertex 6.87681976577532 -3.9981028788534636 0
      vertex 8.782953423106155 -3.5806531654202485 0
      vertex 7.855732332825991 -3.9073932710384027 0
    endloop
  endfacet
  facet normal 0 0 -1
    outer loop
      vertex 8.782953423106155 -3.5806531654202485 0
      vertex 5.6233046544176 -1.645386265348947 0
      vertex 6.102812690204552 -1.5359416852629368 0
    endloop
  endfacet
  facet normal 0 0 -1
    outer loop
      vertex 8.782953423106155 -3.5806531654202485 0
      vertex 6.102812690204552 -1.5359416852629368 0
      vertex 6.52875817306691 -1.2900219460722493 0
    endloop
  endfacet
  facet normal 0 0 -1
    outer loop
      vertex 7.855732332825991 -3.9073932710384027 0
      vertex 8.782953423106155 -3.5806531654202485 0
      vertex 8.32941919791864 -3.7726177378851093 0
    endloop
  endfacet
  facet normal 0 0 -1
    outer loop
      vertex 8.782953423106155 -3.5806531654202485 0
      vertex 9.956035668882635 -2.6947825745862297 0
      vertex 9.209459891842021 -3.334409540884479 0
    endloop
  endfacet
  facet normal 0 0 -1
    outer loop
      vertex 9.209459891842021 -3.334409540884479 0
      vertex 9.956035668882635 -2.6947825745862297 0
      vertex 9.602473200816966 -3.0376196666188293 0
    endloop
  endfacet
  facet normal 0 0 -1
    outer loop
      vertex 8.782953423106155 -3.5806531654202485 0
      vertex 10.729888917617423 -1.4449666647486124 0
      vertex 9.956035668882635 -2.6947825745862297 0
    endloop
  endfacet
  facet normal 0 0 -1
    outer loop
      vertex 9.956035668882635 -2.6947825745862297 0
      vertex 10.729888917617423 -1.4449666647486124 0
      vertex 10.264787649424886 -2.3110953256330053 0
    endloop
  endfacet
  facet normal 0.03079505855617102 -0.9995257197133659 -1.937136230340647e-19
    outer loop
      vertex 6.87681976577532 -3.9981028788534636 0
      vertex 7.369073437853209 -3.982936705180138 0
      vertex 7.369073437853209 -3.982936705180138 2.8
    endloop
  endfacet
  facet normal 0.153391654878685 -0.9881654720812595 0
    outer loop
      vertex 7.369073437853209 -3.982936705180138 0
      vertex 7.855732332825991 -3.9073932710384027 0
      vertex 7.369073437853209 -3.982936705180138 2.8
    endloop
  endfacet
  facet normal 0.27366299007208406 -0.9618256431728187 -1.9112972021277624e-18
    outer loop
      vertex 7.855732332825991 -3.9073932710384027 0
      vertex 8.32941919791864 -3.7726177378851093 0
      vertex 8.32941919791864 -3.7726177378851093 2.8
    endloop
  endfacet
  facet normal 0.3897858732926787 -0.920905517944954 0
    outer loop
      vertex 8.32941919791864 -3.7726177378851093 0
      vertex 8.782953423106155 -3.5806531654202485 0
      vertex 8.32941919791864 -3.7726177378851093 2.8
    endloop
  endfacet
  facet normal 0.500000000000001 -0.866025403784438 -2.8138477055005888e-18
    outer loop
      vertex 8.782953423106155 -3.5806531654202485 0
      vertex 9.209459891842021 -3.334409540884479 0
      vertex 9.209459891842021 -3.334409540884479 2.8
    endloop
  endfacet
  facet normal 0.6026346363792568 -0.7980172272802392 5.024589984163177e-18
    outer loop
      vertex 9.209459891842021 -3.334409540884479 0
      vertex 9.602473200816966 -3.0376196666188293 0
      vertex 9.602473200816966 -3.0376196666188293 2.8
    endloop
  endfacet
  facet normal 0.6961339459629263 -0.7179119230644422 0
    outer loop
      vertex 9.602473200816966 -3.0376196666188293 0
      vertex 9.956035668882635 -2.6947825745862297 0
      vertex 9.602473200816966 -3.0376196666188293 2.8
    endloop
  endfacet
  facet normal 0.7790805745256698 -0.6269238058941075 1.0170732288271285e-18
    outer loop
      vertex 9.956035668882635 -2.6947825745862297 0
      vertex 10.264787649424886 -2.3110953256330053 0
      vertex 10.264787649424886 -2.3110953256330053 2.8
    endloop
  endfacet
  facet normal 0.8502171357296133 -0.5264321628773571 1.3316843462828431e-18
    outer loop
      vertex 10.264787649424886 -2.3110953256330053 0
      vertex 10.524048777143138 -1.892374227344041 0
      vertex 10.524048777143138 -1.892374227344041 2.8
    endloop
  endfacet
  facet normal 0 0 -1
    outer loop
      vertex 8.782953423106155 -3.5806531654202485 0
      vertex 6.52875817306691 -1.2900219460722493 0
      vertex 6.8632939776213915 -0.9294780958049762 0
    endloop
  endfacet
  facet normal 0 0 -1
    outer loop
      vertex 8.782953423106155 -3.5806531654202485 0
      vertex 6.8632939776213915 -0.9294780958049762 0
      vertex 7.076695129547132 -0.48634603777799257 0
    endloop
  endfacet
  facet normal 0 0 -1
    outer loop
      vertex 8.782953423106155 -3.5806531654202485 0
      vertex 7.076695129547132 -0.48634603777799257 0
      vertex 11 0 0
    endloop
  endfacet
  facet normal 0 0 -1
    outer loop
      vertex 8.782953423106155 -3.5806531654202485 0
      vertex 11 0 0
      vertex 10.729888917617423 -1.4449666647486124 0
    endloop
  endfacet
  facet normal 0 0 -1
    outer loop
      vertex 10.264787649424886 -2.3110953256330053 0
      vertex 10.729888917617423 -1.4449666647486124 0
      vertex 10.524048777143138 -1.892374227344041 0
    endloop
  endfacet
  facet normal 0 0 -1
    outer loop
      vertex 11 0 0
      vertex 7.076695129547132 -0.48634603777799257 0
      vertex 7.15 0 0
    endloop
  endfacet
  facet normal 0 0 -1
    outer loop
      vertex 10.729888917617423 -1.4449666647486124 0
      vertex 11 0 0
      vertex 10.879187744140038 -0.975654880433509 0
    endloop
  endfacet
  facet normal 0 0 -1
    outer loop
      vertex 10.879187744140038 -0.975654880433509 0
      vertex 11 0 0
      vertex 10.969682038687743 -0.4915531626588567 0
    endloop
  endfacet
  facet normal 0.908465271819524 -0.41796034488678285 0
    outer loop
      vertex 10.524048777143138 -1.892374227344041 0
      vertex 10.729888917617423 -1.4449666647486124 0
      vertex 10.524048777143138 -1.892374227344041 2.8
    endloop
  endfacet
  facet normal 0.9529420004271559 -0.30315267411304514 0
    outer loop
      vertex 10.729888917617423 -1.4449666647486124 0
      vertex 10.879187744140038 -0.975654880433509 0
      vertex 10.729888917617423 -1.4449666647486124 2.8
    endloop
  endfacet
  facet normal 0.9829730996839018 -0.18374951781656992 -6.767359045238111e-19
    outer loop
      vertex 10.879187744140038 -0.975654880433509 0
      vertex 10.969682038687743 -0.4915531626588567 0
      vertex 10.969682038687743 -0.4915531626588567 2.8
    endloop
  endfacet
  facet normal 0.9981033287370441 -0.06156090613394209 0
    outer loop
      vertex 10.969682038687743 -0.4915531626588567 0
      vertex 11 0 0
      vertex 10.969682038687743 -0.4915531626588567 2.8
    endloop
  endfacet
  facet normal 0 0 1
    outer loop
      vertex -7.12318023422468 -3.9981028788534636 2.8
      vertex 8.782953423106155 -3.5806531654202485 2.8
      vertex 5.6233046544176 -1.645386265348947 2.8
    endloop
  endfacet
  facet normal 0 0 1
    outer loop
      vertex -7.12318023422468 -3.9981028788534636 2.8
      vertex 4.675 -1.4289419162443235 2.8
      vertex 4.290464411480786 -1.1222850173220171 2.8
    endloop
  endfacet
  facet normal 0 0 1
    outer loop
      vertex -7.12318023422468 -3.9981028788534636 2.8
      vertex 5.1328404589720815 -1.6086310551000091 2.8
      vertex 4.675 -1.4289419162443235 2.8
    endloop
  endfacet
  facet normal 0 0 1
    outer loop
      vertex -7.12318023422468 -3.9981028788534636 2.8
      vertex 5.6233046544176 -1.645386265348947 2.8
      vertex 5.1328404589720815 -1.6086310551000091 2.8
    endloop
  endfacet
  facet normal 0 0 1
    outer loop
      vertex -7.12318023422468 -3.9981028788534636 2.8
      vertex 6.87681976577532 -3.9981028788534636 2.8
      vertex 8.782953423106155 -3.5806531654202485 2.8
    endloop
  endfacet
  facet normal 0 0 1
    outer loop
      vertex -7.12318023422468 -3.9981028788534636 2.8
      vertex 4.290464411480786 -1.1222850173220171 2.8
      vertex 4.013401367961009 -0.7159081695439711 2.8
    endloop
  endfacet
  facet normal 0 0 1
    outer loop
      vertex -7.12318023422468 -3.9981028788534636 2.8
      vertex 4.013401367961009 -0.7159081695439711 2.8
      vertex 3.8684291367285377 -0.24591973919068813 2.8
    endloop
  endfacet
  facet normal 0 0 1
    outer loop
      vertex -7.12318023422468 -3.9981028788534636 2.8
      vertex 3.8684291367285377 -0.24591973919068813 2.8
      vertex 3.8684291367285377 0.24591973919068813 2.8
    endloop
  endfacet
  facet normal 0 0 1
    outer loop
      vertex -7.12318023422468 -3.9981028788534636 2.8
      vertex 3.8684291367285377 0.24591973919068813 2.8
      vertex 4.013401367961009 0.7159081695439711 2.8
    endloop
  endfacet
  facet normal 0 0 1
    outer loop
      vertex -7.12318023422468 -3.9981028788534636 2.8
      vertex 4.013401367961009 0.7159081695439711 2.8
      vertex 4.290464411480786 1.1222850173220171 2.8
    endloop
  endfacet
  facet normal 0.03079505855617102 -0.9995257197133659 0
    outer loop
      vertex 6.87681976577532 -3.9981028788534636 0
      vertex 7.369073437853209 -3.982936705180138 2.8
      vertex 6.87681976577532 -3.9981028788534636 2.8
    endloop
  endfacet
  facet normal 0.153391654878685 -0.9881654720812595 0
    outer loop
      vertex 7.855732332825991 -3.9073932710384027 0
      vertex 7.855732332825991 -3.9073932710384027 2.8
      vertex 7.369073437853209 -3.982936705180138 2.8
    endloop
  endfacet
  facet normal 0.27366299007208406 -0.9618256431728187 0
    outer loop
      vertex 7.855732332825991 -3.9073932710384027 0
      vertex 8.32941919791864 -3.7726177378851093 2.8
      vertex 7.855732332825991 -3.9073932710384027 2.8
    endloop
  endfacet
  facet normal 0.3897858732926787 -0.920905517944954 0
    outer loop
      vertex 8.782953423106155 -3.5806531654202485 0
      vertex 8.782953423106155 -3.5806531654202485 2.8
      vertex 8.32941919791864 -3.7726177378851093 2.8
    endloop
  endfacet
  facet normal 0.500000000000001 -0.866025403784438 0
    outer loop
      vertex 8.782953423106155 -3.5806531654202485 0
      vertex 9.209459891842021 -3.334409540884479 2.8
      vertex 8.782953423106155 -3.5806531654202485 2.8
    endloop
  endfacet
  facet normal 0.6026346363792568 -0.7980172272802392 0
    outer loop
      vertex 9.209459891842021 -3.334409540884479 0
      vertex 9.602473200816966 -3.0376196666188293 2.8
      vertex 9.209459891842021 -3.334409540884479 2.8
    endloop
  endfacet
  facet normal 0.6961339459629263 -0.7179119230644422 0
    outer loop
      vertex 9.956035668882635 -2.6947825745862297 0
      vertex 9.956035668882635 -2.6947825745862297 2.8
      vertex 9.602473200816966 -3.0376196666188293 2.8
    endloop
  endfacet
  facet normal 0.7790805745256698 -0.6269238058941075 0
    outer loop
      vertex 9.956035668882635 -2.6947825745862297 0
      vertex 10.264787649424886 -2.3110953256330053 2.8
      vertex 9.956035668882635 -2.6947825745862297 2.8
    endloop
  endfacet
  facet normal 0.8502171357296133 -0.5264321628773571 0
    outer loop
      vertex 10.264787649424886 -2.3110953256330053 0
      vertex 10.524048777143138 -1.892374227344041 2.8
      vertex 10.264787649424886 -2.3110953256330053 2.8
    endloop
  endfacet
  facet normal 0 0 1
    outer loop
      vertex 6.87681976577532 -3.9981028788534636 2.8
      vertex 7.369073437853209 -3.982936705180138 2.8
      vertex 7.855732332825991 -3.9073932710384027 2.8
    endloop
  endfacet
  facet normal 0 0 1
    outer loop
      vertex 6.87681976577532 -3.9981028788534636 2.8
      vertex 7.855732332825991 -3.9073932710384027 2.8
      vertex 8.782953423106155 -3.5806531654202485 2.8
    endloop
  endfacet
  facet normal 0 0 1
    outer loop
      vertex 8.782953423106155 -3.5806531654202485 2.8
      vertex 6.102812690204552 -1.5359416852629368 2.8
      vertex 5.6233046544176 -1.645386265348947 2.8
    endloop
  endfacet
  facet normal 0 0 1
    outer loop
      vertex 8.782953423106155 -3.5806531654202485 2.8
      vertex 6.52875817306691 -1.2900219460722493 2.8
      vertex 6.102812690204552 -1.5359416852629368 2.8
    endloop
  endfacet
  facet normal 0 0 1
    outer loop
      vertex 7.855732332825991 -3.9073932710384027 2.8
      vertex 8.32941919791864 -3.7726177378851093 2.8
      vertex 8.782953423106155 -3.5806531654202485 2.8
    endloop
  endfacet
  facet normal 0 0 1
    outer loop
      vertex 8.782953423106155 -3.5806531654202485 2.8
      vertex 9.209459891842021 -3.334409540884479 2.8
      vertex 9.956035668882635 -2.6947825745862297 2.8
    endloop
  endfacet
  facet normal 0 0 1
    outer loop
      vertex 9.209459891842021 -3.334409540884479 2.8
      vertex 9.602473200816966 -3.0376196666188293 2.8
      vertex 9.956035668882635 -2.6947825745862297 2.8
    endloop
  endfacet
  facet normal 0 0 1
    outer loop
      vertex 8.782953423106155 -3.5806531654202485 2.8
      vertex 9.956035668882635 -2.6947825745862297 2.8
      vertex 10.729888917617423 -1.4449666647486124 2.8
    endloop
  endfacet
  facet normal 0 0 1
    outer loop
      vertex 9.956035668882635 -2.6947825745862297 2.8
      vertex 10.264787649424886 -2.3110953256330053 2.8
      vertex 10.729888917617423 -1.4449666647486124 2.8
    endloop
  endfacet
  facet normal 0.908465271819524 -0.41796034488678285 0
    outer loop
      vertex 10.729888917617423 -1.4449666647486124 0
      vertex 10.729888917617423 -1.4449666647486124 2.8
      vertex 10.524048777143138 -1.892374227344041 2.8
    endloop
  endfacet
  facet normal 0.9529420004271559 -0.30315267411304514 0
    outer loop
      vertex 10.879187744140038 -0.975654880433509 0
      vertex 10.879187744140038 -0.975654880433509 2.8
      vertex 10.729888917617423 -1.4449666647486124 2.8
    endloop
  endfacet
  facet normal 0.9829730996839018 -0.18374951781656992 0
    outer loop
      vertex 10.879187744140038 -0.975654880433509 0
      vertex 10.969682038687743 -0.4915531626588567 2.8
      vertex 10.879187744140038 -0.975654880433509 2.8
    endloop
  endfacet
  facet normal 0.9981033287370441 -0.06156090613394209 -3.341836228229363e-19
    outer loop
      vertex 10.969682038687743 -0.4915531626588567 2.8
      vertex 11 0 0
      vertex 11 0 2.8
    endloop
  endfacet
  facet normal 0 0 1
    outer loop
      vertex 8.782953423106155 -3.5806531654202485 2.8
      vertex 6.8632939776213915 -0.9294780958049762 2.8
      vertex 6.52875817306691 -1.2900219460722493 2.8
    endloop
  endfacet
  facet normal 0 0 1
    outer loop
      vertex 8.782953423106155 -3.5806531654202485 2.8
      vertex 7.076695129547132 -0.48634603777799257 2.8
      vertex 6.8632939776213915 -0.9294780958049762 2.8
    endloop
  endfacet
  facet normal 0 0 1
    outer loop
      vertex 8.782953423106155 -3.5806531654202485 2.8
      vertex 7.15 0 2.8
      vertex 7.076695129547132 -0.48634603777799257 2.8
    endloop
  endfacet
  facet normal 0 0 1
    outer loop
      vertex 10.264787649424886 -2.3110953256330053 2.8
      vertex 10.524048777143138 -1.892374227344041 2.8
      vertex 10.729888917617423 -1.4449666647486124 2.8
    endloop
  endfacet
  facet normal 0 0 1
    outer loop
      vertex 8.782953423106155 -3.5806531654202485 2.8
      vertex 10.729888917617423 -1.4449666647486124 2.8
      vertex 10.879187744140038 0.9756548804335086 2.8
    endloop
  endfacet
  facet normal 0 0 1
    outer loop
      vertex 10.729888917617423 -1.4449666647486124 2.8
      vertex 10.879187744140038 -0.975654880433509 2.8
      vertex 10.969682038687743 -0.4915531626588567 2.8
    endloop
  endfacet
  facet normal 0 0 1
    outer loop
      vertex 10.729888917617423 -1.4449666647486124 2.8
      vertex 10.969682038687743 -0.4915531626588567 2.8
      vertex 10.879187744140038 0.9756548804335086 2.8
    endloop
  endfacet
  facet normal 0 0 -1
    outer loop
      vertex -3.923304870452868 0.4863460377779919 0
      vertex 3.8684291367285377 0.24591973919068813 0
      vertex 3.8684291367285377 -0.24591973919068813 0
    endloop
  endfacet
  facet normal 0 0 -1
    outer loop
      vertex -3.923304870452868 0.4863460377779919 0
      vertex 4.013401367961009 0.7159081695439711 0
      vertex 3.8684291367285377 0.24591973919068813 0
    endloop
  endfacet
  facet normal 0 0 -1
    outer loop
      vertex -4.1367060223786085 0.9294780958049763 0
      vertex 4.290464411480786 1.1222850173220171 0
      vertex 4.013401367961009 0.7159081695439711 0
    endloop
  endfacet
  facet normal 0 0 -1
    outer loop
      vertex -4.897187309795449 1.5359416852629368 0
      vertex 4.675 1.4289419162443235 0
      vertex 4.290464411480786 1.1222850173220171 0
    endloop
  endfacet
  facet normal 0 0 -1
    outer loop
      vertex -4.897187309795449 1.5359416852629368 0
      vertex 5.1328404589720815 1.608631055100009 0
      vertex 4.675 1.4289419162443235 0
    endloop
  endfacet
  facet normal 0 0 -1
    outer loop
      vertex -4.897187309795449 1.5359416852629368 0
      vertex 5.6233046544176 1.645386265348947 0
      vertex 5.1328404589720815 1.608631055100009 0
    endloop
  endfacet
  facet normal 0 0 -1
    outer loop
      vertex 6.876819765775319 3.9981028788534636 0
      vertex 5.6233046544176 1.645386265348947 0
      vertex -4.897187309795449 1.5359416852629368 0
    endloop
  endfacet
  facet normal 0 0 -1
    outer loop
      vertex 11 0 0
      vertex 6.8632939776213915 0.9294780958049763 0
      vertex 6.876819765775319 3.9981028788534636 0
    endloop
  endfacet
  facet normal 0 0 -1
    outer loop
      vertex 11 0 0
      vertex 7.15 0 0
      vertex 7.076695129547132 0.4863460377779919 0
    endloop
  endfacet
  facet normal 0 0 -1
    outer loop
      vertex 11 0 0
      vertex 7.076695129547132 0.4863460377779919 0
      vertex 6.8632939776213915 0.9294780958049763 0
    endloop
  endfacet
  facet normal 0 0 -1
    outer loop
      vertex 11 0 0
      vertex 10.729888917617423 1.4449666647486117 0
      vertex 10.969682038687743 0.49155316265885646 0
    endloop
  endfacet
  facet normal 0 0 -1
    outer loop
      vertex 10.969682038687743 0.49155316265885646 0
      vertex 10.729888917617423 1.4449666647486117 0
      vertex 10.879187744140038 0.9756548804335086 0
    endloop
  endfacet
  facet normal 0 0 -1
    outer loop
      vertex 11 0 0
      vertex 9.956035668882636 2.694782574586229 0
      vertex 10.729888917617423 1.4449666647486117 0
    endloop
  endfacet
  facet normal 0.9981033287370441 0.06156090613394213 1.8410420264869166e-19
    outer loop
      vertex 11 0 0
      vertex 10.969682038687743 0.49155316265885646 0
      vertex 10.969682038687743 0.49155316265885646 2.8
    endloop
  endfacet
  facet normal 0.9829730996839018 0.18374951781657 1.524933028335543e-19
    outer loop
      vertex 10.969682038687743 0.49155316265885646 0
      vertex 10.879187744140038 0.9756548804335086 0
      vertex 10.879187744140038 0.9756548804335086 2.8
    endloop
  endfacet
  facet normal 0.9529420004271559 0.3031526741130453 0
    outer loop
      vertex 10.879187744140038 0.9756548804335086 0
      vertex 10.729888917617423 1.4449666647486117 0
      vertex 10.879187744140038 0.9756548804335086 2.8
    endloop
  endfacet
  facet normal 0.908465271819524 0.41796034488678285 0
    outer loop
      vertex 10.729888917617423 1.4449666647486117 0
      vertex 10.524048777143138 1.8923742273440403 0
      vertex 10.729888917617423 1.4449666647486117 2.8
    endloop
  endfacet
  facet normal 0 0 -1
    outer loop
      vertex 6.876819765775319 3.9981028788534636 0
      vertex 6.8632939776213915 0.9294780958049763 0
      vertex 6.52875817306691 1.290021946072249 0
    endloop
  endfacet
  facet normal 0 0 -1
    outer loop
      vertex 6.876819765775319 3.9981028788534636 0
      vertex 6.52875817306691 1.290021946072249 0
      vertex 6.102812690204551 1.5359416852629368 0
    endloop
  endfacet
  facet normal 0 0 -1
    outer loop
      vertex 6.876819765775319 3.9981028788534636 0
      vertex 6.102812690204551 1.5359416852629368 0
      vertex 5.6233046544176 1.645386265348947 0
    endloop
  endfacet
  facet normal 0 0 -1
    outer loop
      vertex 6.876819765775319 3.9981028788534636 0
      vertex 7.369073437853208 3.982936705180138 0
      vertex 7.8557323328259905 3.9073932710384027 0
    endloop
  endfacet
  facet normal 0 0 -1
    outer loop
      vertex 6.876819765775319 3.9981028788534636 0
      vertex 7.8557323328259905 3.9073932710384027 0
      vertex 8.782953423106154 3.5806531654202494 0
    endloop
  endfacet
  facet normal 0 0 -1
    outer loop
      vertex 11 0 0
      vertex 6.876819765775319 3.9981028788534636 0
      vertex 9.956035668882636 2.694782574586229 0
    endloop
  endfacet
  facet normal 0 0 -1
    outer loop
      vertex 10.524048777143138 1.8923742273440403 0
      vertex 9.956035668882636 2.694782574586229 0
      vertex 10.264787649424887 2.3110953256330045 0
    endloop
  endfacet
  facet normal 0 0 -1
    outer loop
      vertex 10.729888917617423 1.4449666647486117 0
      vertex 9.956035668882636 2.694782574586229 0
      vertex 10.524048777143138 1.8923742273440403 0
    endloop
  endfacet
  facet normal 0 0 -1
    outer loop
      vertex 6.876819765775319 3.9981028788534636 0
      vertex 8.782953423106154 3.5806531654202494 0
      vertex 9.956035668882636 2.694782574586229 0
    endloop
  endfacet
  facet normal 0 0 -1
    outer loop
      vertex 9.956035668882636 2.694782574586229 0
      vertex 8.782953423106154 3.5806531654202494 0
      vertex 9.602473200816968 3.0376196666188284 0
    endloop
  endfacet
  facet normal 0 0 -1
    outer loop
      vertex 9.602473200816968 3.0376196666188284 0
      vertex 8.782953423106154 3.5806531654202494 0
      vertex 9.209459891842023 3.334409540884478 0
    endloop
  endfacet
  facet normal 0 0 -1
    outer loop
      vertex 7.8557323328259905 3.9073932710384027 0
      vertex 8.329419197918638 3.77261773788511 0
      vertex 8.782953423106154 3.5806531654202494 0
    endloop
  endfacet
  facet normal 0.03079505855617102 0.9995257197133659 0
    outer loop
      vertex 6.876819765775319 3.9981028788534636 0
      vertex 6.876819765775319 3.9981028788534636 2.8
      vertex 7.369073437853208 3.982936705180138 0
    endloop
  endfacet
  facet normal 0.153391654878685 0.9881654720812595 -4.372139345264599e-19
    outer loop
      vertex 7.369073437853208 3.982936705180138 0
      vertex 7.8557323328259905 3.9073932710384027 2.8
      vertex 7.8557323328259905 3.9073932710384027 0
    endloop
  endfacet
  facet normal 0.2736629900720837 0.9618256431728188 -2.663963810400213e-19
    outer loop
      vertex 7.8557323328259905 3.9073932710384027 0
      vertex 8.329419197918638 3.77261773788511 2.8
      vertex 8.329419197918638 3.77261773788511 0
    endloop
  endfacet
  facet normal 0.7790805745256698 0.6269238058941075 0
    outer loop
      vertex 10.264787649424887 2.3110953256330045 0
      vertex 9.956035668882636 2.694782574586229 0
      vertex 10.264787649424887 2.3110953256330045 2.8
    endloop
  endfacet
  facet normal 0.8502171357296149 0.5264321628773547 -3.903231293887068e-18
    outer loop
      vertex 10.524048777143138 1.8923742273440403 0
      vertex 10.264787649424887 2.3110953256330045 0
      vertex 10.264787649424887 2.3110953256330045 2.8
    endloop
  endfacet
  facet normal 0.6961339459629263 0.7179119230644422 1.8195085514705948e-18
    outer loop
      vertex 9.956035668882636 2.694782574586229 0
      vertex 9.602473200816968 3.0376196666188284 0
      vertex 9.602473200816968 3.0376196666188284 2.8
    endloop
  endfacet
  facet normal 0.6026346363792568 0.7980172272802392 -5.024589984163177e-18
    outer loop
      vertex 9.602473200816968 3.0376196666188284 0
      vertex 9.209459891842023 3.334409540884478 0
      vertex 9.209459891842023 3.334409540884478 2.8
    endloop
  endfacet
  facet normal 0.5000000000000006 0.8660254037844384 0
    outer loop
      vertex 9.209459891842023 3.334409540884478 0
      vertex 8.782953423106154 3.5806531654202494 0
      vertex 9.209459891842023 3.334409540884478 2.8
    endloop
  endfacet
  facet normal 0.38978587329267794 0.9209055179449543 2.277175020392139e-18
    outer loop
      vertex 8.782953423106154 3.5806531654202494 0
      vertex 8.329419197918638 3.77261773788511 0
      vertex 8.329419197918638 3.77261773788511 2.8
    endloop
  endfacet
  facet normal 0 0 1
    outer loop
      vertex -7.12318023422468 -3.9981028788534636 2.8
      vertex 4.290464411480786 1.1222850173220171 2.8
      vertex 6.876819765775319 3.9981028788534636 2.8
    endloop
  endfacet
  facet normal 0 1 0
    outer loop
      vertex -7.123180234224681 3.9981028788534636 2.8
      vertex 6.876819765775319 3.9981028788534636 2.8
      vertex 6.876819765775319 3.9981028788534636 0
    endloop
  endfacet
  facet normal 0 0 1
    outer loop
      vertex 6.876819765775319 3.9981028788534636 2.8
      vertex 4.290464411480786 1.1222850173220171 2.8
      vertex 4.675 1.4289419162443235 2.8
    endloop
  endfacet
  facet normal 0.9981033287370441 0.06156090613394213 0
    outer loop
      vertex 11 0 0
      vertex 10.969682038687743 0.49155316265885646 2.8
      vertex 11 0 2.8
    endloop
  endfacet
  facet normal 0.9829730996839018 0.18374951781657 0
    outer loop
      vertex 10.969682038687743 0.49155316265885646 0
      vertex 10.879187744140038 0.9756548804335086 2.8
      vertex 10.969682038687743 0.49155316265885646 2.8
    endloop
  endfacet
  facet normal 0.9529420004271559 0.3031526741130453 0
    outer loop
      vertex 10.729888917617423 1.4449666647486117 0
      vertex 10.729888917617423 1.4449666647486117 2.8
      vertex 10.879187744140038 0.9756548804335086 2.8
    endloop
  endfacet
  facet normal 0.908465271819524 0.41796034488678285 0
    outer loop
      vertex 10.524048777143138 1.8923742273440403 0
      vertex 10.524048777143138 1.8923742273440403 2.8
      vertex 10.729888917617423 1.4449666647486117 2.8
    endloop
  endfacet
  facet normal 0 0 1
    outer loop
      vertex 8.782953423106155 -3.5806531654202485 2.8
      vertex 6.876819765775319 3.9981028788534636 2.8
      vertex 7.15 0 2.8
    endloop
  endfacet
  facet normal 0 0 1
    outer loop
      vertex 6.876819765775319 3.9981028788534636 2.8
      vertex 7.076695129547132 0.4863460377779919 2.8
      vertex 7.15 0 2.8
    endloop
  endfacet
  facet normal 0 0 1
    outer loop
      vertex 6.876819765775319 3.9981028788534636 2.8
      vertex 6.8632939776213915 0.9294780958049763 2.8
      vertex 7.076695129547132 0.4863460377779919 2.8
    endloop
  endfacet
  facet normal 0 0 1
    outer loop
      vertex 8.782953423106155 -3.5806531654202485 2.8
      vertex 10.879187744140038 0.9756548804335086 2.8
      vertex 6.876819765775319 3.9981028788534636 2.8
    endloop
  endfacet
  facet normal 0 0 1
    outer loop
      vertex 10.969682038687743 -0.4915531626588567 2.8
      vertex 11 0 2.8
      vertex 10.969682038687743 0.49155316265885646 2.8
    endloop
  endfacet
  facet normal 0 0 1
    outer loop
      vertex 10.969682038687743 -0.4915531626588567 2.8
      vertex 10.969682038687743 0.49155316265885646 2.8
      vertex 10.879187744140038 0.9756548804335086 2.8
    endloop
  endfacet
  facet normal 0 0 1
    outer loop
      vertex 10.879187744140038 0.9756548804335086 2.8
      vertex 10.729888917617423 1.4449666647486117 2.8
      vertex 10.264787649424887 2.3110953256330045 2.8
    endloop
  endfacet
  facet normal 0 0 1
    outer loop
      vertex 10.729888917617423 1.4449666647486117 2.8
      vertex 10.524048777143138 1.8923742273440403 2.8
      vertex 10.264787649424887 2.3110953256330045 2.8
    endloop
  endfacet
  facet normal 0.03079505855617102 0.9995257197133659 0
    outer loop
      vertex 7.369073437853208 3.982936705180138 0
      vertex 6.876819765775319 3.9981028788534636 2.8
      vertex 7.369073437853208 3.982936705180138 2.8
    endloop
  endfacet
  facet normal 0.153391654878685 0.9881654720812595 0
    outer loop
      vertex 7.369073437853208 3.982936705180138 0
      vertex 7.369073437853208 3.982936705180138 2.8
      vertex 7.8557323328259905 3.9073932710384027 2.8
    endloop
  endfacet
  facet normal 0.2736629900720837 0.9618256431728188 0
    outer loop
      vertex 7.8557323328259905 3.9073932710384027 0
      vertex 7.8557323328259905 3.9073932710384027 2.8
      vertex 8.329419197918638 3.77261773788511 2.8
    endloop
  endfacet
  facet normal 0.8502171357296149 0.5264321628773547 0
    outer loop
      vertex 10.524048777143138 1.8923742273440403 0
      vertex 10.264787649424887 2.3110953256330045 2.8
      vertex 10.524048777143138 1.8923742273440403 2.8
    endloop
  endfacet
  facet normal 0.7790805745256698 0.6269238058941075 0
    outer loop
      vertex 9.956035668882636 2.694782574586229 0
      vertex 9.956035668882636 2.694782574586229 2.8
      vertex 10.264787649424887 2.3110953256330045 2.8
    endloop
  endfacet
  facet normal 0.6961339459629263 0.7179119230644422 0
    outer loop
      vertex 9.956035668882636 2.694782574586229 0
      vertex 9.602473200816968 3.0376196666188284 2.8
      vertex 9.956035668882636 2.694782574586229 2.8
    endloop
  endfacet
  facet normal 0.6026346363792568 0.7980172272802392 0
    outer loop
      vertex 9.602473200816968 3.0376196666188284 0
      vertex 9.209459891842023 3.334409540884478 2.8
      vertex 9.602473200816968 3.0376196666188284 2.8
    endloop
  endfacet
  facet normal 0.5000000000000006 0.8660254037844384 0
    outer loop
      vertex 8.782953423106154 3.5806531654202494 0
      vertex 8.782953423106154 3.5806531654202494 2.8
      vertex 9.209459891842023 3.334409540884478 2.8
    endloop
  endfacet
  facet normal 0.38978587329267794 0.9209055179449543 0
    outer loop
      vertex 8.782953423106154 3.5806531654202494 0
      vertex 8.329419197918638 3.77261773788511 2.8
      vertex 8.782953423106154 3.5806531654202494 2.8
    endloop
  endfacet
  facet normal 0 0 1
    outer loop
      vertex 6.876819765775319 3.9981028788534636 2.8
      vertex 4.675 1.4289419162443235 2.8
      vertex 5.1328404589720815 1.608631055100009 2.8
    endloop
  endfacet
  facet normal 0 0 1
    outer loop
      vertex 6.876819765775319 3.9981028788534636 2.8
      vertex 5.1328404589720815 1.608631055100009 2.8
      vertex 5.6233046544176 1.645386265348947 2.8
    endloop
  endfacet
  facet normal 0 0 1
    outer loop
      vertex 6.876819765775319 3.9981028788534636 2.8
      vertex 6.52875817306691 1.290021946072249 2.8
      vertex 6.8632939776213915 0.9294780958049763 2.8
    endloop
  endfacet
  facet normal 0 0 1
    outer loop
      vertex 6.876819765775319 3.9981028788534636 2.8
      vertex 6.102812690204551 1.5359416852629368 2.8
      vertex 6.52875817306691 1.290021946072249 2.8
    endloop
  endfacet
  facet normal 0 0 1
    outer loop
      vertex 6.876819765775319 3.9981028788534636 2.8
      vertex 5.6233046544176 1.645386265348947 2.8
      vertex 6.102812690204551 1.5359416852629368 2.8
    endloop
  endfacet
  facet normal 0 0 1
    outer loop
      vertex 6.876819765775319 3.9981028788534636 2.8
      vertex 7.8557323328259905 3.9073932710384027 2.8
      vertex 7.369073437853208 3.982936705180138 2.8
    endloop
  endfacet
  facet normal 0 0 1
    outer loop
      vertex 6.876819765775319 3.9981028788534636 2.8
      vertex 8.329419197918638 3.77261773788511 2.8
      vertex 7.8557323328259905 3.9073932710384027 2.8
    endloop
  endfacet
  facet normal 0 0 1
    outer loop
      vertex 10.879187744140038 0.9756548804335086 2.8
      vertex 9.602473200816968 3.0376196666188284 2.8
      vertex 6.876819765775319 3.9981028788534636 2.8
    endloop
  endfacet
  facet normal 0 0 1
    outer loop
      vertex 10.879187744140038 0.9756548804335086 2.8
      vertex 10.264787649424887 2.3110953256330045 2.8
      vertex 9.602473200816968 3.0376196666188284 2.8
    endloop
  endfacet
  facet normal 0 0 1
    outer loop
      vertex 10.264787649424887 2.3110953256330045 2.8
      vertex 9.956035668882636 2.694782574586229 2.8
      vertex 9.602473200816968 3.0376196666188284 2.8
    endloop
  endfacet
  facet normal 0 0 1
    outer loop
      vertex 9.602473200816968 3.0376196666188284 2.8
      vertex 9.209459891842023 3.334409540884478 2.8
      vertex 8.329419197918638 3.77261773788511 2.8
    endloop
  endfacet
  facet normal 0 0 1
    outer loop
      vertex 6.876819765775319 3.9981028788534636 2.8
      vertex 9.602473200816968 3.0376196666188284 2.8
      vertex 8.329419197918638 3.77261773788511 2.8
    endloop
  endfacet
  facet normal 0 0 1
    outer loop
      vertex 9.209459891842023 3.334409540884478 2.8
      vertex 8.782953423106154 3.5806531654202494 2.8
      vertex 8.329419197918638 3.77261773788511 2.8
    endloop
  endfacet
  facet normal 0.07473009358642349 0.9972037971811802 0
    outer loop
      vertex -5.8671595410279185 -1.6086310551000091 0
      vertex -5.8671595410279185 -1.6086310551000091 2.8
      vertex -5.3766953455824 -1.645386265348947 0
    endloop
  endfacet
  facet normal 0.623489801858733 0.7818314824680301 8.042072500511757e-19
    outer loop
      vertex -6.325 -1.4289419162443235 0
      vertex -6.709535588519214 -1.1222850173220171 0
      vertex -6.709535588519214 -1.1222850173220171 2.8
    endloop
  endfacet
  facet normal 0.36534102436639543 0.9308737486442041 0
    outer loop
      vertex -6.325 -1.4289419162443235 0
      vertex -6.325 -1.4289419162443235 2.8
      vertex -5.8671595410279185 -1.6086310551000091 0
    endloop
  endfacet
  facet normal 0.8262387743159958 0.5633200580636207 -1.093127705613312e-18
    outer loop
      vertex -6.709535588519214 -1.1222850173220171 0
      vertex -6.986598632038991 -0.7159081695439711 0
      vertex -6.986598632038991 -0.7159081695439711 2.8
    endloop
  endfacet
  facet normal 0.9555728057861402 0.29475517441090604 3.612248366309638e-18
    outer loop
      vertex -6.986598632038991 -0.7159081695439711 0
      vertex -7.131570863271462 -0.24591973919068813 0
      vertex -7.131570863271462 -0.24591973919068813 2.8
    endloop
  endfacet
  facet normal -0.22252093395631425 0.9749279121818236 0
    outer loop
      vertex -5.3766953455824 -1.645386265348947 0
      vertex -5.3766953455824 -1.645386265348947 2.8
      vertex -4.897187309795448 -1.5359416852629368 0
    endloop
  endfacet
  facet normal -0.5000000000000003 0.8660254037844385 0
    outer loop
      vertex -4.897187309795448 -1.5359416852629368 0
      vertex -4.897187309795448 -1.5359416852629368 2.8
      vertex -4.47124182693309 -1.2900219460722493 0
    endloop
  endfacet
  facet normal -0.7330518718298263 0.6801727377709195 0
    outer loop
      vertex -4.47124182693309 -1.2900219460722493 0
      vertex -4.47124182693309 -1.2900219460722493 2.8
      vertex -4.1367060223786085 -0.9294780958049762 0
    endloop
  endfacet
  facet normal -0.9009688679024188 0.4338837391175586 6.156905507056136e-19
    outer loop
      vertex -3.923304870452868 -0.48634603777799257 0
      vertex -4.1367060223786085 -0.9294780958049762 0
      vertex -4.1367060223786085 -0.9294780958049762 2.8
    endloop
  endfacet
  facet normal -0.9888308262251286 0.14904226617617433 0
    outer loop
      vertex -3.923304870452868 -0.48634603777799257 0
      vertex -3.923304870452868 -0.48634603777799257 2.8
      vertex -3.85 0 0
    endloop
  endfacet
  facet normal 0.36534102436639543 0.9308737486442041 0
    outer loop
      vertex -5.8671595410279185 -1.6086310551000091 0
      vertex -6.325 -1.4289419162443235 2.8
      vertex -5.8671595410279185 -1.6086310551000091 2.8
    endloop
  endfacet
  facet normal 0.07473009358642349 0.9972037971811802 0
    outer loop
      vertex -5.3766953455824 -1.645386265348947 0
      vertex -5.8671595410279185 -1.6086310551000091 2.8
      vertex -5.3766953455824 -1.645386265348947 2.8
    endloop
  endfacet
  facet normal 0.623489801858733 0.7818314824680301 0
    outer loop
      vertex -6.325 -1.4289419162443235 0
      vertex -6.709535588519214 -1.1222850173220171 2.8
      vertex -6.325 -1.4289419162443235 2.8
    endloop
  endfacet
  facet normal 0.9555728057861402 0.29475517441090604 0
    outer loop
      vertex -6.986598632038991 -0.7159081695439711 0
      vertex -7.131570863271462 -0.24591973919068813 2.8
      vertex -6.986598632038991 -0.7159081695439711 2.8
    endloop
  endfacet
  facet normal 1 0 0
    outer loop
      vertex -7.131570863271462 -0.24591973919068813 2.8
      vertex -7.131570863271462 -0.24591973919068813 0
      vertex -7.131570863271462 0.24591973919068813 2.8
    endloop
  endfacet
  facet normal 0.8262387743159958 0.5633200580636207 0
    outer loop
      vertex -6.709535588519214 -1.1222850173220171 0
      vertex -6.986598632038991 -0.7159081695439711 2.8
      vertex -6.709535588519214 -1.1222850173220171 2.8
    endloop
  endfacet
  facet normal -0.22252093395631425 0.9749279121818236 0
    outer loop
      vertex -4.897187309795448 -1.5359416852629368 0
      vertex -5.3766953455824 -1.645386265348947 2.8
      vertex -4.897187309795448 -1.5359416852629368 2.8
    endloop
  endfacet
  facet normal -0.5000000000000003 0.8660254037844385 0
    outer loop
      vertex -4.47124182693309 -1.2900219460722493 0
      vertex -4.897187309795448 -1.5359416852629368 2.8
      vertex -4.47124182693309 -1.2900219460722493 2.8
    endloop
  endfacet
  facet normal -0.7330518718298263 0.6801727377709195 0
    outer loop
      vertex -4.1367060223786085 -0.9294780958049762 0
      vertex -4.47124182693309 -1.2900219460722493 2.8
      vertex -4.1367060223786085 -0.9294780958049762 2.8
    endloop
  endfacet
  facet normal -0.9009688679024188 0.4338837391175586 0
    outer loop
      vertex -3.923304870452868 -0.48634603777799257 0
      vertex -4.1367060223786085 -0.9294780958049762 2.8
      vertex -3.923304870452868 -0.48634603777799257 2.8
    endloop
  endfacet
  facet normal -0.9888308262251286 0.14904226617617433 0
    outer loop
      vertex -3.85 0 0
      vertex -3.923304870452868 -0.48634603777799257 2.8
      vertex -3.85 0 2.8
    endloop
  endfacet
  facet normal 1 0 0
    outer loop
      vertex -7.131570863271462 -0.24591973919068813 0
      vertex -7.131570863271462 0.24591973919068813 0
      vertex -7.131570863271462 0.24591973919068813 2.8
    endloop
  endfacet
  facet normal 0.9555728057861402 -0.29475517441090604 0
    outer loop
      vertex -6.986598632038991 0.7159081695439711 2.8
      vertex -7.131570863271462 0.24591973919068813 0
      vertex -6.986598632038991 0.7159081695439711 0
    endloop
  endfacet
  facet normal 0.8262387743159958 -0.5633200580636207 0
    outer loop
      vertex -6.709535588519214 1.1222850173220171 2.8
      vertex -6.986598632038991 0.7159081695439711 0
      vertex -6.709535588519214 1.1222850173220171 0
    endloop
  endfacet
  facet normal 0.623489801858733 -0.7818314824680301 0
    outer loop
      vertex -6.325 1.4289419162443235 0
      vertex -6.325 1.4289419162443235 2.8
      vertex -6.709535588519214 1.1222850173220171 0
    endloop
  endfacet
  facet normal 0.3653410243663951 -0.9308737486442044 0
    outer loop
      vertex -5.8671595410279185 1.608631055100009 0
      vertex -5.8671595410279185 1.608631055100009 2.8
      vertex -6.325 1.4289419162443235 0
    endloop
  endfacet
  facet normal 0.07473009358642395 -0.9972037971811802 0
    outer loop
      vertex -5.3766953455824 1.645386265348947 0
      vertex -5.3766953455824 1.645386265348947 2.8
      vertex -5.8671595410279185 1.608631055100009 0
    endloop
  endfacet
  facet normal -0.9888308262251286 -0.14904226617617453 -8.279449719261085e-19
    outer loop
      vertex -3.923304870452868 0.4863460377779919 0
      vertex -3.85 0 0
      vertex -3.85 0 2.8
    endloop
  endfacet
  facet normal -0.9009688679024191 -0.433883739117558 0
    outer loop
      vertex -3.923304870452868 0.4863460377779919 2.8
      vertex -4.1367060223786085 0.9294780958049763 0
      vertex -3.923304870452868 0.4863460377779919 0
    endloop
  endfacet
  facet normal -0.733051871829826 -0.6801727377709198 0
    outer loop
      vertex -4.1367060223786085 0.9294780958049763 2.8
      vertex -4.47124182693309 1.290021946072249 0
      vertex -4.1367060223786085 0.9294780958049763 0
    endloop
  endfacet
  facet normal -0.49999999999999994 -0.8660254037844388 0
    outer loop
      vertex -4.47124182693309 1.290021946072249 2.8
      vertex -4.897187309795449 1.5359416852629368 0
      vertex -4.47124182693309 1.290021946072249 0
    endloop
  endfacet
  facet normal -0.22252093395631464 -0.9749279121818236 0
    outer loop
      vertex -4.897187309795449 1.5359416852629368 0
      vertex -4.897187309795449 1.5359416852629368 2.8
      vertex -5.3766953455824 1.645386265348947 0
    endloop
  endfacet
  facet normal 0.9555728057861402 -0.29475517441090604 -3.612248366309638e-18
    outer loop
      vertex -6.986598632038991 0.7159081695439711 2.8
      vertex -7.131570863271462 0.24591973919068813 2.8
      vertex -7.131570863271462 0.24591973919068813 0
    endloop
  endfacet
  facet normal 0.8262387743159958 -0.5633200580636207 1.093127705613312e-18
    outer loop
      vertex -6.709535588519214 1.1222850173220171 2.8
      vertex -6.986598632038991 0.7159081695439711 2.8
      vertex -6.986598632038991 0.7159081695439711 0
    endloop
  endfacet
  facet normal 0.623489801858733 -0.7818314824680301 0
    outer loop
      vertex -6.709535588519214 1.1222850173220171 2.8
      vertex -6.709535588519214 1.1222850173220171 0
      vertex -6.325 1.4289419162443235 2.8
    endloop
  endfacet
  facet normal 0.3653410243663951 -0.9308737486442044 0
    outer loop
      vertex -6.325 1.4289419162443235 0
      vertex -5.8671595410279185 1.608631055100009 2.8
      vertex -6.325 1.4289419162443235 2.8
    endloop
  endfacet
  facet normal 0.07473009358642395 -0.9972037971811802 0
    outer loop
      vertex -5.8671595410279185 1.608631055100009 0
      vertex -5.3766953455824 1.645386265348947 2.8
      vertex -5.8671595410279185 1.608631055100009 2.8
    endloop
  endfacet
  facet normal -0.9888308262251286 -0.14904226617617453 -8.279449719261085e-19
    outer loop
      vertex -3.85 0 2.8
      vertex -3.923304870452868 0.4863460377779919 2.8
      vertex -3.923304870452868 0.4863460377779919 0
    endloop
  endfacet
  facet normal -0.9009688679024191 -0.433883739117558 -1.1651269800890033e-19
    outer loop
      vertex -3.923304870452868 0.4863460377779919 2.8
      vertex -4.1367060223786085 0.9294780958049763 2.8
      vertex -4.1367060223786085 0.9294780958049763 0
    endloop
  endfacet
  facet normal -0.733051871829826 -0.6801727377709198 3.944635700584381e-18
    outer loop
      vertex -4.1367060223786085 0.9294780958049763 2.8
      vertex -4.47124182693309 1.290021946072249 2.8
      vertex -4.47124182693309 1.290021946072249 0
    endloop
  endfacet
  facet normal -0.49999999999999994 -0.8660254037844388 0
    outer loop
      vertex -4.897187309795449 1.5359416852629368 0
      vertex -4.47124182693309 1.290021946072249 2.8
      vertex -4.897187309795449 1.5359416852629368 2.8
    endloop
  endfacet
  facet normal -0.22252093395631464 -0.9749279121818236 0
    outer loop
      vertex -5.3766953455824 1.645386265348947 0
      vertex -4.897187309795449 1.5359416852629368 2.8
      vertex -5.3766953455824 1.645386265348947 2.8
    endloop
  endfacet
  facet normal 0.07473009358642349 0.9972037971811802 0
    outer loop
      vertex 5.1328404589720815 -1.6086310551000091 0
      vertex 5.1328404589720815 -1.6086310551000091 2.8
      vertex 5.6233046544176 -1.645386265348947 0
    endloop
  endfacet
  facet normal 0.623489801858733 0.7818314824680301 8.042072500511757e-19
    outer loop
      vertex 4.675 -1.4289419162443235 0
      vertex 4.290464411480786 -1.1222850173220171 0
      vertex 4.290464411480786 -1.1222850173220171 2.8
    endloop
  endfacet
  facet normal 0.36534102436639543 0.9308737486442041 0
    outer loop
      vertex 4.675 -1.4289419162443235 0
      vertex 4.675 -1.4289419162443235 2.8
      vertex 5.1328404589720815 -1.6086310551000091 0
    endloop
  endfacet
  facet normal 0.8262387743159958 0.5633200580636207 -1.093127705613312e-18
    outer loop
      vertex 4.290464411480786 -1.1222850173220171 0
      vertex 4.013401367961009 -0.7159081695439711 0
      vertex 4.013401367961009 -0.7159081695439711 2.8
    endloop
  endfacet
  facet normal 0.9555728057861402 0.29475517441090604 3.612248366309638e-18
    outer loop
      vertex 4.013401367961009 -0.7159081695439711 0
      vertex 3.8684291367285377 -0.24591973919068813 0
      vertex 3.8684291367285377 -0.24591973919068813 2.8
    endloop
  endfacet
  facet normal -0.22252093395631425 0.9749279121818236 0
    outer loop
      vertex 5.6233046544176 -1.645386265348947 0
      vertex 5.6233046544176 -1.645386265348947 2.8
      vertex 6.102812690204552 -1.5359416852629368 0
    endloop
  endfacet
  facet normal -0.5000000000000003 0.8660254037844385 0
    outer loop
      vertex 6.102812690204552 -1.5359416852629368 0
      vertex 6.102812690204552 -1.5359416852629368 2.8
      vertex 6.52875817306691 -1.2900219460722493 0
    endloop
  endfacet
  facet normal -0.7330518718298263 0.6801727377709195 0
    outer loop
      vertex 6.52875817306691 -1.2900219460722493 0
      vertex 6.52875817306691 -1.2900219460722493 2.8
      vertex 6.8632939776213915 -0.9294780958049762 0
    endloop
  endfacet
  facet normal -0.9009688679024188 0.4338837391175586 6.156905507056136e-19
    outer loop
      vertex 7.076695129547132 -0.48634603777799257 0
      vertex 6.8632939776213915 -0.9294780958049762 0
      vertex 6.8632939776213915 -0.9294780958049762 2.8
    endloop
  endfacet
  facet normal -0.9888308262251283 0.1490422661761752 0
    outer loop
      vertex 7.076695129547132 -0.48634603777799257 0
      vertex 7.076695129547132 -0.48634603777799257 2.8
      vertex 7.15 0 0
    endloop
  endfacet
  facet normal 0.36534102436639543 0.9308737486442041 0
    outer loop
      vertex 5.1328404589720815 -1.6086310551000091 0
      vertex 4.675 -1.4289419162443235 2.8
      vertex 5.1328404589720815 -1.6086310551000091 2.8
    endloop
  endfacet
  facet normal 0.07473009358642349 0.9972037971811802 0
    outer loop
      vertex 5.6233046544176 -1.645386265348947 0
      vertex 5.1328404589720815 -1.6086310551000091 2.8
      vertex 5.6233046544176 -1.645386265348947 2.8
    endloop
  endfacet
  facet normal 0.623489801858733 0.7818314824680301 0
    outer loop
      vertex 4.675 -1.4289419162443235 0
      vertex 4.290464411480786 -1.1222850173220171 2.8
      vertex 4.675 -1.4289419162443235 2.8
    endloop
  endfacet
  facet normal 0.9555728057861402 0.29475517441090604 0
    outer loop
      vertex 4.013401367961009 -0.7159081695439711 0
      vertex 3.8684291367285377 -0.24591973919068813 2.8
      vertex 4.013401367961009 -0.7159081695439711 2.8
    endloop
  endfacet
  facet normal 1 0 0
    outer loop
      vertex 3.8684291367285377 -0.24591973919068813 2.8
      vertex 3.8684291367285377 -0.24591973919068813 0
      vertex 3.8684291367285377 0.24591973919068813 2.8
    endloop
  endfacet
  facet normal 0.8262387743159958 0.5633200580636207 0
    outer loop
      vertex 4.290464411480786 -1.1222850173220171 0
      vertex 4.013401367961009 -0.7159081695439711 2.8
      vertex 4.290464411480786 -1.1222850173220171 2.8
    endloop
  endfacet
  facet normal -0.22252093395631425 0.9749279121818236 0
    outer loop
      vertex 6.102812690204552 -1.5359416852629368 0
      vertex 5.6233046544176 -1.645386265348947 2.8
      vertex 6.102812690204552 -1.5359416852629368 2.8
    endloop
  endfacet
  facet normal -0.5000000000000003 0.8660254037844385 0
    outer loop
      vertex 6.52875817306691 -1.2900219460722493 0
      vertex 6.102812690204552 -1.5359416852629368 2.8
      vertex 6.52875817306691 -1.2900219460722493 2.8
    endloop
  endfacet
  facet normal -0.7330518718298263 0.6801727377709195 0
    outer loop
      vertex 6.8632939776213915 -0.9294780958049762 0
      vertex 6.52875817306691 -1.2900219460722493 2.8
      vertex 6.8632939776213915 -0.9294780958049762 2.8
    endloop
  endfacet
  facet normal -0.9009688679024188 0.4338837391175586 0
    outer loop
      vertex 7.076695129547132 -0.48634603777799257 0
      vertex 6.8632939776213915 -0.9294780958049762 2.8
      vertex 7.076695129547132 -0.48634603777799257 2.8
    endloop
  endfacet
  facet normal -0.9888308262251283 0.1490422661761752 0
    outer loop
      vertex 7.15 0 0
      vertex 7.076695129547132 -0.48634603777799257 2.8
      vertex 7.15 0 2.8
    endloop
  endfacet
  facet normal 1 0 0
    outer loop
      vertex 3.8684291367285377 -0.24591973919068813 0
      vertex 3.8684291367285377 0.24591973919068813 0
      vertex 3.8684291367285377 0.24591973919068813 2.8
    endloop
  endfacet
  facet normal 0.9555728057861402 -0.29475517441090604 0
    outer loop
      vertex 4.013401367961009 0.7159081695439711 2.8
      vertex 3.8684291367285377 0.24591973919068813 0
      vertex 4.013401367961009 0.7159081695439711 0
    endloop
  endfacet
  facet normal 0.8262387743159958 -0.5633200580636207 0
    outer loop
      vertex 4.290464411480786 1.1222850173220171 2.8
      vertex 4.013401367961009 0.7159081695439711 0
      vertex 4.290464411480786 1.1222850173220171 0
    endloop
  endfacet
  facet normal 0.623489801858733 -0.7818314824680301 0
    outer loop
      vertex 4.675 1.4289419162443235 2.8
      vertex 4.290464411480786 1.1222850173220171 0
      vertex 4.675 1.4289419162443235 0
    endloop
  endfacet
  facet normal 0.3653410243663951 -0.9308737486442044 0
    outer loop
      vertex 5.1328404589720815 1.608631055100009 2.8
      vertex 4.675 1.4289419162443235 0
      vertex 5.1328404589720815 1.608631055100009 0
    endloop
  endfacet
  facet normal 0.07473009358642395 -0.9972037971811802 0
    outer loop
      vertex 5.6233046544176 1.645386265348947 2.8
      vertex 5.1328404589720815 1.608631055100009 0
      vertex 5.6233046544176 1.645386265348947 0
    endloop
  endfacet
  facet normal -0.9888308262251283 -0.1490422661761754 -1.46354477334744e-18
    outer loop
      vertex 7.076695129547132 0.4863460377779919 0
      vertex 7.15 0 0
      vertex 7.15 0 2.8
    endloop
  endfacet
  facet normal -0.9009688679024191 -0.433883739117558 0
    outer loop
      vertex 7.076695129547132 0.4863460377779919 2.8
      vertex 6.8632939776213915 0.9294780958049763 0
      vertex 7.076695129547132 0.4863460377779919 0
    endloop
  endfacet
  facet normal -0.733051871829826 -0.6801727377709198 0
    outer loop
      vertex 6.8632939776213915 0.9294780958049763 2.8
      vertex 6.52875817306691 1.290021946072249 0
      vertex 6.8632939776213915 0.9294780958049763 0
    endloop
  endfacet
  facet normal -0.49999999999999994 -0.8660254037844388 0
    outer loop
      vertex 6.52875817306691 1.290021946072249 2.8
      vertex 6.102812690204551 1.5359416852629368 0
      vertex 6.52875817306691 1.290021946072249 0
    endloop
  endfacet
  facet normal -0.22252093395631464 -0.9749279121818236 0
    outer loop
      vertex 6.102812690204551 1.5359416852629368 2.8
      vertex 5.6233046544176 1.645386265348947 0
      vertex 6.102812690204551 1.5359416852629368 0
    endloop
  endfacet
  facet normal 0.9555728057861402 -0.29475517441090604 -3.612248366309638e-18
    outer loop
      vertex 4.013401367961009 0.7159081695439711 2.8
      vertex 3.8684291367285377 0.24591973919068813 2.8
      vertex 3.8684291367285377 0.24591973919068813 0
    endloop
  endfacet
  facet normal 0.8262387743159958 -0.5633200580636207 1.093127705613312e-18
    outer loop
      vertex 4.290464411480786 1.1222850173220171 2.8
      vertex 4.013401367961009 0.7159081695439711 2.8
      vertex 4.013401367961009 0.7159081695439711 0
    endloop
  endfacet
  facet normal 0.623489801858733 -0.7818314824680301 0
    outer loop
      vertex 4.290464411480786 1.1222850173220171 2.8
      vertex 4.290464411480786 1.1222850173220171 0
      vertex 4.675 1.4289419162443235 2.8
    endloop
  endfacet
  facet normal 0.3653410243663951 -0.9308737486442044 0
    outer loop
      vertex 4.675 1.4289419162443235 2.8
      vertex 4.675 1.4289419162443235 0
      vertex 5.1328404589720815 1.608631055100009 2.8
    endloop
  endfacet
  facet normal 0.07473009358642395 -0.9972037971811802 0
    outer loop
      vertex 5.1328404589720815 1.608631055100009 2.8
      vertex 5.1328404589720815 1.608631055100009 0
      vertex 5.6233046544176 1.645386265348947 2.8
    endloop
  endfacet
  facet normal -0.9888308262251283 -0.1490422661761754 -1.46354477334744e-18
    outer loop
      vertex 7.15 0 2.8
      vertex 7.076695129547132 0.4863460377779919 2.8
      vertex 7.076695129547132 0.4863460377779919 0
    endloop
  endfacet
  facet normal -0.9009688679024191 -0.433883739117558 -1.1651269800890033e-19
    outer loop
      vertex 7.076695129547132 0.4863460377779919 2.8
      vertex 6.8632939776213915 0.9294780958049763 2.8
      vertex 6.8632939776213915 0.9294780958049763 0
    endloop
  endfacet
  facet normal -0.733051871829826 -0.6801727377709198 3.944635700584381e-18
    outer loop
      vertex 6.8632939776213915 0.9294780958049763 2.8
      vertex 6.52875817306691 1.290021946072249 2.8
      vertex 6.52875817306691 1.290021946072249 0
    endloop
  endfacet
  facet normal -0.49999999999999994 -0.8660254037844388 0
    outer loop
      vertex 6.102812690204551 1.5359416852629368 2.8
      vertex 6.102812690204551 1.5359416852629368 0
      vertex 6.52875817306691 1.290021946072249 2.8
    endloop
  endfacet
  facet normal -0.22252093395631464 -0.9749279121818236 0
    outer loop
      vertex 5.6233046544176 1.645386265348947 2.8
      vertex 5.6233046544176 1.645386265348947 0
      vertex 6.102812690204551 1.5359416852629368 2.8
    endloop
  endfacet
endsolid OpenSCAD_Model
